%TF.GenerationSoftware,KiCad,Pcbnew,9.0.1-1.fc42*%
%TF.CreationDate,2025-04-23T08:50:20-04:00*%
%TF.ProjectId,roversa2,726f7665-7273-4613-922e-6b696361645f,rev?*%
%TF.SameCoordinates,Original*%
%TF.FileFunction,Profile,NP*%
%FSLAX46Y46*%
G04 Gerber Fmt 4.6, Leading zero omitted, Abs format (unit mm)*
G04 Created by KiCad (PCBNEW 9.0.1-1.fc42) date 2025-04-23 08:50:20*
%MOMM*%
%LPD*%
G01*
G04 APERTURE LIST*
%TA.AperFunction,Profile*%
%ADD10C,0.100000*%
%TD*%
%ADD11C,0.100000*%
G04 APERTURE END LIST*
D10*
X63400000Y-33499999D02*
X66850000Y-33499999D01*
X63400000Y-25499999D02*
X63400000Y-33499999D01*
X63400000Y-117499999D02*
X66850000Y-117499999D01*
X132950000Y-65499999D02*
X132950000Y-85499999D01*
X61900001Y-149499999D02*
X63400000Y-149499999D01*
X132950000Y-117499999D02*
X132950000Y-137499999D01*
X136400000Y-39499999D02*
X136400000Y-45499999D01*
X60400000Y-27000000D02*
X60400000Y-147999998D01*
X115172540Y-25499999D02*
X132950000Y-25499999D01*
X132950000Y-39499999D02*
X132950000Y-45499999D01*
X66850000Y-25499999D02*
X84627427Y-25499999D01*
X139400000Y-147999999D02*
G75*
G02*
X137900000Y-149500000I-1500000J-1D01*
G01*
X136400000Y-85499999D02*
X132950000Y-85499999D01*
X66850000Y-91499999D02*
X66850000Y-97499999D01*
X63400000Y-85499999D02*
X66850000Y-85499999D01*
X66850000Y-149499999D02*
X132950000Y-149499999D01*
X136400000Y-97499999D02*
X132950000Y-97499999D01*
X60400000Y-27000000D02*
G75*
G02*
X61900001Y-25500000I1500000J0D01*
G01*
D11*
X99900000Y-32499999D02*
X99947660Y-32499959D01*
X99995306Y-32499839D01*
X100042938Y-32499639D01*
X100090554Y-32499360D01*
X100138154Y-32499000D01*
X100185738Y-32498560D01*
X100233305Y-32498041D01*
X100280856Y-32497442D01*
X100328388Y-32496763D01*
X100375902Y-32496005D01*
X100423398Y-32495167D01*
X100470874Y-32494249D01*
X100518330Y-32493252D01*
X100565767Y-32492175D01*
X100613182Y-32491018D01*
X100660576Y-32489783D01*
X100707948Y-32488467D01*
X100755298Y-32487073D01*
X100802625Y-32485599D01*
X100849929Y-32484045D01*
X100897209Y-32482413D01*
X100944464Y-32480701D01*
X100991695Y-32478911D01*
X101038900Y-32477041D01*
X101086079Y-32475092D01*
X101133232Y-32473065D01*
X101180357Y-32470958D01*
X101227455Y-32468773D01*
X101274525Y-32466509D01*
X101321566Y-32464166D01*
X101368578Y-32461744D01*
X101415560Y-32459244D01*
X101462513Y-32456666D01*
X101509434Y-32454009D01*
X101556324Y-32451274D01*
X101603182Y-32448461D01*
X101650008Y-32445570D01*
X101696801Y-32442600D01*
X101743560Y-32439552D01*
X101790286Y-32436427D01*
X101836977Y-32433224D01*
X101883633Y-32429943D01*
X101906949Y-32428273D01*
X101930253Y-32426584D01*
X101953551Y-32424876D01*
X101976837Y-32423148D01*
X102000117Y-32421401D01*
X102023384Y-32419634D01*
X102046645Y-32417848D01*
X102069895Y-32416043D01*
X102093137Y-32414219D01*
X102116367Y-32412375D01*
X102139590Y-32410512D01*
X102162801Y-32408629D01*
X102186004Y-32406728D01*
X102209196Y-32404807D01*
X102232380Y-32402867D01*
X102255552Y-32400907D01*
X102278715Y-32398928D01*
X102301867Y-32396931D01*
X102325011Y-32394914D01*
X102348142Y-32392878D01*
X102371265Y-32390822D01*
X102394376Y-32388748D01*
X102417479Y-32386654D01*
X102440569Y-32384541D01*
X102463650Y-32382409D01*
X102486719Y-32380258D01*
X102509779Y-32378088D01*
X102532826Y-32375899D01*
X102555865Y-32373691D01*
X102578890Y-32371464D01*
X102601907Y-32369217D01*
X102624911Y-32366952D01*
X102647905Y-32364668D01*
X102670887Y-32362365D01*
X102693859Y-32360042D01*
X102716818Y-32357701D01*
X102739767Y-32355341D01*
X102762703Y-32352962D01*
X102785629Y-32350564D01*
X102808543Y-32348147D01*
X102831445Y-32345712D01*
X102854335Y-32343257D01*
X102877215Y-32340784D01*
X102900081Y-32338291D01*
X102922937Y-32335780D01*
X102945779Y-32333250D01*
X102968611Y-32330702D01*
X102991429Y-32328134D01*
X103014236Y-32325548D01*
X103037030Y-32322943D01*
X103059812Y-32320320D01*
X103082581Y-32317678D01*
X103105339Y-32315017D01*
X103128083Y-32312337D01*
X103150815Y-32309639D01*
X103173534Y-32306922D01*
X103196241Y-32304186D01*
X103218934Y-32301432D01*
X103241615Y-32298659D01*
X103264283Y-32295868D01*
X103286938Y-32293058D01*
X103309579Y-32290230D01*
X103332208Y-32287383D01*
X103354823Y-32284518D01*
X103377425Y-32281634D01*
X103400014Y-32278732D01*
X103422589Y-32275811D01*
X103445151Y-32272872D01*
X103467699Y-32269915D01*
X103490233Y-32266939D01*
X103512754Y-32263945D01*
X103535261Y-32260932D01*
X103557754Y-32257902D01*
X103580233Y-32254852D01*
X103602698Y-32251785D01*
X103625149Y-32248699D01*
X103647586Y-32245595D01*
X103670009Y-32242473D01*
X103692417Y-32239333D01*
X103714811Y-32236174D01*
X103737191Y-32232998D01*
X103759556Y-32229803D01*
X103781907Y-32226590D01*
X103804243Y-32223359D01*
X103826564Y-32220110D01*
X103848871Y-32216843D01*
X103871163Y-32213558D01*
X103893440Y-32210254D01*
X103915702Y-32206933D01*
X103937949Y-32203594D01*
X103960180Y-32200237D01*
X103982397Y-32196862D01*
X104004598Y-32193469D01*
X104026785Y-32190058D01*
X104048955Y-32186629D01*
X104071111Y-32183182D01*
X104093251Y-32179718D01*
X104115375Y-32176236D01*
X104137484Y-32172736D01*
X104159577Y-32169218D01*
X104181654Y-32165682D01*
X104203715Y-32162129D01*
X104225761Y-32158558D01*
X104247790Y-32154970D01*
X104269803Y-32151364D01*
X104291801Y-32147740D01*
X104313782Y-32144098D01*
X104335747Y-32140439D01*
X104357695Y-32136763D01*
X104379628Y-32133068D01*
X104401543Y-32129357D01*
X104423443Y-32125628D01*
X104445325Y-32121881D01*
X104467192Y-32118117D01*
X104489041Y-32114336D01*
X104510874Y-32110537D01*
X104532689Y-32106721D01*
X104554488Y-32102887D01*
X104576269Y-32099037D01*
X104598035Y-32095168D01*
X104619782Y-32091283D01*
X104641513Y-32087380D01*
X104663225Y-32083461D01*
X104684922Y-32079523D01*
X104706600Y-32075569D01*
X104728261Y-32071598D01*
X104749904Y-32067610D01*
X104771531Y-32063604D01*
X104793138Y-32059581D01*
X104814730Y-32055542D01*
X104836302Y-32051485D01*
X104857858Y-32047411D01*
X104879394Y-32043321D01*
X104900914Y-32039213D01*
X104922414Y-32035089D01*
X104943898Y-32030947D01*
X104965362Y-32026789D01*
X104986810Y-32022614D01*
X105008237Y-32018422D01*
X105029648Y-32014213D01*
X105051038Y-32009988D01*
X105072412Y-32005745D01*
X105093766Y-32001487D01*
X105115103Y-31997211D01*
X105136419Y-31992919D01*
X105157718Y-31988610D01*
X105178997Y-31984285D01*
X105200259Y-31979943D01*
X105221499Y-31975584D01*
X105242723Y-31971209D01*
X105263926Y-31966818D01*
X105285111Y-31962409D01*
X105306276Y-31957985D01*
X105327423Y-31953544D01*
X105348549Y-31949087D01*
X105369657Y-31944613D01*
X105390744Y-31940124D01*
X105411814Y-31935617D01*
X105432861Y-31931095D01*
X105453892Y-31926556D01*
X105474900Y-31922002D01*
X105495891Y-31917430D01*
X105516860Y-31912843D01*
X105537811Y-31908240D01*
X105558740Y-31903621D01*
X105579652Y-31898985D01*
X105600540Y-31894334D01*
X105621412Y-31889666D01*
X105642260Y-31884983D01*
X105663091Y-31880283D01*
X105683899Y-31875568D01*
X105704689Y-31870836D01*
X105725456Y-31866090D01*
X105746205Y-31861326D01*
X105766931Y-31856548D01*
X105787639Y-31851753D01*
X105808323Y-31846943D01*
X105828990Y-31842117D01*
X105849633Y-31837276D01*
X105870258Y-31832418D01*
X105890859Y-31827545D01*
X105911443Y-31822657D01*
X105932002Y-31817753D01*
X105952543Y-31812833D01*
X105973059Y-31807898D01*
X105993558Y-31802947D01*
X106014032Y-31797982D01*
X106034489Y-31793000D01*
X106054920Y-31788004D01*
X106075333Y-31782991D01*
X106095722Y-31777964D01*
X106116092Y-31772921D01*
X106136437Y-31767864D01*
X106156764Y-31762790D01*
X106177066Y-31757703D01*
X106197350Y-31752599D01*
X106217608Y-31747480D01*
X106237847Y-31742346D01*
X106258062Y-31737198D01*
X106278257Y-31732034D01*
X106298427Y-31726856D01*
X106318579Y-31721661D01*
X106338704Y-31716453D01*
X106358812Y-31711229D01*
X106378893Y-31705991D01*
X106398955Y-31700738D01*
X106418991Y-31695470D01*
X106439009Y-31690187D01*
X106459000Y-31684890D01*
X106478972Y-31679577D01*
X106498918Y-31674251D01*
X106518845Y-31668909D01*
X106538746Y-31663553D01*
X106558627Y-31658182D01*
X106578482Y-31652797D01*
X106598318Y-31647397D01*
X106618126Y-31641983D01*
X106637916Y-31636554D01*
X106657679Y-31631111D01*
X106677422Y-31625653D01*
X106697139Y-31620182D01*
X106716836Y-31614696D01*
X106736506Y-31609196D01*
X106756156Y-31603681D01*
X106775779Y-31598152D01*
X106795383Y-31592609D01*
X106814959Y-31587052D01*
X106834515Y-31581481D01*
X106854044Y-31575896D01*
X106873553Y-31570296D01*
X106893035Y-31564683D01*
X106912497Y-31559055D01*
X106931930Y-31553415D01*
X106951345Y-31547759D01*
X106970731Y-31542091D01*
X106990097Y-31536407D01*
X107009435Y-31530711D01*
X107028753Y-31525000D01*
X107048043Y-31519277D01*
X107067313Y-31513539D01*
X107086554Y-31507788D01*
X107105776Y-31502022D01*
X107124968Y-31496244D01*
X107144141Y-31490451D01*
X107163285Y-31484646D01*
X107182409Y-31478826D01*
X107201504Y-31472995D01*
X107220579Y-31467148D01*
X107239624Y-31461289D01*
X107258650Y-31455416D01*
X107277646Y-31449530D01*
X107296623Y-31443630D01*
X107315569Y-31437719D01*
X107334496Y-31431792D01*
X107353393Y-31425854D01*
X107372270Y-31419901D01*
X107391116Y-31413937D01*
X107409943Y-31407958D01*
X107428740Y-31401967D01*
X107447517Y-31395962D01*
X107466263Y-31389946D01*
X107484990Y-31383915D01*
X107503685Y-31377873D01*
X107522361Y-31371817D01*
X107541006Y-31365749D01*
X107559631Y-31359667D01*
X107578226Y-31353574D01*
X107596800Y-31347466D01*
X107615343Y-31341347D01*
X107633866Y-31335215D01*
X107652358Y-31329071D01*
X107670830Y-31322913D01*
X107689271Y-31316744D01*
X107707691Y-31310561D01*
X107726080Y-31304367D01*
X107744449Y-31298159D01*
X107762786Y-31291941D01*
X107781103Y-31285708D01*
X107799389Y-31279465D01*
X107817654Y-31273208D01*
X107835887Y-31266940D01*
X107854100Y-31260659D01*
X107872281Y-31254367D01*
X107890442Y-31248061D01*
X107908571Y-31241745D01*
X107926679Y-31235415D01*
X107944755Y-31229075D01*
X107962811Y-31222721D01*
X107980835Y-31216357D01*
X107998838Y-31209979D01*
X108016808Y-31203591D01*
X108034758Y-31197190D01*
X108052676Y-31190779D01*
X108070573Y-31184354D01*
X108088438Y-31177919D01*
X108106281Y-31171470D01*
X108124093Y-31165013D01*
X108141883Y-31158541D01*
X108159641Y-31152060D01*
X108177378Y-31145565D01*
X108195082Y-31139061D01*
X108212765Y-31132543D01*
X108230415Y-31126016D01*
X108248045Y-31119476D01*
X108265641Y-31112926D01*
X108283217Y-31106363D01*
X108300759Y-31099791D01*
X108318281Y-31093205D01*
X108335769Y-31086611D01*
X108353236Y-31080003D01*
X108370670Y-31073386D01*
X108388083Y-31066756D01*
X108405462Y-31060117D01*
X108422821Y-31053465D01*
X108440146Y-31046804D01*
X108457450Y-31040130D01*
X108474720Y-31033447D01*
X108491969Y-31026751D01*
X108509184Y-31020047D01*
X108526378Y-31013330D01*
X108543538Y-31006604D01*
X108560677Y-30999865D01*
X108577783Y-30993118D01*
X108594867Y-30986358D01*
X108611917Y-30979590D01*
X108628945Y-30972808D01*
X108645940Y-30966019D01*
X108662913Y-30959217D01*
X108679852Y-30952406D01*
X108696770Y-30945583D01*
X108713654Y-30938752D01*
X108730516Y-30931909D01*
X108747344Y-30925057D01*
X108764150Y-30918193D01*
X108780922Y-30911321D01*
X108797673Y-30904436D01*
X108814389Y-30897544D01*
X108831083Y-30890639D01*
X108847743Y-30883727D01*
X108864382Y-30876802D01*
X108880986Y-30869869D01*
X108897568Y-30862924D01*
X108914116Y-30855972D01*
X108930642Y-30849007D01*
X108947133Y-30842036D01*
X108963603Y-30835051D01*
X108980038Y-30828060D01*
X108996451Y-30821056D01*
X109012829Y-30814045D01*
X109029186Y-30807022D01*
X109045507Y-30799992D01*
X109061807Y-30792950D01*
X109078072Y-30785901D01*
X109094315Y-30778839D01*
X109110523Y-30771771D01*
X109126709Y-30764691D01*
X109142860Y-30757604D01*
X109158989Y-30750505D01*
X109175083Y-30743400D01*
X109191155Y-30736282D01*
X109207192Y-30729158D01*
X109223207Y-30722022D01*
X109239186Y-30714880D01*
X109255144Y-30707726D01*
X109271066Y-30700566D01*
X109286967Y-30693393D01*
X109302832Y-30686215D01*
X109318675Y-30679024D01*
X109334482Y-30671828D01*
X109350268Y-30664620D01*
X109366018Y-30657406D01*
X109381746Y-30650180D01*
X109397438Y-30642949D01*
X109413108Y-30635705D01*
X109428743Y-30628456D01*
X109444355Y-30621196D01*
X109459932Y-30613929D01*
X109475487Y-30606651D01*
X109491006Y-30599368D01*
X109506503Y-30592073D01*
X109521963Y-30584773D01*
X109537402Y-30577460D01*
X109552805Y-30570143D01*
X109568186Y-30562815D01*
X109583531Y-30555481D01*
X109598854Y-30548135D01*
X109614141Y-30540785D01*
X109629406Y-30533423D01*
X109644635Y-30526056D01*
X109659841Y-30518678D01*
X109675012Y-30511295D01*
X109690160Y-30503900D01*
X109705272Y-30496501D01*
X109720362Y-30489091D01*
X109735416Y-30481676D01*
X109750448Y-30474249D01*
X109765443Y-30466819D01*
X109780416Y-30459376D01*
X109795353Y-30451930D01*
X109810268Y-30444472D01*
X109825147Y-30437010D01*
X109840003Y-30429537D01*
X109854823Y-30422060D01*
X109869621Y-30414571D01*
X109884382Y-30407079D01*
X109899121Y-30399575D01*
X109913824Y-30392067D01*
X109928504Y-30384549D01*
X109943148Y-30377026D01*
X109957770Y-30369493D01*
X109972355Y-30361955D01*
X109986918Y-30354407D01*
X110001445Y-30346855D01*
X110015949Y-30339292D01*
X110030417Y-30331726D01*
X110044862Y-30324148D01*
X110059271Y-30316568D01*
X110073658Y-30308976D01*
X110088008Y-30301381D01*
X110102336Y-30293775D01*
X110116627Y-30286166D01*
X110130896Y-30278546D01*
X110145128Y-30270924D01*
X110159338Y-30263290D01*
X110173511Y-30255653D01*
X110187662Y-30248006D01*
X110201776Y-30240355D01*
X110215868Y-30232694D01*
X110229924Y-30225031D01*
X110243957Y-30217356D01*
X110257953Y-30209679D01*
X110271927Y-30201991D01*
X110285864Y-30194301D01*
X110299779Y-30186600D01*
X110313657Y-30178896D01*
X110327513Y-30171182D01*
X110341332Y-30163466D01*
X110355129Y-30155739D01*
X110368889Y-30148010D01*
X110382627Y-30140270D01*
X110396328Y-30132529D01*
X110410006Y-30124776D01*
X110423648Y-30117022D01*
X110437268Y-30109257D01*
X110450850Y-30101491D01*
X110464411Y-30093714D01*
X110477934Y-30085935D01*
X110491435Y-30078146D01*
X110504900Y-30070355D01*
X110518342Y-30062553D01*
X110531747Y-30054750D01*
X110545130Y-30046937D01*
X110558476Y-30039122D01*
X110571800Y-30031297D01*
X110585087Y-30023471D01*
X110598352Y-30015634D01*
X110611580Y-30007796D01*
X110624785Y-29999948D01*
X110637954Y-29992098D01*
X110651101Y-29984239D01*
X110664210Y-29976378D01*
X110677298Y-29968507D01*
X110690348Y-29960635D01*
X110703376Y-29952753D01*
X110716368Y-29944870D01*
X110729337Y-29936977D01*
X110742269Y-29929084D01*
X110755179Y-29921180D01*
X110768052Y-29913275D01*
X110780903Y-29905361D01*
X110793717Y-29897445D01*
X110806509Y-29889520D01*
X110819264Y-29881595D01*
X110831997Y-29873659D01*
X110844693Y-29865723D01*
X110857367Y-29857777D01*
X110870004Y-29849831D01*
X110882618Y-29841874D01*
X110895196Y-29833918D01*
X110907752Y-29825952D01*
X110920271Y-29817985D01*
X110932768Y-29810009D01*
X110945228Y-29802033D01*
X110957666Y-29794047D01*
X110970067Y-29786061D01*
X110982446Y-29778065D01*
X110994788Y-29770069D01*
X111007108Y-29762064D01*
X111019391Y-29754059D01*
X111031652Y-29746044D01*
X111043877Y-29738030D01*
X111056079Y-29730006D01*
X111068245Y-29721982D01*
X111080388Y-29713949D01*
X111092495Y-29705916D01*
X111104580Y-29697874D01*
X111116628Y-29689832D01*
X111128654Y-29681781D01*
X111140643Y-29673730D01*
X111152610Y-29665670D01*
X111164541Y-29657610D01*
X111176449Y-29649541D01*
X111188322Y-29641473D01*
X111200171Y-29633396D01*
X111211985Y-29625319D01*
X111223776Y-29617234D01*
X111235531Y-29609148D01*
X111247264Y-29601054D01*
X111258960Y-29592961D01*
X111270635Y-29584859D01*
X111282273Y-29576757D01*
X111293888Y-29568647D01*
X111305468Y-29560537D01*
X111317025Y-29552419D01*
X111328546Y-29544301D01*
X111340045Y-29536175D01*
X111351508Y-29528050D01*
X111362949Y-29519916D01*
X111374354Y-29511783D01*
X111385736Y-29503641D01*
X111397082Y-29495500D01*
X111408406Y-29487351D01*
X111419695Y-29479203D01*
X111430961Y-29471046D01*
X111442191Y-29462891D01*
X111453399Y-29454727D01*
X111464571Y-29446564D01*
X111475720Y-29438393D01*
X111486834Y-29430223D01*
X111497926Y-29422045D01*
X111508982Y-29413868D01*
X111520016Y-29405683D01*
X111531014Y-29397500D01*
X111541990Y-29389307D01*
X111552931Y-29381117D01*
X111563849Y-29372918D01*
X111574731Y-29364721D01*
X111585592Y-29356515D01*
X111596417Y-29348312D01*
X111607219Y-29340100D01*
X111617987Y-29331889D01*
X111628732Y-29323671D01*
X111639441Y-29315454D01*
X111650129Y-29307230D01*
X111660781Y-29299007D01*
X111671411Y-29290776D01*
X111682006Y-29282547D01*
X111692578Y-29274309D01*
X111703116Y-29266074D01*
X111713631Y-29257831D01*
X111724111Y-29249590D01*
X111734569Y-29241341D01*
X111744992Y-29233094D01*
X111755392Y-29224839D01*
X111765758Y-29216587D01*
X111776102Y-29208326D01*
X111786410Y-29200068D01*
X111796697Y-29191802D01*
X111806948Y-29183538D01*
X111817178Y-29175266D01*
X111827373Y-29166997D01*
X111837545Y-29158720D01*
X111847683Y-29150445D01*
X111857799Y-29142163D01*
X111867880Y-29133883D01*
X111877939Y-29125595D01*
X111887963Y-29117310D01*
X111897965Y-29109017D01*
X111907933Y-29100727D01*
X111917879Y-29092429D01*
X111927790Y-29084134D01*
X111937679Y-29075831D01*
X111947534Y-29067531D01*
X111957366Y-29059224D01*
X111967165Y-29050919D01*
X111976941Y-29042607D01*
X111986683Y-29034297D01*
X111996403Y-29025980D01*
X112006089Y-29017666D01*
X112015753Y-29009344D01*
X112025383Y-29001026D01*
X112034990Y-28992700D01*
X112044564Y-28984377D01*
X112054116Y-28976046D01*
X112063633Y-28967719D01*
X112073129Y-28959384D01*
X112082591Y-28951053D01*
X112092031Y-28942714D01*
X112101437Y-28934378D01*
X112110822Y-28926035D01*
X112120172Y-28917695D01*
X112129501Y-28909348D01*
X112138795Y-28901004D01*
X112148068Y-28892653D01*
X112157308Y-28884306D01*
X112166525Y-28875951D01*
X112175709Y-28867599D01*
X112184871Y-28859240D01*
X112194000Y-28850885D01*
X112203107Y-28842523D01*
X112212180Y-28834164D01*
X112221232Y-28825798D01*
X112230250Y-28817435D01*
X112239247Y-28809066D01*
X112248210Y-28800700D01*
X112257151Y-28792327D01*
X112266060Y-28783957D01*
X112274946Y-28775581D01*
X112283800Y-28767208D01*
X112292632Y-28758828D01*
X112301430Y-28750452D01*
X112310208Y-28742070D01*
X112318952Y-28733690D01*
X112327674Y-28725304D01*
X112336364Y-28716922D01*
X112345032Y-28708533D01*
X112353667Y-28700147D01*
X112362280Y-28691755D01*
X112370861Y-28683367D01*
X112379420Y-28674972D01*
X112387947Y-28666581D01*
X112396452Y-28658183D01*
X112404924Y-28649789D01*
X112413375Y-28641388D01*
X112421794Y-28632991D01*
X112430191Y-28624588D01*
X112438555Y-28616189D01*
X112446898Y-28607782D01*
X112455209Y-28599380D01*
X112463498Y-28590972D01*
X112471755Y-28582567D01*
X112479990Y-28574156D01*
X112488194Y-28565749D01*
X112496375Y-28557336D01*
X112504525Y-28548926D01*
X112512654Y-28540510D01*
X112520750Y-28532098D01*
X112528825Y-28523680D01*
X112536868Y-28515266D01*
X112544890Y-28506846D01*
X112552880Y-28498429D01*
X112560848Y-28490007D01*
X112568785Y-28481588D01*
X112576700Y-28473164D01*
X112584584Y-28464743D01*
X112592447Y-28456316D01*
X112600278Y-28447894D01*
X112608087Y-28439465D01*
X112615865Y-28431040D01*
X112623622Y-28422610D01*
X112631348Y-28414183D01*
X112639052Y-28405751D01*
X112646725Y-28397323D01*
X112654377Y-28388888D01*
X112661997Y-28380458D01*
X112669596Y-28372022D01*
X112677165Y-28363590D01*
X112684712Y-28355152D01*
X112692228Y-28346719D01*
X112699722Y-28338279D01*
X112707186Y-28329844D01*
X112714629Y-28321403D01*
X112722041Y-28312967D01*
X112729432Y-28304524D01*
X112736792Y-28296086D01*
X112744130Y-28287642D01*
X112751439Y-28279202D01*
X112758726Y-28270757D01*
X112765982Y-28262316D01*
X112773218Y-28253869D01*
X112780423Y-28245427D01*
X112787607Y-28236978D01*
X112794760Y-28228535D01*
X112801893Y-28220085D01*
X112808995Y-28211640D01*
X112816076Y-28203190D01*
X112823127Y-28194744D01*
X112830157Y-28186292D01*
X112837157Y-28177844D01*
X112844136Y-28169391D01*
X112851085Y-28160943D01*
X112858012Y-28152489D01*
X112864910Y-28144039D01*
X112871787Y-28135584D01*
X112878635Y-28127134D01*
X112885461Y-28118677D01*
X112892257Y-28110226D01*
X112899033Y-28101769D01*
X112905779Y-28093316D01*
X112912504Y-28084858D01*
X112919200Y-28076405D01*
X112925874Y-28067946D01*
X112932520Y-28059492D01*
X112939144Y-28051032D01*
X112945739Y-28042577D01*
X112952313Y-28034116D01*
X112958858Y-28025661D01*
X112965383Y-28017199D01*
X112971878Y-28008743D01*
X112978352Y-28000281D01*
X112984797Y-27991823D01*
X112991221Y-27983361D01*
X112997617Y-27974903D01*
X113003991Y-27966439D01*
X113010337Y-27957981D01*
X113016662Y-27949517D01*
X113022958Y-27941058D01*
X113029233Y-27932593D01*
X113035480Y-27924133D01*
X113041706Y-27915668D01*
X113047904Y-27907208D01*
X113054081Y-27898742D01*
X113060229Y-27890282D01*
X113066356Y-27881815D01*
X113072456Y-27873354D01*
X113078534Y-27864888D01*
X113084585Y-27856426D01*
X113090614Y-27847959D01*
X113096616Y-27839497D01*
X113102596Y-27831029D01*
X113108549Y-27822567D01*
X113114481Y-27814099D01*
X113120385Y-27805636D01*
X113126268Y-27797168D01*
X113132124Y-27788705D01*
X113137959Y-27780236D01*
X113143766Y-27771773D01*
X113149552Y-27763304D01*
X113155311Y-27754840D01*
X113161050Y-27746371D01*
X113166760Y-27737907D01*
X113172450Y-27729438D01*
X113178113Y-27720974D01*
X113183755Y-27712504D01*
X113189370Y-27704040D01*
X113194964Y-27695570D01*
X113200531Y-27687106D01*
X113206077Y-27678636D01*
X113211596Y-27670171D01*
X113217094Y-27661701D01*
X113222566Y-27653236D01*
X113228017Y-27644766D01*
X113233441Y-27636301D01*
X113238844Y-27627830D01*
X113244221Y-27619365D01*
X113249577Y-27610895D01*
X113254906Y-27602429D01*
X113260214Y-27593959D01*
X113265497Y-27585493D01*
X113270758Y-27577023D01*
X113275993Y-27568557D01*
X113281207Y-27560087D01*
X113286395Y-27551621D01*
X113291563Y-27543151D01*
X113296704Y-27534685D01*
X113301825Y-27526214D01*
X113306919Y-27517749D01*
X113311993Y-27509278D01*
X113317041Y-27500812D01*
X113322068Y-27492342D01*
X113327069Y-27483876D01*
X113332050Y-27475405D01*
X113337005Y-27466940D01*
X113341939Y-27458469D01*
X113346847Y-27450003D01*
X113351735Y-27441533D01*
X113356598Y-27433067D01*
X113361439Y-27424597D01*
X113366255Y-27416131D01*
X113371051Y-27407660D01*
X113375821Y-27399195D01*
X113380571Y-27390724D01*
X113385295Y-27382259D01*
X113389999Y-27373788D01*
X113394677Y-27365323D01*
X113399335Y-27356853D01*
X113403967Y-27348387D01*
X113408580Y-27339917D01*
X113413167Y-27331451D01*
X113417733Y-27322981D01*
X113422275Y-27314516D01*
X113426796Y-27306046D01*
X113431292Y-27297580D01*
X113435768Y-27289110D01*
X113440219Y-27280645D01*
X113444649Y-27272175D01*
X113449055Y-27263710D01*
X113453440Y-27255240D01*
X113457800Y-27246774D01*
X113462141Y-27238305D01*
X113466456Y-27229840D01*
X113470751Y-27221370D01*
X113475022Y-27212905D01*
X113479272Y-27204435D01*
X113483498Y-27195970D01*
X113487703Y-27187500D01*
X113491884Y-27179035D01*
X113496045Y-27170566D01*
X113500181Y-27162101D01*
X113504298Y-27153631D01*
X113508390Y-27145166D01*
X113512461Y-27136697D01*
X113516509Y-27128232D01*
X113520536Y-27119763D01*
X113524539Y-27111298D01*
X113528522Y-27102829D01*
X113532481Y-27094364D01*
X113536420Y-27085895D01*
X113540334Y-27077430D01*
X113544229Y-27068960D01*
X113548099Y-27060495D01*
X113551950Y-27052026D01*
X113555777Y-27043561D01*
X113559583Y-27035092D01*
X113563366Y-27026627D01*
X113567129Y-27018158D01*
X113570868Y-27009693D01*
X113574587Y-27001224D01*
X113578282Y-26992759D01*
X113581957Y-26984290D01*
X113585609Y-26975825D01*
X113589241Y-26967355D01*
X113592849Y-26958890D01*
X113596437Y-26950421D01*
X113600002Y-26941956D01*
X113603546Y-26933486D01*
X113607068Y-26925021D01*
X113610569Y-26916552D01*
X113614047Y-26908086D01*
X113617505Y-26899617D01*
X113620940Y-26891151D01*
X113624355Y-26882681D01*
X113627747Y-26874216D01*
X113631119Y-26865746D01*
X113634468Y-26857280D01*
X113637796Y-26848810D01*
X113641102Y-26840344D01*
X113644388Y-26831874D01*
X113647651Y-26823408D01*
X113650894Y-26814938D01*
X113654114Y-26806471D01*
X113657315Y-26798001D01*
X113660492Y-26789534D01*
X113663650Y-26781063D01*
X113666785Y-26772596D01*
X113669900Y-26764125D01*
X113672992Y-26755658D01*
X113676065Y-26747187D01*
X113679114Y-26738719D01*
X113682144Y-26730248D01*
X113685152Y-26721780D01*
X113688140Y-26713308D01*
X113691105Y-26704840D01*
X113694050Y-26696368D01*
X113696973Y-26687899D01*
X113699876Y-26679427D01*
X113702757Y-26670958D01*
X113705618Y-26662485D01*
X113708456Y-26654016D01*
X113711275Y-26645543D01*
X113714072Y-26637073D01*
X113716849Y-26628599D01*
X113719603Y-26620129D01*
X113722338Y-26611655D01*
X113725051Y-26603184D01*
X113727744Y-26594709D01*
X113730415Y-26586238D01*
X113733066Y-26577763D01*
X113735695Y-26569291D01*
X113738304Y-26560815D01*
X113738427Y-26560415D01*
D10*
X132950000Y-91499999D02*
X132950000Y-97499999D01*
X136400000Y-143499999D02*
X136400000Y-149499999D01*
X63400000Y-137499999D02*
X66850000Y-137499999D01*
X66850000Y-25499999D02*
X66850000Y-33499999D01*
X63400000Y-39499999D02*
X63400000Y-45499999D01*
X136400000Y-39499999D02*
X132950000Y-39499999D01*
X136400000Y-117499999D02*
X136400000Y-137499999D01*
X136400000Y-45499999D02*
X132950000Y-45499999D01*
X63400000Y-91499999D02*
X63400000Y-97499999D01*
X63400000Y-117499999D02*
X63400000Y-137499999D01*
X63400000Y-143499999D02*
X66850000Y-143499999D01*
X136400000Y-25499999D02*
X136400000Y-33499999D01*
X136400000Y-25499999D02*
X137900000Y-25499999D01*
X63400000Y-65499999D02*
X63400000Y-85499999D01*
X136400000Y-143499999D02*
X132950000Y-143499999D01*
X132950000Y-25499999D02*
X132950000Y-33499999D01*
X139400000Y-26999999D02*
X139400000Y-147999999D01*
X63400000Y-45499999D02*
X66850000Y-45499999D01*
X132950000Y-143499999D02*
X132950000Y-149499999D01*
X136400000Y-91499999D02*
X136400000Y-97499999D01*
X137900000Y-25499999D02*
G75*
G02*
X139400001Y-26999999I0J-1500001D01*
G01*
X66850000Y-39499999D02*
X66850000Y-45499999D01*
X63400000Y-91499999D02*
X66850000Y-91499999D01*
X113738427Y-26560415D02*
G75*
G02*
X115172540Y-25500067I1434073J-439585D01*
G01*
X61900001Y-149499999D02*
G75*
G02*
X60400001Y-147999998I-1J1499999D01*
G01*
X136400000Y-65499999D02*
X132950000Y-65499999D01*
X136400000Y-117499999D02*
X132950000Y-117499999D01*
X136400000Y-65499999D02*
X136400000Y-85499999D01*
X66850000Y-65499999D02*
X66850000Y-85499999D01*
D11*
X86061573Y-26560415D02*
X86066805Y-26577349D01*
X86072121Y-26594282D01*
X86077520Y-26611214D01*
X86083003Y-26628144D01*
X86088569Y-26645074D01*
X86094220Y-26662002D01*
X86099954Y-26678930D01*
X86105773Y-26695856D01*
X86111676Y-26712782D01*
X86117663Y-26729707D01*
X86123735Y-26746632D01*
X86129891Y-26763555D01*
X86136133Y-26780478D01*
X86142459Y-26797400D01*
X86148871Y-26814322D01*
X86155368Y-26831243D01*
X86161951Y-26848164D01*
X86168619Y-26865084D01*
X86175373Y-26882004D01*
X86182213Y-26898924D01*
X86189139Y-26915843D01*
X86196151Y-26932762D01*
X86203250Y-26949680D01*
X86210436Y-26966599D01*
X86217708Y-26983517D01*
X86225068Y-27000434D01*
X86232514Y-27017352D01*
X86240048Y-27034270D01*
X86247670Y-27051187D01*
X86255379Y-27068104D01*
X86263176Y-27085022D01*
X86271061Y-27101939D01*
X86279034Y-27118856D01*
X86287096Y-27135773D01*
X86295246Y-27152690D01*
X86303485Y-27169607D01*
X86311813Y-27186524D01*
X86320231Y-27203441D01*
X86328737Y-27220358D01*
X86337333Y-27237275D01*
X86346019Y-27254193D01*
X86354795Y-27271110D01*
X86363661Y-27288027D01*
X86372618Y-27304944D01*
X86381665Y-27321862D01*
X86390802Y-27338779D01*
X86400031Y-27355696D01*
X86409351Y-27372614D01*
X86418762Y-27389531D01*
X86428265Y-27406449D01*
X86437859Y-27423366D01*
X86447546Y-27440284D01*
X86457324Y-27457201D01*
X86467195Y-27474118D01*
X86477159Y-27491036D01*
X86487215Y-27507953D01*
X86497365Y-27524870D01*
X86507607Y-27541787D01*
X86517944Y-27558704D01*
X86528373Y-27575621D01*
X86538897Y-27592538D01*
X86549515Y-27609454D01*
X86560227Y-27626370D01*
X86571033Y-27643286D01*
X86581935Y-27660201D01*
X86592931Y-27677116D01*
X86604022Y-27694031D01*
X86615209Y-27710945D01*
X86626491Y-27727859D01*
X86637870Y-27744772D01*
X86649344Y-27761685D01*
X86660915Y-27778597D01*
X86672582Y-27795509D01*
X86684346Y-27812420D01*
X86696206Y-27829330D01*
X86708164Y-27846239D01*
X86720220Y-27863147D01*
X86732373Y-27880055D01*
X86744623Y-27896962D01*
X86756972Y-27913867D01*
X86769419Y-27930771D01*
X86781965Y-27947675D01*
X86794609Y-27964577D01*
X86807353Y-27981477D01*
X86820195Y-27998377D01*
X86833137Y-28015275D01*
X86846179Y-28032171D01*
X86859320Y-28049066D01*
X86872562Y-28065960D01*
X86885904Y-28082851D01*
X86899346Y-28099741D01*
X86912889Y-28116629D01*
X86926533Y-28133515D01*
X86940279Y-28150398D01*
X86954126Y-28167280D01*
X86968074Y-28184160D01*
X86982124Y-28201037D01*
X86996277Y-28217912D01*
X87010532Y-28234784D01*
X87024889Y-28251654D01*
X87039349Y-28268521D01*
X87053912Y-28285385D01*
X87068579Y-28302246D01*
X87083349Y-28319104D01*
X87098222Y-28335960D01*
X87113199Y-28352812D01*
X87128281Y-28369660D01*
X87143467Y-28386506D01*
X87158757Y-28403347D01*
X87174152Y-28420185D01*
X87189652Y-28437020D01*
X87205258Y-28453850D01*
X87220968Y-28470677D01*
X87236785Y-28487499D01*
X87252707Y-28504317D01*
X87268735Y-28521131D01*
X87284870Y-28537940D01*
X87301111Y-28554745D01*
X87317459Y-28571545D01*
X87333913Y-28588340D01*
X87350475Y-28605130D01*
X87367144Y-28621915D01*
X87383921Y-28638694D01*
X87400805Y-28655468D01*
X87417797Y-28672237D01*
X87434898Y-28689000D01*
X87452107Y-28705757D01*
X87469424Y-28722508D01*
X87486850Y-28739253D01*
X87504385Y-28755992D01*
X87522029Y-28772724D01*
X87539783Y-28789449D01*
X87557646Y-28806168D01*
X87575618Y-28822880D01*
X87593701Y-28839585D01*
X87611894Y-28856283D01*
X87630197Y-28872973D01*
X87648611Y-28889656D01*
X87667135Y-28906331D01*
X87685770Y-28922998D01*
X87704516Y-28939657D01*
X87723374Y-28956308D01*
X87742342Y-28972951D01*
X87761423Y-28989585D01*
X87780615Y-29006210D01*
X87799919Y-29022826D01*
X87819335Y-29039433D01*
X87838863Y-29056031D01*
X87858504Y-29072620D01*
X87878258Y-29089199D01*
X87898124Y-29105768D01*
X87918103Y-29122327D01*
X87938196Y-29138876D01*
X87958401Y-29155414D01*
X87978720Y-29171942D01*
X87999153Y-29188459D01*
X88019699Y-29204965D01*
X88040359Y-29221460D01*
X88061133Y-29237944D01*
X88082022Y-29254416D01*
X88103024Y-29270876D01*
X88124142Y-29287324D01*
X88145373Y-29303761D01*
X88166720Y-29320184D01*
X88188181Y-29336595D01*
X88209757Y-29352994D01*
X88231449Y-29369379D01*
X88253256Y-29385751D01*
X88275178Y-29402110D01*
X88297215Y-29418455D01*
X88319369Y-29434786D01*
X88341638Y-29451103D01*
X88364023Y-29467406D01*
X88386523Y-29483694D01*
X88409140Y-29499968D01*
X88431874Y-29516226D01*
X88454723Y-29532470D01*
X88477689Y-29548698D01*
X88500771Y-29564910D01*
X88523970Y-29581106D01*
X88547286Y-29597286D01*
X88570719Y-29613450D01*
X88594268Y-29629597D01*
X88617934Y-29645728D01*
X88641718Y-29661841D01*
X88665618Y-29677937D01*
X88689636Y-29694016D01*
X88713771Y-29710076D01*
X88738023Y-29726119D01*
X88762393Y-29742143D01*
X88786880Y-29758149D01*
X88811485Y-29774136D01*
X88836208Y-29790104D01*
X88861048Y-29806053D01*
X88886006Y-29821982D01*
X88911081Y-29837892D01*
X88936275Y-29853781D01*
X88961586Y-29869651D01*
X88987015Y-29885499D01*
X89012562Y-29901327D01*
X89038227Y-29917134D01*
X89064010Y-29932919D01*
X89089911Y-29948683D01*
X89115930Y-29964425D01*
X89142068Y-29980145D01*
X89168323Y-29995843D01*
X89194696Y-30011518D01*
X89221188Y-30027170D01*
X89247797Y-30042799D01*
X89274525Y-30058404D01*
X89301371Y-30073986D01*
X89328335Y-30089544D01*
X89355417Y-30105077D01*
X89382618Y-30120587D01*
X89409936Y-30136071D01*
X89437372Y-30151530D01*
X89464927Y-30166964D01*
X89492599Y-30182372D01*
X89520390Y-30197754D01*
X89548298Y-30213111D01*
X89576325Y-30228440D01*
X89604469Y-30243743D01*
X89632731Y-30259019D01*
X89661111Y-30274268D01*
X89689609Y-30289489D01*
X89718224Y-30304682D01*
X89746957Y-30319847D01*
X89775808Y-30334984D01*
X89804776Y-30350092D01*
X89833862Y-30365171D01*
X89863065Y-30380221D01*
X89892385Y-30395241D01*
X89921823Y-30410231D01*
X89951378Y-30425191D01*
X89981049Y-30440121D01*
X90010838Y-30455019D01*
X90040744Y-30469887D01*
X90070766Y-30484724D01*
X90100905Y-30499529D01*
X90131161Y-30514302D01*
X90161533Y-30529042D01*
X90192021Y-30543751D01*
X90222626Y-30558426D01*
X90253346Y-30573068D01*
X90284183Y-30587677D01*
X90315136Y-30602253D01*
X90346204Y-30616794D01*
X90377388Y-30631301D01*
X90408687Y-30645774D01*
X90440101Y-30660211D01*
X90471631Y-30674614D01*
X90503276Y-30688981D01*
X90535035Y-30703312D01*
X90566909Y-30717607D01*
X90598898Y-30731866D01*
X90631001Y-30746088D01*
X90663218Y-30760274D01*
X90695549Y-30774421D01*
X90727994Y-30788532D01*
X90760552Y-30802604D01*
X90793224Y-30816639D01*
X90826009Y-30830635D01*
X90858907Y-30844592D01*
X90891918Y-30858510D01*
X90925042Y-30872388D01*
X90958278Y-30886227D01*
X90991626Y-30900026D01*
X91025086Y-30913785D01*
X91058658Y-30927503D01*
X91092342Y-30941181D01*
X91126137Y-30954817D01*
X91160042Y-30968411D01*
X91194059Y-30981964D01*
X91228187Y-30995475D01*
X91262424Y-31008943D01*
X91296772Y-31022369D01*
X91331230Y-31035752D01*
X91365797Y-31049091D01*
X91400474Y-31062387D01*
X91435260Y-31075639D01*
X91470154Y-31088847D01*
X91505158Y-31102010D01*
X91540269Y-31115128D01*
X91575489Y-31128202D01*
X91610816Y-31141230D01*
X91646250Y-31154212D01*
X91681792Y-31167149D01*
X91717441Y-31180039D01*
X91753196Y-31192882D01*
X91789057Y-31205679D01*
X91825025Y-31218428D01*
X91861097Y-31231130D01*
X91897276Y-31243784D01*
X91933559Y-31256390D01*
X91969947Y-31268948D01*
X92006440Y-31281457D01*
X92043036Y-31293917D01*
X92079736Y-31306328D01*
X92116540Y-31318690D01*
X92153446Y-31331001D01*
X92190455Y-31343263D01*
X92227567Y-31355474D01*
X92264781Y-31367634D01*
X92302096Y-31379744D01*
X92339513Y-31391802D01*
X92377030Y-31403809D01*
X92414648Y-31415763D01*
X92452367Y-31427666D01*
X92490185Y-31439516D01*
X92528103Y-31451314D01*
X92566119Y-31463058D01*
X92604235Y-31474749D01*
X92642449Y-31486387D01*
X92680760Y-31497971D01*
X92719170Y-31509501D01*
X92757676Y-31520976D01*
X92796280Y-31532397D01*
X92834980Y-31543762D01*
X92873775Y-31555073D01*
X92912667Y-31566328D01*
X92951653Y-31577527D01*
X92990734Y-31588670D01*
X93029910Y-31599757D01*
X93069179Y-31610787D01*
X93108542Y-31621761D01*
X93147999Y-31632677D01*
X93187547Y-31643536D01*
X93227188Y-31654337D01*
X93266921Y-31665080D01*
X93306746Y-31675765D01*
X93346661Y-31686392D01*
X93386666Y-31696960D01*
X93426762Y-31707468D01*
X93466948Y-31717918D01*
X93507222Y-31728308D01*
X93547585Y-31738638D01*
X93588037Y-31748909D01*
X93628576Y-31759119D01*
X93669203Y-31769268D01*
X93709916Y-31779357D01*
X93750716Y-31789384D01*
X93791602Y-31799351D01*
X93832574Y-31809255D01*
X93873630Y-31819098D01*
X93914771Y-31828879D01*
X93955996Y-31838598D01*
X93997305Y-31848254D01*
X94038697Y-31857847D01*
X94080171Y-31867378D01*
X94121728Y-31876845D01*
X94163366Y-31886248D01*
X94205085Y-31895588D01*
X94246886Y-31904864D01*
X94288766Y-31914076D01*
X94330726Y-31923223D01*
X94372765Y-31932306D01*
X94414883Y-31941324D01*
X94457079Y-31950276D01*
X94499353Y-31959164D01*
X94541704Y-31967986D01*
X94584132Y-31976742D01*
X94626636Y-31985432D01*
X94669215Y-31994055D01*
X94711870Y-32002613D01*
X94754599Y-32011103D01*
X94797403Y-32019527D01*
X94840280Y-32027884D01*
X94883230Y-32036173D01*
X94926253Y-32044395D01*
X94969348Y-32052549D01*
X95012514Y-32060636D01*
X95034125Y-32064653D01*
X95055751Y-32068654D01*
X95077397Y-32072637D01*
X95099059Y-32076604D01*
X95120740Y-32080553D01*
X95142437Y-32084485D01*
X95164153Y-32088400D01*
X95185884Y-32092297D01*
X95207635Y-32096178D01*
X95229401Y-32100041D01*
X95251185Y-32103887D01*
X95272985Y-32107715D01*
X95294803Y-32111527D01*
X95316637Y-32115320D01*
X95338489Y-32119097D01*
X95360357Y-32122856D01*
X95382243Y-32126598D01*
X95404144Y-32130322D01*
X95426062Y-32134029D01*
X95447996Y-32137718D01*
X95469948Y-32141390D01*
X95491915Y-32145044D01*
X95513899Y-32148681D01*
X95535898Y-32152299D01*
X95557914Y-32155901D01*
X95579946Y-32159485D01*
X95601995Y-32163051D01*
X95624058Y-32166599D01*
X95646139Y-32170130D01*
X95668234Y-32173643D01*
X95690346Y-32177138D01*
X95712473Y-32180616D01*
X95734616Y-32184075D01*
X95756774Y-32187517D01*
X95778948Y-32190941D01*
X95801137Y-32194347D01*
X95823342Y-32197735D01*
X95845562Y-32201106D01*
X95867797Y-32204458D01*
X95890047Y-32207793D01*
X95912313Y-32211109D01*
X95934593Y-32214408D01*
X95956888Y-32217688D01*
X95979198Y-32220951D01*
X96001523Y-32224195D01*
X96023863Y-32227421D01*
X96046217Y-32230630D01*
X96068586Y-32233820D01*
X96090969Y-32236992D01*
X96113367Y-32240146D01*
X96135779Y-32243281D01*
X96158206Y-32246399D01*
X96180647Y-32249498D01*
X96203102Y-32252579D01*
X96225571Y-32255642D01*
X96248054Y-32258686D01*
X96270551Y-32261712D01*
X96293062Y-32264720D01*
X96315587Y-32267710D01*
X96338126Y-32270681D01*
X96360678Y-32273634D01*
X96383244Y-32276568D01*
X96405823Y-32279484D01*
X96428416Y-32282382D01*
X96451022Y-32285261D01*
X96473642Y-32288121D01*
X96496275Y-32290963D01*
X96518922Y-32293787D01*
X96541581Y-32296592D01*
X96564254Y-32299379D01*
X96586939Y-32302147D01*
X96609638Y-32304896D01*
X96632349Y-32307627D01*
X96655073Y-32310340D01*
X96677810Y-32313033D01*
X96700559Y-32315708D01*
X96723321Y-32318364D01*
X96746096Y-32321002D01*
X96768883Y-32323621D01*
X96791683Y-32326221D01*
X96814494Y-32328803D01*
X96837319Y-32331366D01*
X96860154Y-32333910D01*
X96883003Y-32336435D01*
X96905863Y-32338941D01*
X96928736Y-32341429D01*
X96951620Y-32343898D01*
X96974516Y-32346348D01*
X96997423Y-32348779D01*
X97020344Y-32351191D01*
X97043274Y-32353584D01*
X97066217Y-32355958D01*
X97089171Y-32358314D01*
X97112137Y-32360650D01*
X97135114Y-32362968D01*
X97158102Y-32365267D01*
X97181101Y-32367546D01*
X97204113Y-32369807D01*
X97227133Y-32372048D01*
X97250167Y-32374271D01*
X97273210Y-32376474D01*
X97296265Y-32378659D01*
X97319330Y-32380824D01*
X97342406Y-32382971D01*
X97365492Y-32385098D01*
X97388590Y-32387206D01*
X97411697Y-32389295D01*
X97434816Y-32391365D01*
X97457944Y-32393415D01*
X97481084Y-32395447D01*
X97504232Y-32397459D01*
X97527393Y-32399452D01*
X97550561Y-32401426D01*
X97573742Y-32403381D01*
X97596930Y-32405316D01*
X97620131Y-32407232D01*
X97643339Y-32409129D01*
X97666559Y-32411007D01*
X97689786Y-32412865D01*
X97713026Y-32414704D01*
X97736273Y-32416524D01*
X97759531Y-32418324D01*
X97782797Y-32420105D01*
X97806074Y-32421867D01*
X97829358Y-32423610D01*
X97852654Y-32425333D01*
X97875957Y-32427036D01*
X97899271Y-32428720D01*
X97922592Y-32430385D01*
X97945924Y-32432031D01*
X97969263Y-32433656D01*
X97992612Y-32435263D01*
X98015968Y-32436850D01*
X98039336Y-32438418D01*
X98062709Y-32439966D01*
X98086093Y-32441494D01*
X98109484Y-32443004D01*
X98132885Y-32444493D01*
X98156292Y-32445963D01*
X98179710Y-32447414D01*
X98203134Y-32448845D01*
X98226568Y-32450256D01*
X98250008Y-32451648D01*
X98273458Y-32453021D01*
X98296914Y-32454373D01*
X98320380Y-32455707D01*
X98343851Y-32457020D01*
X98367333Y-32458314D01*
X98390820Y-32459589D01*
X98414317Y-32460843D01*
X98437818Y-32462079D01*
X98461331Y-32463294D01*
X98484847Y-32464490D01*
X98508374Y-32465666D01*
X98531905Y-32466823D01*
X98555446Y-32467959D01*
X98578992Y-32469076D01*
X98602547Y-32470174D01*
X98626107Y-32471252D01*
X98649676Y-32472310D01*
X98673250Y-32473348D01*
X98696833Y-32474367D01*
X98720420Y-32475365D01*
X98744016Y-32476345D01*
X98767616Y-32477304D01*
X98791226Y-32478243D01*
X98814839Y-32479163D01*
X98838462Y-32480063D01*
X98862087Y-32480944D01*
X98885723Y-32481804D01*
X98909361Y-32482645D01*
X98933009Y-32483466D01*
X98956659Y-32484267D01*
X98980319Y-32485048D01*
X99003981Y-32485809D01*
X99027653Y-32486551D01*
X99051326Y-32487273D01*
X99075010Y-32487975D01*
X99098695Y-32488657D01*
X99122390Y-32489319D01*
X99146086Y-32489961D01*
X99169792Y-32490584D01*
X99193499Y-32491186D01*
X99217216Y-32491769D01*
X99240934Y-32492332D01*
X99264661Y-32492875D01*
X99288389Y-32493398D01*
X99312126Y-32493901D01*
X99335865Y-32494384D01*
X99359612Y-32494848D01*
X99383360Y-32495291D01*
X99407118Y-32495715D01*
X99430875Y-32496118D01*
X99454642Y-32496502D01*
X99478409Y-32496865D01*
X99502186Y-32497209D01*
X99525962Y-32497533D01*
X99549747Y-32497837D01*
X99573532Y-32498121D01*
X99597326Y-32498385D01*
X99621120Y-32498629D01*
X99644922Y-32498853D01*
X99668724Y-32499057D01*
X99692535Y-32499241D01*
X99716345Y-32499405D01*
X99740163Y-32499549D01*
X99763981Y-32499673D01*
X99787808Y-32499777D01*
X99811633Y-32499862D01*
X99835467Y-32499926D01*
X99859300Y-32499970D01*
X99883141Y-32499994D01*
X99900000Y-32499999D01*
D10*
X63400000Y-65499999D02*
X66850000Y-65499999D01*
X63400000Y-143499999D02*
X63400000Y-149499999D01*
X63400000Y-97499999D02*
X66850000Y-97499999D01*
X136400000Y-137499999D02*
X132950000Y-137499999D01*
X66850000Y-143499999D02*
X66850000Y-149499999D01*
X63400000Y-39499999D02*
X66850000Y-39499999D01*
X136400000Y-91499999D02*
X132950000Y-91499999D01*
X61900001Y-25499999D02*
X63400000Y-25499999D01*
X84627427Y-25499999D02*
G75*
G02*
X86061546Y-26560423I-27J-1500001D01*
G01*
X136400000Y-149499999D02*
X137900000Y-149499999D01*
X66850000Y-117499999D02*
X66850000Y-137499999D01*
X136400000Y-33499999D02*
X132950000Y-33499999D01*
M02*
