M48
; DRILL file {KiCad 9.0.1-1.fc42} date 2025-04-23T08:50:12-0400
; FORMAT={-:-/ absolute / metric / decimal}
; #@! TF.CreationDate,2025-04-23T08:50:12-04:00
; #@! TF.GenerationSoftware,Kicad,Pcbnew,9.0.1-1.fc42
; #@! TF.FileFunction,Plated,1,2,PTH
FMAT,2
METRIC
; #@! TA.AperFunction,Plated,PTH,ViaDrill
T1C0.400
; #@! TA.AperFunction,Plated,PTH,ComponentDrill
T2C0.500
; #@! TA.AperFunction,Plated,PTH,ComponentDrill
T3C1.000
; #@! TA.AperFunction,Plated,PTH,ComponentDrill
T4C1.600
%
G90
G05
T1
X71.798Y-132.382
X73.808Y-123.816
X74.403Y-128.136
X77.138Y-113.796
X80.67Y-137.957
X82.677Y-75.819
X86.013Y-94.965
X86.441Y-130.944
X91.303Y-109.59
X91.312Y-131.305
X91.313Y-75.895
X92.812Y-75.921
X93.739Y-93.382
X93.934Y-141.161
X94.971Y-79.934
X99.11Y-95.238
X99.822Y-138.1
X100.914Y-102.063
X101.1Y-93.8
X101.534Y-143.661
X102.165Y-85.958
X102.667Y-75.921
X104.195Y-91.001
X104.242Y-75.921
X104.375Y-78.089
X104.932Y-142.256
X105.41Y-75.946
X105.44Y-81.409
X106.096Y-98.283
X106.807Y-75.946
X107.909Y-115.755
X108.15Y-140.071
X109.171Y-85.046
X109.882Y-78.869
X110.7Y-66.6
X111.704Y-76.041
X114.479Y-132.399
X114.884Y-75.971
X116.137Y-76.03
X116.2Y-128.067
X118.288Y-76.753
X119.837Y-142.392
X119.888Y-132.232
X122.2Y-123.6
X122.935Y-131.116
X126.251Y-132.156
X130.048Y-142.392
T3
X76.793Y-110.522
X79.333Y-110.522
X81.873Y-110.522
X83.373Y-135.972
X85.913Y-135.972
X88.453Y-135.972
X111.323Y-135.972
X113.863Y-135.972
X116.403Y-135.972
X117.843Y-110.522
X120.383Y-110.522
X122.923Y-110.522
T4
X86.873Y-67.172
X112.873Y-67.172
T2
G00X69.498Y-148.122
M15
G01X69.498Y-147.422
M16
G05
G00X72.873Y-64.862
M15
G01X72.873Y-66.162
M16
G05
G00X76.648Y-148.122
M15
G01X76.648Y-147.422
M16
G05
G00X126.873Y-64.862
M15
G01X126.873Y-66.162
M16
G05
M30
