%TF.GenerationSoftware,KiCad,Pcbnew,9.0.1-1.fc42*%
%TF.CreationDate,2025-04-23T08:50:20-04:00*%
%TF.ProjectId,roversa2,726f7665-7273-4613-922e-6b696361645f,rev?*%
%TF.SameCoordinates,Original*%
%TF.FileFunction,Legend,Bot*%
%TF.FilePolarity,Positive*%
%FSLAX46Y46*%
G04 Gerber Fmt 4.6, Leading zero omitted, Abs format (unit mm)*
G04 Created by KiCad (PCBNEW 9.0.1-1.fc42) date 2025-04-23 08:50:20*
%MOMM*%
%LPD*%
G01*
G04 APERTURE LIST*
%ADD10C,0.300000*%
%ADD11C,0.150000*%
%ADD12C,0.120000*%
%ADD13C,0.100000*%
G04 APERTURE END LIST*
D10*
X122611774Y-93368257D02*
X122754632Y-93296828D01*
X122754632Y-93296828D02*
X122968917Y-93296828D01*
X122968917Y-93296828D02*
X123183203Y-93368257D01*
X123183203Y-93368257D02*
X123326060Y-93511114D01*
X123326060Y-93511114D02*
X123397489Y-93653971D01*
X123397489Y-93653971D02*
X123468917Y-93939685D01*
X123468917Y-93939685D02*
X123468917Y-94153971D01*
X123468917Y-94153971D02*
X123397489Y-94439685D01*
X123397489Y-94439685D02*
X123326060Y-94582542D01*
X123326060Y-94582542D02*
X123183203Y-94725400D01*
X123183203Y-94725400D02*
X122968917Y-94796828D01*
X122968917Y-94796828D02*
X122826060Y-94796828D01*
X122826060Y-94796828D02*
X122611774Y-94725400D01*
X122611774Y-94725400D02*
X122540346Y-94653971D01*
X122540346Y-94653971D02*
X122540346Y-94153971D01*
X122540346Y-94153971D02*
X122826060Y-94153971D01*
X120968917Y-93296828D02*
X120468917Y-94796828D01*
X120468917Y-94796828D02*
X119968917Y-93296828D01*
X118397489Y-94725400D02*
X118183204Y-94796828D01*
X118183204Y-94796828D02*
X117826061Y-94796828D01*
X117826061Y-94796828D02*
X117683204Y-94725400D01*
X117683204Y-94725400D02*
X117611775Y-94653971D01*
X117611775Y-94653971D02*
X117540346Y-94511114D01*
X117540346Y-94511114D02*
X117540346Y-94368257D01*
X117540346Y-94368257D02*
X117611775Y-94225400D01*
X117611775Y-94225400D02*
X117683204Y-94153971D01*
X117683204Y-94153971D02*
X117826061Y-94082542D01*
X117826061Y-94082542D02*
X118111775Y-94011114D01*
X118111775Y-94011114D02*
X118254632Y-93939685D01*
X118254632Y-93939685D02*
X118326061Y-93868257D01*
X118326061Y-93868257D02*
X118397489Y-93725400D01*
X118397489Y-93725400D02*
X118397489Y-93582542D01*
X118397489Y-93582542D02*
X118326061Y-93439685D01*
X118326061Y-93439685D02*
X118254632Y-93368257D01*
X118254632Y-93368257D02*
X118111775Y-93296828D01*
X118111775Y-93296828D02*
X117754632Y-93296828D01*
X117754632Y-93296828D02*
X117540346Y-93368257D01*
X86495600Y-129468089D02*
X86495600Y-128325232D01*
X86495600Y-125325232D02*
X86495600Y-124182375D01*
X85924171Y-124753803D02*
X87067028Y-124753803D01*
D11*
X131781392Y-27399587D02*
X132114725Y-26923396D01*
X132352820Y-27399587D02*
X132352820Y-26399587D01*
X132352820Y-26399587D02*
X131971868Y-26399587D01*
X131971868Y-26399587D02*
X131876630Y-26447206D01*
X131876630Y-26447206D02*
X131829011Y-26494825D01*
X131829011Y-26494825D02*
X131781392Y-26590063D01*
X131781392Y-26590063D02*
X131781392Y-26732920D01*
X131781392Y-26732920D02*
X131829011Y-26828158D01*
X131829011Y-26828158D02*
X131876630Y-26875777D01*
X131876630Y-26875777D02*
X131971868Y-26923396D01*
X131971868Y-26923396D02*
X132352820Y-26923396D01*
X131209963Y-27399587D02*
X131305201Y-27351968D01*
X131305201Y-27351968D02*
X131352820Y-27304348D01*
X131352820Y-27304348D02*
X131400439Y-27209110D01*
X131400439Y-27209110D02*
X131400439Y-26923396D01*
X131400439Y-26923396D02*
X131352820Y-26828158D01*
X131352820Y-26828158D02*
X131305201Y-26780539D01*
X131305201Y-26780539D02*
X131209963Y-26732920D01*
X131209963Y-26732920D02*
X131067106Y-26732920D01*
X131067106Y-26732920D02*
X130971868Y-26780539D01*
X130971868Y-26780539D02*
X130924249Y-26828158D01*
X130924249Y-26828158D02*
X130876630Y-26923396D01*
X130876630Y-26923396D02*
X130876630Y-27209110D01*
X130876630Y-27209110D02*
X130924249Y-27304348D01*
X130924249Y-27304348D02*
X130971868Y-27351968D01*
X130971868Y-27351968D02*
X131067106Y-27399587D01*
X131067106Y-27399587D02*
X131209963Y-27399587D01*
X130543296Y-26732920D02*
X130305201Y-27399587D01*
X130305201Y-27399587D02*
X130067106Y-26732920D01*
X129305201Y-27351968D02*
X129400439Y-27399587D01*
X129400439Y-27399587D02*
X129590915Y-27399587D01*
X129590915Y-27399587D02*
X129686153Y-27351968D01*
X129686153Y-27351968D02*
X129733772Y-27256729D01*
X129733772Y-27256729D02*
X129733772Y-26875777D01*
X129733772Y-26875777D02*
X129686153Y-26780539D01*
X129686153Y-26780539D02*
X129590915Y-26732920D01*
X129590915Y-26732920D02*
X129400439Y-26732920D01*
X129400439Y-26732920D02*
X129305201Y-26780539D01*
X129305201Y-26780539D02*
X129257582Y-26875777D01*
X129257582Y-26875777D02*
X129257582Y-26971015D01*
X129257582Y-26971015D02*
X129733772Y-27066253D01*
X128829010Y-27399587D02*
X128829010Y-26732920D01*
X128829010Y-26923396D02*
X128781391Y-26828158D01*
X128781391Y-26828158D02*
X128733772Y-26780539D01*
X128733772Y-26780539D02*
X128638534Y-26732920D01*
X128638534Y-26732920D02*
X128543296Y-26732920D01*
X128257581Y-27351968D02*
X128162343Y-27399587D01*
X128162343Y-27399587D02*
X127971867Y-27399587D01*
X127971867Y-27399587D02*
X127876629Y-27351968D01*
X127876629Y-27351968D02*
X127829010Y-27256729D01*
X127829010Y-27256729D02*
X127829010Y-27209110D01*
X127829010Y-27209110D02*
X127876629Y-27113872D01*
X127876629Y-27113872D02*
X127971867Y-27066253D01*
X127971867Y-27066253D02*
X128114724Y-27066253D01*
X128114724Y-27066253D02*
X128209962Y-27018634D01*
X128209962Y-27018634D02*
X128257581Y-26923396D01*
X128257581Y-26923396D02*
X128257581Y-26875777D01*
X128257581Y-26875777D02*
X128209962Y-26780539D01*
X128209962Y-26780539D02*
X128114724Y-26732920D01*
X128114724Y-26732920D02*
X127971867Y-26732920D01*
X127971867Y-26732920D02*
X127876629Y-26780539D01*
X126971867Y-27399587D02*
X126971867Y-26875777D01*
X126971867Y-26875777D02*
X127019486Y-26780539D01*
X127019486Y-26780539D02*
X127114724Y-26732920D01*
X127114724Y-26732920D02*
X127305200Y-26732920D01*
X127305200Y-26732920D02*
X127400438Y-26780539D01*
X126971867Y-27351968D02*
X127067105Y-27399587D01*
X127067105Y-27399587D02*
X127305200Y-27399587D01*
X127305200Y-27399587D02*
X127400438Y-27351968D01*
X127400438Y-27351968D02*
X127448057Y-27256729D01*
X127448057Y-27256729D02*
X127448057Y-27161491D01*
X127448057Y-27161491D02*
X127400438Y-27066253D01*
X127400438Y-27066253D02*
X127305200Y-27018634D01*
X127305200Y-27018634D02*
X127067105Y-27018634D01*
X127067105Y-27018634D02*
X126971867Y-26971015D01*
X132352820Y-29009531D02*
X132352820Y-28342864D01*
X132352820Y-28533340D02*
X132305201Y-28438102D01*
X132305201Y-28438102D02*
X132257582Y-28390483D01*
X132257582Y-28390483D02*
X132162344Y-28342864D01*
X132162344Y-28342864D02*
X132067106Y-28342864D01*
X131352820Y-28961912D02*
X131448058Y-29009531D01*
X131448058Y-29009531D02*
X131638534Y-29009531D01*
X131638534Y-29009531D02*
X131733772Y-28961912D01*
X131733772Y-28961912D02*
X131781391Y-28866673D01*
X131781391Y-28866673D02*
X131781391Y-28485721D01*
X131781391Y-28485721D02*
X131733772Y-28390483D01*
X131733772Y-28390483D02*
X131638534Y-28342864D01*
X131638534Y-28342864D02*
X131448058Y-28342864D01*
X131448058Y-28342864D02*
X131352820Y-28390483D01*
X131352820Y-28390483D02*
X131305201Y-28485721D01*
X131305201Y-28485721D02*
X131305201Y-28580959D01*
X131305201Y-28580959D02*
X131781391Y-28676197D01*
X130971867Y-28342864D02*
X130733772Y-29009531D01*
X130733772Y-29009531D02*
X130495677Y-28342864D01*
X129400438Y-28104769D02*
X129352819Y-28057150D01*
X129352819Y-28057150D02*
X129257581Y-28009531D01*
X129257581Y-28009531D02*
X129019486Y-28009531D01*
X129019486Y-28009531D02*
X128924248Y-28057150D01*
X128924248Y-28057150D02*
X128876629Y-28104769D01*
X128876629Y-28104769D02*
X128829010Y-28200007D01*
X128829010Y-28200007D02*
X128829010Y-28295245D01*
X128829010Y-28295245D02*
X128876629Y-28438102D01*
X128876629Y-28438102D02*
X129448057Y-29009531D01*
X129448057Y-29009531D02*
X128829010Y-29009531D01*
X128400438Y-28914292D02*
X128352819Y-28961912D01*
X128352819Y-28961912D02*
X128400438Y-29009531D01*
X128400438Y-29009531D02*
X128448057Y-28961912D01*
X128448057Y-28961912D02*
X128400438Y-28914292D01*
X128400438Y-28914292D02*
X128400438Y-29009531D01*
X127400439Y-29009531D02*
X127971867Y-29009531D01*
X127686153Y-29009531D02*
X127686153Y-28009531D01*
X127686153Y-28009531D02*
X127781391Y-28152388D01*
X127781391Y-28152388D02*
X127876629Y-28247626D01*
X127876629Y-28247626D02*
X127971867Y-28295245D01*
X126971867Y-28914292D02*
X126924248Y-28961912D01*
X126924248Y-28961912D02*
X126971867Y-29009531D01*
X126971867Y-29009531D02*
X127019486Y-28961912D01*
X127019486Y-28961912D02*
X126971867Y-28914292D01*
X126971867Y-28914292D02*
X126971867Y-29009531D01*
X126067106Y-28342864D02*
X126067106Y-29009531D01*
X126305201Y-27961912D02*
X126543296Y-28676197D01*
X126543296Y-28676197D02*
X125924249Y-28676197D01*
X131924249Y-29952808D02*
X131924249Y-30619475D01*
X132162344Y-29571856D02*
X132400439Y-30286141D01*
X132400439Y-30286141D02*
X131781392Y-30286141D01*
X131400439Y-30524236D02*
X131352820Y-30571856D01*
X131352820Y-30571856D02*
X131400439Y-30619475D01*
X131400439Y-30619475D02*
X131448058Y-30571856D01*
X131448058Y-30571856D02*
X131400439Y-30524236D01*
X131400439Y-30524236D02*
X131400439Y-30619475D01*
X130971868Y-29714713D02*
X130924249Y-29667094D01*
X130924249Y-29667094D02*
X130829011Y-29619475D01*
X130829011Y-29619475D02*
X130590916Y-29619475D01*
X130590916Y-29619475D02*
X130495678Y-29667094D01*
X130495678Y-29667094D02*
X130448059Y-29714713D01*
X130448059Y-29714713D02*
X130400440Y-29809951D01*
X130400440Y-29809951D02*
X130400440Y-29905189D01*
X130400440Y-29905189D02*
X130448059Y-30048046D01*
X130448059Y-30048046D02*
X131019487Y-30619475D01*
X131019487Y-30619475D02*
X130400440Y-30619475D01*
X130067106Y-29619475D02*
X129448059Y-29619475D01*
X129448059Y-29619475D02*
X129781392Y-30000427D01*
X129781392Y-30000427D02*
X129638535Y-30000427D01*
X129638535Y-30000427D02*
X129543297Y-30048046D01*
X129543297Y-30048046D02*
X129495678Y-30095665D01*
X129495678Y-30095665D02*
X129448059Y-30190903D01*
X129448059Y-30190903D02*
X129448059Y-30428998D01*
X129448059Y-30428998D02*
X129495678Y-30524236D01*
X129495678Y-30524236D02*
X129543297Y-30571856D01*
X129543297Y-30571856D02*
X129638535Y-30619475D01*
X129638535Y-30619475D02*
X129924249Y-30619475D01*
X129924249Y-30619475D02*
X130019487Y-30571856D01*
X130019487Y-30571856D02*
X130067106Y-30524236D01*
X129019487Y-30524236D02*
X128971868Y-30571856D01*
X128971868Y-30571856D02*
X129019487Y-30619475D01*
X129019487Y-30619475D02*
X129067106Y-30571856D01*
X129067106Y-30571856D02*
X129019487Y-30524236D01*
X129019487Y-30524236D02*
X129019487Y-30619475D01*
X128590916Y-29714713D02*
X128543297Y-29667094D01*
X128543297Y-29667094D02*
X128448059Y-29619475D01*
X128448059Y-29619475D02*
X128209964Y-29619475D01*
X128209964Y-29619475D02*
X128114726Y-29667094D01*
X128114726Y-29667094D02*
X128067107Y-29714713D01*
X128067107Y-29714713D02*
X128019488Y-29809951D01*
X128019488Y-29809951D02*
X128019488Y-29905189D01*
X128019488Y-29905189D02*
X128067107Y-30048046D01*
X128067107Y-30048046D02*
X128638535Y-30619475D01*
X128638535Y-30619475D02*
X128019488Y-30619475D01*
X127114726Y-29619475D02*
X127590916Y-29619475D01*
X127590916Y-29619475D02*
X127638535Y-30095665D01*
X127638535Y-30095665D02*
X127590916Y-30048046D01*
X127590916Y-30048046D02*
X127495678Y-30000427D01*
X127495678Y-30000427D02*
X127257583Y-30000427D01*
X127257583Y-30000427D02*
X127162345Y-30048046D01*
X127162345Y-30048046D02*
X127114726Y-30095665D01*
X127114726Y-30095665D02*
X127067107Y-30190903D01*
X127067107Y-30190903D02*
X127067107Y-30428998D01*
X127067107Y-30428998D02*
X127114726Y-30524236D01*
X127114726Y-30524236D02*
X127162345Y-30571856D01*
X127162345Y-30571856D02*
X127257583Y-30619475D01*
X127257583Y-30619475D02*
X127495678Y-30619475D01*
X127495678Y-30619475D02*
X127590916Y-30571856D01*
X127590916Y-30571856D02*
X127638535Y-30524236D01*
X132352820Y-31705609D02*
X132019487Y-31705609D01*
X131876630Y-32229419D02*
X132352820Y-32229419D01*
X132352820Y-32229419D02*
X132352820Y-31229419D01*
X132352820Y-31229419D02*
X131876630Y-31229419D01*
X131448058Y-32229419D02*
X131448058Y-31562752D01*
X131448058Y-31753228D02*
X131400439Y-31657990D01*
X131400439Y-31657990D02*
X131352820Y-31610371D01*
X131352820Y-31610371D02*
X131257582Y-31562752D01*
X131257582Y-31562752D02*
X131162344Y-31562752D01*
X130829010Y-32229419D02*
X130829010Y-31562752D01*
X130829010Y-31229419D02*
X130876629Y-31277038D01*
X130876629Y-31277038D02*
X130829010Y-31324657D01*
X130829010Y-31324657D02*
X130781391Y-31277038D01*
X130781391Y-31277038D02*
X130829010Y-31229419D01*
X130829010Y-31229419D02*
X130829010Y-31324657D01*
X129924249Y-32181800D02*
X130019487Y-32229419D01*
X130019487Y-32229419D02*
X130209963Y-32229419D01*
X130209963Y-32229419D02*
X130305201Y-32181800D01*
X130305201Y-32181800D02*
X130352820Y-32134180D01*
X130352820Y-32134180D02*
X130400439Y-32038942D01*
X130400439Y-32038942D02*
X130400439Y-31753228D01*
X130400439Y-31753228D02*
X130352820Y-31657990D01*
X130352820Y-31657990D02*
X130305201Y-31610371D01*
X130305201Y-31610371D02*
X130209963Y-31562752D01*
X130209963Y-31562752D02*
X130019487Y-31562752D01*
X130019487Y-31562752D02*
X129924249Y-31610371D01*
X128400439Y-31705609D02*
X128257582Y-31753228D01*
X128257582Y-31753228D02*
X128209963Y-31800847D01*
X128209963Y-31800847D02*
X128162344Y-31896085D01*
X128162344Y-31896085D02*
X128162344Y-32038942D01*
X128162344Y-32038942D02*
X128209963Y-32134180D01*
X128209963Y-32134180D02*
X128257582Y-32181800D01*
X128257582Y-32181800D02*
X128352820Y-32229419D01*
X128352820Y-32229419D02*
X128733772Y-32229419D01*
X128733772Y-32229419D02*
X128733772Y-31229419D01*
X128733772Y-31229419D02*
X128400439Y-31229419D01*
X128400439Y-31229419D02*
X128305201Y-31277038D01*
X128305201Y-31277038D02*
X128257582Y-31324657D01*
X128257582Y-31324657D02*
X128209963Y-31419895D01*
X128209963Y-31419895D02*
X128209963Y-31515133D01*
X128209963Y-31515133D02*
X128257582Y-31610371D01*
X128257582Y-31610371D02*
X128305201Y-31657990D01*
X128305201Y-31657990D02*
X128400439Y-31705609D01*
X128400439Y-31705609D02*
X128733772Y-31705609D01*
X127733772Y-32229419D02*
X127733772Y-31562752D01*
X127733772Y-31753228D02*
X127686153Y-31657990D01*
X127686153Y-31657990D02*
X127638534Y-31610371D01*
X127638534Y-31610371D02*
X127543296Y-31562752D01*
X127543296Y-31562752D02*
X127448058Y-31562752D01*
X126733772Y-32181800D02*
X126829010Y-32229419D01*
X126829010Y-32229419D02*
X127019486Y-32229419D01*
X127019486Y-32229419D02*
X127114724Y-32181800D01*
X127114724Y-32181800D02*
X127162343Y-32086561D01*
X127162343Y-32086561D02*
X127162343Y-31705609D01*
X127162343Y-31705609D02*
X127114724Y-31610371D01*
X127114724Y-31610371D02*
X127019486Y-31562752D01*
X127019486Y-31562752D02*
X126829010Y-31562752D01*
X126829010Y-31562752D02*
X126733772Y-31610371D01*
X126733772Y-31610371D02*
X126686153Y-31705609D01*
X126686153Y-31705609D02*
X126686153Y-31800847D01*
X126686153Y-31800847D02*
X127162343Y-31896085D01*
X125829010Y-32229419D02*
X125829010Y-31229419D01*
X125829010Y-32181800D02*
X125924248Y-32229419D01*
X125924248Y-32229419D02*
X126114724Y-32229419D01*
X126114724Y-32229419D02*
X126209962Y-32181800D01*
X126209962Y-32181800D02*
X126257581Y-32134180D01*
X126257581Y-32134180D02*
X126305200Y-32038942D01*
X126305200Y-32038942D02*
X126305200Y-31753228D01*
X126305200Y-31753228D02*
X126257581Y-31657990D01*
X126257581Y-31657990D02*
X126209962Y-31610371D01*
X126209962Y-31610371D02*
X126114724Y-31562752D01*
X126114724Y-31562752D02*
X125924248Y-31562752D01*
X125924248Y-31562752D02*
X125829010Y-31610371D01*
X124924248Y-32229419D02*
X124924248Y-31229419D01*
X124924248Y-32181800D02*
X125019486Y-32229419D01*
X125019486Y-32229419D02*
X125209962Y-32229419D01*
X125209962Y-32229419D02*
X125305200Y-32181800D01*
X125305200Y-32181800D02*
X125352819Y-32134180D01*
X125352819Y-32134180D02*
X125400438Y-32038942D01*
X125400438Y-32038942D02*
X125400438Y-31753228D01*
X125400438Y-31753228D02*
X125352819Y-31657990D01*
X125352819Y-31657990D02*
X125305200Y-31610371D01*
X125305200Y-31610371D02*
X125209962Y-31562752D01*
X125209962Y-31562752D02*
X125019486Y-31562752D01*
X125019486Y-31562752D02*
X124924248Y-31610371D01*
X124067105Y-32181800D02*
X124162343Y-32229419D01*
X124162343Y-32229419D02*
X124352819Y-32229419D01*
X124352819Y-32229419D02*
X124448057Y-32181800D01*
X124448057Y-32181800D02*
X124495676Y-32086561D01*
X124495676Y-32086561D02*
X124495676Y-31705609D01*
X124495676Y-31705609D02*
X124448057Y-31610371D01*
X124448057Y-31610371D02*
X124352819Y-31562752D01*
X124352819Y-31562752D02*
X124162343Y-31562752D01*
X124162343Y-31562752D02*
X124067105Y-31610371D01*
X124067105Y-31610371D02*
X124019486Y-31705609D01*
X124019486Y-31705609D02*
X124019486Y-31800847D01*
X124019486Y-31800847D02*
X124495676Y-31896085D01*
X123590914Y-32229419D02*
X123590914Y-31562752D01*
X123590914Y-31753228D02*
X123543295Y-31657990D01*
X123543295Y-31657990D02*
X123495676Y-31610371D01*
X123495676Y-31610371D02*
X123400438Y-31562752D01*
X123400438Y-31562752D02*
X123305200Y-31562752D01*
D10*
X81631774Y-93368257D02*
X81774632Y-93296828D01*
X81774632Y-93296828D02*
X81988917Y-93296828D01*
X81988917Y-93296828D02*
X82203203Y-93368257D01*
X82203203Y-93368257D02*
X82346060Y-93511114D01*
X82346060Y-93511114D02*
X82417489Y-93653971D01*
X82417489Y-93653971D02*
X82488917Y-93939685D01*
X82488917Y-93939685D02*
X82488917Y-94153971D01*
X82488917Y-94153971D02*
X82417489Y-94439685D01*
X82417489Y-94439685D02*
X82346060Y-94582542D01*
X82346060Y-94582542D02*
X82203203Y-94725400D01*
X82203203Y-94725400D02*
X81988917Y-94796828D01*
X81988917Y-94796828D02*
X81846060Y-94796828D01*
X81846060Y-94796828D02*
X81631774Y-94725400D01*
X81631774Y-94725400D02*
X81560346Y-94653971D01*
X81560346Y-94653971D02*
X81560346Y-94153971D01*
X81560346Y-94153971D02*
X81846060Y-94153971D01*
X79988917Y-93296828D02*
X79488917Y-94796828D01*
X79488917Y-94796828D02*
X78988917Y-93296828D01*
X77417489Y-94725400D02*
X77203204Y-94796828D01*
X77203204Y-94796828D02*
X76846061Y-94796828D01*
X76846061Y-94796828D02*
X76703204Y-94725400D01*
X76703204Y-94725400D02*
X76631775Y-94653971D01*
X76631775Y-94653971D02*
X76560346Y-94511114D01*
X76560346Y-94511114D02*
X76560346Y-94368257D01*
X76560346Y-94368257D02*
X76631775Y-94225400D01*
X76631775Y-94225400D02*
X76703204Y-94153971D01*
X76703204Y-94153971D02*
X76846061Y-94082542D01*
X76846061Y-94082542D02*
X77131775Y-94011114D01*
X77131775Y-94011114D02*
X77274632Y-93939685D01*
X77274632Y-93939685D02*
X77346061Y-93868257D01*
X77346061Y-93868257D02*
X77417489Y-93725400D01*
X77417489Y-93725400D02*
X77417489Y-93582542D01*
X77417489Y-93582542D02*
X77346061Y-93439685D01*
X77346061Y-93439685D02*
X77274632Y-93368257D01*
X77274632Y-93368257D02*
X77131775Y-93296828D01*
X77131775Y-93296828D02*
X76774632Y-93296828D01*
X76774632Y-93296828D02*
X76560346Y-93368257D01*
D12*
%TO.C,R9*%
X112675936Y-78878000D02*
X113130064Y-78878000D01*
X112675936Y-80348000D02*
X113130064Y-80348000D01*
%TO.C,J4*%
D13*
X107372800Y-144594000D02*
X100972800Y-144594000D01*
X100972800Y-148544000D01*
X107372800Y-148544000D01*
X107372800Y-144594000D01*
D12*
%TO.C,J7*%
X116512800Y-106421900D02*
X124252800Y-106421900D01*
X116512800Y-109081900D02*
X116512800Y-106421900D01*
X117462800Y-100421900D02*
X117462800Y-106421900D01*
X117462800Y-109478971D02*
X117462800Y-109081900D01*
X118222800Y-100421900D02*
X117462800Y-100421900D01*
X118222800Y-106421900D02*
X118222800Y-100421900D01*
X118222800Y-109478971D02*
X118222800Y-109081900D01*
X119112800Y-109081900D02*
X119112800Y-106421900D01*
X120002800Y-100421900D02*
X120002800Y-106421900D01*
X120002800Y-109478971D02*
X120002800Y-109081900D01*
X120762800Y-100421900D02*
X120002800Y-100421900D01*
X120762800Y-106421900D02*
X120762800Y-100421900D01*
X120762800Y-109478971D02*
X120762800Y-109081900D01*
X121652800Y-109081900D02*
X121652800Y-106421900D01*
X122542800Y-100421900D02*
X122542800Y-106421900D01*
X122542800Y-109411900D02*
X122542800Y-109081900D01*
X122642800Y-106421900D02*
X122642800Y-100421900D01*
X122762800Y-106421900D02*
X122762800Y-100421900D01*
X122882800Y-106421900D02*
X122882800Y-100421900D01*
X122922800Y-111791900D02*
X124192800Y-111791900D01*
X123002800Y-106421900D02*
X123002800Y-100421900D01*
X123122800Y-106421900D02*
X123122800Y-100421900D01*
X123242800Y-106421900D02*
X123242800Y-100421900D01*
X123302800Y-100421900D02*
X122542800Y-100421900D01*
X123302800Y-106421900D02*
X123302800Y-100421900D01*
X123302800Y-109411900D02*
X123302800Y-109081900D01*
X124192800Y-111791900D02*
X124192800Y-110521900D01*
X124252800Y-106421900D02*
X124252800Y-109081900D01*
X124252800Y-109081900D02*
X116512800Y-109081900D01*
%TO.C,R7*%
X71732336Y-128043000D02*
X72186464Y-128043000D01*
X71732336Y-129513000D02*
X72186464Y-129513000D01*
%TO.C,R6*%
X72186464Y-124106000D02*
X71732336Y-124106000D01*
X72186464Y-125576000D02*
X71732336Y-125576000D01*
%TO.C,R13*%
X100611000Y-77861936D02*
X100611000Y-78316064D01*
X102081000Y-77861936D02*
X102081000Y-78316064D01*
%TO.C,R5*%
X72186464Y-126011000D02*
X71732336Y-126011000D01*
X72186464Y-127481000D02*
X71732336Y-127481000D01*
%TO.C,R10*%
X81942000Y-77861936D02*
X81942000Y-78316064D01*
X83412000Y-77861936D02*
X83412000Y-78316064D01*
%TO.C,U1*%
D13*
X120738200Y-127125600D02*
X119238200Y-127125600D01*
X119238200Y-130125600D01*
X120738200Y-130125600D01*
X120738200Y-127125600D01*
%TO.C,L1*%
X120858400Y-130308600D02*
X124858400Y-130308600D01*
X124858400Y-134308600D01*
X120858400Y-134308600D01*
X120858400Y-130308600D01*
D12*
%TO.C,C4*%
X73228252Y-134980000D02*
X71805748Y-134980000D01*
X73228252Y-136800000D02*
X71805748Y-136800000D01*
%TO.C,R8*%
X112675936Y-76592000D02*
X113130064Y-76592000D01*
X112675936Y-78062000D02*
X113130064Y-78062000D01*
%TO.C,D1*%
D13*
X97972800Y-141482800D02*
X101772800Y-141482800D01*
X101772800Y-137682800D01*
X97972800Y-137682800D01*
X97972800Y-141482800D01*
D12*
%TO.C,R2*%
X120037464Y-123191600D02*
X119583336Y-123191600D01*
X120037464Y-124661600D02*
X119583336Y-124661600D01*
%TO.C,SW1*%
D13*
X122572800Y-149450000D02*
X128372800Y-149450000D01*
X128372800Y-144350000D01*
X122572800Y-144350000D01*
X122572800Y-149450000D01*
D12*
%TO.C,C11*%
X115960300Y-118357300D02*
X116747800Y-118357300D01*
X116354050Y-118751050D02*
X116354050Y-117963550D01*
X116987800Y-114164237D02*
X116987800Y-115449800D01*
X116987800Y-114164237D02*
X118052237Y-113099800D01*
X116987800Y-118855363D02*
X116987800Y-117569800D01*
X116987800Y-118855363D02*
X118052237Y-119919800D01*
X118052237Y-113099800D02*
X123807800Y-113099800D01*
X118052237Y-119919800D02*
X123807800Y-119919800D01*
X123807800Y-113099800D02*
X123807800Y-115449800D01*
X123807800Y-119919800D02*
X123807800Y-117569800D01*
%TO.C,R17*%
X97991664Y-135789000D02*
X97537536Y-135789000D01*
X97991664Y-137259000D02*
X97537536Y-137259000D01*
%TO.C,R4*%
X96089800Y-140056136D02*
X96089800Y-140510264D01*
X97559800Y-140056136D02*
X97559800Y-140510264D01*
%TO.C,J1*%
D13*
X76772800Y-144421900D02*
X69372800Y-144421900D01*
X69372800Y-149421900D01*
X76772800Y-149421900D01*
X76772800Y-144421900D01*
D12*
%TO.C,C10*%
X74910300Y-118357300D02*
X75697800Y-118357300D01*
X75304050Y-118751050D02*
X75304050Y-117963550D01*
X75937800Y-114164237D02*
X75937800Y-115449800D01*
X75937800Y-114164237D02*
X77002237Y-113099800D01*
X75937800Y-118855363D02*
X75937800Y-117569800D01*
X75937800Y-118855363D02*
X77002237Y-119919800D01*
X77002237Y-113099800D02*
X82757800Y-113099800D01*
X77002237Y-119919800D02*
X82757800Y-119919800D01*
X82757800Y-113099800D02*
X82757800Y-115449800D01*
X82757800Y-119919800D02*
X82757800Y-117569800D01*
%TO.C,J6*%
X75462800Y-106421900D02*
X83202800Y-106421900D01*
X75462800Y-109081900D02*
X75462800Y-106421900D01*
X76412800Y-100421900D02*
X76412800Y-106421900D01*
X76412800Y-109478971D02*
X76412800Y-109081900D01*
X77172800Y-100421900D02*
X76412800Y-100421900D01*
X77172800Y-106421900D02*
X77172800Y-100421900D01*
X77172800Y-109478971D02*
X77172800Y-109081900D01*
X78062800Y-109081900D02*
X78062800Y-106421900D01*
X78952800Y-100421900D02*
X78952800Y-106421900D01*
X78952800Y-109478971D02*
X78952800Y-109081900D01*
X79712800Y-100421900D02*
X78952800Y-100421900D01*
X79712800Y-106421900D02*
X79712800Y-100421900D01*
X79712800Y-109478971D02*
X79712800Y-109081900D01*
X80602800Y-109081900D02*
X80602800Y-106421900D01*
X81492800Y-100421900D02*
X81492800Y-106421900D01*
X81492800Y-109411900D02*
X81492800Y-109081900D01*
X81592800Y-106421900D02*
X81592800Y-100421900D01*
X81712800Y-106421900D02*
X81712800Y-100421900D01*
X81832800Y-106421900D02*
X81832800Y-100421900D01*
X81872800Y-111791900D02*
X83142800Y-111791900D01*
X81952800Y-106421900D02*
X81952800Y-100421900D01*
X82072800Y-106421900D02*
X82072800Y-100421900D01*
X82192800Y-106421900D02*
X82192800Y-100421900D01*
X82252800Y-100421900D02*
X81492800Y-100421900D01*
X82252800Y-106421900D02*
X82252800Y-100421900D01*
X82252800Y-109411900D02*
X82252800Y-109081900D01*
X83142800Y-111791900D02*
X83142800Y-110521900D01*
X83202800Y-106421900D02*
X83202800Y-109081900D01*
X83202800Y-109081900D02*
X75462800Y-109081900D01*
%TO.C,C1*%
X115852400Y-128955852D02*
X115852400Y-127533348D01*
X117672400Y-128955852D02*
X117672400Y-127533348D01*
%TO.C,C3*%
X70516000Y-131481248D02*
X70516000Y-132903752D01*
X72336000Y-131481248D02*
X72336000Y-132903752D01*
%TO.C,J5*%
X82042800Y-137411900D02*
X89782800Y-137411900D01*
X82042800Y-140071900D02*
X82042800Y-137411900D01*
X82102800Y-134701900D02*
X82102800Y-135971900D01*
X82992800Y-137081900D02*
X82992800Y-137411900D01*
X82992800Y-140071900D02*
X82992800Y-146071900D01*
X82992800Y-146071900D02*
X83752800Y-146071900D01*
X83052800Y-140071900D02*
X83052800Y-146071900D01*
X83172800Y-140071900D02*
X83172800Y-146071900D01*
X83292800Y-140071900D02*
X83292800Y-146071900D01*
X83372800Y-134701900D02*
X82102800Y-134701900D01*
X83412800Y-140071900D02*
X83412800Y-146071900D01*
X83532800Y-140071900D02*
X83532800Y-146071900D01*
X83652800Y-140071900D02*
X83652800Y-146071900D01*
X83752800Y-137081900D02*
X83752800Y-137411900D01*
X83752800Y-146071900D02*
X83752800Y-140071900D01*
X84642800Y-137411900D02*
X84642800Y-140071900D01*
X85532800Y-137014829D02*
X85532800Y-137411900D01*
X85532800Y-140071900D02*
X85532800Y-146071900D01*
X85532800Y-146071900D02*
X86292800Y-146071900D01*
X86292800Y-137014829D02*
X86292800Y-137411900D01*
X86292800Y-146071900D02*
X86292800Y-140071900D01*
X87182800Y-137411900D02*
X87182800Y-140071900D01*
X88072800Y-137014829D02*
X88072800Y-137411900D01*
X88072800Y-140071900D02*
X88072800Y-146071900D01*
X88072800Y-146071900D02*
X88832800Y-146071900D01*
X88832800Y-137014829D02*
X88832800Y-137411900D01*
X88832800Y-146071900D02*
X88832800Y-140071900D01*
X89782800Y-137411900D02*
X89782800Y-140071900D01*
X89782800Y-140071900D02*
X82042800Y-140071900D01*
%TO.C,R12*%
X92737000Y-77861936D02*
X92737000Y-78316064D01*
X94207000Y-77861936D02*
X94207000Y-78316064D01*
%TO.C,R3*%
X97537536Y-133782400D02*
X97991664Y-133782400D01*
X97537536Y-135252400D02*
X97991664Y-135252400D01*
%TO.C,U2*%
D13*
X75642000Y-131437000D02*
X73252000Y-131437000D01*
X73252000Y-132947000D01*
X75642000Y-132947000D01*
X75642000Y-131437000D01*
D12*
%TO.C,R15*%
X104675000Y-77861936D02*
X104675000Y-78316064D01*
X106145000Y-77861936D02*
X106145000Y-78316064D01*
%TO.C,J2*%
D13*
X84503200Y-131255200D02*
X78503200Y-131255200D01*
X78503200Y-123055200D01*
X84503200Y-123055200D01*
X84503200Y-131255200D01*
%TO.C,J3*%
X98772800Y-144594000D02*
X92372800Y-144594000D01*
X92372800Y-148544000D01*
X98772800Y-148544000D01*
X98772800Y-144594000D01*
D12*
%TO.C,R16*%
X106707000Y-77861936D02*
X106707000Y-78316064D01*
X108177000Y-77861936D02*
X108177000Y-78316064D01*
%TO.C,R14*%
X102643000Y-77861936D02*
X102643000Y-78316064D01*
X104113000Y-77861936D02*
X104113000Y-78316064D01*
%TO.C,C2*%
X125220652Y-127080600D02*
X123798148Y-127080600D01*
X125220652Y-128900600D02*
X123798148Y-128900600D01*
%TO.C,J8*%
X109992800Y-137411900D02*
X117732800Y-137411900D01*
X109992800Y-140071900D02*
X109992800Y-137411900D01*
X110052800Y-134701900D02*
X110052800Y-135971900D01*
X110942800Y-137081900D02*
X110942800Y-137411900D01*
X110942800Y-140071900D02*
X110942800Y-146071900D01*
X110942800Y-146071900D02*
X111702800Y-146071900D01*
X111002800Y-140071900D02*
X111002800Y-146071900D01*
X111122800Y-140071900D02*
X111122800Y-146071900D01*
X111242800Y-140071900D02*
X111242800Y-146071900D01*
X111322800Y-134701900D02*
X110052800Y-134701900D01*
X111362800Y-140071900D02*
X111362800Y-146071900D01*
X111482800Y-140071900D02*
X111482800Y-146071900D01*
X111602800Y-140071900D02*
X111602800Y-146071900D01*
X111702800Y-137081900D02*
X111702800Y-137411900D01*
X111702800Y-146071900D02*
X111702800Y-140071900D01*
X112592800Y-137411900D02*
X112592800Y-140071900D01*
X113482800Y-137014829D02*
X113482800Y-137411900D01*
X113482800Y-140071900D02*
X113482800Y-146071900D01*
X113482800Y-146071900D02*
X114242800Y-146071900D01*
X114242800Y-137014829D02*
X114242800Y-137411900D01*
X114242800Y-146071900D02*
X114242800Y-140071900D01*
X115132800Y-137411900D02*
X115132800Y-140071900D01*
X116022800Y-137014829D02*
X116022800Y-137411900D01*
X116022800Y-140071900D02*
X116022800Y-146071900D01*
X116022800Y-146071900D02*
X116782800Y-146071900D01*
X116782800Y-137014829D02*
X116782800Y-137411900D01*
X116782800Y-146071900D02*
X116782800Y-140071900D01*
X117732800Y-137411900D02*
X117732800Y-140071900D01*
X117732800Y-140071900D02*
X109992800Y-140071900D01*
%TO.C,R11*%
X90578000Y-77861936D02*
X90578000Y-78316064D01*
X92048000Y-77861936D02*
X92048000Y-78316064D01*
%TO.C,R1*%
X120037464Y-125223600D02*
X119583336Y-125223600D01*
X120037464Y-126693600D02*
X119583336Y-126693600D01*
%TD*%
M02*
