%TF.GenerationSoftware,KiCad,Pcbnew,8.0.6-8.0.6-0~ubuntu24.04.1*%
%TF.CreationDate,2024-11-21T15:03:40-05:00*%
%TF.ProjectId,roversa2,726f7665-7273-4613-922e-6b696361645f,rev?*%
%TF.SameCoordinates,Original*%
%TF.FileFunction,Profile,NP*%
%FSLAX46Y46*%
G04 Gerber Fmt 4.6, Leading zero omitted, Abs format (unit mm)*
G04 Created by KiCad (PCBNEW 8.0.6-8.0.6-0~ubuntu24.04.1) date 2024-11-21 15:03:40*
%MOMM*%
%LPD*%
G01*
G04 APERTURE LIST*
%TA.AperFunction,Profile*%
%ADD10C,0.100000*%
%TD*%
%ADD11C,0.100000*%
G04 APERTURE END LIST*
D10*
X132950000Y-117499999D02*
X132950000Y-137499999D01*
X136400000Y-137499999D02*
X132950000Y-137499999D01*
X136400000Y-117499999D02*
X136400000Y-137499999D01*
X136400000Y-117499999D02*
X132950000Y-117499999D01*
X63400000Y-137499999D02*
X66850000Y-137499999D01*
X66850000Y-117499999D02*
X66850000Y-137499999D01*
X63400000Y-117499999D02*
X66850000Y-117499999D01*
X63400000Y-117499999D02*
X63400000Y-137499999D01*
X63400000Y-91499999D02*
X63400000Y-97499999D01*
X63400000Y-97499999D02*
X66850000Y-97499999D01*
X66850000Y-91499999D02*
X66850000Y-97499999D01*
X63400000Y-91499999D02*
X66850000Y-91499999D01*
X63400000Y-85499999D02*
X66850000Y-85499999D01*
X66850000Y-65499999D02*
X66850000Y-85499999D01*
X63400000Y-65499999D02*
X66850000Y-65499999D01*
X63400000Y-65499999D02*
X63400000Y-85499999D01*
X63400000Y-45499999D02*
X66850000Y-45499999D01*
X66850000Y-39499999D02*
X66850000Y-45499999D01*
X63400000Y-39499999D02*
X66850000Y-39499999D01*
X63400000Y-39499999D02*
X63400000Y-45499999D01*
X132950000Y-65499999D02*
X132950000Y-85499999D01*
X136400000Y-85499999D02*
X132950000Y-85499999D01*
X136400000Y-65499999D02*
X136400000Y-85499999D01*
X136400000Y-65499999D02*
X132950000Y-65499999D01*
X132950000Y-91499999D02*
X132950000Y-97499999D01*
X136400000Y-97499999D02*
X132950000Y-97499999D01*
X136400000Y-91499999D02*
X136400000Y-97499999D01*
X136400000Y-91499999D02*
X132950000Y-91499999D01*
X132950000Y-39499999D02*
X132950000Y-45499999D01*
X136400000Y-45499999D02*
X132950000Y-45499999D01*
X136400000Y-39499999D02*
X136400000Y-45499999D01*
X136400000Y-39499999D02*
X132950000Y-39499999D01*
X132950000Y-25499999D02*
X132950000Y-33499999D01*
X136400000Y-33499999D02*
X132950000Y-33499999D01*
X136400000Y-25499999D02*
X136400000Y-33499999D01*
X136400000Y-25499999D02*
X137900000Y-25499999D01*
X137900000Y-25499999D02*
G75*
G02*
X139400000Y-26999999I0J-1500000D01*
G01*
X139400000Y-26999999D02*
X139400000Y-147999999D01*
X139400000Y-147999999D02*
G75*
G02*
X137900000Y-149499999I-1500000J0D01*
G01*
X136400000Y-149499999D02*
X137900000Y-149499999D01*
X136400000Y-143499999D02*
X136400000Y-149499999D01*
X136400000Y-143499999D02*
X132950000Y-143499999D01*
X132950000Y-143499999D02*
X132950000Y-149499999D01*
X66850000Y-149499999D02*
X132950000Y-149499999D01*
X66850000Y-143499999D02*
X66850000Y-149499999D01*
X63400000Y-143499999D02*
X66850000Y-143499999D01*
X63400000Y-143499999D02*
X63400000Y-149499999D01*
X61900001Y-149499999D02*
X63400000Y-149499999D01*
X61900001Y-149499999D02*
G75*
G02*
X60400000Y-147999998I0J1500001D01*
G01*
X60400000Y-27000000D02*
X60400000Y-147999998D01*
X60400000Y-27000000D02*
G75*
G02*
X61900001Y-25499999I1500001J0D01*
G01*
X61900001Y-25499999D02*
X63400000Y-25499999D01*
X63400000Y-25499999D02*
X63400000Y-33499999D01*
X63400000Y-33499999D02*
X66850000Y-33499999D01*
X66850000Y-25499999D02*
X66850000Y-33499999D01*
X66850000Y-25499999D02*
X84627427Y-25499999D01*
X84627427Y-25499999D02*
G75*
G02*
X86061573Y-26560415I1J-1500003D01*
G01*
D11*
X99900000Y-32499999D02*
X100544950Y-32492657D01*
X101183142Y-32470830D01*
X101813879Y-32434818D01*
X102436468Y-32384917D01*
X103050212Y-32321427D01*
X103654417Y-32244646D01*
X104248387Y-32154872D01*
X104831428Y-32052403D01*
X105402845Y-31937537D01*
X105961942Y-31810574D01*
X106508025Y-31671811D01*
X107040397Y-31521547D01*
X107558365Y-31360080D01*
X108061234Y-31187708D01*
X108548307Y-31004730D01*
X109018891Y-30811444D01*
X109472289Y-30608148D01*
X109907808Y-30395141D01*
X110324751Y-30172721D01*
X110722424Y-29941186D01*
X111100132Y-29700835D01*
X111457180Y-29451966D01*
X111792872Y-29194877D01*
X112106514Y-28929867D01*
X112397410Y-28657234D01*
X112664866Y-28377276D01*
X112908187Y-28090291D01*
X113126676Y-27796579D01*
X113319640Y-27496436D01*
X113486383Y-27190163D01*
X113626210Y-26878056D01*
X113738427Y-26560415D01*
X86061573Y-26560415D02*
X86173789Y-26878056D01*
X86313616Y-27190163D01*
X86480359Y-27496436D01*
X86673323Y-27796579D01*
X86891812Y-28090291D01*
X87135133Y-28377276D01*
X87402589Y-28657234D01*
X87693485Y-28929867D01*
X88007127Y-29194877D01*
X88342819Y-29451966D01*
X88699867Y-29700835D01*
X89077575Y-29941186D01*
X89475248Y-30172721D01*
X89892191Y-30395141D01*
X90327710Y-30608148D01*
X90781108Y-30811444D01*
X91251692Y-31004730D01*
X91738765Y-31187708D01*
X92241634Y-31360080D01*
X92759602Y-31521547D01*
X93291974Y-31671811D01*
X93838057Y-31810574D01*
X94397154Y-31937537D01*
X94968571Y-32052403D01*
X95551612Y-32154872D01*
X96145582Y-32244646D01*
X96749787Y-32321427D01*
X97363531Y-32384917D01*
X97986120Y-32434818D01*
X98616857Y-32470830D01*
X99255049Y-32492657D01*
X99900000Y-32499999D01*
D10*
X113738427Y-26560415D02*
G75*
G02*
X115172540Y-25499999I1434113J-439544D01*
G01*
X115172540Y-25499999D02*
X132950000Y-25499999D01*
M02*
