%TF.GenerationSoftware,KiCad,Pcbnew,8.0.6-8.0.6-0~ubuntu24.04.1*%
%TF.CreationDate,2024-11-21T15:03:40-05:00*%
%TF.ProjectId,roversa2,726f7665-7273-4613-922e-6b696361645f,rev?*%
%TF.SameCoordinates,Original*%
%TF.FileFunction,Copper,L2,Bot*%
%TF.FilePolarity,Positive*%
%FSLAX46Y46*%
G04 Gerber Fmt 4.6, Leading zero omitted, Abs format (unit mm)*
G04 Created by KiCad (PCBNEW 8.0.6-8.0.6-0~ubuntu24.04.1) date 2024-11-21 15:03:40*
%MOMM*%
%LPD*%
G01*
G04 APERTURE LIST*
G04 Aperture macros list*
%AMRoundRect*
0 Rectangle with rounded corners*
0 $1 Rounding radius*
0 $2 $3 $4 $5 $6 $7 $8 $9 X,Y pos of 4 corners*
0 Add a 4 corners polygon primitive as box body*
4,1,4,$2,$3,$4,$5,$6,$7,$8,$9,$2,$3,0*
0 Add four circle primitives for the rounded corners*
1,1,$1+$1,$2,$3*
1,1,$1+$1,$4,$5*
1,1,$1+$1,$6,$7*
1,1,$1+$1,$8,$9*
0 Add four rect primitives between the rounded corners*
20,1,$1+$1,$2,$3,$4,$5,0*
20,1,$1+$1,$4,$5,$6,$7,0*
20,1,$1+$1,$6,$7,$8,$9,0*
20,1,$1+$1,$8,$9,$2,$3,0*%
G04 Aperture macros list end*
%TA.AperFunction,ComponentPad*%
%ADD10RoundRect,0.275000X-0.275000X-2.475000X0.275000X-2.475000X0.275000X2.475000X-0.275000X2.475000X0*%
%TD*%
%TA.AperFunction,ComponentPad*%
%ADD11C,2.000000*%
%TD*%
%TA.AperFunction,SMDPad,CuDef*%
%ADD12RoundRect,0.250000X-0.262500X-0.450000X0.262500X-0.450000X0.262500X0.450000X-0.262500X0.450000X0*%
%TD*%
%TA.AperFunction,SMDPad,CuDef*%
%ADD13R,1.200000X1.800000*%
%TD*%
%TA.AperFunction,SMDPad,CuDef*%
%ADD14R,0.600000X1.550000*%
%TD*%
%TA.AperFunction,ComponentPad*%
%ADD15R,1.700000X1.700000*%
%TD*%
%TA.AperFunction,ComponentPad*%
%ADD16O,1.700000X1.700000*%
%TD*%
%TA.AperFunction,SMDPad,CuDef*%
%ADD17RoundRect,0.250000X0.262500X0.450000X-0.262500X0.450000X-0.262500X-0.450000X0.262500X-0.450000X0*%
%TD*%
%TA.AperFunction,SMDPad,CuDef*%
%ADD18RoundRect,0.250000X-0.450000X0.262500X-0.450000X-0.262500X0.450000X-0.262500X0.450000X0.262500X0*%
%TD*%
%TA.AperFunction,SMDPad,CuDef*%
%ADD19R,1.100000X0.600000*%
%TD*%
%TA.AperFunction,SMDPad,CuDef*%
%ADD20R,1.100000X3.700000*%
%TD*%
%TA.AperFunction,SMDPad,CuDef*%
%ADD21RoundRect,0.250000X0.325000X0.650000X-0.325000X0.650000X-0.325000X-0.650000X0.325000X-0.650000X0*%
%TD*%
%TA.AperFunction,SMDPad,CuDef*%
%ADD22R,0.900000X0.450000*%
%TD*%
%TA.AperFunction,SMDPad,CuDef*%
%ADD23R,1.500000X1.000000*%
%TD*%
%TA.AperFunction,SMDPad,CuDef*%
%ADD24R,1.000000X1.500000*%
%TD*%
%TA.AperFunction,SMDPad,CuDef*%
%ADD25RoundRect,0.250000X-1.500000X-0.550000X1.500000X-0.550000X1.500000X0.550000X-1.500000X0.550000X0*%
%TD*%
%TA.AperFunction,ComponentPad*%
%ADD26O,1.000000X1.700000*%
%TD*%
%TA.AperFunction,SMDPad,CuDef*%
%ADD27R,2.100000X1.600000*%
%TD*%
%TA.AperFunction,SMDPad,CuDef*%
%ADD28R,1.900000X1.900000*%
%TD*%
%TA.AperFunction,SMDPad,CuDef*%
%ADD29RoundRect,0.100000X0.100000X0.575000X-0.100000X0.575000X-0.100000X-0.575000X0.100000X-0.575000X0*%
%TD*%
%TA.AperFunction,SMDPad,CuDef*%
%ADD30RoundRect,0.250000X0.650000X-0.325000X0.650000X0.325000X-0.650000X0.325000X-0.650000X-0.325000X0*%
%TD*%
%TA.AperFunction,SMDPad,CuDef*%
%ADD31RoundRect,0.250000X-0.650000X0.325000X-0.650000X-0.325000X0.650000X-0.325000X0.650000X0.325000X0*%
%TD*%
%TA.AperFunction,SMDPad,CuDef*%
%ADD32R,0.600000X1.100000*%
%TD*%
%TA.AperFunction,SMDPad,CuDef*%
%ADD33R,3.400000X1.500000*%
%TD*%
%TA.AperFunction,SMDPad,CuDef*%
%ADD34R,3.500000X1.000000*%
%TD*%
%TA.AperFunction,ViaPad*%
%ADD35C,0.800000*%
%TD*%
%TA.AperFunction,Conductor*%
%ADD36C,0.250000*%
%TD*%
%TA.AperFunction,Conductor*%
%ADD37C,0.600000*%
%TD*%
%TA.AperFunction,Conductor*%
%ADD38C,0.400000*%
%TD*%
G04 APERTURE END LIST*
D10*
%TO.P,EC1,*%
%TO.N,*%
X72872800Y-65511900D03*
D11*
X86872800Y-67171900D03*
X112872800Y-67171900D03*
D10*
X126872800Y-65511900D03*
%TD*%
D12*
%TO.P,R9,1*%
%TO.N,+3V3*%
X111990500Y-79613000D03*
%TO.P,R9,2*%
%TO.N,I_SDA*%
X113815500Y-79613000D03*
%TD*%
D13*
%TO.P,J4,*%
%TO.N,*%
X106972800Y-147844000D03*
X101372800Y-147844000D03*
D14*
%TO.P,J4,1,GND*%
%TO.N,VSS*%
X105672800Y-143969000D03*
%TO.P,J4,2,VCC*%
%TO.N,+3V3*%
X104672800Y-143969000D03*
%TO.P,J4,3,SDA*%
%TO.N,I_SDA*%
X103672800Y-143969000D03*
%TO.P,J4,4,SCL*%
%TO.N,I_SCL*%
X102672800Y-143969000D03*
%TD*%
D15*
%TO.P,J7,1,GND*%
%TO.N,VSS*%
X122922800Y-110521900D03*
D16*
%TO.P,J7,2,VDD*%
%TO.N,+3V3*%
X120382800Y-110521900D03*
%TO.P,J7,3,PWM*%
%TO.N,SERVO_R*%
X117842800Y-110521900D03*
%TD*%
D12*
%TO.P,R7,1*%
%TO.N,VSS*%
X71046900Y-128778000D03*
%TO.P,R7,2*%
%TO.N,Net-(U2-PROG)*%
X72871900Y-128778000D03*
%TD*%
D17*
%TO.P,R6,1*%
%TO.N,V_DIV*%
X72871900Y-124841000D03*
%TO.P,R6,2*%
%TO.N,VSS*%
X71046900Y-124841000D03*
%TD*%
D18*
%TO.P,R13,1*%
%TO.N,FWD*%
X101346000Y-77176500D03*
%TO.P,R13,2*%
%TO.N,Net-(R13-Pad2)*%
X101346000Y-79001500D03*
%TD*%
D17*
%TO.P,R5,1*%
%TO.N,SW_BAT*%
X72871900Y-126746000D03*
%TO.P,R5,2*%
%TO.N,V_DIV*%
X71046900Y-126746000D03*
%TD*%
D18*
%TO.P,R10,1*%
%TO.N,ENTER*%
X82677000Y-77176500D03*
%TO.P,R10,2*%
%TO.N,Net-(R10-Pad2)*%
X82677000Y-79001500D03*
%TD*%
D19*
%TO.P,U1,1,EN*%
%TO.N,SW_BAT*%
X121288200Y-127675600D03*
%TO.P,U1,2,GND*%
%TO.N,VSS*%
X121288200Y-128625600D03*
%TO.P,U1,3,SW*%
%TO.N,Net-(U1-SW)*%
X121288200Y-129575600D03*
%TO.P,U1,4,VIN*%
%TO.N,SW_BAT*%
X118688200Y-129575600D03*
%TO.P,U1,5,FB*%
%TO.N,Net-(U1-FB)*%
X118688200Y-127675600D03*
%TD*%
D20*
%TO.P,L1,1,1*%
%TO.N,Net-(U1-SW)*%
X121358400Y-132308600D03*
%TO.P,L1,2,2*%
%TO.N,+3V3*%
X124358400Y-132308600D03*
%TD*%
D21*
%TO.P,C4,1*%
%TO.N,-BATT*%
X73992000Y-135890000D03*
%TO.P,C4,2*%
%TO.N,VSS*%
X71042000Y-135890000D03*
%TD*%
D12*
%TO.P,R8,1*%
%TO.N,+3V3*%
X111990500Y-77327000D03*
%TO.P,R8,2*%
%TO.N,I_SCL*%
X113815500Y-77327000D03*
%TD*%
D22*
%TO.P,D1,1,BK*%
%TO.N,VSS*%
X100922800Y-138732800D03*
%TO.P,D1,2,GK*%
X100922800Y-139582800D03*
%TO.P,D1,3,RK*%
%TO.N,Net-(D1-RK)*%
X100922800Y-140432800D03*
%TO.P,D1,4,RA*%
%TO.N,VUSB*%
X98822800Y-140432800D03*
%TO.P,D1,5,GA*%
%TO.N,Net-(D1-GA)*%
X98822800Y-139582800D03*
%TO.P,D1,6,BA*%
%TO.N,Net-(D1-BA)*%
X98822800Y-138732800D03*
%TD*%
D17*
%TO.P,R2,1*%
%TO.N,Net-(U1-FB)*%
X120722900Y-123926600D03*
%TO.P,R2,2*%
%TO.N,VSS*%
X118897900Y-123926600D03*
%TD*%
D23*
%TO.P,SW1,1,P*%
%TO.N,unconnected-(SW1-P-Pad1)*%
X121222800Y-147500000D03*
%TO.P,SW1,2,T2*%
%TO.N,-BATT*%
X121222800Y-145500000D03*
%TO.P,SW1,3,P*%
%TO.N,unconnected-(SW1-P-Pad3)*%
X129722800Y-147500000D03*
%TO.P,SW1,4,T1*%
%TO.N,SW_BAT*%
X129722800Y-145500000D03*
D24*
%TO.P,SW1,5,T2*%
%TO.N,unconnected-(SW1-T2-Pad5)*%
X124472800Y-143000000D03*
%TO.P,SW1,6,T1*%
%TO.N,unconnected-(SW1-T1-Pad6)*%
X126472800Y-143000000D03*
%TD*%
D25*
%TO.P,C11,1*%
%TO.N,+3V3*%
X117597800Y-116509800D03*
%TO.P,C11,2*%
%TO.N,VSS*%
X123197800Y-116509800D03*
%TD*%
D17*
%TO.P,R17,1*%
%TO.N,Net-(D1-BA)*%
X98677100Y-136524000D03*
%TO.P,R17,2*%
%TO.N,STAT*%
X96852100Y-136524000D03*
%TD*%
D18*
%TO.P,R4,1*%
%TO.N,Net-(D1-GA)*%
X96824800Y-139370700D03*
%TO.P,R4,2*%
%TO.N,+3V3*%
X96824800Y-141195700D03*
%TD*%
D26*
%TO.P,J1,*%
%TO.N,*%
X76647800Y-147771900D03*
D27*
X76172800Y-145221900D03*
D28*
X74272800Y-147771900D03*
X71872800Y-147771900D03*
D27*
X69972800Y-145221900D03*
D26*
X69497800Y-147771900D03*
D29*
%TO.P,J1,1,VBUS*%
%TO.N,VUSB*%
X74372800Y-145096900D03*
%TO.P,J1,2,D-*%
%TO.N,unconnected-(J1-D--Pad2)*%
X73722800Y-145096900D03*
%TO.P,J1,3,D+*%
%TO.N,unconnected-(J1-D+-Pad3)*%
X73072800Y-145096900D03*
%TO.P,J1,4,ID*%
%TO.N,unconnected-(J1-ID-Pad4)*%
X72422800Y-145096900D03*
%TO.P,J1,5,GND*%
%TO.N,VSS*%
X71772800Y-145096900D03*
%TD*%
D25*
%TO.P,C10,1*%
%TO.N,+3V3*%
X76547800Y-116509800D03*
%TO.P,C10,2*%
%TO.N,VSS*%
X82147800Y-116509800D03*
%TD*%
D15*
%TO.P,J6,1,GND*%
%TO.N,VSS*%
X81872800Y-110521900D03*
D16*
%TO.P,J6,2,VDD*%
%TO.N,+3V3*%
X79332800Y-110521900D03*
%TO.P,J6,3,PWM*%
%TO.N,SERVO_L*%
X76792800Y-110521900D03*
%TD*%
D30*
%TO.P,C1,1*%
%TO.N,SW_BAT*%
X116762400Y-129719600D03*
%TO.P,C1,2*%
%TO.N,VSS*%
X116762400Y-126769600D03*
%TD*%
D31*
%TO.P,C3,1*%
%TO.N,VUSB*%
X71426000Y-130717500D03*
%TO.P,C3,2*%
%TO.N,VSS*%
X71426000Y-133667500D03*
%TD*%
D15*
%TO.P,J5,1,GND*%
%TO.N,VSS*%
X83372800Y-135971900D03*
D16*
%TO.P,J5,2,VDD*%
%TO.N,+3V3*%
X85912800Y-135971900D03*
%TO.P,J5,3,SIGNAL*%
%TO.N,GVS_A*%
X88452800Y-135971900D03*
%TD*%
D18*
%TO.P,R12,1*%
%TO.N,STOP*%
X93472000Y-77176500D03*
%TO.P,R12,2*%
%TO.N,Net-(R12-Pad2)*%
X93472000Y-79001500D03*
%TD*%
D12*
%TO.P,R3,1*%
%TO.N,STAT*%
X96852100Y-134517400D03*
%TO.P,R3,2*%
%TO.N,Net-(D1-RK)*%
X98677100Y-134517400D03*
%TD*%
D32*
%TO.P,U2,1,STAT*%
%TO.N,STAT*%
X75392000Y-133587000D03*
%TO.P,U2,2,VSS*%
%TO.N,VSS*%
X74442000Y-133587000D03*
%TO.P,U2,3,VBATT*%
%TO.N,-BATT*%
X73492000Y-133587000D03*
%TO.P,U2,4,VDD*%
%TO.N,VUSB*%
X73492000Y-130787000D03*
%TO.P,U2,5,PROG*%
%TO.N,Net-(U2-PROG)*%
X75392000Y-130787000D03*
%TD*%
D18*
%TO.P,R15,1*%
%TO.N,TURN_R*%
X105410000Y-77176500D03*
%TO.P,R15,2*%
%TO.N,Net-(R15-Pad2)*%
X105410000Y-79001500D03*
%TD*%
D33*
%TO.P,J2,*%
%TO.N,*%
X82753200Y-130505200D03*
X82753200Y-123805200D03*
D34*
%TO.P,J2,1,GND*%
%TO.N,VSS*%
X77003200Y-128155200D03*
%TO.P,J2,2,VBAT*%
%TO.N,-BATT*%
X77003200Y-126155200D03*
%TD*%
D13*
%TO.P,J3,*%
%TO.N,*%
X98372800Y-147844000D03*
X92772800Y-147844000D03*
D14*
%TO.P,J3,1,GND*%
%TO.N,VSS*%
X97072800Y-143969000D03*
%TO.P,J3,2,VCC*%
%TO.N,+3V3*%
X96072800Y-143969000D03*
%TO.P,J3,3,SDA*%
%TO.N,I_SDA*%
X95072800Y-143969000D03*
%TO.P,J3,4,SCL*%
%TO.N,I_SCL*%
X94072800Y-143969000D03*
%TD*%
D18*
%TO.P,R16,1*%
%TO.N,TURN_L*%
X107442000Y-77176500D03*
%TO.P,R16,2*%
%TO.N,Net-(R16-Pad2)*%
X107442000Y-79001500D03*
%TD*%
%TO.P,R14,1*%
%TO.N,REV*%
X103378000Y-77176500D03*
%TO.P,R14,2*%
%TO.N,Net-(R14-Pad2)*%
X103378000Y-79001500D03*
%TD*%
D21*
%TO.P,C2,1*%
%TO.N,+3V3*%
X125984400Y-127990600D03*
%TO.P,C2,2*%
%TO.N,VSS*%
X123034400Y-127990600D03*
%TD*%
D15*
%TO.P,J8,1,GND*%
%TO.N,VSS*%
X111322800Y-135971900D03*
D16*
%TO.P,J8,2,VDD*%
%TO.N,+3V3*%
X113862800Y-135971900D03*
%TO.P,J8,3,SIGNAL*%
%TO.N,GVS_D*%
X116402800Y-135971900D03*
%TD*%
D18*
%TO.P,R11,1*%
%TO.N,PLAY*%
X91313000Y-77176500D03*
%TO.P,R11,2*%
%TO.N,Net-(R11-Pad2)*%
X91313000Y-79001500D03*
%TD*%
D17*
%TO.P,R1,1*%
%TO.N,+3V3*%
X120722900Y-125958600D03*
%TO.P,R1,2*%
%TO.N,Net-(U1-FB)*%
X118897900Y-125958600D03*
%TD*%
D35*
%TO.N,SW_BAT*%
X130048000Y-142392400D03*
X119837200Y-142392400D03*
%TO.N,VSS*%
X86440500Y-130943700D03*
X105611400Y-58614000D03*
X91302900Y-109590400D03*
X109170600Y-85046400D03*
X116199700Y-128066800D03*
X71798400Y-132381700D03*
X114479400Y-132398800D03*
X99822000Y-138099800D03*
X118287800Y-76753200D03*
X119888000Y-132232400D03*
X100914200Y-102063000D03*
X107909400Y-115754900D03*
X126251500Y-132156100D03*
X80670400Y-137956900D03*
X108150400Y-140070600D03*
X106095900Y-98283300D03*
X91312400Y-131305400D03*
X74403100Y-128136300D03*
%TO.N,+3V3*%
X100853400Y-92899800D03*
X83545900Y-128014100D03*
X104932401Y-142255899D03*
X122302000Y-123494800D03*
X93933700Y-141161400D03*
X122934900Y-131115900D03*
X111704400Y-76040900D03*
%TO.N,V_DIV*%
X73808000Y-123815800D03*
%TO.N,ENTER*%
X82677000Y-75819000D03*
%TO.N,PLAY*%
X91313000Y-75895200D03*
%TO.N,STOP*%
X92811600Y-75920600D03*
%TO.N,FWD*%
X102666800Y-75920600D03*
%TO.N,REV*%
X104241600Y-75920600D03*
%TO.N,TURN_R*%
X105410000Y-75946000D03*
%TO.N,TURN_L*%
X106807000Y-75946000D03*
%TO.N,I_SCL*%
X114884200Y-75971400D03*
X99110300Y-95237700D03*
%TO.N,I_SDA*%
X101533800Y-143660800D03*
X116136800Y-76030200D03*
X104194900Y-91001000D03*
%TO.N,Net-(R10-Pad2)*%
X86013500Y-94965300D03*
%TO.N,Net-(R11-Pad2)*%
X109881800Y-78868800D03*
%TO.N,Net-(R12-Pad2)*%
X77137900Y-113796100D03*
%TO.N,Net-(R13-Pad2)*%
X104374947Y-78089000D03*
X94970600Y-79933800D03*
%TO.N,Net-(R14-Pad2)*%
X102165500Y-85957600D03*
%TO.N,Net-(R15-Pad2)*%
X105440300Y-81408600D03*
%TO.N,Net-(R16-Pad2)*%
X93739200Y-93382200D03*
%TD*%
D36*
%TO.N,SW_BAT*%
X79674200Y-125275000D02*
X74342900Y-125275000D01*
X118688200Y-129575600D02*
X118688200Y-129368200D01*
X116762400Y-129719600D02*
X116762400Y-131494400D01*
X74342900Y-125275000D02*
X72871900Y-126746000D01*
X129722800Y-143886000D02*
X130098800Y-143510000D01*
X83158300Y-128759100D02*
X79674200Y-125275000D01*
X117018900Y-144018000D02*
X101760000Y-128759100D01*
X127660400Y-142392400D02*
X130048000Y-142392400D01*
X116906400Y-129575600D02*
X116762400Y-129719600D01*
X119837200Y-142341600D02*
X118160800Y-144018000D01*
X120380800Y-127675600D02*
X121288200Y-127675600D01*
X118160800Y-144018000D02*
X117018900Y-144018000D01*
X101760000Y-128759100D02*
X83158300Y-128759100D01*
X130098800Y-143510000D02*
X130098800Y-142443200D01*
X129722800Y-145500000D02*
X129722800Y-143886000D01*
X118688200Y-129368200D02*
X120380800Y-127675600D01*
X130098800Y-142443200D02*
X130048000Y-142392400D01*
X118688200Y-129575600D02*
X116906400Y-129575600D01*
X116762400Y-131494400D02*
X127660400Y-142392400D01*
D37*
%TO.N,VSS*%
X69850000Y-126037900D02*
X71046900Y-124841000D01*
X82147800Y-111973800D02*
X81872800Y-111698800D01*
D38*
X71042000Y-135890000D02*
X71771300Y-136619300D01*
D37*
X69850000Y-131318000D02*
X70913700Y-132381700D01*
X107573900Y-140070600D02*
X108150400Y-140070600D01*
D38*
X100922800Y-139582800D02*
X100535100Y-139582800D01*
D37*
X81872800Y-110521900D02*
X81872800Y-111698800D01*
X115521500Y-124141900D02*
X118682600Y-124141900D01*
X71046900Y-128778000D02*
X69850000Y-129974900D01*
X122399400Y-128625600D02*
X123034400Y-127990600D01*
D38*
X100152200Y-138430000D02*
X100584000Y-138430000D01*
X100922800Y-138732800D02*
X100922800Y-139582800D01*
D37*
X106753450Y-140891050D02*
X103863350Y-140891050D01*
X111322800Y-135971900D02*
X111322800Y-134795000D01*
X97428400Y-144125600D02*
X97072800Y-144125600D01*
X121288200Y-128625600D02*
X122399400Y-128625600D01*
X106095900Y-98283300D02*
X102316200Y-102063000D01*
X109170600Y-85046400D02*
X111092400Y-85046400D01*
D38*
X77960066Y-137956900D02*
X74442000Y-134438834D01*
D37*
X69850000Y-129974900D02*
X69850000Y-131318000D01*
D38*
X100584000Y-138430000D02*
X100886800Y-138732800D01*
X100147400Y-139582800D02*
X100535100Y-139582800D01*
D36*
X115521500Y-124141900D02*
X115259400Y-123879800D01*
X122922800Y-116234800D02*
X123197800Y-116509800D01*
D37*
X91302900Y-109590400D02*
X83981200Y-109590400D01*
X115521500Y-125528700D02*
X116762400Y-126769600D01*
D38*
X120488200Y-128625600D02*
X121288200Y-128625600D01*
X70913700Y-132381700D02*
X71798400Y-132381700D01*
X119888000Y-129225800D02*
X120488200Y-128625600D01*
X119888000Y-132232400D02*
X119888000Y-129225800D01*
X80670400Y-137956900D02*
X77960066Y-137956900D01*
D37*
X122922800Y-110521900D02*
X122922800Y-116234800D01*
X111092400Y-85046400D02*
X118287800Y-77851000D01*
D36*
X71771300Y-137303600D02*
X71772800Y-137305100D01*
D37*
X98399600Y-142546300D02*
X98399600Y-143154400D01*
D38*
X99898950Y-139831250D02*
X100147400Y-139582800D01*
D37*
X109170600Y-95208600D02*
X109170600Y-85046400D01*
X81872800Y-110521900D02*
X83049700Y-110521900D01*
X116199700Y-127332300D02*
X116762400Y-126769600D01*
D38*
X71426000Y-132754100D02*
X71426000Y-133667500D01*
D37*
X77003200Y-128155200D02*
X74422000Y-128155200D01*
X105672800Y-143969000D02*
X106680000Y-142961800D01*
D38*
X100886800Y-138732800D02*
X100922800Y-138732800D01*
D37*
X111322800Y-134795000D02*
X112083200Y-134795000D01*
X102316200Y-102063000D02*
X100914200Y-102063000D01*
D38*
X99822000Y-138099800D02*
X100152200Y-138430000D01*
D37*
X106095900Y-98283300D02*
X109170600Y-95208600D01*
X123799600Y-127209600D02*
X123799600Y-117454200D01*
D38*
X74442000Y-134438834D02*
X74442000Y-133587000D01*
D37*
X123026500Y-127982700D02*
X123799600Y-127209600D01*
X71042000Y-134051500D02*
X71042000Y-135890000D01*
X99898950Y-141046950D02*
X98399600Y-142546300D01*
D38*
X99898950Y-141046950D02*
X99898950Y-139831250D01*
X71771300Y-136619300D02*
X71771300Y-137303600D01*
D37*
X107909400Y-116527600D02*
X107909400Y-115754900D01*
X123584700Y-127998500D02*
X126251500Y-130665300D01*
X74422000Y-128155200D02*
X74403100Y-128136300D01*
X118287800Y-76753200D02*
X105611400Y-64076800D01*
D36*
X123026500Y-116681100D02*
X123197800Y-116509800D01*
D37*
X84549700Y-133508100D02*
X86752400Y-131305400D01*
X105611400Y-64076800D02*
X105611400Y-58614000D01*
X71046900Y-128778000D02*
X69850000Y-127581100D01*
X116199700Y-128066800D02*
X116199700Y-127332300D01*
D38*
X71772800Y-137305100D02*
X71772800Y-145096900D01*
D37*
X83981200Y-109590400D02*
X83049700Y-110521900D01*
D36*
X115259400Y-123879800D02*
X115259400Y-123877600D01*
D37*
X84549700Y-135971900D02*
X84549700Y-133508100D01*
X86752400Y-131305400D02*
X91312400Y-131305400D01*
D36*
X123034400Y-127990600D02*
X123026500Y-127982700D01*
D37*
X100228400Y-141376400D02*
X99898950Y-141046950D01*
X115521500Y-124141900D02*
X115521500Y-125528700D01*
X115259400Y-123877600D02*
X107909400Y-116527600D01*
X106680000Y-140964500D02*
X107573900Y-140070600D01*
X112083200Y-134795000D02*
X114479400Y-132398800D01*
D38*
X71426000Y-132754100D02*
X71798400Y-132381700D01*
D37*
X83372800Y-135971900D02*
X84549700Y-135971900D01*
X71426000Y-133667500D02*
X71042000Y-134051500D01*
D36*
X118682600Y-124141900D02*
X118897900Y-123926600D01*
D37*
X86752400Y-131255600D02*
X86440500Y-130943700D01*
X106680000Y-142961800D02*
X106680000Y-140964500D01*
X98399600Y-143154400D02*
X97428400Y-144125600D01*
X118287800Y-77851000D02*
X118287800Y-76753200D01*
X103378000Y-141376400D02*
X100228400Y-141376400D01*
X123799600Y-117454200D02*
X123026500Y-116681100D01*
X69850000Y-127581100D02*
X69850000Y-126037900D01*
X126251500Y-130665300D02*
X126251500Y-132156100D01*
X103863350Y-140891050D02*
X103378000Y-141376400D01*
X82147800Y-116509800D02*
X82147800Y-111973800D01*
D36*
%TO.N,+3V3*%
X120382800Y-110521900D02*
X120382800Y-111698800D01*
X104789502Y-142113000D02*
X104932401Y-142255899D01*
X118361200Y-113720400D02*
X120382800Y-111698800D01*
X96072800Y-145601900D02*
X97508200Y-145601900D01*
X100655100Y-92701500D02*
X100853400Y-92899800D01*
X122302000Y-123494800D02*
X122302000Y-124379500D01*
X111704400Y-76040900D02*
X111990500Y-76327000D01*
X111990500Y-76327000D02*
X111990500Y-78613000D01*
X121134600Y-125546900D02*
X121580800Y-125100700D01*
X79332800Y-111110300D02*
X79332800Y-110852000D01*
X94570000Y-141797700D02*
X93933700Y-141161400D01*
X79332800Y-111110300D02*
X79332800Y-111698800D01*
X96072800Y-141797700D02*
X94570000Y-141797700D01*
X118361200Y-116509800D02*
X118361200Y-113720400D01*
X100997100Y-142113000D02*
X104789502Y-142113000D01*
X124064500Y-132245500D02*
X122934900Y-131115900D01*
X111990500Y-78613000D02*
X100655100Y-89948400D01*
X121580800Y-119729400D02*
X118361200Y-116509800D01*
X100655100Y-89948400D02*
X100655100Y-92701500D01*
X96824800Y-141195700D02*
X96222800Y-141797700D01*
X120722900Y-125958600D02*
X121134600Y-125546900D01*
X76547800Y-116509800D02*
X79332800Y-113724800D01*
X121580800Y-125100700D02*
X121580800Y-119729400D01*
X97508200Y-145601900D02*
X100997100Y-142113000D01*
X96222800Y-141797700D02*
X96072800Y-141797700D01*
X76547800Y-121016000D02*
X76547800Y-116509800D01*
X118361200Y-116509800D02*
X117597800Y-116509800D01*
X79332800Y-113724800D02*
X79332800Y-111698800D01*
X83545900Y-128014100D02*
X76547800Y-121016000D01*
X104932401Y-142255899D02*
X104932401Y-143709399D01*
X79332800Y-110521900D02*
X79332800Y-111110300D01*
X97483300Y-92701500D02*
X100655100Y-92701500D01*
X79332800Y-110852000D02*
X97483300Y-92701500D01*
X104932401Y-143709399D02*
X104672800Y-143969000D01*
X96072800Y-141797700D02*
X96072800Y-145601900D01*
X122302000Y-124379500D02*
X121134600Y-125546900D01*
%TO.N,VUSB*%
X74372800Y-145096900D02*
X74372800Y-144307300D01*
X98822800Y-140432800D02*
X98045900Y-140432800D01*
X74372800Y-144307300D02*
X77479200Y-141200900D01*
X72851100Y-136572800D02*
X77479200Y-141200900D01*
X73492000Y-130787000D02*
X72851100Y-130787000D01*
X72851100Y-130787000D02*
X71495500Y-130787000D01*
X78341700Y-140338400D02*
X97951500Y-140338400D01*
X97951500Y-140338400D02*
X98045900Y-140432800D01*
X77479200Y-141200900D02*
X78341700Y-140338400D01*
X71495500Y-130787000D02*
X71426000Y-130717500D01*
X72851100Y-130787000D02*
X72851100Y-136572800D01*
%TO.N,-BATT*%
X79587300Y-129211000D02*
X79135400Y-128759100D01*
X73492000Y-135390000D02*
X73992000Y-135890000D01*
X98536700Y-129211000D02*
X79587300Y-129211000D01*
X73492000Y-133587000D02*
X73492000Y-132710100D01*
X79135400Y-128759100D02*
X75184400Y-132710100D01*
X75184400Y-132710100D02*
X73492000Y-132710100D01*
X79080100Y-126155200D02*
X79080100Y-128703800D01*
X73492000Y-133587000D02*
X73492000Y-135390000D01*
X121222800Y-145500000D02*
X114825700Y-145500000D01*
X77003200Y-126155200D02*
X79080100Y-126155200D01*
X79080100Y-128703800D02*
X79135400Y-128759100D01*
X114825700Y-145500000D02*
X98536700Y-129211000D01*
%TO.N,Net-(D1-RK)*%
X98868400Y-134517400D02*
X98677100Y-134517400D01*
X100922800Y-140432800D02*
X101699700Y-140432800D01*
X101699700Y-137348700D02*
X98868400Y-134517400D01*
X101699700Y-140432800D02*
X101699700Y-137348700D01*
%TO.N,Net-(D1-GA)*%
X98822800Y-139582800D02*
X97036900Y-139582800D01*
X97036900Y-139582800D02*
X96824800Y-139370700D01*
%TO.N,Net-(D1-BA)*%
X98045900Y-138732800D02*
X98045900Y-137155200D01*
X98822800Y-138732800D02*
X98045900Y-138732800D01*
X98045900Y-137155200D02*
X98677100Y-136524000D01*
%TO.N,V_DIV*%
X73808000Y-123904900D02*
X73808000Y-123815800D01*
X72871900Y-124841000D02*
X73808000Y-123904900D01*
X71046900Y-126666000D02*
X71046900Y-126746000D01*
X72871900Y-124841000D02*
X71046900Y-126666000D01*
%TO.N,ENTER*%
X82677000Y-75819000D02*
X82677000Y-77176500D01*
%TO.N,PLAY*%
X91313000Y-77176500D02*
X91313000Y-75895200D01*
%TO.N,STOP*%
X92811600Y-75920600D02*
X93472000Y-76581000D01*
X93472000Y-76581000D02*
X93472000Y-77176500D01*
%TO.N,FWD*%
X102601900Y-75920600D02*
X101346000Y-77176500D01*
X102666800Y-75920600D02*
X102601900Y-75920600D01*
%TO.N,REV*%
X103378000Y-76784200D02*
X103378000Y-77176500D01*
X104241600Y-75920600D02*
X103378000Y-76784200D01*
%TO.N,TURN_R*%
X105410000Y-77176500D02*
X105410000Y-75946000D01*
%TO.N,TURN_L*%
X107442000Y-77176500D02*
X107442000Y-76176500D01*
X107211500Y-75946000D02*
X107442000Y-76176500D01*
X106807000Y-75946000D02*
X107211500Y-75946000D01*
%TO.N,I_SCL*%
X99637100Y-117061500D02*
X100883096Y-117061500D01*
X103421000Y-146350100D02*
X102672800Y-145601900D01*
X94072800Y-143969000D02*
X94072800Y-145601900D01*
X102616505Y-102788000D02*
X100613895Y-102788000D01*
X99637100Y-101811205D02*
X99637100Y-95237700D01*
X101729600Y-146545100D02*
X102672800Y-145601900D01*
X104886400Y-65973600D02*
X104886400Y-58313695D01*
X115204400Y-132628800D02*
X122311600Y-139736000D01*
X122311600Y-146160600D02*
X122122100Y-146350100D01*
X113815500Y-77040100D02*
X114884200Y-75971400D01*
X122311600Y-139736000D02*
X122311600Y-146160600D01*
X94072800Y-145601900D02*
X95016000Y-146545100D01*
X105311095Y-57889000D02*
X105911705Y-57889000D01*
X114884200Y-75971400D02*
X104886400Y-65973600D01*
X122122100Y-146350100D02*
X103421000Y-146350100D01*
X100613895Y-102788000D02*
X99637100Y-101811205D01*
X95016000Y-146545100D02*
X101729600Y-146545100D01*
X115204400Y-131382804D02*
X115204400Y-132628800D01*
X119012800Y-86391705D02*
X102616505Y-102788000D01*
X102672800Y-143969000D02*
X102672800Y-145601900D01*
X105911705Y-57889000D02*
X119012800Y-70990095D01*
X99637100Y-95237700D02*
X99110300Y-95237700D01*
X119012800Y-70990095D02*
X119012800Y-86391705D01*
X113815500Y-77327000D02*
X113815500Y-77040100D01*
X100883096Y-117061500D02*
X115204400Y-131382804D01*
X104886400Y-58313695D02*
X105311095Y-57889000D01*
X99637100Y-95237700D02*
X99637100Y-117061500D01*
%TO.N,I_SDA*%
X102047800Y-142869000D02*
X101533800Y-143383000D01*
X99139300Y-146055300D02*
X101533800Y-143660800D01*
X103672800Y-144500000D02*
X103672800Y-143398100D01*
X101533800Y-143383000D02*
X101533800Y-143660800D01*
X103597800Y-142869000D02*
X102047800Y-142869000D01*
X95072800Y-145601900D02*
X95526200Y-146055300D01*
X103672800Y-143969000D02*
X103672800Y-142944000D01*
X116136800Y-76030200D02*
X116136800Y-76992373D01*
X95072800Y-143969000D02*
X95072800Y-145601900D01*
X104194900Y-88934273D02*
X104194900Y-91001000D01*
X116136800Y-76992373D02*
X104194900Y-88934273D01*
X103672800Y-142944000D02*
X103597800Y-142869000D01*
X95526200Y-146055300D02*
X99139300Y-146055300D01*
%TO.N,Net-(U1-SW)*%
X121358400Y-132308600D02*
X121358400Y-129645800D01*
X121358400Y-129645800D02*
X121288200Y-129575600D01*
%TO.N,Net-(U1-FB)*%
X118897900Y-125751600D02*
X118897900Y-125958600D01*
X119565100Y-127675600D02*
X119565100Y-126625800D01*
X120722900Y-123926600D02*
X118897900Y-125751600D01*
X119565100Y-126625800D02*
X118897900Y-125958600D01*
X118688200Y-127675600D02*
X119565100Y-127675600D01*
%TO.N,STAT*%
X96144200Y-137231900D02*
X96852100Y-136524000D01*
X96852100Y-136524000D02*
X96852100Y-134517400D01*
X75392000Y-133587000D02*
X75392000Y-134463900D01*
X75392000Y-134463900D02*
X78160000Y-137231900D01*
X78160000Y-137231900D02*
X96144200Y-137231900D01*
%TO.N,Net-(U2-PROG)*%
X74004000Y-129910100D02*
X72871900Y-128778000D01*
X75392000Y-129910100D02*
X74004000Y-129910100D01*
X75392000Y-130787000D02*
X75392000Y-129910100D01*
%TO.N,Net-(R10-Pad2)*%
X82677000Y-91628800D02*
X86013500Y-94965300D01*
X82677000Y-79001500D02*
X82677000Y-91628800D01*
%TO.N,Net-(R11-Pad2)*%
X92447000Y-76581305D02*
X92086600Y-76220905D01*
X92086600Y-76220905D02*
X92086600Y-75620295D01*
X92086600Y-75620295D02*
X92511295Y-75195600D01*
X107097496Y-75195600D02*
X108467000Y-76565104D01*
X92511295Y-75195600D02*
X107097496Y-75195600D01*
X91313000Y-79001500D02*
X92447000Y-77867500D01*
X108467000Y-77454000D02*
X109881800Y-78868800D01*
X92447000Y-77867500D02*
X92447000Y-76581305D01*
X108467000Y-76565104D02*
X108467000Y-77454000D01*
%TO.N,Net-(R12-Pad2)*%
X78062800Y-104123400D02*
X93472000Y-88714200D01*
X78062800Y-112871200D02*
X78062800Y-104123400D01*
X77137900Y-113796100D02*
X78062800Y-112871200D01*
X93472000Y-88714200D02*
X93472000Y-79001500D01*
%TO.N,Net-(R13-Pad2)*%
X104287447Y-78001500D02*
X104374947Y-78089000D01*
X94970600Y-79933800D02*
X96890400Y-78014000D01*
X102258500Y-78089000D02*
X104374947Y-78089000D01*
X104078673Y-78001500D02*
X104287447Y-78001500D01*
X101346000Y-79001500D02*
X102258500Y-78089000D01*
X104066173Y-78014000D02*
X104078673Y-78001500D01*
X96890400Y-78014000D02*
X104066173Y-78014000D01*
%TO.N,Net-(R14-Pad2)*%
X102165500Y-85957600D02*
X103378000Y-84745100D01*
X103378000Y-84745100D02*
X103378000Y-79001500D01*
%TO.N,Net-(R15-Pad2)*%
X105410000Y-81378300D02*
X105440300Y-81408600D01*
X105410000Y-79001500D02*
X105410000Y-81378300D01*
%TO.N,Net-(R16-Pad2)*%
X107442000Y-81709100D02*
X107442000Y-79001500D01*
X95768900Y-93382200D02*
X107442000Y-81709100D01*
X93739200Y-93382200D02*
X95768900Y-93382200D01*
%TD*%
%TA.AperFunction,Conductor*%
%TO.N,VSS*%
G36*
X118517803Y-122904885D02*
G01*
X118563558Y-122957689D01*
X118573502Y-123026847D01*
X118544477Y-123090403D01*
X118505223Y-123120601D01*
X118413303Y-123165536D01*
X118324336Y-123254503D01*
X118269078Y-123367539D01*
X118269075Y-123367546D01*
X118258400Y-123440820D01*
X118258400Y-123676600D01*
X119023900Y-123676600D01*
X119090939Y-123696285D01*
X119136694Y-123749089D01*
X119147900Y-123800600D01*
X119147900Y-124052600D01*
X119128215Y-124119639D01*
X119075411Y-124165394D01*
X119023900Y-124176600D01*
X118258401Y-124176600D01*
X118258401Y-124412373D01*
X118269077Y-124485660D01*
X118324336Y-124598696D01*
X118413301Y-124687661D01*
X118419773Y-124692282D01*
X118462895Y-124747257D01*
X118469450Y-124816819D01*
X118437356Y-124878882D01*
X118376804Y-124913741D01*
X118347720Y-124917200D01*
X117906800Y-124917200D01*
X117906800Y-126106478D01*
X117887115Y-126173517D01*
X117834311Y-126219272D01*
X117765153Y-126229216D01*
X117701597Y-126200191D01*
X117695119Y-126194159D01*
X117634496Y-126133536D01*
X117521460Y-126078278D01*
X117521453Y-126078275D01*
X117448180Y-126067600D01*
X117012400Y-126067600D01*
X117012400Y-127471599D01*
X117448173Y-127471599D01*
X117521460Y-127460922D01*
X117634496Y-127405663D01*
X117695119Y-127345041D01*
X117756442Y-127311556D01*
X117826134Y-127316540D01*
X117882067Y-127358412D01*
X117906484Y-127423876D01*
X117906800Y-127432722D01*
X117906800Y-128450800D01*
X117887115Y-128517839D01*
X117834311Y-128563594D01*
X117782800Y-128574800D01*
X115642098Y-128574800D01*
X115575059Y-128555115D01*
X115529304Y-128502311D01*
X115518103Y-128451907D01*
X115515354Y-128144094D01*
X115507393Y-127252497D01*
X115526478Y-127185288D01*
X115578871Y-127139063D01*
X115647938Y-127128502D01*
X115711751Y-127156959D01*
X115742789Y-127196933D01*
X115801337Y-127316697D01*
X115890303Y-127405663D01*
X116003339Y-127460921D01*
X116003346Y-127460924D01*
X116076620Y-127471599D01*
X116512399Y-127471599D01*
X116512400Y-127471598D01*
X116512400Y-126067600D01*
X116076626Y-126067600D01*
X116003339Y-126078277D01*
X115890303Y-126133536D01*
X115801336Y-126222503D01*
X115746078Y-126335539D01*
X115746076Y-126335543D01*
X115745774Y-126337620D01*
X115744736Y-126339879D01*
X115743234Y-126344743D01*
X115742595Y-126344545D01*
X115716627Y-126401119D01*
X115657776Y-126438781D01*
X115587907Y-126438647D01*
X115529201Y-126400760D01*
X115500298Y-126337148D01*
X115499075Y-126320844D01*
X115496909Y-126078278D01*
X115469517Y-123010306D01*
X115488602Y-122943095D01*
X115540996Y-122896870D01*
X115593512Y-122885200D01*
X118450764Y-122885200D01*
X118517803Y-122904885D01*
G37*
%TD.AperFunction*%
%TD*%
%TA.AperFunction,Conductor*%
%TO.N,VSS*%
G36*
X122275440Y-128238885D02*
G01*
X122321195Y-128291689D01*
X122332401Y-128343200D01*
X122332401Y-128676373D01*
X122343077Y-128749658D01*
X122369027Y-128802740D01*
X122380785Y-128871613D01*
X122353442Y-128935910D01*
X122295677Y-128975217D01*
X122257626Y-128981200D01*
X122174000Y-128981200D01*
X122089200Y-128981200D01*
X122022161Y-128961515D01*
X121976406Y-128908711D01*
X121965200Y-128857200D01*
X121965200Y-128343200D01*
X121984885Y-128276161D01*
X122037689Y-128230406D01*
X122089200Y-128219200D01*
X122208401Y-128219200D01*
X122275440Y-128238885D01*
G37*
%TD.AperFunction*%
%TA.AperFunction,Conductor*%
G36*
X124352239Y-125241685D02*
G01*
X124397994Y-125294489D01*
X124409200Y-125346000D01*
X124409200Y-128857200D01*
X124389515Y-128924239D01*
X124336711Y-128969994D01*
X124285200Y-128981200D01*
X123811174Y-128981200D01*
X123744135Y-128961515D01*
X123698380Y-128908711D01*
X123688436Y-128839553D01*
X123699773Y-128802740D01*
X123725722Y-128749657D01*
X123725724Y-128749653D01*
X123736400Y-128676379D01*
X123736400Y-128240600D01*
X122908400Y-128240600D01*
X122841361Y-128220915D01*
X122795606Y-128168111D01*
X122784400Y-128116600D01*
X122784400Y-127740600D01*
X123284400Y-127740600D01*
X123736399Y-127740600D01*
X123736399Y-127304826D01*
X123725722Y-127231539D01*
X123670463Y-127118503D01*
X123581496Y-127029536D01*
X123468460Y-126974278D01*
X123468453Y-126974275D01*
X123395180Y-126963600D01*
X123284400Y-126963600D01*
X123284400Y-127740600D01*
X122784400Y-127740600D01*
X122784400Y-126963600D01*
X122673626Y-126963600D01*
X122600339Y-126974277D01*
X122487303Y-127029536D01*
X122436481Y-127080359D01*
X122375158Y-127113844D01*
X122305466Y-127108860D01*
X122249533Y-127066988D01*
X122225116Y-127001524D01*
X122224800Y-126992678D01*
X122224800Y-125346000D01*
X122244485Y-125278961D01*
X122297289Y-125233206D01*
X122348800Y-125222000D01*
X124285200Y-125222000D01*
X124352239Y-125241685D01*
G37*
%TD.AperFunction*%
%TD*%
%TA.AperFunction,Conductor*%
%TO.N,SW_BAT*%
G36*
X118731533Y-129281226D02*
G01*
X118775880Y-129309727D01*
X119276974Y-129810821D01*
X119283778Y-129823283D01*
X119284772Y-129969489D01*
X119269794Y-129989498D01*
X119280040Y-130023278D01*
X119285376Y-130058428D01*
X119299220Y-132095013D01*
X119298162Y-132112040D01*
X119282318Y-132232397D01*
X119282318Y-132232401D01*
X119300120Y-132367626D01*
X119301178Y-132382967D01*
X119301551Y-132437756D01*
X119282323Y-132504928D01*
X119229832Y-132551041D01*
X119177554Y-132562600D01*
X115653900Y-132562600D01*
X115586861Y-132542915D01*
X115541106Y-132490111D01*
X115529900Y-132438600D01*
X115529900Y-131339953D01*
X115529900Y-131339951D01*
X115507718Y-131257166D01*
X115507714Y-131257159D01*
X115504607Y-131249656D01*
X115506218Y-131248988D01*
X115492400Y-131197408D01*
X115492400Y-130123673D01*
X115512085Y-130056634D01*
X115564889Y-130010879D01*
X115634047Y-130000935D01*
X115697603Y-130029960D01*
X115735377Y-130088738D01*
X115739105Y-130105797D01*
X115746077Y-130153660D01*
X115801336Y-130266696D01*
X115890303Y-130355663D01*
X116003339Y-130410921D01*
X116003346Y-130410924D01*
X116076620Y-130421599D01*
X116512399Y-130421599D01*
X116512400Y-130421598D01*
X116512400Y-129593600D01*
X116532085Y-129526561D01*
X116584889Y-129480806D01*
X116636400Y-129469600D01*
X116888400Y-129469600D01*
X116955439Y-129489285D01*
X117001194Y-129542089D01*
X117012400Y-129593600D01*
X117012400Y-130421599D01*
X117448173Y-130421599D01*
X117521460Y-130410922D01*
X117634496Y-130355663D01*
X117723463Y-130266696D01*
X117778721Y-130153660D01*
X117778724Y-130153653D01*
X117789399Y-130080380D01*
X117789399Y-130027272D01*
X117796643Y-130002600D01*
X118614753Y-130002600D01*
X118761646Y-130002600D01*
X118688200Y-129929153D01*
X118614753Y-130002600D01*
X117796643Y-130002600D01*
X117809082Y-129960232D01*
X117861886Y-129914477D01*
X117931044Y-129904532D01*
X117982288Y-129924167D01*
X118088647Y-129995231D01*
X118103944Y-129998274D01*
X118107353Y-129987036D01*
X118085248Y-129969223D01*
X118063183Y-129902928D01*
X118080462Y-129835229D01*
X118099423Y-129810822D01*
X118600518Y-129309727D01*
X118661841Y-129276242D01*
X118731533Y-129281226D01*
G37*
%TD.AperFunction*%
%TD*%
%TA.AperFunction,Conductor*%
%TO.N,Net-(U1-SW)*%
G36*
X122420439Y-129280285D02*
G01*
X122466194Y-129333089D01*
X122477400Y-129384600D01*
X122477400Y-130683603D01*
X122457715Y-130750642D01*
X122451776Y-130759089D01*
X122410364Y-130813057D01*
X122349856Y-130959137D01*
X122349855Y-130959139D01*
X122329218Y-131115898D01*
X122329218Y-131115901D01*
X122349855Y-131272660D01*
X122349857Y-131272665D01*
X122410361Y-131418736D01*
X122410361Y-131418737D01*
X122410363Y-131418740D01*
X122410364Y-131418741D01*
X122451777Y-131472711D01*
X122476970Y-131537879D01*
X122477400Y-131548196D01*
X122477400Y-134750000D01*
X122457715Y-134817039D01*
X122404911Y-134862794D01*
X122353400Y-134874000D01*
X120671000Y-134874000D01*
X120603961Y-134854315D01*
X120558206Y-134801511D01*
X120547000Y-134750000D01*
X120547000Y-134368667D01*
X120566685Y-134301628D01*
X120619489Y-134255873D01*
X120688647Y-134245929D01*
X120739892Y-134265566D01*
X120758846Y-134278231D01*
X120795889Y-134285600D01*
X121920910Y-134285600D01*
X121957952Y-134278231D01*
X121999961Y-134250161D01*
X122028031Y-134208152D01*
X122035400Y-134171110D01*
X122035400Y-133162377D01*
X121269304Y-132396281D01*
X121235819Y-132334958D01*
X121237704Y-132308599D01*
X121535177Y-132308599D01*
X121535177Y-132308600D01*
X122035399Y-132808823D01*
X122035400Y-132808822D01*
X122035400Y-131808377D01*
X122035399Y-131808376D01*
X121535177Y-132308599D01*
X121237704Y-132308599D01*
X121240803Y-132265266D01*
X121269304Y-132220919D01*
X122035399Y-131454823D01*
X122035400Y-131454822D01*
X122035400Y-130446089D01*
X122028031Y-130409047D01*
X121999961Y-130367038D01*
X121957952Y-130338968D01*
X121920910Y-130331600D01*
X120795890Y-130331600D01*
X120758847Y-130338968D01*
X120739890Y-130351635D01*
X120673212Y-130372512D01*
X120605832Y-130354027D01*
X120559143Y-130302048D01*
X120547000Y-130248532D01*
X120547000Y-130118148D01*
X120566685Y-130051109D01*
X120619489Y-130005354D01*
X120638649Y-130002599D01*
X121037976Y-130002599D01*
X121037977Y-130002600D01*
X121538423Y-130002600D01*
X121538423Y-130002599D01*
X121288200Y-129752377D01*
X121037976Y-130002599D01*
X120638649Y-130002599D01*
X120688647Y-129995410D01*
X120691044Y-129995820D01*
X120691271Y-129995751D01*
X121200519Y-129486504D01*
X121261842Y-129453019D01*
X121331534Y-129458003D01*
X121375881Y-129486504D01*
X121885129Y-129995752D01*
X121887753Y-129995231D01*
X121887754Y-129995230D01*
X121929761Y-129967162D01*
X121957831Y-129925152D01*
X121965200Y-129888110D01*
X121965200Y-129384600D01*
X121984885Y-129317561D01*
X122037689Y-129271806D01*
X122089200Y-129260600D01*
X122353400Y-129260600D01*
X122420439Y-129280285D01*
G37*
%TD.AperFunction*%
%TD*%
%TA.AperFunction,Conductor*%
%TO.N,+3V3*%
G36*
X129405439Y-126613285D02*
G01*
X129451194Y-126666089D01*
X129462400Y-126717600D01*
X129462400Y-134343600D01*
X129442715Y-134410639D01*
X129389911Y-134456394D01*
X129338400Y-134467600D01*
X125081886Y-134467600D01*
X125014847Y-134447915D01*
X124969092Y-134395111D01*
X124959148Y-134325953D01*
X124988173Y-134262397D01*
X124994205Y-134255919D01*
X124999961Y-134250162D01*
X125028031Y-134208152D01*
X125035400Y-134171110D01*
X125035400Y-133339153D01*
X124358400Y-132662153D01*
X123681400Y-133339152D01*
X123681400Y-134171110D01*
X123681399Y-134171110D01*
X123688768Y-134208152D01*
X123716838Y-134250162D01*
X123722595Y-134255919D01*
X123756080Y-134317242D01*
X123751096Y-134386934D01*
X123709224Y-134442867D01*
X123643760Y-134467284D01*
X123634914Y-134467600D01*
X123490400Y-134467600D01*
X123423361Y-134447915D01*
X123377606Y-134395111D01*
X123366400Y-134343600D01*
X123366400Y-132632047D01*
X123681400Y-132632047D01*
X124004847Y-132308600D01*
X124004847Y-132308599D01*
X124711953Y-132308599D01*
X124711953Y-132308600D01*
X125035399Y-132632047D01*
X125035400Y-132632046D01*
X125035400Y-131985153D01*
X125035399Y-131985152D01*
X124711953Y-132308599D01*
X124004847Y-132308599D01*
X123681400Y-131985152D01*
X123681400Y-132632047D01*
X123366400Y-132632047D01*
X123366400Y-130146600D01*
X123386085Y-130079561D01*
X123438889Y-130033806D01*
X123490400Y-130022600D01*
X124779103Y-130022600D01*
X124805835Y-130008003D01*
X124875527Y-130012987D01*
X124919874Y-130041488D01*
X124998305Y-130119919D01*
X125031790Y-130181242D01*
X125026806Y-130250934D01*
X124984934Y-130306867D01*
X124919470Y-130331284D01*
X124910624Y-130331600D01*
X123795890Y-130331600D01*
X123758847Y-130338968D01*
X123716838Y-130367038D01*
X123688768Y-130409047D01*
X123681400Y-130446089D01*
X123681400Y-131278047D01*
X124358400Y-131955047D01*
X125035399Y-131278047D01*
X125035400Y-131278046D01*
X125035400Y-130456376D01*
X125055085Y-130389337D01*
X125107889Y-130343582D01*
X125177047Y-130333638D01*
X125240603Y-130362663D01*
X125247081Y-130368695D01*
X125714681Y-130836295D01*
X125748166Y-130897618D01*
X125751000Y-130923976D01*
X125751000Y-131779842D01*
X125731315Y-131846881D01*
X125727573Y-131852203D01*
X125726965Y-131853256D01*
X125666456Y-131999337D01*
X125666455Y-131999339D01*
X125645818Y-132156098D01*
X125645818Y-132156101D01*
X125666455Y-132312860D01*
X125666456Y-132312862D01*
X125726964Y-132458941D01*
X125823218Y-132584382D01*
X125948659Y-132680636D01*
X126094738Y-132741144D01*
X126173119Y-132751463D01*
X126251499Y-132761782D01*
X126251500Y-132761782D01*
X126251501Y-132761782D01*
X126303754Y-132754902D01*
X126408262Y-132741144D01*
X126554341Y-132680636D01*
X126679782Y-132584382D01*
X126776036Y-132458941D01*
X126836544Y-132312862D01*
X126857182Y-132156100D01*
X126836544Y-131999338D01*
X126776036Y-131853259D01*
X126776034Y-131853256D01*
X126771972Y-131846219D01*
X126773713Y-131845213D01*
X126752430Y-131790157D01*
X126752000Y-131779842D01*
X126752000Y-130599410D01*
X126752000Y-130599408D01*
X126717892Y-130472114D01*
X126652000Y-130357986D01*
X126558814Y-130264800D01*
X125522657Y-129228643D01*
X125489172Y-129167320D01*
X125494156Y-129097628D01*
X125536028Y-129041695D01*
X125601492Y-129017278D01*
X125619308Y-129017287D01*
X125623623Y-129017599D01*
X125734399Y-129017599D01*
X126234400Y-129017599D01*
X126345173Y-129017599D01*
X126418460Y-129006922D01*
X126531496Y-128951663D01*
X126620463Y-128862696D01*
X126675721Y-128749660D01*
X126675724Y-128749653D01*
X126686400Y-128676379D01*
X126686400Y-128240600D01*
X126234400Y-128240600D01*
X126234400Y-129017599D01*
X125734399Y-129017599D01*
X125734400Y-129017598D01*
X125734400Y-128240600D01*
X125282401Y-128240600D01*
X125282401Y-128676383D01*
X125282714Y-128680706D01*
X125267923Y-128748993D01*
X125218561Y-128798442D01*
X125150301Y-128813354D01*
X125084815Y-128788995D01*
X125071357Y-128777343D01*
X124799719Y-128505705D01*
X124766234Y-128444382D01*
X124763400Y-128418024D01*
X124763400Y-127304820D01*
X125282400Y-127304820D01*
X125282400Y-127740600D01*
X125734400Y-127740600D01*
X126234400Y-127740600D01*
X126686399Y-127740600D01*
X126686399Y-127304826D01*
X126675722Y-127231539D01*
X126620463Y-127118503D01*
X126531496Y-127029536D01*
X126418460Y-126974278D01*
X126418453Y-126974275D01*
X126345180Y-126963600D01*
X126234400Y-126963600D01*
X126234400Y-127740600D01*
X125734400Y-127740600D01*
X125734400Y-126963600D01*
X125623626Y-126963600D01*
X125550339Y-126974277D01*
X125437303Y-127029536D01*
X125348336Y-127118503D01*
X125293078Y-127231539D01*
X125293075Y-127231546D01*
X125282400Y-127304820D01*
X124763400Y-127304820D01*
X124763400Y-126717600D01*
X124783085Y-126650561D01*
X124835889Y-126604806D01*
X124887400Y-126593600D01*
X129338400Y-126593600D01*
X129405439Y-126613285D01*
G37*
%TD.AperFunction*%
%TD*%
M02*
