M48
; DRILL file {KiCad 8.0.6-8.0.6-0~ubuntu24.04.1} date 2024-11-21T15:03:31-0500
; FORMAT={-:-/ absolute / inch / decimal}
; #@! TF.CreationDate,2024-11-21T15:03:31-05:00
; #@! TF.GenerationSoftware,Kicad,Pcbnew,8.0.6-8.0.6-0~ubuntu24.04.1
; #@! TF.FileFunction,Plated,1,2,PTH
FMAT,2
INCH
; #@! TA.AperFunction,Plated,PTH,ViaDrill
T1C0.0157
; #@! TA.AperFunction,Plated,PTH,ComponentDrill
T2C0.0197
; #@! TA.AperFunction,Plated,PTH,ComponentDrill
T3C0.0394
; #@! TA.AperFunction,Plated,PTH,ComponentDrill
T4C0.0630
%
G90
G05
T1
X2.8267Y-5.2119
X2.9058Y-4.8746
X2.9293Y-5.0447
X3.0369Y-4.4802
X3.176Y-5.4314
X3.255Y-2.985
X3.2892Y-5.0399
X3.3864Y-3.7388
X3.4032Y-5.1553
X3.5946Y-4.3146
X3.595Y-5.1695
X3.595Y-2.988
X3.654Y-2.989
X3.6905Y-3.6765
X3.6982Y-5.5575
X3.739Y-3.147
X3.902Y-3.7495
X3.93Y-5.437
X3.9706Y-3.6575
X3.973Y-4.0182
X3.9974Y-5.6559
X4.0223Y-3.3842
X4.042Y-2.989
X4.1022Y-3.5827
X4.104Y-2.989
X4.1092Y-3.0744
X4.1312Y-5.6006
X4.15Y-2.99
X4.1512Y-3.2051
X4.1579Y-2.3076
X4.177Y-3.8694
X4.205Y-2.99
X4.2484Y-4.5573
X4.2579Y-5.5146
X4.2981Y-3.3483
X4.3261Y-3.1051
X4.3978Y-2.9937
X4.5071Y-5.2126
X4.523Y-2.991
X4.5723Y-2.9933
X4.5748Y-5.042
X4.657Y-3.0218
X4.718Y-5.606
X4.72Y-5.206
X4.815Y-4.862
X4.84Y-5.162
X4.9705Y-5.203
X5.12Y-5.606
T3
X3.0233Y-4.3513
X3.1233Y-4.3513
X3.2233Y-4.3513
X3.2824Y-5.3532
X3.3824Y-5.3532
X3.4824Y-5.3532
X4.3828Y-5.3532
X4.4828Y-5.3532
X4.5828Y-5.3532
X4.6395Y-4.3513
X4.7395Y-4.3513
X4.8395Y-4.3513
T4
X3.4202Y-2.6446
X4.4438Y-2.6446
T2
G00X2.7361Y-5.8316
M15
G01X2.7361Y-5.804
M16
G05
G00X2.869Y-2.5536
M15
G01X2.869Y-2.6048
M16
G05
G00X3.0176Y-5.8316
M15
G01X3.0176Y-5.804
M16
G05
G00X4.995Y-2.5536
M15
G01X4.995Y-2.6048
M16
G05
M30
