%TF.GenerationSoftware,KiCad,Pcbnew,8.0.6-8.0.6-0~ubuntu24.04.1*%
%TF.CreationDate,2024-11-21T15:03:40-05:00*%
%TF.ProjectId,roversa2,726f7665-7273-4613-922e-6b696361645f,rev?*%
%TF.SameCoordinates,Original*%
%TF.FileFunction,Soldermask,Bot*%
%TF.FilePolarity,Negative*%
%FSLAX46Y46*%
G04 Gerber Fmt 4.6, Leading zero omitted, Abs format (unit mm)*
G04 Created by KiCad (PCBNEW 8.0.6-8.0.6-0~ubuntu24.04.1) date 2024-11-21 15:03:40*
%MOMM*%
%LPD*%
G01*
G04 APERTURE LIST*
G04 APERTURE END LIST*
G36*
X93387342Y-146908893D02*
G01*
X93399670Y-146917130D01*
X93407907Y-146929458D01*
X93410800Y-146944000D01*
X93410800Y-148744000D01*
X93407907Y-148758542D01*
X93399670Y-148770870D01*
X93387342Y-148779107D01*
X93372800Y-148782000D01*
X92172800Y-148782000D01*
X92158258Y-148779107D01*
X92145930Y-148770870D01*
X92137693Y-148758542D01*
X92134800Y-148744000D01*
X92134800Y-146944000D01*
X92137693Y-146929458D01*
X92145930Y-146917130D01*
X92158258Y-146908893D01*
X92172800Y-146906000D01*
X93372800Y-146906000D01*
X93387342Y-146908893D01*
G37*
G36*
X98987342Y-146908893D02*
G01*
X98999670Y-146917130D01*
X99007907Y-146929458D01*
X99010800Y-146944000D01*
X99010800Y-148744000D01*
X99007907Y-148758542D01*
X98999670Y-148770870D01*
X98987342Y-148779107D01*
X98972800Y-148782000D01*
X97772800Y-148782000D01*
X97758258Y-148779107D01*
X97745930Y-148770870D01*
X97737693Y-148758542D01*
X97734800Y-148744000D01*
X97734800Y-146944000D01*
X97737693Y-146929458D01*
X97745930Y-146917130D01*
X97758258Y-146908893D01*
X97772800Y-146906000D01*
X98972800Y-146906000D01*
X98987342Y-146908893D01*
G37*
G36*
X101987342Y-146908893D02*
G01*
X101999670Y-146917130D01*
X102007907Y-146929458D01*
X102010800Y-146944000D01*
X102010800Y-148744000D01*
X102007907Y-148758542D01*
X101999670Y-148770870D01*
X101987342Y-148779107D01*
X101972800Y-148782000D01*
X100772800Y-148782000D01*
X100758258Y-148779107D01*
X100745930Y-148770870D01*
X100737693Y-148758542D01*
X100734800Y-148744000D01*
X100734800Y-146944000D01*
X100737693Y-146929458D01*
X100745930Y-146917130D01*
X100758258Y-146908893D01*
X100772800Y-146906000D01*
X101972800Y-146906000D01*
X101987342Y-146908893D01*
G37*
G36*
X107587342Y-146908893D02*
G01*
X107599670Y-146917130D01*
X107607907Y-146929458D01*
X107610800Y-146944000D01*
X107610800Y-148744000D01*
X107607907Y-148758542D01*
X107599670Y-148770870D01*
X107587342Y-148779107D01*
X107572800Y-148782000D01*
X106372800Y-148782000D01*
X106358258Y-148779107D01*
X106345930Y-148770870D01*
X106337693Y-148758542D01*
X106334800Y-148744000D01*
X106334800Y-146944000D01*
X106337693Y-146929458D01*
X106345930Y-146917130D01*
X106358258Y-146908893D01*
X106372800Y-146906000D01*
X107572800Y-146906000D01*
X107587342Y-146908893D01*
G37*
G36*
X72837342Y-146786793D02*
G01*
X72849670Y-146795030D01*
X72857907Y-146807358D01*
X72860800Y-146821900D01*
X72860800Y-148721900D01*
X72857907Y-148736442D01*
X72849670Y-148748770D01*
X72837342Y-148757007D01*
X72822800Y-148759900D01*
X70922800Y-148759900D01*
X70908258Y-148757007D01*
X70895930Y-148748770D01*
X70887693Y-148736442D01*
X70884800Y-148721900D01*
X70884800Y-146821900D01*
X70887693Y-146807358D01*
X70895930Y-146795030D01*
X70908258Y-146786793D01*
X70922800Y-146783900D01*
X72822800Y-146783900D01*
X72837342Y-146786793D01*
G37*
G36*
X75237342Y-146786793D02*
G01*
X75249670Y-146795030D01*
X75257907Y-146807358D01*
X75260800Y-146821900D01*
X75260800Y-148721900D01*
X75257907Y-148736442D01*
X75249670Y-148748770D01*
X75237342Y-148757007D01*
X75222800Y-148759900D01*
X73322800Y-148759900D01*
X73308258Y-148757007D01*
X73295930Y-148748770D01*
X73287693Y-148736442D01*
X73284800Y-148721900D01*
X73284800Y-146821900D01*
X73287693Y-146807358D01*
X73295930Y-146795030D01*
X73308258Y-146786793D01*
X73322800Y-146783900D01*
X75222800Y-146783900D01*
X75237342Y-146786793D01*
G37*
G36*
X69703684Y-146924853D02*
G01*
X69825314Y-146995076D01*
X69924624Y-147094386D01*
X69994847Y-147216016D01*
X70031197Y-147351677D01*
X70035800Y-147421900D01*
X70035800Y-148121900D01*
X70031197Y-148192123D01*
X69994847Y-148327784D01*
X69924624Y-148449414D01*
X69825314Y-148548724D01*
X69703684Y-148618947D01*
X69568023Y-148655297D01*
X69427577Y-148655297D01*
X69291916Y-148618947D01*
X69170286Y-148548724D01*
X69070976Y-148449414D01*
X69000753Y-148327784D01*
X68964403Y-148192123D01*
X68959800Y-148121900D01*
X68959800Y-147421900D01*
X68964403Y-147351677D01*
X69000753Y-147216016D01*
X69070976Y-147094386D01*
X69170286Y-146995076D01*
X69291916Y-146924853D01*
X69427577Y-146888503D01*
X69568023Y-146888503D01*
X69703684Y-146924853D01*
G37*
G36*
X76853684Y-146924853D02*
G01*
X76975314Y-146995076D01*
X77074624Y-147094386D01*
X77144847Y-147216016D01*
X77181197Y-147351677D01*
X77185800Y-147421900D01*
X77185800Y-148121900D01*
X77181197Y-148192123D01*
X77144847Y-148327784D01*
X77074624Y-148449414D01*
X76975314Y-148548724D01*
X76853684Y-148618947D01*
X76718023Y-148655297D01*
X76577577Y-148655297D01*
X76441916Y-148618947D01*
X76320286Y-148548724D01*
X76220976Y-148449414D01*
X76150753Y-148327784D01*
X76114403Y-148192123D01*
X76109800Y-148121900D01*
X76109800Y-147421900D01*
X76114403Y-147351677D01*
X76150753Y-147216016D01*
X76220976Y-147094386D01*
X76320286Y-146995076D01*
X76441916Y-146924853D01*
X76577577Y-146888503D01*
X76718023Y-146888503D01*
X76853684Y-146924853D01*
G37*
G36*
X121987342Y-146964893D02*
G01*
X121999670Y-146973130D01*
X122007907Y-146985458D01*
X122010800Y-147000000D01*
X122010800Y-148000000D01*
X122007907Y-148014542D01*
X121999670Y-148026870D01*
X121987342Y-148035107D01*
X121972800Y-148038000D01*
X120472800Y-148038000D01*
X120458258Y-148035107D01*
X120445930Y-148026870D01*
X120437693Y-148014542D01*
X120434800Y-148000000D01*
X120434800Y-147000000D01*
X120437693Y-146985458D01*
X120445930Y-146973130D01*
X120458258Y-146964893D01*
X120472800Y-146962000D01*
X121972800Y-146962000D01*
X121987342Y-146964893D01*
G37*
G36*
X130487342Y-146964893D02*
G01*
X130499670Y-146973130D01*
X130507907Y-146985458D01*
X130510800Y-147000000D01*
X130510800Y-148000000D01*
X130507907Y-148014542D01*
X130499670Y-148026870D01*
X130487342Y-148035107D01*
X130472800Y-148038000D01*
X128972800Y-148038000D01*
X128958258Y-148035107D01*
X128945930Y-148026870D01*
X128937693Y-148014542D01*
X128934800Y-148000000D01*
X128934800Y-147000000D01*
X128937693Y-146985458D01*
X128945930Y-146973130D01*
X128958258Y-146964893D01*
X128972800Y-146962000D01*
X130472800Y-146962000D01*
X130487342Y-146964893D01*
G37*
G36*
X71037342Y-144386793D02*
G01*
X71049670Y-144395030D01*
X71057907Y-144407358D01*
X71060800Y-144421900D01*
X71060800Y-146021900D01*
X71057907Y-146036442D01*
X71049670Y-146048770D01*
X71037342Y-146057007D01*
X71022800Y-146059900D01*
X68922800Y-146059900D01*
X68908258Y-146057007D01*
X68895930Y-146048770D01*
X68887693Y-146036442D01*
X68884800Y-146021900D01*
X68884800Y-144421900D01*
X68887693Y-144407358D01*
X68895930Y-144395030D01*
X68908258Y-144386793D01*
X68922800Y-144383900D01*
X71022800Y-144383900D01*
X71037342Y-144386793D01*
G37*
G36*
X77237342Y-144386793D02*
G01*
X77249670Y-144395030D01*
X77257907Y-144407358D01*
X77260800Y-144421900D01*
X77260800Y-146021900D01*
X77257907Y-146036442D01*
X77249670Y-146048770D01*
X77237342Y-146057007D01*
X77222800Y-146059900D01*
X75122800Y-146059900D01*
X75108258Y-146057007D01*
X75095930Y-146048770D01*
X75087693Y-146036442D01*
X75084800Y-146021900D01*
X75084800Y-144421900D01*
X75087693Y-144407358D01*
X75095930Y-144395030D01*
X75108258Y-144386793D01*
X75122800Y-144383900D01*
X77222800Y-144383900D01*
X77237342Y-144386793D01*
G37*
G36*
X121987342Y-144964893D02*
G01*
X121999670Y-144973130D01*
X122007907Y-144985458D01*
X122010800Y-145000000D01*
X122010800Y-146000000D01*
X122007907Y-146014542D01*
X121999670Y-146026870D01*
X121987342Y-146035107D01*
X121972800Y-146038000D01*
X120472800Y-146038000D01*
X120458258Y-146035107D01*
X120445930Y-146026870D01*
X120437693Y-146014542D01*
X120434800Y-146000000D01*
X120434800Y-145000000D01*
X120437693Y-144985458D01*
X120445930Y-144973130D01*
X120458258Y-144964893D01*
X120472800Y-144962000D01*
X121972800Y-144962000D01*
X121987342Y-144964893D01*
G37*
G36*
X130487342Y-144964893D02*
G01*
X130499670Y-144973130D01*
X130507907Y-144985458D01*
X130510800Y-145000000D01*
X130510800Y-146000000D01*
X130507907Y-146014542D01*
X130499670Y-146026870D01*
X130487342Y-146035107D01*
X130472800Y-146038000D01*
X128972800Y-146038000D01*
X128958258Y-146035107D01*
X128945930Y-146026870D01*
X128937693Y-146014542D01*
X128934800Y-146000000D01*
X128934800Y-145000000D01*
X128937693Y-144985458D01*
X128945930Y-144973130D01*
X128958258Y-144964893D01*
X128972800Y-144962000D01*
X130472800Y-144962000D01*
X130487342Y-144964893D01*
G37*
G36*
X71925610Y-144394405D02*
G01*
X71970381Y-144424319D01*
X72000295Y-144469090D01*
X72010800Y-144521900D01*
X72010800Y-145671900D01*
X72000295Y-145724710D01*
X71970381Y-145769481D01*
X71925610Y-145799395D01*
X71872800Y-145809900D01*
X71672800Y-145809900D01*
X71619990Y-145799395D01*
X71575219Y-145769481D01*
X71545305Y-145724710D01*
X71534800Y-145671900D01*
X71534800Y-144521900D01*
X71545305Y-144469090D01*
X71575219Y-144424319D01*
X71619990Y-144394405D01*
X71672800Y-144383900D01*
X71872800Y-144383900D01*
X71925610Y-144394405D01*
G37*
G36*
X72575610Y-144394405D02*
G01*
X72620381Y-144424319D01*
X72650295Y-144469090D01*
X72660800Y-144521900D01*
X72660800Y-145671900D01*
X72650295Y-145724710D01*
X72620381Y-145769481D01*
X72575610Y-145799395D01*
X72522800Y-145809900D01*
X72322800Y-145809900D01*
X72269990Y-145799395D01*
X72225219Y-145769481D01*
X72195305Y-145724710D01*
X72184800Y-145671900D01*
X72184800Y-144521900D01*
X72195305Y-144469090D01*
X72225219Y-144424319D01*
X72269990Y-144394405D01*
X72322800Y-144383900D01*
X72522800Y-144383900D01*
X72575610Y-144394405D01*
G37*
G36*
X73225610Y-144394405D02*
G01*
X73270381Y-144424319D01*
X73300295Y-144469090D01*
X73310800Y-144521900D01*
X73310800Y-145671900D01*
X73300295Y-145724710D01*
X73270381Y-145769481D01*
X73225610Y-145799395D01*
X73172800Y-145809900D01*
X72972800Y-145809900D01*
X72919990Y-145799395D01*
X72875219Y-145769481D01*
X72845305Y-145724710D01*
X72834800Y-145671900D01*
X72834800Y-144521900D01*
X72845305Y-144469090D01*
X72875219Y-144424319D01*
X72919990Y-144394405D01*
X72972800Y-144383900D01*
X73172800Y-144383900D01*
X73225610Y-144394405D01*
G37*
G36*
X73875610Y-144394405D02*
G01*
X73920381Y-144424319D01*
X73950295Y-144469090D01*
X73960800Y-144521900D01*
X73960800Y-145671900D01*
X73950295Y-145724710D01*
X73920381Y-145769481D01*
X73875610Y-145799395D01*
X73822800Y-145809900D01*
X73622800Y-145809900D01*
X73569990Y-145799395D01*
X73525219Y-145769481D01*
X73495305Y-145724710D01*
X73484800Y-145671900D01*
X73484800Y-144521900D01*
X73495305Y-144469090D01*
X73525219Y-144424319D01*
X73569990Y-144394405D01*
X73622800Y-144383900D01*
X73822800Y-144383900D01*
X73875610Y-144394405D01*
G37*
G36*
X74525610Y-144394405D02*
G01*
X74570381Y-144424319D01*
X74600295Y-144469090D01*
X74610800Y-144521900D01*
X74610800Y-145671900D01*
X74600295Y-145724710D01*
X74570381Y-145769481D01*
X74525610Y-145799395D01*
X74472800Y-145809900D01*
X74272800Y-145809900D01*
X74219990Y-145799395D01*
X74175219Y-145769481D01*
X74145305Y-145724710D01*
X74134800Y-145671900D01*
X74134800Y-144521900D01*
X74145305Y-144469090D01*
X74175219Y-144424319D01*
X74219990Y-144394405D01*
X74272800Y-144383900D01*
X74472800Y-144383900D01*
X74525610Y-144394405D01*
G37*
G36*
X94387342Y-143158893D02*
G01*
X94399670Y-143167130D01*
X94407907Y-143179458D01*
X94410800Y-143194000D01*
X94410800Y-144744000D01*
X94407907Y-144758542D01*
X94399670Y-144770870D01*
X94387342Y-144779107D01*
X94372800Y-144782000D01*
X93772800Y-144782000D01*
X93758258Y-144779107D01*
X93745930Y-144770870D01*
X93737693Y-144758542D01*
X93734800Y-144744000D01*
X93734800Y-143194000D01*
X93737693Y-143179458D01*
X93745930Y-143167130D01*
X93758258Y-143158893D01*
X93772800Y-143156000D01*
X94372800Y-143156000D01*
X94387342Y-143158893D01*
G37*
G36*
X95387342Y-143158893D02*
G01*
X95399670Y-143167130D01*
X95407907Y-143179458D01*
X95410800Y-143194000D01*
X95410800Y-144744000D01*
X95407907Y-144758542D01*
X95399670Y-144770870D01*
X95387342Y-144779107D01*
X95372800Y-144782000D01*
X94772800Y-144782000D01*
X94758258Y-144779107D01*
X94745930Y-144770870D01*
X94737693Y-144758542D01*
X94734800Y-144744000D01*
X94734800Y-143194000D01*
X94737693Y-143179458D01*
X94745930Y-143167130D01*
X94758258Y-143158893D01*
X94772800Y-143156000D01*
X95372800Y-143156000D01*
X95387342Y-143158893D01*
G37*
G36*
X96387342Y-143158893D02*
G01*
X96399670Y-143167130D01*
X96407907Y-143179458D01*
X96410800Y-143194000D01*
X96410800Y-144744000D01*
X96407907Y-144758542D01*
X96399670Y-144770870D01*
X96387342Y-144779107D01*
X96372800Y-144782000D01*
X95772800Y-144782000D01*
X95758258Y-144779107D01*
X95745930Y-144770870D01*
X95737693Y-144758542D01*
X95734800Y-144744000D01*
X95734800Y-143194000D01*
X95737693Y-143179458D01*
X95745930Y-143167130D01*
X95758258Y-143158893D01*
X95772800Y-143156000D01*
X96372800Y-143156000D01*
X96387342Y-143158893D01*
G37*
G36*
X97387342Y-143158893D02*
G01*
X97399670Y-143167130D01*
X97407907Y-143179458D01*
X97410800Y-143194000D01*
X97410800Y-144744000D01*
X97407907Y-144758542D01*
X97399670Y-144770870D01*
X97387342Y-144779107D01*
X97372800Y-144782000D01*
X96772800Y-144782000D01*
X96758258Y-144779107D01*
X96745930Y-144770870D01*
X96737693Y-144758542D01*
X96734800Y-144744000D01*
X96734800Y-143194000D01*
X96737693Y-143179458D01*
X96745930Y-143167130D01*
X96758258Y-143158893D01*
X96772800Y-143156000D01*
X97372800Y-143156000D01*
X97387342Y-143158893D01*
G37*
G36*
X102987342Y-143158893D02*
G01*
X102999670Y-143167130D01*
X103007907Y-143179458D01*
X103010800Y-143194000D01*
X103010800Y-144744000D01*
X103007907Y-144758542D01*
X102999670Y-144770870D01*
X102987342Y-144779107D01*
X102972800Y-144782000D01*
X102372800Y-144782000D01*
X102358258Y-144779107D01*
X102345930Y-144770870D01*
X102337693Y-144758542D01*
X102334800Y-144744000D01*
X102334800Y-143194000D01*
X102337693Y-143179458D01*
X102345930Y-143167130D01*
X102358258Y-143158893D01*
X102372800Y-143156000D01*
X102972800Y-143156000D01*
X102987342Y-143158893D01*
G37*
G36*
X103987342Y-143158893D02*
G01*
X103999670Y-143167130D01*
X104007907Y-143179458D01*
X104010800Y-143194000D01*
X104010800Y-144744000D01*
X104007907Y-144758542D01*
X103999670Y-144770870D01*
X103987342Y-144779107D01*
X103972800Y-144782000D01*
X103372800Y-144782000D01*
X103358258Y-144779107D01*
X103345930Y-144770870D01*
X103337693Y-144758542D01*
X103334800Y-144744000D01*
X103334800Y-143194000D01*
X103337693Y-143179458D01*
X103345930Y-143167130D01*
X103358258Y-143158893D01*
X103372800Y-143156000D01*
X103972800Y-143156000D01*
X103987342Y-143158893D01*
G37*
G36*
X104987342Y-143158893D02*
G01*
X104999670Y-143167130D01*
X105007907Y-143179458D01*
X105010800Y-143194000D01*
X105010800Y-144744000D01*
X105007907Y-144758542D01*
X104999670Y-144770870D01*
X104987342Y-144779107D01*
X104972800Y-144782000D01*
X104372800Y-144782000D01*
X104358258Y-144779107D01*
X104345930Y-144770870D01*
X104337693Y-144758542D01*
X104334800Y-144744000D01*
X104334800Y-143194000D01*
X104337693Y-143179458D01*
X104345930Y-143167130D01*
X104358258Y-143158893D01*
X104372800Y-143156000D01*
X104972800Y-143156000D01*
X104987342Y-143158893D01*
G37*
G36*
X105987342Y-143158893D02*
G01*
X105999670Y-143167130D01*
X106007907Y-143179458D01*
X106010800Y-143194000D01*
X106010800Y-144744000D01*
X106007907Y-144758542D01*
X105999670Y-144770870D01*
X105987342Y-144779107D01*
X105972800Y-144782000D01*
X105372800Y-144782000D01*
X105358258Y-144779107D01*
X105345930Y-144770870D01*
X105337693Y-144758542D01*
X105334800Y-144744000D01*
X105334800Y-143194000D01*
X105337693Y-143179458D01*
X105345930Y-143167130D01*
X105358258Y-143158893D01*
X105372800Y-143156000D01*
X105972800Y-143156000D01*
X105987342Y-143158893D01*
G37*
G36*
X124987342Y-142214893D02*
G01*
X124999670Y-142223130D01*
X125007907Y-142235458D01*
X125010800Y-142250000D01*
X125010800Y-143750000D01*
X125007907Y-143764542D01*
X124999670Y-143776870D01*
X124987342Y-143785107D01*
X124972800Y-143788000D01*
X123972800Y-143788000D01*
X123958258Y-143785107D01*
X123945930Y-143776870D01*
X123937693Y-143764542D01*
X123934800Y-143750000D01*
X123934800Y-142250000D01*
X123937693Y-142235458D01*
X123945930Y-142223130D01*
X123958258Y-142214893D01*
X123972800Y-142212000D01*
X124972800Y-142212000D01*
X124987342Y-142214893D01*
G37*
G36*
X126987342Y-142214893D02*
G01*
X126999670Y-142223130D01*
X127007907Y-142235458D01*
X127010800Y-142250000D01*
X127010800Y-143750000D01*
X127007907Y-143764542D01*
X126999670Y-143776870D01*
X126987342Y-143785107D01*
X126972800Y-143788000D01*
X125972800Y-143788000D01*
X125958258Y-143785107D01*
X125945930Y-143776870D01*
X125937693Y-143764542D01*
X125934800Y-143750000D01*
X125934800Y-142250000D01*
X125937693Y-142235458D01*
X125945930Y-142223130D01*
X125958258Y-142214893D01*
X125972800Y-142212000D01*
X126972800Y-142212000D01*
X126987342Y-142214893D01*
G37*
G36*
X97340738Y-140652850D02*
G01*
X97345453Y-140654932D01*
X97348126Y-140655284D01*
X97381570Y-140670879D01*
X97437559Y-140695601D01*
X97512399Y-140770441D01*
X97537130Y-140826451D01*
X97552715Y-140859873D01*
X97553066Y-140862543D01*
X97555150Y-140867262D01*
X97562800Y-140933200D01*
X97562800Y-141458200D01*
X97555150Y-141524138D01*
X97553066Y-141528856D01*
X97552715Y-141531526D01*
X97537138Y-141564930D01*
X97512399Y-141620959D01*
X97437559Y-141695799D01*
X97381530Y-141720538D01*
X97348126Y-141736115D01*
X97345456Y-141736466D01*
X97340738Y-141738550D01*
X97274800Y-141746200D01*
X96374800Y-141746200D01*
X96308862Y-141738550D01*
X96304143Y-141736466D01*
X96301473Y-141736115D01*
X96268051Y-141720530D01*
X96212041Y-141695799D01*
X96137201Y-141620959D01*
X96112479Y-141564970D01*
X96096884Y-141531526D01*
X96096532Y-141528853D01*
X96094450Y-141524138D01*
X96086800Y-141458200D01*
X96086800Y-140933200D01*
X96094450Y-140867262D01*
X96096532Y-140862546D01*
X96096884Y-140859873D01*
X96112487Y-140826410D01*
X96137201Y-140770441D01*
X96212041Y-140695601D01*
X96268010Y-140670887D01*
X96301473Y-140655284D01*
X96304146Y-140654932D01*
X96308862Y-140652850D01*
X96374800Y-140645200D01*
X97274800Y-140645200D01*
X97340738Y-140652850D01*
G37*
G36*
X99287342Y-140172693D02*
G01*
X99299670Y-140180930D01*
X99307907Y-140193258D01*
X99310800Y-140207800D01*
X99310800Y-140657800D01*
X99307907Y-140672342D01*
X99299670Y-140684670D01*
X99287342Y-140692907D01*
X99272800Y-140695800D01*
X98372800Y-140695800D01*
X98358258Y-140692907D01*
X98345930Y-140684670D01*
X98337693Y-140672342D01*
X98334800Y-140657800D01*
X98334800Y-140207800D01*
X98337693Y-140193258D01*
X98345930Y-140180930D01*
X98358258Y-140172693D01*
X98372800Y-140169800D01*
X99272800Y-140169800D01*
X99287342Y-140172693D01*
G37*
G36*
X101387342Y-140172693D02*
G01*
X101399670Y-140180930D01*
X101407907Y-140193258D01*
X101410800Y-140207800D01*
X101410800Y-140657800D01*
X101407907Y-140672342D01*
X101399670Y-140684670D01*
X101387342Y-140692907D01*
X101372800Y-140695800D01*
X100472800Y-140695800D01*
X100458258Y-140692907D01*
X100445930Y-140684670D01*
X100437693Y-140672342D01*
X100434800Y-140657800D01*
X100434800Y-140207800D01*
X100437693Y-140193258D01*
X100445930Y-140180930D01*
X100458258Y-140172693D01*
X100472800Y-140169800D01*
X101372800Y-140169800D01*
X101387342Y-140172693D01*
G37*
G36*
X97340738Y-138827850D02*
G01*
X97345453Y-138829932D01*
X97348126Y-138830284D01*
X97381570Y-138845879D01*
X97437559Y-138870601D01*
X97512399Y-138945441D01*
X97537130Y-139001451D01*
X97552715Y-139034873D01*
X97553066Y-139037543D01*
X97555150Y-139042262D01*
X97562800Y-139108200D01*
X97562800Y-139633200D01*
X97555150Y-139699138D01*
X97553066Y-139703856D01*
X97552715Y-139706526D01*
X97537138Y-139739930D01*
X97512399Y-139795959D01*
X97437559Y-139870799D01*
X97381530Y-139895538D01*
X97348126Y-139911115D01*
X97345456Y-139911466D01*
X97340738Y-139913550D01*
X97274800Y-139921200D01*
X96374800Y-139921200D01*
X96308862Y-139913550D01*
X96304143Y-139911466D01*
X96301473Y-139911115D01*
X96268051Y-139895530D01*
X96212041Y-139870799D01*
X96137201Y-139795959D01*
X96112479Y-139739970D01*
X96096884Y-139706526D01*
X96096532Y-139703853D01*
X96094450Y-139699138D01*
X96086800Y-139633200D01*
X96086800Y-139108200D01*
X96094450Y-139042262D01*
X96096532Y-139037546D01*
X96096884Y-139034873D01*
X96112487Y-139001410D01*
X96137201Y-138945441D01*
X96212041Y-138870601D01*
X96268010Y-138845887D01*
X96301473Y-138830284D01*
X96304146Y-138829932D01*
X96308862Y-138827850D01*
X96374800Y-138820200D01*
X97274800Y-138820200D01*
X97340738Y-138827850D01*
G37*
G36*
X99287342Y-139322693D02*
G01*
X99299670Y-139330930D01*
X99307907Y-139343258D01*
X99310800Y-139357800D01*
X99310800Y-139807800D01*
X99307907Y-139822342D01*
X99299670Y-139834670D01*
X99287342Y-139842907D01*
X99272800Y-139845800D01*
X98372800Y-139845800D01*
X98358258Y-139842907D01*
X98345930Y-139834670D01*
X98337693Y-139822342D01*
X98334800Y-139807800D01*
X98334800Y-139357800D01*
X98337693Y-139343258D01*
X98345930Y-139330930D01*
X98358258Y-139322693D01*
X98372800Y-139319800D01*
X99272800Y-139319800D01*
X99287342Y-139322693D01*
G37*
G36*
X101387342Y-139322693D02*
G01*
X101399670Y-139330930D01*
X101407907Y-139343258D01*
X101410800Y-139357800D01*
X101410800Y-139807800D01*
X101407907Y-139822342D01*
X101399670Y-139834670D01*
X101387342Y-139842907D01*
X101372800Y-139845800D01*
X100472800Y-139845800D01*
X100458258Y-139842907D01*
X100445930Y-139834670D01*
X100437693Y-139822342D01*
X100434800Y-139807800D01*
X100434800Y-139357800D01*
X100437693Y-139343258D01*
X100445930Y-139330930D01*
X100458258Y-139322693D01*
X100472800Y-139319800D01*
X101372800Y-139319800D01*
X101387342Y-139322693D01*
G37*
G36*
X99287342Y-138472693D02*
G01*
X99299670Y-138480930D01*
X99307907Y-138493258D01*
X99310800Y-138507800D01*
X99310800Y-138957800D01*
X99307907Y-138972342D01*
X99299670Y-138984670D01*
X99287342Y-138992907D01*
X99272800Y-138995800D01*
X98372800Y-138995800D01*
X98358258Y-138992907D01*
X98345930Y-138984670D01*
X98337693Y-138972342D01*
X98334800Y-138957800D01*
X98334800Y-138507800D01*
X98337693Y-138493258D01*
X98345930Y-138480930D01*
X98358258Y-138472693D01*
X98372800Y-138469800D01*
X99272800Y-138469800D01*
X99287342Y-138472693D01*
G37*
G36*
X101387342Y-138472693D02*
G01*
X101399670Y-138480930D01*
X101407907Y-138493258D01*
X101410800Y-138507800D01*
X101410800Y-138957800D01*
X101407907Y-138972342D01*
X101399670Y-138984670D01*
X101387342Y-138992907D01*
X101372800Y-138995800D01*
X100472800Y-138995800D01*
X100458258Y-138992907D01*
X100445930Y-138984670D01*
X100437693Y-138972342D01*
X100434800Y-138957800D01*
X100434800Y-138507800D01*
X100437693Y-138493258D01*
X100445930Y-138480930D01*
X100458258Y-138472693D01*
X100472800Y-138469800D01*
X101372800Y-138469800D01*
X101387342Y-138472693D01*
G37*
G36*
X97180538Y-135793650D02*
G01*
X97185253Y-135795732D01*
X97187926Y-135796084D01*
X97221370Y-135811679D01*
X97277359Y-135836401D01*
X97352199Y-135911241D01*
X97376930Y-135967251D01*
X97392515Y-136000673D01*
X97392866Y-136003343D01*
X97394950Y-136008062D01*
X97402600Y-136074000D01*
X97402600Y-136974000D01*
X97394950Y-137039938D01*
X97392866Y-137044656D01*
X97392515Y-137047326D01*
X97376938Y-137080730D01*
X97352199Y-137136759D01*
X97277359Y-137211599D01*
X97221330Y-137236338D01*
X97187926Y-137251915D01*
X97185256Y-137252266D01*
X97180538Y-137254350D01*
X97114600Y-137262000D01*
X96589600Y-137262000D01*
X96523662Y-137254350D01*
X96518943Y-137252266D01*
X96516273Y-137251915D01*
X96482851Y-137236330D01*
X96426841Y-137211599D01*
X96352001Y-137136759D01*
X96327279Y-137080770D01*
X96311684Y-137047326D01*
X96311332Y-137044653D01*
X96309250Y-137039938D01*
X96301600Y-136974000D01*
X96301600Y-136074000D01*
X96309250Y-136008062D01*
X96311332Y-136003346D01*
X96311684Y-136000673D01*
X96327287Y-135967210D01*
X96352001Y-135911241D01*
X96426841Y-135836401D01*
X96482810Y-135811687D01*
X96516273Y-135796084D01*
X96518946Y-135795732D01*
X96523662Y-135793650D01*
X96589600Y-135786000D01*
X97114600Y-135786000D01*
X97180538Y-135793650D01*
G37*
G36*
X99005538Y-135793650D02*
G01*
X99010253Y-135795732D01*
X99012926Y-135796084D01*
X99046370Y-135811679D01*
X99102359Y-135836401D01*
X99177199Y-135911241D01*
X99201930Y-135967251D01*
X99217515Y-136000673D01*
X99217866Y-136003343D01*
X99219950Y-136008062D01*
X99227600Y-136074000D01*
X99227600Y-136974000D01*
X99219950Y-137039938D01*
X99217866Y-137044656D01*
X99217515Y-137047326D01*
X99201938Y-137080730D01*
X99177199Y-137136759D01*
X99102359Y-137211599D01*
X99046330Y-137236338D01*
X99012926Y-137251915D01*
X99010256Y-137252266D01*
X99005538Y-137254350D01*
X98939600Y-137262000D01*
X98414600Y-137262000D01*
X98348662Y-137254350D01*
X98343943Y-137252266D01*
X98341273Y-137251915D01*
X98307851Y-137236330D01*
X98251841Y-137211599D01*
X98177001Y-137136759D01*
X98152279Y-137080770D01*
X98136684Y-137047326D01*
X98136332Y-137044653D01*
X98134250Y-137039938D01*
X98126600Y-136974000D01*
X98126600Y-136074000D01*
X98134250Y-136008062D01*
X98136332Y-136003346D01*
X98136684Y-136000673D01*
X98152287Y-135967210D01*
X98177001Y-135911241D01*
X98251841Y-135836401D01*
X98307810Y-135811687D01*
X98341273Y-135796084D01*
X98343946Y-135795732D01*
X98348662Y-135793650D01*
X98414600Y-135786000D01*
X98939600Y-135786000D01*
X99005538Y-135793650D01*
G37*
G36*
X84237342Y-135086793D02*
G01*
X84249670Y-135095030D01*
X84257907Y-135107358D01*
X84260800Y-135121900D01*
X84260800Y-136821900D01*
X84257907Y-136836442D01*
X84249670Y-136848770D01*
X84237342Y-136857007D01*
X84222800Y-136859900D01*
X82522800Y-136859900D01*
X82508258Y-136857007D01*
X82495930Y-136848770D01*
X82487693Y-136836442D01*
X82484800Y-136821900D01*
X82484800Y-135121900D01*
X82487693Y-135107358D01*
X82495930Y-135095030D01*
X82508258Y-135086793D01*
X82522800Y-135083900D01*
X84222800Y-135083900D01*
X84237342Y-135086793D01*
G37*
G36*
X112187342Y-135086793D02*
G01*
X112199670Y-135095030D01*
X112207907Y-135107358D01*
X112210800Y-135121900D01*
X112210800Y-136821900D01*
X112207907Y-136836442D01*
X112199670Y-136848770D01*
X112187342Y-136857007D01*
X112172800Y-136859900D01*
X110472800Y-136859900D01*
X110458258Y-136857007D01*
X110445930Y-136848770D01*
X110437693Y-136836442D01*
X110434800Y-136821900D01*
X110434800Y-135121900D01*
X110437693Y-135107358D01*
X110445930Y-135095030D01*
X110458258Y-135086793D01*
X110472800Y-135083900D01*
X112172800Y-135083900D01*
X112187342Y-135086793D01*
G37*
G36*
X86187207Y-135127362D02*
G01*
X86356800Y-135202869D01*
X86506988Y-135311987D01*
X86631207Y-135449947D01*
X86724028Y-135610718D01*
X86781395Y-135787274D01*
X86800800Y-135971900D01*
X86781395Y-136156526D01*
X86724028Y-136333082D01*
X86631207Y-136493853D01*
X86506988Y-136631813D01*
X86356800Y-136740931D01*
X86187207Y-136816438D01*
X86005621Y-136855035D01*
X85819979Y-136855035D01*
X85638393Y-136816438D01*
X85468800Y-136740931D01*
X85318612Y-136631813D01*
X85194393Y-136493853D01*
X85101572Y-136333082D01*
X85044205Y-136156526D01*
X85024800Y-135971900D01*
X85044205Y-135787274D01*
X85101572Y-135610718D01*
X85194393Y-135449947D01*
X85318612Y-135311987D01*
X85468800Y-135202869D01*
X85638393Y-135127362D01*
X85819979Y-135088765D01*
X86005621Y-135088765D01*
X86187207Y-135127362D01*
G37*
G36*
X88727207Y-135127362D02*
G01*
X88896800Y-135202869D01*
X89046988Y-135311987D01*
X89171207Y-135449947D01*
X89264028Y-135610718D01*
X89321395Y-135787274D01*
X89340800Y-135971900D01*
X89321395Y-136156526D01*
X89264028Y-136333082D01*
X89171207Y-136493853D01*
X89046988Y-136631813D01*
X88896800Y-136740931D01*
X88727207Y-136816438D01*
X88545621Y-136855035D01*
X88359979Y-136855035D01*
X88178393Y-136816438D01*
X88008800Y-136740931D01*
X87858612Y-136631813D01*
X87734393Y-136493853D01*
X87641572Y-136333082D01*
X87584205Y-136156526D01*
X87564800Y-135971900D01*
X87584205Y-135787274D01*
X87641572Y-135610718D01*
X87734393Y-135449947D01*
X87858612Y-135311987D01*
X88008800Y-135202869D01*
X88178393Y-135127362D01*
X88359979Y-135088765D01*
X88545621Y-135088765D01*
X88727207Y-135127362D01*
G37*
G36*
X114137207Y-135127362D02*
G01*
X114306800Y-135202869D01*
X114456988Y-135311987D01*
X114581207Y-135449947D01*
X114674028Y-135610718D01*
X114731395Y-135787274D01*
X114750800Y-135971900D01*
X114731395Y-136156526D01*
X114674028Y-136333082D01*
X114581207Y-136493853D01*
X114456988Y-136631813D01*
X114306800Y-136740931D01*
X114137207Y-136816438D01*
X113955621Y-136855035D01*
X113769979Y-136855035D01*
X113588393Y-136816438D01*
X113418800Y-136740931D01*
X113268612Y-136631813D01*
X113144393Y-136493853D01*
X113051572Y-136333082D01*
X112994205Y-136156526D01*
X112974800Y-135971900D01*
X112994205Y-135787274D01*
X113051572Y-135610718D01*
X113144393Y-135449947D01*
X113268612Y-135311987D01*
X113418800Y-135202869D01*
X113588393Y-135127362D01*
X113769979Y-135088765D01*
X113955621Y-135088765D01*
X114137207Y-135127362D01*
G37*
G36*
X116677207Y-135127362D02*
G01*
X116846800Y-135202869D01*
X116996988Y-135311987D01*
X117121207Y-135449947D01*
X117214028Y-135610718D01*
X117271395Y-135787274D01*
X117290800Y-135971900D01*
X117271395Y-136156526D01*
X117214028Y-136333082D01*
X117121207Y-136493853D01*
X116996988Y-136631813D01*
X116846800Y-136740931D01*
X116677207Y-136816438D01*
X116495621Y-136855035D01*
X116309979Y-136855035D01*
X116128393Y-136816438D01*
X115958800Y-136740931D01*
X115808612Y-136631813D01*
X115684393Y-136493853D01*
X115591572Y-136333082D01*
X115534205Y-136156526D01*
X115514800Y-135971900D01*
X115534205Y-135787274D01*
X115591572Y-135610718D01*
X115684393Y-135449947D01*
X115808612Y-135311987D01*
X115958800Y-135202869D01*
X116128393Y-135127362D01*
X116309979Y-135088765D01*
X116495621Y-135088765D01*
X116677207Y-135127362D01*
G37*
G36*
X71432938Y-134959650D02*
G01*
X71437653Y-134961732D01*
X71440326Y-134962084D01*
X71473770Y-134977679D01*
X71529759Y-135002401D01*
X71604599Y-135077241D01*
X71629330Y-135133251D01*
X71644915Y-135166673D01*
X71645266Y-135169343D01*
X71647350Y-135174062D01*
X71655000Y-135240000D01*
X71655000Y-136540000D01*
X71647350Y-136605938D01*
X71645266Y-136610656D01*
X71644915Y-136613326D01*
X71629338Y-136646730D01*
X71604599Y-136702759D01*
X71529759Y-136777599D01*
X71473730Y-136802338D01*
X71440326Y-136817915D01*
X71437656Y-136818266D01*
X71432938Y-136820350D01*
X71367000Y-136828000D01*
X70717000Y-136828000D01*
X70651062Y-136820350D01*
X70646343Y-136818266D01*
X70643673Y-136817915D01*
X70610251Y-136802330D01*
X70554241Y-136777599D01*
X70479401Y-136702759D01*
X70454679Y-136646770D01*
X70439084Y-136613326D01*
X70438732Y-136610653D01*
X70436650Y-136605938D01*
X70429000Y-136540000D01*
X70429000Y-135240000D01*
X70436650Y-135174062D01*
X70438732Y-135169346D01*
X70439084Y-135166673D01*
X70454687Y-135133210D01*
X70479401Y-135077241D01*
X70554241Y-135002401D01*
X70610210Y-134977687D01*
X70643673Y-134962084D01*
X70646346Y-134961732D01*
X70651062Y-134959650D01*
X70717000Y-134952000D01*
X71367000Y-134952000D01*
X71432938Y-134959650D01*
G37*
G36*
X74382938Y-134959650D02*
G01*
X74387653Y-134961732D01*
X74390326Y-134962084D01*
X74423770Y-134977679D01*
X74479759Y-135002401D01*
X74554599Y-135077241D01*
X74579330Y-135133251D01*
X74594915Y-135166673D01*
X74595266Y-135169343D01*
X74597350Y-135174062D01*
X74605000Y-135240000D01*
X74605000Y-136540000D01*
X74597350Y-136605938D01*
X74595266Y-136610656D01*
X74594915Y-136613326D01*
X74579338Y-136646730D01*
X74554599Y-136702759D01*
X74479759Y-136777599D01*
X74423730Y-136802338D01*
X74390326Y-136817915D01*
X74387656Y-136818266D01*
X74382938Y-136820350D01*
X74317000Y-136828000D01*
X73667000Y-136828000D01*
X73601062Y-136820350D01*
X73596343Y-136818266D01*
X73593673Y-136817915D01*
X73560251Y-136802330D01*
X73504241Y-136777599D01*
X73429401Y-136702759D01*
X73404679Y-136646770D01*
X73389084Y-136613326D01*
X73388732Y-136610653D01*
X73386650Y-136605938D01*
X73379000Y-136540000D01*
X73379000Y-135240000D01*
X73386650Y-135174062D01*
X73388732Y-135169346D01*
X73389084Y-135166673D01*
X73404687Y-135133210D01*
X73429401Y-135077241D01*
X73504241Y-135002401D01*
X73560210Y-134977687D01*
X73593673Y-134962084D01*
X73596346Y-134961732D01*
X73601062Y-134959650D01*
X73667000Y-134952000D01*
X74317000Y-134952000D01*
X74382938Y-134959650D01*
G37*
G36*
X97180538Y-133787050D02*
G01*
X97185253Y-133789132D01*
X97187926Y-133789484D01*
X97221370Y-133805079D01*
X97277359Y-133829801D01*
X97352199Y-133904641D01*
X97376930Y-133960651D01*
X97392515Y-133994073D01*
X97392866Y-133996743D01*
X97394950Y-134001462D01*
X97402600Y-134067400D01*
X97402600Y-134967400D01*
X97394950Y-135033338D01*
X97392866Y-135038056D01*
X97392515Y-135040726D01*
X97376938Y-135074130D01*
X97352199Y-135130159D01*
X97277359Y-135204999D01*
X97221330Y-135229738D01*
X97187926Y-135245315D01*
X97185256Y-135245666D01*
X97180538Y-135247750D01*
X97114600Y-135255400D01*
X96589600Y-135255400D01*
X96523662Y-135247750D01*
X96518943Y-135245666D01*
X96516273Y-135245315D01*
X96482851Y-135229730D01*
X96426841Y-135204999D01*
X96352001Y-135130159D01*
X96327279Y-135074170D01*
X96311684Y-135040726D01*
X96311332Y-135038053D01*
X96309250Y-135033338D01*
X96301600Y-134967400D01*
X96301600Y-134067400D01*
X96309250Y-134001462D01*
X96311332Y-133996746D01*
X96311684Y-133994073D01*
X96327287Y-133960610D01*
X96352001Y-133904641D01*
X96426841Y-133829801D01*
X96482810Y-133805087D01*
X96516273Y-133789484D01*
X96518946Y-133789132D01*
X96523662Y-133787050D01*
X96589600Y-133779400D01*
X97114600Y-133779400D01*
X97180538Y-133787050D01*
G37*
G36*
X99005538Y-133787050D02*
G01*
X99010253Y-133789132D01*
X99012926Y-133789484D01*
X99046370Y-133805079D01*
X99102359Y-133829801D01*
X99177199Y-133904641D01*
X99201930Y-133960651D01*
X99217515Y-133994073D01*
X99217866Y-133996743D01*
X99219950Y-134001462D01*
X99227600Y-134067400D01*
X99227600Y-134967400D01*
X99219950Y-135033338D01*
X99217866Y-135038056D01*
X99217515Y-135040726D01*
X99201938Y-135074130D01*
X99177199Y-135130159D01*
X99102359Y-135204999D01*
X99046330Y-135229738D01*
X99012926Y-135245315D01*
X99010256Y-135245666D01*
X99005538Y-135247750D01*
X98939600Y-135255400D01*
X98414600Y-135255400D01*
X98348662Y-135247750D01*
X98343943Y-135245666D01*
X98341273Y-135245315D01*
X98307851Y-135229730D01*
X98251841Y-135204999D01*
X98177001Y-135130159D01*
X98152279Y-135074170D01*
X98136684Y-135040726D01*
X98136332Y-135038053D01*
X98134250Y-135033338D01*
X98126600Y-134967400D01*
X98126600Y-134067400D01*
X98134250Y-134001462D01*
X98136332Y-133996746D01*
X98136684Y-133994073D01*
X98152287Y-133960610D01*
X98177001Y-133904641D01*
X98251841Y-133829801D01*
X98307810Y-133805087D01*
X98341273Y-133789484D01*
X98343946Y-133789132D01*
X98348662Y-133787050D01*
X98414600Y-133779400D01*
X98939600Y-133779400D01*
X99005538Y-133787050D01*
G37*
G36*
X72141938Y-133062150D02*
G01*
X72146653Y-133064232D01*
X72149326Y-133064584D01*
X72182770Y-133080179D01*
X72238759Y-133104901D01*
X72313599Y-133179741D01*
X72338330Y-133235751D01*
X72353915Y-133269173D01*
X72354266Y-133271843D01*
X72356350Y-133276562D01*
X72364000Y-133342500D01*
X72364000Y-133992500D01*
X72356350Y-134058438D01*
X72354266Y-134063156D01*
X72353915Y-134065826D01*
X72338338Y-134099230D01*
X72313599Y-134155259D01*
X72238759Y-134230099D01*
X72182730Y-134254838D01*
X72149326Y-134270415D01*
X72146656Y-134270766D01*
X72141938Y-134272850D01*
X72076000Y-134280500D01*
X70776000Y-134280500D01*
X70710062Y-134272850D01*
X70705343Y-134270766D01*
X70702673Y-134270415D01*
X70669251Y-134254830D01*
X70613241Y-134230099D01*
X70538401Y-134155259D01*
X70513679Y-134099270D01*
X70498084Y-134065826D01*
X70497732Y-134063153D01*
X70495650Y-134058438D01*
X70488000Y-133992500D01*
X70488000Y-133342500D01*
X70495650Y-133276562D01*
X70497732Y-133271846D01*
X70498084Y-133269173D01*
X70513687Y-133235710D01*
X70538401Y-133179741D01*
X70613241Y-133104901D01*
X70669210Y-133080187D01*
X70702673Y-133064584D01*
X70705346Y-133064232D01*
X70710062Y-133062150D01*
X70776000Y-133054500D01*
X72076000Y-133054500D01*
X72141938Y-133062150D01*
G37*
G36*
X121922942Y-130423493D02*
G01*
X121935270Y-130431730D01*
X121943507Y-130444058D01*
X121946400Y-130458600D01*
X121946400Y-134158600D01*
X121943507Y-134173142D01*
X121935270Y-134185470D01*
X121922942Y-134193707D01*
X121908400Y-134196600D01*
X120808400Y-134196600D01*
X120793858Y-134193707D01*
X120781530Y-134185470D01*
X120773293Y-134173142D01*
X120770400Y-134158600D01*
X120770400Y-130458600D01*
X120773293Y-130444058D01*
X120781530Y-130431730D01*
X120793858Y-130423493D01*
X120808400Y-130420600D01*
X121908400Y-130420600D01*
X121922942Y-130423493D01*
G37*
G36*
X124922942Y-130423493D02*
G01*
X124935270Y-130431730D01*
X124943507Y-130444058D01*
X124946400Y-130458600D01*
X124946400Y-134158600D01*
X124943507Y-134173142D01*
X124935270Y-134185470D01*
X124922942Y-134193707D01*
X124908400Y-134196600D01*
X123808400Y-134196600D01*
X123793858Y-134193707D01*
X123781530Y-134185470D01*
X123773293Y-134173142D01*
X123770400Y-134158600D01*
X123770400Y-130458600D01*
X123773293Y-130444058D01*
X123781530Y-130431730D01*
X123793858Y-130423493D01*
X123808400Y-130420600D01*
X124908400Y-130420600D01*
X124922942Y-130423493D01*
G37*
G36*
X73806542Y-133001893D02*
G01*
X73818870Y-133010130D01*
X73827107Y-133022458D01*
X73830000Y-133037000D01*
X73830000Y-134137000D01*
X73827107Y-134151542D01*
X73818870Y-134163870D01*
X73806542Y-134172107D01*
X73792000Y-134175000D01*
X73192000Y-134175000D01*
X73177458Y-134172107D01*
X73165130Y-134163870D01*
X73156893Y-134151542D01*
X73154000Y-134137000D01*
X73154000Y-133037000D01*
X73156893Y-133022458D01*
X73165130Y-133010130D01*
X73177458Y-133001893D01*
X73192000Y-132999000D01*
X73792000Y-132999000D01*
X73806542Y-133001893D01*
G37*
G36*
X74756542Y-133001893D02*
G01*
X74768870Y-133010130D01*
X74777107Y-133022458D01*
X74780000Y-133037000D01*
X74780000Y-134137000D01*
X74777107Y-134151542D01*
X74768870Y-134163870D01*
X74756542Y-134172107D01*
X74742000Y-134175000D01*
X74142000Y-134175000D01*
X74127458Y-134172107D01*
X74115130Y-134163870D01*
X74106893Y-134151542D01*
X74104000Y-134137000D01*
X74104000Y-133037000D01*
X74106893Y-133022458D01*
X74115130Y-133010130D01*
X74127458Y-133001893D01*
X74142000Y-132999000D01*
X74742000Y-132999000D01*
X74756542Y-133001893D01*
G37*
G36*
X75706542Y-133001893D02*
G01*
X75718870Y-133010130D01*
X75727107Y-133022458D01*
X75730000Y-133037000D01*
X75730000Y-134137000D01*
X75727107Y-134151542D01*
X75718870Y-134163870D01*
X75706542Y-134172107D01*
X75692000Y-134175000D01*
X75092000Y-134175000D01*
X75077458Y-134172107D01*
X75065130Y-134163870D01*
X75056893Y-134151542D01*
X75054000Y-134137000D01*
X75054000Y-133037000D01*
X75056893Y-133022458D01*
X75065130Y-133010130D01*
X75077458Y-133001893D01*
X75092000Y-132999000D01*
X75692000Y-132999000D01*
X75706542Y-133001893D01*
G37*
G36*
X73806542Y-130201893D02*
G01*
X73818870Y-130210130D01*
X73827107Y-130222458D01*
X73830000Y-130237000D01*
X73830000Y-131337000D01*
X73827107Y-131351542D01*
X73818870Y-131363870D01*
X73806542Y-131372107D01*
X73792000Y-131375000D01*
X73192000Y-131375000D01*
X73177458Y-131372107D01*
X73165130Y-131363870D01*
X73156893Y-131351542D01*
X73154000Y-131337000D01*
X73154000Y-130237000D01*
X73156893Y-130222458D01*
X73165130Y-130210130D01*
X73177458Y-130201893D01*
X73192000Y-130199000D01*
X73792000Y-130199000D01*
X73806542Y-130201893D01*
G37*
G36*
X75706542Y-130201893D02*
G01*
X75718870Y-130210130D01*
X75727107Y-130222458D01*
X75730000Y-130237000D01*
X75730000Y-131337000D01*
X75727107Y-131351542D01*
X75718870Y-131363870D01*
X75706542Y-131372107D01*
X75692000Y-131375000D01*
X75092000Y-131375000D01*
X75077458Y-131372107D01*
X75065130Y-131363870D01*
X75056893Y-131351542D01*
X75054000Y-131337000D01*
X75054000Y-130237000D01*
X75056893Y-130222458D01*
X75065130Y-130210130D01*
X75077458Y-130201893D01*
X75092000Y-130199000D01*
X75692000Y-130199000D01*
X75706542Y-130201893D01*
G37*
G36*
X72141938Y-130112150D02*
G01*
X72146653Y-130114232D01*
X72149326Y-130114584D01*
X72182770Y-130130179D01*
X72238759Y-130154901D01*
X72313599Y-130229741D01*
X72338330Y-130285751D01*
X72353915Y-130319173D01*
X72354266Y-130321843D01*
X72356350Y-130326562D01*
X72364000Y-130392500D01*
X72364000Y-131042500D01*
X72356350Y-131108438D01*
X72354266Y-131113156D01*
X72353915Y-131115826D01*
X72338338Y-131149230D01*
X72313599Y-131205259D01*
X72238759Y-131280099D01*
X72182730Y-131304838D01*
X72149326Y-131320415D01*
X72146656Y-131320766D01*
X72141938Y-131322850D01*
X72076000Y-131330500D01*
X70776000Y-131330500D01*
X70710062Y-131322850D01*
X70705343Y-131320766D01*
X70702673Y-131320415D01*
X70669251Y-131304830D01*
X70613241Y-131280099D01*
X70538401Y-131205259D01*
X70513679Y-131149270D01*
X70498084Y-131115826D01*
X70497732Y-131113153D01*
X70495650Y-131108438D01*
X70488000Y-131042500D01*
X70488000Y-130392500D01*
X70495650Y-130326562D01*
X70497732Y-130321846D01*
X70498084Y-130319173D01*
X70513687Y-130285710D01*
X70538401Y-130229741D01*
X70613241Y-130154901D01*
X70669210Y-130130187D01*
X70702673Y-130114584D01*
X70705346Y-130114232D01*
X70710062Y-130112150D01*
X70776000Y-130104500D01*
X72076000Y-130104500D01*
X72141938Y-130112150D01*
G37*
G36*
X84467742Y-129720093D02*
G01*
X84480070Y-129728330D01*
X84488307Y-129740658D01*
X84491200Y-129755200D01*
X84491200Y-131255200D01*
X84488307Y-131269742D01*
X84480070Y-131282070D01*
X84467742Y-131290307D01*
X84453200Y-131293200D01*
X81053200Y-131293200D01*
X81038658Y-131290307D01*
X81026330Y-131282070D01*
X81018093Y-131269742D01*
X81015200Y-131255200D01*
X81015200Y-129755200D01*
X81018093Y-129740658D01*
X81026330Y-129728330D01*
X81038658Y-129720093D01*
X81053200Y-129717200D01*
X84453200Y-129717200D01*
X84467742Y-129720093D01*
G37*
G36*
X117478338Y-129114250D02*
G01*
X117483053Y-129116332D01*
X117485726Y-129116684D01*
X117519170Y-129132279D01*
X117575159Y-129157001D01*
X117649999Y-129231841D01*
X117674730Y-129287851D01*
X117690315Y-129321273D01*
X117690666Y-129323943D01*
X117692750Y-129328662D01*
X117700400Y-129394600D01*
X117700400Y-130044600D01*
X117692750Y-130110538D01*
X117690666Y-130115256D01*
X117690315Y-130117926D01*
X117674738Y-130151330D01*
X117649999Y-130207359D01*
X117575159Y-130282199D01*
X117519130Y-130306938D01*
X117485726Y-130322515D01*
X117483056Y-130322866D01*
X117478338Y-130324950D01*
X117412400Y-130332600D01*
X116112400Y-130332600D01*
X116046462Y-130324950D01*
X116041743Y-130322866D01*
X116039073Y-130322515D01*
X116005651Y-130306930D01*
X115949641Y-130282199D01*
X115874801Y-130207359D01*
X115850079Y-130151370D01*
X115834484Y-130117926D01*
X115834132Y-130115253D01*
X115832050Y-130110538D01*
X115824400Y-130044600D01*
X115824400Y-129394600D01*
X115832050Y-129328662D01*
X115834132Y-129323946D01*
X115834484Y-129321273D01*
X115850087Y-129287810D01*
X115874801Y-129231841D01*
X115949641Y-129157001D01*
X116005610Y-129132287D01*
X116039073Y-129116684D01*
X116041746Y-129116332D01*
X116046462Y-129114250D01*
X116112400Y-129106600D01*
X117412400Y-129106600D01*
X117478338Y-129114250D01*
G37*
G36*
X119252742Y-129240493D02*
G01*
X119265070Y-129248730D01*
X119273307Y-129261058D01*
X119276200Y-129275600D01*
X119276200Y-129875600D01*
X119273307Y-129890142D01*
X119265070Y-129902470D01*
X119252742Y-129910707D01*
X119238200Y-129913600D01*
X118138200Y-129913600D01*
X118123658Y-129910707D01*
X118111330Y-129902470D01*
X118103093Y-129890142D01*
X118100200Y-129875600D01*
X118100200Y-129275600D01*
X118103093Y-129261058D01*
X118111330Y-129248730D01*
X118123658Y-129240493D01*
X118138200Y-129237600D01*
X119238200Y-129237600D01*
X119252742Y-129240493D01*
G37*
G36*
X121852742Y-129240493D02*
G01*
X121865070Y-129248730D01*
X121873307Y-129261058D01*
X121876200Y-129275600D01*
X121876200Y-129875600D01*
X121873307Y-129890142D01*
X121865070Y-129902470D01*
X121852742Y-129910707D01*
X121838200Y-129913600D01*
X120738200Y-129913600D01*
X120723658Y-129910707D01*
X120711330Y-129902470D01*
X120703093Y-129890142D01*
X120700200Y-129875600D01*
X120700200Y-129275600D01*
X120703093Y-129261058D01*
X120711330Y-129248730D01*
X120723658Y-129240493D01*
X120738200Y-129237600D01*
X121838200Y-129237600D01*
X121852742Y-129240493D01*
G37*
G36*
X71375338Y-128047650D02*
G01*
X71380053Y-128049732D01*
X71382726Y-128050084D01*
X71416170Y-128065679D01*
X71472159Y-128090401D01*
X71546999Y-128165241D01*
X71571730Y-128221251D01*
X71587315Y-128254673D01*
X71587666Y-128257343D01*
X71589750Y-128262062D01*
X71597400Y-128328000D01*
X71597400Y-129228000D01*
X71589750Y-129293938D01*
X71587666Y-129298656D01*
X71587315Y-129301326D01*
X71571738Y-129334730D01*
X71546999Y-129390759D01*
X71472159Y-129465599D01*
X71416130Y-129490338D01*
X71382726Y-129505915D01*
X71380056Y-129506266D01*
X71375338Y-129508350D01*
X71309400Y-129516000D01*
X70784400Y-129516000D01*
X70718462Y-129508350D01*
X70713743Y-129506266D01*
X70711073Y-129505915D01*
X70677651Y-129490330D01*
X70621641Y-129465599D01*
X70546801Y-129390759D01*
X70522079Y-129334770D01*
X70506484Y-129301326D01*
X70506132Y-129298653D01*
X70504050Y-129293938D01*
X70496400Y-129228000D01*
X70496400Y-128328000D01*
X70504050Y-128262062D01*
X70506132Y-128257346D01*
X70506484Y-128254673D01*
X70522087Y-128221210D01*
X70546801Y-128165241D01*
X70621641Y-128090401D01*
X70677610Y-128065687D01*
X70711073Y-128050084D01*
X70713746Y-128049732D01*
X70718462Y-128047650D01*
X70784400Y-128040000D01*
X71309400Y-128040000D01*
X71375338Y-128047650D01*
G37*
G36*
X73200338Y-128047650D02*
G01*
X73205053Y-128049732D01*
X73207726Y-128050084D01*
X73241170Y-128065679D01*
X73297159Y-128090401D01*
X73371999Y-128165241D01*
X73396730Y-128221251D01*
X73412315Y-128254673D01*
X73412666Y-128257343D01*
X73414750Y-128262062D01*
X73422400Y-128328000D01*
X73422400Y-129228000D01*
X73414750Y-129293938D01*
X73412666Y-129298656D01*
X73412315Y-129301326D01*
X73396738Y-129334730D01*
X73371999Y-129390759D01*
X73297159Y-129465599D01*
X73241130Y-129490338D01*
X73207726Y-129505915D01*
X73205056Y-129506266D01*
X73200338Y-129508350D01*
X73134400Y-129516000D01*
X72609400Y-129516000D01*
X72543462Y-129508350D01*
X72538743Y-129506266D01*
X72536073Y-129505915D01*
X72502651Y-129490330D01*
X72446641Y-129465599D01*
X72371801Y-129390759D01*
X72347079Y-129334770D01*
X72331484Y-129301326D01*
X72331132Y-129298653D01*
X72329050Y-129293938D01*
X72321400Y-129228000D01*
X72321400Y-128328000D01*
X72329050Y-128262062D01*
X72331132Y-128257346D01*
X72331484Y-128254673D01*
X72347087Y-128221210D01*
X72371801Y-128165241D01*
X72446641Y-128090401D01*
X72502610Y-128065687D01*
X72536073Y-128050084D01*
X72538746Y-128049732D01*
X72543462Y-128047650D01*
X72609400Y-128040000D01*
X73134400Y-128040000D01*
X73200338Y-128047650D01*
G37*
G36*
X121852742Y-128290493D02*
G01*
X121865070Y-128298730D01*
X121873307Y-128311058D01*
X121876200Y-128325600D01*
X121876200Y-128925600D01*
X121873307Y-128940142D01*
X121865070Y-128952470D01*
X121852742Y-128960707D01*
X121838200Y-128963600D01*
X120738200Y-128963600D01*
X120723658Y-128960707D01*
X120711330Y-128952470D01*
X120703093Y-128940142D01*
X120700200Y-128925600D01*
X120700200Y-128325600D01*
X120703093Y-128311058D01*
X120711330Y-128298730D01*
X120723658Y-128290493D01*
X120738200Y-128287600D01*
X121838200Y-128287600D01*
X121852742Y-128290493D01*
G37*
G36*
X123425338Y-127060250D02*
G01*
X123430053Y-127062332D01*
X123432726Y-127062684D01*
X123466170Y-127078279D01*
X123522159Y-127103001D01*
X123596999Y-127177841D01*
X123621730Y-127233851D01*
X123637315Y-127267273D01*
X123637666Y-127269943D01*
X123639750Y-127274662D01*
X123647400Y-127340600D01*
X123647400Y-128640600D01*
X123639750Y-128706538D01*
X123637666Y-128711256D01*
X123637315Y-128713926D01*
X123621738Y-128747330D01*
X123596999Y-128803359D01*
X123522159Y-128878199D01*
X123466130Y-128902938D01*
X123432726Y-128918515D01*
X123430056Y-128918866D01*
X123425338Y-128920950D01*
X123359400Y-128928600D01*
X122709400Y-128928600D01*
X122643462Y-128920950D01*
X122638743Y-128918866D01*
X122636073Y-128918515D01*
X122602651Y-128902930D01*
X122546641Y-128878199D01*
X122471801Y-128803359D01*
X122447079Y-128747370D01*
X122431484Y-128713926D01*
X122431132Y-128711253D01*
X122429050Y-128706538D01*
X122421400Y-128640600D01*
X122421400Y-127340600D01*
X122429050Y-127274662D01*
X122431132Y-127269946D01*
X122431484Y-127267273D01*
X122447087Y-127233810D01*
X122471801Y-127177841D01*
X122546641Y-127103001D01*
X122602610Y-127078287D01*
X122636073Y-127062684D01*
X122638746Y-127062332D01*
X122643462Y-127060250D01*
X122709400Y-127052600D01*
X123359400Y-127052600D01*
X123425338Y-127060250D01*
G37*
G36*
X126375338Y-127060250D02*
G01*
X126380053Y-127062332D01*
X126382726Y-127062684D01*
X126416170Y-127078279D01*
X126472159Y-127103001D01*
X126546999Y-127177841D01*
X126571730Y-127233851D01*
X126587315Y-127267273D01*
X126587666Y-127269943D01*
X126589750Y-127274662D01*
X126597400Y-127340600D01*
X126597400Y-128640600D01*
X126589750Y-128706538D01*
X126587666Y-128711256D01*
X126587315Y-128713926D01*
X126571738Y-128747330D01*
X126546999Y-128803359D01*
X126472159Y-128878199D01*
X126416130Y-128902938D01*
X126382726Y-128918515D01*
X126380056Y-128918866D01*
X126375338Y-128920950D01*
X126309400Y-128928600D01*
X125659400Y-128928600D01*
X125593462Y-128920950D01*
X125588743Y-128918866D01*
X125586073Y-128918515D01*
X125552651Y-128902930D01*
X125496641Y-128878199D01*
X125421801Y-128803359D01*
X125397079Y-128747370D01*
X125381484Y-128713926D01*
X125381132Y-128711253D01*
X125379050Y-128706538D01*
X125371400Y-128640600D01*
X125371400Y-127340600D01*
X125379050Y-127274662D01*
X125381132Y-127269946D01*
X125381484Y-127267273D01*
X125397087Y-127233810D01*
X125421801Y-127177841D01*
X125496641Y-127103001D01*
X125552610Y-127078287D01*
X125586073Y-127062684D01*
X125588746Y-127062332D01*
X125593462Y-127060250D01*
X125659400Y-127052600D01*
X126309400Y-127052600D01*
X126375338Y-127060250D01*
G37*
G36*
X78767742Y-127620093D02*
G01*
X78780070Y-127628330D01*
X78788307Y-127640658D01*
X78791200Y-127655200D01*
X78791200Y-128655200D01*
X78788307Y-128669742D01*
X78780070Y-128682070D01*
X78767742Y-128690307D01*
X78753200Y-128693200D01*
X75253200Y-128693200D01*
X75238658Y-128690307D01*
X75226330Y-128682070D01*
X75218093Y-128669742D01*
X75215200Y-128655200D01*
X75215200Y-127655200D01*
X75218093Y-127640658D01*
X75226330Y-127628330D01*
X75238658Y-127620093D01*
X75253200Y-127617200D01*
X78753200Y-127617200D01*
X78767742Y-127620093D01*
G37*
G36*
X119252742Y-127340493D02*
G01*
X119265070Y-127348730D01*
X119273307Y-127361058D01*
X119276200Y-127375600D01*
X119276200Y-127975600D01*
X119273307Y-127990142D01*
X119265070Y-128002470D01*
X119252742Y-128010707D01*
X119238200Y-128013600D01*
X118138200Y-128013600D01*
X118123658Y-128010707D01*
X118111330Y-128002470D01*
X118103093Y-127990142D01*
X118100200Y-127975600D01*
X118100200Y-127375600D01*
X118103093Y-127361058D01*
X118111330Y-127348730D01*
X118123658Y-127340493D01*
X118138200Y-127337600D01*
X119238200Y-127337600D01*
X119252742Y-127340493D01*
G37*
G36*
X121852742Y-127340493D02*
G01*
X121865070Y-127348730D01*
X121873307Y-127361058D01*
X121876200Y-127375600D01*
X121876200Y-127975600D01*
X121873307Y-127990142D01*
X121865070Y-128002470D01*
X121852742Y-128010707D01*
X121838200Y-128013600D01*
X120738200Y-128013600D01*
X120723658Y-128010707D01*
X120711330Y-128002470D01*
X120703093Y-127990142D01*
X120700200Y-127975600D01*
X120700200Y-127375600D01*
X120703093Y-127361058D01*
X120711330Y-127348730D01*
X120723658Y-127340493D01*
X120738200Y-127337600D01*
X121838200Y-127337600D01*
X121852742Y-127340493D01*
G37*
G36*
X71375338Y-126015650D02*
G01*
X71380053Y-126017732D01*
X71382726Y-126018084D01*
X71416170Y-126033679D01*
X71472159Y-126058401D01*
X71546999Y-126133241D01*
X71571730Y-126189251D01*
X71587315Y-126222673D01*
X71587666Y-126225343D01*
X71589750Y-126230062D01*
X71597400Y-126296000D01*
X71597400Y-127196000D01*
X71589750Y-127261938D01*
X71587666Y-127266656D01*
X71587315Y-127269326D01*
X71571738Y-127302730D01*
X71546999Y-127358759D01*
X71472159Y-127433599D01*
X71416130Y-127458338D01*
X71382726Y-127473915D01*
X71380056Y-127474266D01*
X71375338Y-127476350D01*
X71309400Y-127484000D01*
X70784400Y-127484000D01*
X70718462Y-127476350D01*
X70713743Y-127474266D01*
X70711073Y-127473915D01*
X70677651Y-127458330D01*
X70621641Y-127433599D01*
X70546801Y-127358759D01*
X70522079Y-127302770D01*
X70506484Y-127269326D01*
X70506132Y-127266653D01*
X70504050Y-127261938D01*
X70496400Y-127196000D01*
X70496400Y-126296000D01*
X70504050Y-126230062D01*
X70506132Y-126225346D01*
X70506484Y-126222673D01*
X70522087Y-126189210D01*
X70546801Y-126133241D01*
X70621641Y-126058401D01*
X70677610Y-126033687D01*
X70711073Y-126018084D01*
X70713746Y-126017732D01*
X70718462Y-126015650D01*
X70784400Y-126008000D01*
X71309400Y-126008000D01*
X71375338Y-126015650D01*
G37*
G36*
X73200338Y-126015650D02*
G01*
X73205053Y-126017732D01*
X73207726Y-126018084D01*
X73241170Y-126033679D01*
X73297159Y-126058401D01*
X73371999Y-126133241D01*
X73396730Y-126189251D01*
X73412315Y-126222673D01*
X73412666Y-126225343D01*
X73414750Y-126230062D01*
X73422400Y-126296000D01*
X73422400Y-127196000D01*
X73414750Y-127261938D01*
X73412666Y-127266656D01*
X73412315Y-127269326D01*
X73396738Y-127302730D01*
X73371999Y-127358759D01*
X73297159Y-127433599D01*
X73241130Y-127458338D01*
X73207726Y-127473915D01*
X73205056Y-127474266D01*
X73200338Y-127476350D01*
X73134400Y-127484000D01*
X72609400Y-127484000D01*
X72543462Y-127476350D01*
X72538743Y-127474266D01*
X72536073Y-127473915D01*
X72502651Y-127458330D01*
X72446641Y-127433599D01*
X72371801Y-127358759D01*
X72347079Y-127302770D01*
X72331484Y-127269326D01*
X72331132Y-127266653D01*
X72329050Y-127261938D01*
X72321400Y-127196000D01*
X72321400Y-126296000D01*
X72329050Y-126230062D01*
X72331132Y-126225346D01*
X72331484Y-126222673D01*
X72347087Y-126189210D01*
X72371801Y-126133241D01*
X72446641Y-126058401D01*
X72502610Y-126033687D01*
X72536073Y-126018084D01*
X72538746Y-126017732D01*
X72543462Y-126015650D01*
X72609400Y-126008000D01*
X73134400Y-126008000D01*
X73200338Y-126015650D01*
G37*
G36*
X117478338Y-126164250D02*
G01*
X117483053Y-126166332D01*
X117485726Y-126166684D01*
X117519170Y-126182279D01*
X117575159Y-126207001D01*
X117649999Y-126281841D01*
X117674730Y-126337851D01*
X117690315Y-126371273D01*
X117690666Y-126373943D01*
X117692750Y-126378662D01*
X117700400Y-126444600D01*
X117700400Y-127094600D01*
X117692750Y-127160538D01*
X117690666Y-127165256D01*
X117690315Y-127167926D01*
X117674738Y-127201330D01*
X117649999Y-127257359D01*
X117575159Y-127332199D01*
X117519130Y-127356938D01*
X117485726Y-127372515D01*
X117483056Y-127372866D01*
X117478338Y-127374950D01*
X117412400Y-127382600D01*
X116112400Y-127382600D01*
X116046462Y-127374950D01*
X116041743Y-127372866D01*
X116039073Y-127372515D01*
X116005651Y-127356930D01*
X115949641Y-127332199D01*
X115874801Y-127257359D01*
X115850079Y-127201370D01*
X115834484Y-127167926D01*
X115834132Y-127165253D01*
X115832050Y-127160538D01*
X115824400Y-127094600D01*
X115824400Y-126444600D01*
X115832050Y-126378662D01*
X115834132Y-126373946D01*
X115834484Y-126371273D01*
X115850087Y-126337810D01*
X115874801Y-126281841D01*
X115949641Y-126207001D01*
X116005610Y-126182287D01*
X116039073Y-126166684D01*
X116041746Y-126166332D01*
X116046462Y-126164250D01*
X116112400Y-126156600D01*
X117412400Y-126156600D01*
X117478338Y-126164250D01*
G37*
G36*
X119226338Y-125228250D02*
G01*
X119231053Y-125230332D01*
X119233726Y-125230684D01*
X119267170Y-125246279D01*
X119323159Y-125271001D01*
X119397999Y-125345841D01*
X119422730Y-125401851D01*
X119438315Y-125435273D01*
X119438666Y-125437943D01*
X119440750Y-125442662D01*
X119448400Y-125508600D01*
X119448400Y-126408600D01*
X119440750Y-126474538D01*
X119438666Y-126479256D01*
X119438315Y-126481926D01*
X119422738Y-126515330D01*
X119397999Y-126571359D01*
X119323159Y-126646199D01*
X119267130Y-126670938D01*
X119233726Y-126686515D01*
X119231056Y-126686866D01*
X119226338Y-126688950D01*
X119160400Y-126696600D01*
X118635400Y-126696600D01*
X118569462Y-126688950D01*
X118564743Y-126686866D01*
X118562073Y-126686515D01*
X118528651Y-126670930D01*
X118472641Y-126646199D01*
X118397801Y-126571359D01*
X118373079Y-126515370D01*
X118357484Y-126481926D01*
X118357132Y-126479253D01*
X118355050Y-126474538D01*
X118347400Y-126408600D01*
X118347400Y-125508600D01*
X118355050Y-125442662D01*
X118357132Y-125437946D01*
X118357484Y-125435273D01*
X118373087Y-125401810D01*
X118397801Y-125345841D01*
X118472641Y-125271001D01*
X118528610Y-125246287D01*
X118562073Y-125230684D01*
X118564746Y-125230332D01*
X118569462Y-125228250D01*
X118635400Y-125220600D01*
X119160400Y-125220600D01*
X119226338Y-125228250D01*
G37*
G36*
X121051338Y-125228250D02*
G01*
X121056053Y-125230332D01*
X121058726Y-125230684D01*
X121092170Y-125246279D01*
X121148159Y-125271001D01*
X121222999Y-125345841D01*
X121247730Y-125401851D01*
X121263315Y-125435273D01*
X121263666Y-125437943D01*
X121265750Y-125442662D01*
X121273400Y-125508600D01*
X121273400Y-126408600D01*
X121265750Y-126474538D01*
X121263666Y-126479256D01*
X121263315Y-126481926D01*
X121247738Y-126515330D01*
X121222999Y-126571359D01*
X121148159Y-126646199D01*
X121092130Y-126670938D01*
X121058726Y-126686515D01*
X121056056Y-126686866D01*
X121051338Y-126688950D01*
X120985400Y-126696600D01*
X120460400Y-126696600D01*
X120394462Y-126688950D01*
X120389743Y-126686866D01*
X120387073Y-126686515D01*
X120353651Y-126670930D01*
X120297641Y-126646199D01*
X120222801Y-126571359D01*
X120198079Y-126515370D01*
X120182484Y-126481926D01*
X120182132Y-126479253D01*
X120180050Y-126474538D01*
X120172400Y-126408600D01*
X120172400Y-125508600D01*
X120180050Y-125442662D01*
X120182132Y-125437946D01*
X120182484Y-125435273D01*
X120198087Y-125401810D01*
X120222801Y-125345841D01*
X120297641Y-125271001D01*
X120353610Y-125246287D01*
X120387073Y-125230684D01*
X120389746Y-125230332D01*
X120394462Y-125228250D01*
X120460400Y-125220600D01*
X120985400Y-125220600D01*
X121051338Y-125228250D01*
G37*
G36*
X78767742Y-125620093D02*
G01*
X78780070Y-125628330D01*
X78788307Y-125640658D01*
X78791200Y-125655200D01*
X78791200Y-126655200D01*
X78788307Y-126669742D01*
X78780070Y-126682070D01*
X78767742Y-126690307D01*
X78753200Y-126693200D01*
X75253200Y-126693200D01*
X75238658Y-126690307D01*
X75226330Y-126682070D01*
X75218093Y-126669742D01*
X75215200Y-126655200D01*
X75215200Y-125655200D01*
X75218093Y-125640658D01*
X75226330Y-125628330D01*
X75238658Y-125620093D01*
X75253200Y-125617200D01*
X78753200Y-125617200D01*
X78767742Y-125620093D01*
G37*
G36*
X71375338Y-124110650D02*
G01*
X71380053Y-124112732D01*
X71382726Y-124113084D01*
X71416170Y-124128679D01*
X71472159Y-124153401D01*
X71546999Y-124228241D01*
X71571730Y-124284251D01*
X71587315Y-124317673D01*
X71587666Y-124320343D01*
X71589750Y-124325062D01*
X71597400Y-124391000D01*
X71597400Y-125291000D01*
X71589750Y-125356938D01*
X71587666Y-125361656D01*
X71587315Y-125364326D01*
X71571738Y-125397730D01*
X71546999Y-125453759D01*
X71472159Y-125528599D01*
X71416130Y-125553338D01*
X71382726Y-125568915D01*
X71380056Y-125569266D01*
X71375338Y-125571350D01*
X71309400Y-125579000D01*
X70784400Y-125579000D01*
X70718462Y-125571350D01*
X70713743Y-125569266D01*
X70711073Y-125568915D01*
X70677651Y-125553330D01*
X70621641Y-125528599D01*
X70546801Y-125453759D01*
X70522079Y-125397770D01*
X70506484Y-125364326D01*
X70506132Y-125361653D01*
X70504050Y-125356938D01*
X70496400Y-125291000D01*
X70496400Y-124391000D01*
X70504050Y-124325062D01*
X70506132Y-124320346D01*
X70506484Y-124317673D01*
X70522087Y-124284210D01*
X70546801Y-124228241D01*
X70621641Y-124153401D01*
X70677610Y-124128687D01*
X70711073Y-124113084D01*
X70713746Y-124112732D01*
X70718462Y-124110650D01*
X70784400Y-124103000D01*
X71309400Y-124103000D01*
X71375338Y-124110650D01*
G37*
G36*
X73200338Y-124110650D02*
G01*
X73205053Y-124112732D01*
X73207726Y-124113084D01*
X73241170Y-124128679D01*
X73297159Y-124153401D01*
X73371999Y-124228241D01*
X73396730Y-124284251D01*
X73412315Y-124317673D01*
X73412666Y-124320343D01*
X73414750Y-124325062D01*
X73422400Y-124391000D01*
X73422400Y-125291000D01*
X73414750Y-125356938D01*
X73412666Y-125361656D01*
X73412315Y-125364326D01*
X73396738Y-125397730D01*
X73371999Y-125453759D01*
X73297159Y-125528599D01*
X73241130Y-125553338D01*
X73207726Y-125568915D01*
X73205056Y-125569266D01*
X73200338Y-125571350D01*
X73134400Y-125579000D01*
X72609400Y-125579000D01*
X72543462Y-125571350D01*
X72538743Y-125569266D01*
X72536073Y-125568915D01*
X72502651Y-125553330D01*
X72446641Y-125528599D01*
X72371801Y-125453759D01*
X72347079Y-125397770D01*
X72331484Y-125364326D01*
X72331132Y-125361653D01*
X72329050Y-125356938D01*
X72321400Y-125291000D01*
X72321400Y-124391000D01*
X72329050Y-124325062D01*
X72331132Y-124320346D01*
X72331484Y-124317673D01*
X72347087Y-124284210D01*
X72371801Y-124228241D01*
X72446641Y-124153401D01*
X72502610Y-124128687D01*
X72536073Y-124113084D01*
X72538746Y-124112732D01*
X72543462Y-124110650D01*
X72609400Y-124103000D01*
X73134400Y-124103000D01*
X73200338Y-124110650D01*
G37*
G36*
X119226338Y-123196250D02*
G01*
X119231053Y-123198332D01*
X119233726Y-123198684D01*
X119267170Y-123214279D01*
X119323159Y-123239001D01*
X119397999Y-123313841D01*
X119422730Y-123369851D01*
X119438315Y-123403273D01*
X119438666Y-123405943D01*
X119440750Y-123410662D01*
X119448400Y-123476600D01*
X119448400Y-124376600D01*
X119440750Y-124442538D01*
X119438666Y-124447256D01*
X119438315Y-124449926D01*
X119422738Y-124483330D01*
X119397999Y-124539359D01*
X119323159Y-124614199D01*
X119267130Y-124638938D01*
X119233726Y-124654515D01*
X119231056Y-124654866D01*
X119226338Y-124656950D01*
X119160400Y-124664600D01*
X118635400Y-124664600D01*
X118569462Y-124656950D01*
X118564743Y-124654866D01*
X118562073Y-124654515D01*
X118528651Y-124638930D01*
X118472641Y-124614199D01*
X118397801Y-124539359D01*
X118373079Y-124483370D01*
X118357484Y-124449926D01*
X118357132Y-124447253D01*
X118355050Y-124442538D01*
X118347400Y-124376600D01*
X118347400Y-123476600D01*
X118355050Y-123410662D01*
X118357132Y-123405946D01*
X118357484Y-123403273D01*
X118373087Y-123369810D01*
X118397801Y-123313841D01*
X118472641Y-123239001D01*
X118528610Y-123214287D01*
X118562073Y-123198684D01*
X118564746Y-123198332D01*
X118569462Y-123196250D01*
X118635400Y-123188600D01*
X119160400Y-123188600D01*
X119226338Y-123196250D01*
G37*
G36*
X121051338Y-123196250D02*
G01*
X121056053Y-123198332D01*
X121058726Y-123198684D01*
X121092170Y-123214279D01*
X121148159Y-123239001D01*
X121222999Y-123313841D01*
X121247730Y-123369851D01*
X121263315Y-123403273D01*
X121263666Y-123405943D01*
X121265750Y-123410662D01*
X121273400Y-123476600D01*
X121273400Y-124376600D01*
X121265750Y-124442538D01*
X121263666Y-124447256D01*
X121263315Y-124449926D01*
X121247738Y-124483330D01*
X121222999Y-124539359D01*
X121148159Y-124614199D01*
X121092130Y-124638938D01*
X121058726Y-124654515D01*
X121056056Y-124654866D01*
X121051338Y-124656950D01*
X120985400Y-124664600D01*
X120460400Y-124664600D01*
X120394462Y-124656950D01*
X120389743Y-124654866D01*
X120387073Y-124654515D01*
X120353651Y-124638930D01*
X120297641Y-124614199D01*
X120222801Y-124539359D01*
X120198079Y-124483370D01*
X120182484Y-124449926D01*
X120182132Y-124447253D01*
X120180050Y-124442538D01*
X120172400Y-124376600D01*
X120172400Y-123476600D01*
X120180050Y-123410662D01*
X120182132Y-123405946D01*
X120182484Y-123403273D01*
X120198087Y-123369810D01*
X120222801Y-123313841D01*
X120297641Y-123239001D01*
X120353610Y-123214287D01*
X120387073Y-123198684D01*
X120389746Y-123198332D01*
X120394462Y-123196250D01*
X120460400Y-123188600D01*
X120985400Y-123188600D01*
X121051338Y-123196250D01*
G37*
G36*
X84467742Y-123020093D02*
G01*
X84480070Y-123028330D01*
X84488307Y-123040658D01*
X84491200Y-123055200D01*
X84491200Y-124555200D01*
X84488307Y-124569742D01*
X84480070Y-124582070D01*
X84467742Y-124590307D01*
X84453200Y-124593200D01*
X81053200Y-124593200D01*
X81038658Y-124590307D01*
X81026330Y-124582070D01*
X81018093Y-124569742D01*
X81015200Y-124555200D01*
X81015200Y-123055200D01*
X81018093Y-123040658D01*
X81026330Y-123028330D01*
X81038658Y-123020093D01*
X81053200Y-123017200D01*
X84453200Y-123017200D01*
X84467742Y-123020093D01*
G37*
G36*
X78113738Y-115679450D02*
G01*
X78118453Y-115681532D01*
X78121126Y-115681884D01*
X78154570Y-115697479D01*
X78210559Y-115722201D01*
X78285399Y-115797041D01*
X78310130Y-115853051D01*
X78325715Y-115886473D01*
X78326066Y-115889143D01*
X78328150Y-115893862D01*
X78335800Y-115959800D01*
X78335800Y-117059800D01*
X78328150Y-117125738D01*
X78326066Y-117130456D01*
X78325715Y-117133126D01*
X78310138Y-117166530D01*
X78285399Y-117222559D01*
X78210559Y-117297399D01*
X78154530Y-117322138D01*
X78121126Y-117337715D01*
X78118456Y-117338066D01*
X78113738Y-117340150D01*
X78047800Y-117347800D01*
X75047800Y-117347800D01*
X74981862Y-117340150D01*
X74977143Y-117338066D01*
X74974473Y-117337715D01*
X74941051Y-117322130D01*
X74885041Y-117297399D01*
X74810201Y-117222559D01*
X74785479Y-117166570D01*
X74769884Y-117133126D01*
X74769532Y-117130453D01*
X74767450Y-117125738D01*
X74759800Y-117059800D01*
X74759800Y-115959800D01*
X74767450Y-115893862D01*
X74769532Y-115889146D01*
X74769884Y-115886473D01*
X74785487Y-115853010D01*
X74810201Y-115797041D01*
X74885041Y-115722201D01*
X74941010Y-115697487D01*
X74974473Y-115681884D01*
X74977146Y-115681532D01*
X74981862Y-115679450D01*
X75047800Y-115671800D01*
X78047800Y-115671800D01*
X78113738Y-115679450D01*
G37*
G36*
X83713738Y-115679450D02*
G01*
X83718453Y-115681532D01*
X83721126Y-115681884D01*
X83754570Y-115697479D01*
X83810559Y-115722201D01*
X83885399Y-115797041D01*
X83910130Y-115853051D01*
X83925715Y-115886473D01*
X83926066Y-115889143D01*
X83928150Y-115893862D01*
X83935800Y-115959800D01*
X83935800Y-117059800D01*
X83928150Y-117125738D01*
X83926066Y-117130456D01*
X83925715Y-117133126D01*
X83910138Y-117166530D01*
X83885399Y-117222559D01*
X83810559Y-117297399D01*
X83754530Y-117322138D01*
X83721126Y-117337715D01*
X83718456Y-117338066D01*
X83713738Y-117340150D01*
X83647800Y-117347800D01*
X80647800Y-117347800D01*
X80581862Y-117340150D01*
X80577143Y-117338066D01*
X80574473Y-117337715D01*
X80541051Y-117322130D01*
X80485041Y-117297399D01*
X80410201Y-117222559D01*
X80385479Y-117166570D01*
X80369884Y-117133126D01*
X80369532Y-117130453D01*
X80367450Y-117125738D01*
X80359800Y-117059800D01*
X80359800Y-115959800D01*
X80367450Y-115893862D01*
X80369532Y-115889146D01*
X80369884Y-115886473D01*
X80385487Y-115853010D01*
X80410201Y-115797041D01*
X80485041Y-115722201D01*
X80541010Y-115697487D01*
X80574473Y-115681884D01*
X80577146Y-115681532D01*
X80581862Y-115679450D01*
X80647800Y-115671800D01*
X83647800Y-115671800D01*
X83713738Y-115679450D01*
G37*
G36*
X119163738Y-115679450D02*
G01*
X119168453Y-115681532D01*
X119171126Y-115681884D01*
X119204570Y-115697479D01*
X119260559Y-115722201D01*
X119335399Y-115797041D01*
X119360130Y-115853051D01*
X119375715Y-115886473D01*
X119376066Y-115889143D01*
X119378150Y-115893862D01*
X119385800Y-115959800D01*
X119385800Y-117059800D01*
X119378150Y-117125738D01*
X119376066Y-117130456D01*
X119375715Y-117133126D01*
X119360138Y-117166530D01*
X119335399Y-117222559D01*
X119260559Y-117297399D01*
X119204530Y-117322138D01*
X119171126Y-117337715D01*
X119168456Y-117338066D01*
X119163738Y-117340150D01*
X119097800Y-117347800D01*
X116097800Y-117347800D01*
X116031862Y-117340150D01*
X116027143Y-117338066D01*
X116024473Y-117337715D01*
X115991051Y-117322130D01*
X115935041Y-117297399D01*
X115860201Y-117222559D01*
X115835479Y-117166570D01*
X115819884Y-117133126D01*
X115819532Y-117130453D01*
X115817450Y-117125738D01*
X115809800Y-117059800D01*
X115809800Y-115959800D01*
X115817450Y-115893862D01*
X115819532Y-115889146D01*
X115819884Y-115886473D01*
X115835487Y-115853010D01*
X115860201Y-115797041D01*
X115935041Y-115722201D01*
X115991010Y-115697487D01*
X116024473Y-115681884D01*
X116027146Y-115681532D01*
X116031862Y-115679450D01*
X116097800Y-115671800D01*
X119097800Y-115671800D01*
X119163738Y-115679450D01*
G37*
G36*
X124763738Y-115679450D02*
G01*
X124768453Y-115681532D01*
X124771126Y-115681884D01*
X124804570Y-115697479D01*
X124860559Y-115722201D01*
X124935399Y-115797041D01*
X124960130Y-115853051D01*
X124975715Y-115886473D01*
X124976066Y-115889143D01*
X124978150Y-115893862D01*
X124985800Y-115959800D01*
X124985800Y-117059800D01*
X124978150Y-117125738D01*
X124976066Y-117130456D01*
X124975715Y-117133126D01*
X124960138Y-117166530D01*
X124935399Y-117222559D01*
X124860559Y-117297399D01*
X124804530Y-117322138D01*
X124771126Y-117337715D01*
X124768456Y-117338066D01*
X124763738Y-117340150D01*
X124697800Y-117347800D01*
X121697800Y-117347800D01*
X121631862Y-117340150D01*
X121627143Y-117338066D01*
X121624473Y-117337715D01*
X121591051Y-117322130D01*
X121535041Y-117297399D01*
X121460201Y-117222559D01*
X121435479Y-117166570D01*
X121419884Y-117133126D01*
X121419532Y-117130453D01*
X121417450Y-117125738D01*
X121409800Y-117059800D01*
X121409800Y-115959800D01*
X121417450Y-115893862D01*
X121419532Y-115889146D01*
X121419884Y-115886473D01*
X121435487Y-115853010D01*
X121460201Y-115797041D01*
X121535041Y-115722201D01*
X121591010Y-115697487D01*
X121624473Y-115681884D01*
X121627146Y-115681532D01*
X121631862Y-115679450D01*
X121697800Y-115671800D01*
X124697800Y-115671800D01*
X124763738Y-115679450D01*
G37*
G36*
X82737342Y-109636793D02*
G01*
X82749670Y-109645030D01*
X82757907Y-109657358D01*
X82760800Y-109671900D01*
X82760800Y-111371900D01*
X82757907Y-111386442D01*
X82749670Y-111398770D01*
X82737342Y-111407007D01*
X82722800Y-111409900D01*
X81022800Y-111409900D01*
X81008258Y-111407007D01*
X80995930Y-111398770D01*
X80987693Y-111386442D01*
X80984800Y-111371900D01*
X80984800Y-109671900D01*
X80987693Y-109657358D01*
X80995930Y-109645030D01*
X81008258Y-109636793D01*
X81022800Y-109633900D01*
X82722800Y-109633900D01*
X82737342Y-109636793D01*
G37*
G36*
X123787342Y-109636793D02*
G01*
X123799670Y-109645030D01*
X123807907Y-109657358D01*
X123810800Y-109671900D01*
X123810800Y-111371900D01*
X123807907Y-111386442D01*
X123799670Y-111398770D01*
X123787342Y-111407007D01*
X123772800Y-111409900D01*
X122072800Y-111409900D01*
X122058258Y-111407007D01*
X122045930Y-111398770D01*
X122037693Y-111386442D01*
X122034800Y-111371900D01*
X122034800Y-109671900D01*
X122037693Y-109657358D01*
X122045930Y-109645030D01*
X122058258Y-109636793D01*
X122072800Y-109633900D01*
X123772800Y-109633900D01*
X123787342Y-109636793D01*
G37*
G36*
X77067207Y-109677362D02*
G01*
X77236800Y-109752869D01*
X77386988Y-109861987D01*
X77511207Y-109999947D01*
X77604028Y-110160718D01*
X77661395Y-110337274D01*
X77680800Y-110521900D01*
X77661395Y-110706526D01*
X77604028Y-110883082D01*
X77511207Y-111043853D01*
X77386988Y-111181813D01*
X77236800Y-111290931D01*
X77067207Y-111366438D01*
X76885621Y-111405035D01*
X76699979Y-111405035D01*
X76518393Y-111366438D01*
X76348800Y-111290931D01*
X76198612Y-111181813D01*
X76074393Y-111043853D01*
X75981572Y-110883082D01*
X75924205Y-110706526D01*
X75904800Y-110521900D01*
X75924205Y-110337274D01*
X75981572Y-110160718D01*
X76074393Y-109999947D01*
X76198612Y-109861987D01*
X76348800Y-109752869D01*
X76518393Y-109677362D01*
X76699979Y-109638765D01*
X76885621Y-109638765D01*
X77067207Y-109677362D01*
G37*
G36*
X79607207Y-109677362D02*
G01*
X79776800Y-109752869D01*
X79926988Y-109861987D01*
X80051207Y-109999947D01*
X80144028Y-110160718D01*
X80201395Y-110337274D01*
X80220800Y-110521900D01*
X80201395Y-110706526D01*
X80144028Y-110883082D01*
X80051207Y-111043853D01*
X79926988Y-111181813D01*
X79776800Y-111290931D01*
X79607207Y-111366438D01*
X79425621Y-111405035D01*
X79239979Y-111405035D01*
X79058393Y-111366438D01*
X78888800Y-111290931D01*
X78738612Y-111181813D01*
X78614393Y-111043853D01*
X78521572Y-110883082D01*
X78464205Y-110706526D01*
X78444800Y-110521900D01*
X78464205Y-110337274D01*
X78521572Y-110160718D01*
X78614393Y-109999947D01*
X78738612Y-109861987D01*
X78888800Y-109752869D01*
X79058393Y-109677362D01*
X79239979Y-109638765D01*
X79425621Y-109638765D01*
X79607207Y-109677362D01*
G37*
G36*
X118117207Y-109677362D02*
G01*
X118286800Y-109752869D01*
X118436988Y-109861987D01*
X118561207Y-109999947D01*
X118654028Y-110160718D01*
X118711395Y-110337274D01*
X118730800Y-110521900D01*
X118711395Y-110706526D01*
X118654028Y-110883082D01*
X118561207Y-111043853D01*
X118436988Y-111181813D01*
X118286800Y-111290931D01*
X118117207Y-111366438D01*
X117935621Y-111405035D01*
X117749979Y-111405035D01*
X117568393Y-111366438D01*
X117398800Y-111290931D01*
X117248612Y-111181813D01*
X117124393Y-111043853D01*
X117031572Y-110883082D01*
X116974205Y-110706526D01*
X116954800Y-110521900D01*
X116974205Y-110337274D01*
X117031572Y-110160718D01*
X117124393Y-109999947D01*
X117248612Y-109861987D01*
X117398800Y-109752869D01*
X117568393Y-109677362D01*
X117749979Y-109638765D01*
X117935621Y-109638765D01*
X118117207Y-109677362D01*
G37*
G36*
X120657207Y-109677362D02*
G01*
X120826800Y-109752869D01*
X120976988Y-109861987D01*
X121101207Y-109999947D01*
X121194028Y-110160718D01*
X121251395Y-110337274D01*
X121270800Y-110521900D01*
X121251395Y-110706526D01*
X121194028Y-110883082D01*
X121101207Y-111043853D01*
X120976988Y-111181813D01*
X120826800Y-111290931D01*
X120657207Y-111366438D01*
X120475621Y-111405035D01*
X120289979Y-111405035D01*
X120108393Y-111366438D01*
X119938800Y-111290931D01*
X119788612Y-111181813D01*
X119664393Y-111043853D01*
X119571572Y-110883082D01*
X119514205Y-110706526D01*
X119494800Y-110521900D01*
X119514205Y-110337274D01*
X119571572Y-110160718D01*
X119664393Y-109999947D01*
X119788612Y-109861987D01*
X119938800Y-109752869D01*
X120108393Y-109677362D01*
X120289979Y-109638765D01*
X120475621Y-109638765D01*
X120657207Y-109677362D01*
G37*
G36*
X112318938Y-78882650D02*
G01*
X112323653Y-78884732D01*
X112326326Y-78885084D01*
X112359770Y-78900679D01*
X112415759Y-78925401D01*
X112490599Y-79000241D01*
X112515330Y-79056251D01*
X112530915Y-79089673D01*
X112531266Y-79092343D01*
X112533350Y-79097062D01*
X112541000Y-79163000D01*
X112541000Y-80063000D01*
X112533350Y-80128938D01*
X112531266Y-80133656D01*
X112530915Y-80136326D01*
X112515338Y-80169730D01*
X112490599Y-80225759D01*
X112415759Y-80300599D01*
X112359730Y-80325338D01*
X112326326Y-80340915D01*
X112323656Y-80341266D01*
X112318938Y-80343350D01*
X112253000Y-80351000D01*
X111728000Y-80351000D01*
X111662062Y-80343350D01*
X111657343Y-80341266D01*
X111654673Y-80340915D01*
X111621251Y-80325330D01*
X111565241Y-80300599D01*
X111490401Y-80225759D01*
X111465679Y-80169770D01*
X111450084Y-80136326D01*
X111449732Y-80133653D01*
X111447650Y-80128938D01*
X111440000Y-80063000D01*
X111440000Y-79163000D01*
X111447650Y-79097062D01*
X111449732Y-79092346D01*
X111450084Y-79089673D01*
X111465687Y-79056210D01*
X111490401Y-79000241D01*
X111565241Y-78925401D01*
X111621210Y-78900687D01*
X111654673Y-78885084D01*
X111657346Y-78884732D01*
X111662062Y-78882650D01*
X111728000Y-78875000D01*
X112253000Y-78875000D01*
X112318938Y-78882650D01*
G37*
G36*
X114143938Y-78882650D02*
G01*
X114148653Y-78884732D01*
X114151326Y-78885084D01*
X114184770Y-78900679D01*
X114240759Y-78925401D01*
X114315599Y-79000241D01*
X114340330Y-79056251D01*
X114355915Y-79089673D01*
X114356266Y-79092343D01*
X114358350Y-79097062D01*
X114366000Y-79163000D01*
X114366000Y-80063000D01*
X114358350Y-80128938D01*
X114356266Y-80133656D01*
X114355915Y-80136326D01*
X114340338Y-80169730D01*
X114315599Y-80225759D01*
X114240759Y-80300599D01*
X114184730Y-80325338D01*
X114151326Y-80340915D01*
X114148656Y-80341266D01*
X114143938Y-80343350D01*
X114078000Y-80351000D01*
X113553000Y-80351000D01*
X113487062Y-80343350D01*
X113482343Y-80341266D01*
X113479673Y-80340915D01*
X113446251Y-80325330D01*
X113390241Y-80300599D01*
X113315401Y-80225759D01*
X113290679Y-80169770D01*
X113275084Y-80136326D01*
X113274732Y-80133653D01*
X113272650Y-80128938D01*
X113265000Y-80063000D01*
X113265000Y-79163000D01*
X113272650Y-79097062D01*
X113274732Y-79092346D01*
X113275084Y-79089673D01*
X113290687Y-79056210D01*
X113315401Y-79000241D01*
X113390241Y-78925401D01*
X113446210Y-78900687D01*
X113479673Y-78885084D01*
X113482346Y-78884732D01*
X113487062Y-78882650D01*
X113553000Y-78875000D01*
X114078000Y-78875000D01*
X114143938Y-78882650D01*
G37*
G36*
X83192938Y-78458650D02*
G01*
X83197653Y-78460732D01*
X83200326Y-78461084D01*
X83233770Y-78476679D01*
X83289759Y-78501401D01*
X83364599Y-78576241D01*
X83389330Y-78632251D01*
X83404915Y-78665673D01*
X83405266Y-78668343D01*
X83407350Y-78673062D01*
X83415000Y-78739000D01*
X83415000Y-79264000D01*
X83407350Y-79329938D01*
X83405266Y-79334656D01*
X83404915Y-79337326D01*
X83389338Y-79370730D01*
X83364599Y-79426759D01*
X83289759Y-79501599D01*
X83233730Y-79526338D01*
X83200326Y-79541915D01*
X83197656Y-79542266D01*
X83192938Y-79544350D01*
X83127000Y-79552000D01*
X82227000Y-79552000D01*
X82161062Y-79544350D01*
X82156343Y-79542266D01*
X82153673Y-79541915D01*
X82120251Y-79526330D01*
X82064241Y-79501599D01*
X81989401Y-79426759D01*
X81964679Y-79370770D01*
X81949084Y-79337326D01*
X81948732Y-79334653D01*
X81946650Y-79329938D01*
X81939000Y-79264000D01*
X81939000Y-78739000D01*
X81946650Y-78673062D01*
X81948732Y-78668346D01*
X81949084Y-78665673D01*
X81964687Y-78632210D01*
X81989401Y-78576241D01*
X82064241Y-78501401D01*
X82120210Y-78476687D01*
X82153673Y-78461084D01*
X82156346Y-78460732D01*
X82161062Y-78458650D01*
X82227000Y-78451000D01*
X83127000Y-78451000D01*
X83192938Y-78458650D01*
G37*
G36*
X91828938Y-78458650D02*
G01*
X91833653Y-78460732D01*
X91836326Y-78461084D01*
X91869770Y-78476679D01*
X91925759Y-78501401D01*
X92000599Y-78576241D01*
X92025330Y-78632251D01*
X92040915Y-78665673D01*
X92041266Y-78668343D01*
X92043350Y-78673062D01*
X92051000Y-78739000D01*
X92051000Y-79264000D01*
X92043350Y-79329938D01*
X92041266Y-79334656D01*
X92040915Y-79337326D01*
X92025338Y-79370730D01*
X92000599Y-79426759D01*
X91925759Y-79501599D01*
X91869730Y-79526338D01*
X91836326Y-79541915D01*
X91833656Y-79542266D01*
X91828938Y-79544350D01*
X91763000Y-79552000D01*
X90863000Y-79552000D01*
X90797062Y-79544350D01*
X90792343Y-79542266D01*
X90789673Y-79541915D01*
X90756251Y-79526330D01*
X90700241Y-79501599D01*
X90625401Y-79426759D01*
X90600679Y-79370770D01*
X90585084Y-79337326D01*
X90584732Y-79334653D01*
X90582650Y-79329938D01*
X90575000Y-79264000D01*
X90575000Y-78739000D01*
X90582650Y-78673062D01*
X90584732Y-78668346D01*
X90585084Y-78665673D01*
X90600687Y-78632210D01*
X90625401Y-78576241D01*
X90700241Y-78501401D01*
X90756210Y-78476687D01*
X90789673Y-78461084D01*
X90792346Y-78460732D01*
X90797062Y-78458650D01*
X90863000Y-78451000D01*
X91763000Y-78451000D01*
X91828938Y-78458650D01*
G37*
G36*
X93987938Y-78458650D02*
G01*
X93992653Y-78460732D01*
X93995326Y-78461084D01*
X94028770Y-78476679D01*
X94084759Y-78501401D01*
X94159599Y-78576241D01*
X94184330Y-78632251D01*
X94199915Y-78665673D01*
X94200266Y-78668343D01*
X94202350Y-78673062D01*
X94210000Y-78739000D01*
X94210000Y-79264000D01*
X94202350Y-79329938D01*
X94200266Y-79334656D01*
X94199915Y-79337326D01*
X94184338Y-79370730D01*
X94159599Y-79426759D01*
X94084759Y-79501599D01*
X94028730Y-79526338D01*
X93995326Y-79541915D01*
X93992656Y-79542266D01*
X93987938Y-79544350D01*
X93922000Y-79552000D01*
X93022000Y-79552000D01*
X92956062Y-79544350D01*
X92951343Y-79542266D01*
X92948673Y-79541915D01*
X92915251Y-79526330D01*
X92859241Y-79501599D01*
X92784401Y-79426759D01*
X92759679Y-79370770D01*
X92744084Y-79337326D01*
X92743732Y-79334653D01*
X92741650Y-79329938D01*
X92734000Y-79264000D01*
X92734000Y-78739000D01*
X92741650Y-78673062D01*
X92743732Y-78668346D01*
X92744084Y-78665673D01*
X92759687Y-78632210D01*
X92784401Y-78576241D01*
X92859241Y-78501401D01*
X92915210Y-78476687D01*
X92948673Y-78461084D01*
X92951346Y-78460732D01*
X92956062Y-78458650D01*
X93022000Y-78451000D01*
X93922000Y-78451000D01*
X93987938Y-78458650D01*
G37*
G36*
X101861938Y-78458650D02*
G01*
X101866653Y-78460732D01*
X101869326Y-78461084D01*
X101902770Y-78476679D01*
X101958759Y-78501401D01*
X102033599Y-78576241D01*
X102058330Y-78632251D01*
X102073915Y-78665673D01*
X102074266Y-78668343D01*
X102076350Y-78673062D01*
X102084000Y-78739000D01*
X102084000Y-79264000D01*
X102076350Y-79329938D01*
X102074266Y-79334656D01*
X102073915Y-79337326D01*
X102058338Y-79370730D01*
X102033599Y-79426759D01*
X101958759Y-79501599D01*
X101902730Y-79526338D01*
X101869326Y-79541915D01*
X101866656Y-79542266D01*
X101861938Y-79544350D01*
X101796000Y-79552000D01*
X100896000Y-79552000D01*
X100830062Y-79544350D01*
X100825343Y-79542266D01*
X100822673Y-79541915D01*
X100789251Y-79526330D01*
X100733241Y-79501599D01*
X100658401Y-79426759D01*
X100633679Y-79370770D01*
X100618084Y-79337326D01*
X100617732Y-79334653D01*
X100615650Y-79329938D01*
X100608000Y-79264000D01*
X100608000Y-78739000D01*
X100615650Y-78673062D01*
X100617732Y-78668346D01*
X100618084Y-78665673D01*
X100633687Y-78632210D01*
X100658401Y-78576241D01*
X100733241Y-78501401D01*
X100789210Y-78476687D01*
X100822673Y-78461084D01*
X100825346Y-78460732D01*
X100830062Y-78458650D01*
X100896000Y-78451000D01*
X101796000Y-78451000D01*
X101861938Y-78458650D01*
G37*
G36*
X103893938Y-78458650D02*
G01*
X103898653Y-78460732D01*
X103901326Y-78461084D01*
X103934770Y-78476679D01*
X103990759Y-78501401D01*
X104065599Y-78576241D01*
X104090330Y-78632251D01*
X104105915Y-78665673D01*
X104106266Y-78668343D01*
X104108350Y-78673062D01*
X104116000Y-78739000D01*
X104116000Y-79264000D01*
X104108350Y-79329938D01*
X104106266Y-79334656D01*
X104105915Y-79337326D01*
X104090338Y-79370730D01*
X104065599Y-79426759D01*
X103990759Y-79501599D01*
X103934730Y-79526338D01*
X103901326Y-79541915D01*
X103898656Y-79542266D01*
X103893938Y-79544350D01*
X103828000Y-79552000D01*
X102928000Y-79552000D01*
X102862062Y-79544350D01*
X102857343Y-79542266D01*
X102854673Y-79541915D01*
X102821251Y-79526330D01*
X102765241Y-79501599D01*
X102690401Y-79426759D01*
X102665679Y-79370770D01*
X102650084Y-79337326D01*
X102649732Y-79334653D01*
X102647650Y-79329938D01*
X102640000Y-79264000D01*
X102640000Y-78739000D01*
X102647650Y-78673062D01*
X102649732Y-78668346D01*
X102650084Y-78665673D01*
X102665687Y-78632210D01*
X102690401Y-78576241D01*
X102765241Y-78501401D01*
X102821210Y-78476687D01*
X102854673Y-78461084D01*
X102857346Y-78460732D01*
X102862062Y-78458650D01*
X102928000Y-78451000D01*
X103828000Y-78451000D01*
X103893938Y-78458650D01*
G37*
G36*
X105925938Y-78458650D02*
G01*
X105930653Y-78460732D01*
X105933326Y-78461084D01*
X105966770Y-78476679D01*
X106022759Y-78501401D01*
X106097599Y-78576241D01*
X106122330Y-78632251D01*
X106137915Y-78665673D01*
X106138266Y-78668343D01*
X106140350Y-78673062D01*
X106148000Y-78739000D01*
X106148000Y-79264000D01*
X106140350Y-79329938D01*
X106138266Y-79334656D01*
X106137915Y-79337326D01*
X106122338Y-79370730D01*
X106097599Y-79426759D01*
X106022759Y-79501599D01*
X105966730Y-79526338D01*
X105933326Y-79541915D01*
X105930656Y-79542266D01*
X105925938Y-79544350D01*
X105860000Y-79552000D01*
X104960000Y-79552000D01*
X104894062Y-79544350D01*
X104889343Y-79542266D01*
X104886673Y-79541915D01*
X104853251Y-79526330D01*
X104797241Y-79501599D01*
X104722401Y-79426759D01*
X104697679Y-79370770D01*
X104682084Y-79337326D01*
X104681732Y-79334653D01*
X104679650Y-79329938D01*
X104672000Y-79264000D01*
X104672000Y-78739000D01*
X104679650Y-78673062D01*
X104681732Y-78668346D01*
X104682084Y-78665673D01*
X104697687Y-78632210D01*
X104722401Y-78576241D01*
X104797241Y-78501401D01*
X104853210Y-78476687D01*
X104886673Y-78461084D01*
X104889346Y-78460732D01*
X104894062Y-78458650D01*
X104960000Y-78451000D01*
X105860000Y-78451000D01*
X105925938Y-78458650D01*
G37*
G36*
X107957938Y-78458650D02*
G01*
X107962653Y-78460732D01*
X107965326Y-78461084D01*
X107998770Y-78476679D01*
X108054759Y-78501401D01*
X108129599Y-78576241D01*
X108154330Y-78632251D01*
X108169915Y-78665673D01*
X108170266Y-78668343D01*
X108172350Y-78673062D01*
X108180000Y-78739000D01*
X108180000Y-79264000D01*
X108172350Y-79329938D01*
X108170266Y-79334656D01*
X108169915Y-79337326D01*
X108154338Y-79370730D01*
X108129599Y-79426759D01*
X108054759Y-79501599D01*
X107998730Y-79526338D01*
X107965326Y-79541915D01*
X107962656Y-79542266D01*
X107957938Y-79544350D01*
X107892000Y-79552000D01*
X106992000Y-79552000D01*
X106926062Y-79544350D01*
X106921343Y-79542266D01*
X106918673Y-79541915D01*
X106885251Y-79526330D01*
X106829241Y-79501599D01*
X106754401Y-79426759D01*
X106729679Y-79370770D01*
X106714084Y-79337326D01*
X106713732Y-79334653D01*
X106711650Y-79329938D01*
X106704000Y-79264000D01*
X106704000Y-78739000D01*
X106711650Y-78673062D01*
X106713732Y-78668346D01*
X106714084Y-78665673D01*
X106729687Y-78632210D01*
X106754401Y-78576241D01*
X106829241Y-78501401D01*
X106885210Y-78476687D01*
X106918673Y-78461084D01*
X106921346Y-78460732D01*
X106926062Y-78458650D01*
X106992000Y-78451000D01*
X107892000Y-78451000D01*
X107957938Y-78458650D01*
G37*
G36*
X112318938Y-76596650D02*
G01*
X112323653Y-76598732D01*
X112326326Y-76599084D01*
X112359770Y-76614679D01*
X112415759Y-76639401D01*
X112490599Y-76714241D01*
X112515330Y-76770251D01*
X112530915Y-76803673D01*
X112531266Y-76806343D01*
X112533350Y-76811062D01*
X112541000Y-76877000D01*
X112541000Y-77777000D01*
X112533350Y-77842938D01*
X112531266Y-77847656D01*
X112530915Y-77850326D01*
X112515338Y-77883730D01*
X112490599Y-77939759D01*
X112415759Y-78014599D01*
X112359730Y-78039338D01*
X112326326Y-78054915D01*
X112323656Y-78055266D01*
X112318938Y-78057350D01*
X112253000Y-78065000D01*
X111728000Y-78065000D01*
X111662062Y-78057350D01*
X111657343Y-78055266D01*
X111654673Y-78054915D01*
X111621251Y-78039330D01*
X111565241Y-78014599D01*
X111490401Y-77939759D01*
X111465679Y-77883770D01*
X111450084Y-77850326D01*
X111449732Y-77847653D01*
X111447650Y-77842938D01*
X111440000Y-77777000D01*
X111440000Y-76877000D01*
X111447650Y-76811062D01*
X111449732Y-76806346D01*
X111450084Y-76803673D01*
X111465687Y-76770210D01*
X111490401Y-76714241D01*
X111565241Y-76639401D01*
X111621210Y-76614687D01*
X111654673Y-76599084D01*
X111657346Y-76598732D01*
X111662062Y-76596650D01*
X111728000Y-76589000D01*
X112253000Y-76589000D01*
X112318938Y-76596650D01*
G37*
G36*
X114143938Y-76596650D02*
G01*
X114148653Y-76598732D01*
X114151326Y-76599084D01*
X114184770Y-76614679D01*
X114240759Y-76639401D01*
X114315599Y-76714241D01*
X114340330Y-76770251D01*
X114355915Y-76803673D01*
X114356266Y-76806343D01*
X114358350Y-76811062D01*
X114366000Y-76877000D01*
X114366000Y-77777000D01*
X114358350Y-77842938D01*
X114356266Y-77847656D01*
X114355915Y-77850326D01*
X114340338Y-77883730D01*
X114315599Y-77939759D01*
X114240759Y-78014599D01*
X114184730Y-78039338D01*
X114151326Y-78054915D01*
X114148656Y-78055266D01*
X114143938Y-78057350D01*
X114078000Y-78065000D01*
X113553000Y-78065000D01*
X113487062Y-78057350D01*
X113482343Y-78055266D01*
X113479673Y-78054915D01*
X113446251Y-78039330D01*
X113390241Y-78014599D01*
X113315401Y-77939759D01*
X113290679Y-77883770D01*
X113275084Y-77850326D01*
X113274732Y-77847653D01*
X113272650Y-77842938D01*
X113265000Y-77777000D01*
X113265000Y-76877000D01*
X113272650Y-76811062D01*
X113274732Y-76806346D01*
X113275084Y-76803673D01*
X113290687Y-76770210D01*
X113315401Y-76714241D01*
X113390241Y-76639401D01*
X113446210Y-76614687D01*
X113479673Y-76599084D01*
X113482346Y-76598732D01*
X113487062Y-76596650D01*
X113553000Y-76589000D01*
X114078000Y-76589000D01*
X114143938Y-76596650D01*
G37*
G36*
X83192938Y-76633650D02*
G01*
X83197653Y-76635732D01*
X83200326Y-76636084D01*
X83233770Y-76651679D01*
X83289759Y-76676401D01*
X83364599Y-76751241D01*
X83389330Y-76807251D01*
X83404915Y-76840673D01*
X83405266Y-76843343D01*
X83407350Y-76848062D01*
X83415000Y-76914000D01*
X83415000Y-77439000D01*
X83407350Y-77504938D01*
X83405266Y-77509656D01*
X83404915Y-77512326D01*
X83389338Y-77545730D01*
X83364599Y-77601759D01*
X83289759Y-77676599D01*
X83233730Y-77701338D01*
X83200326Y-77716915D01*
X83197656Y-77717266D01*
X83192938Y-77719350D01*
X83127000Y-77727000D01*
X82227000Y-77727000D01*
X82161062Y-77719350D01*
X82156343Y-77717266D01*
X82153673Y-77716915D01*
X82120251Y-77701330D01*
X82064241Y-77676599D01*
X81989401Y-77601759D01*
X81964679Y-77545770D01*
X81949084Y-77512326D01*
X81948732Y-77509653D01*
X81946650Y-77504938D01*
X81939000Y-77439000D01*
X81939000Y-76914000D01*
X81946650Y-76848062D01*
X81948732Y-76843346D01*
X81949084Y-76840673D01*
X81964687Y-76807210D01*
X81989401Y-76751241D01*
X82064241Y-76676401D01*
X82120210Y-76651687D01*
X82153673Y-76636084D01*
X82156346Y-76635732D01*
X82161062Y-76633650D01*
X82227000Y-76626000D01*
X83127000Y-76626000D01*
X83192938Y-76633650D01*
G37*
G36*
X91828938Y-76633650D02*
G01*
X91833653Y-76635732D01*
X91836326Y-76636084D01*
X91869770Y-76651679D01*
X91925759Y-76676401D01*
X92000599Y-76751241D01*
X92025330Y-76807251D01*
X92040915Y-76840673D01*
X92041266Y-76843343D01*
X92043350Y-76848062D01*
X92051000Y-76914000D01*
X92051000Y-77439000D01*
X92043350Y-77504938D01*
X92041266Y-77509656D01*
X92040915Y-77512326D01*
X92025338Y-77545730D01*
X92000599Y-77601759D01*
X91925759Y-77676599D01*
X91869730Y-77701338D01*
X91836326Y-77716915D01*
X91833656Y-77717266D01*
X91828938Y-77719350D01*
X91763000Y-77727000D01*
X90863000Y-77727000D01*
X90797062Y-77719350D01*
X90792343Y-77717266D01*
X90789673Y-77716915D01*
X90756251Y-77701330D01*
X90700241Y-77676599D01*
X90625401Y-77601759D01*
X90600679Y-77545770D01*
X90585084Y-77512326D01*
X90584732Y-77509653D01*
X90582650Y-77504938D01*
X90575000Y-77439000D01*
X90575000Y-76914000D01*
X90582650Y-76848062D01*
X90584732Y-76843346D01*
X90585084Y-76840673D01*
X90600687Y-76807210D01*
X90625401Y-76751241D01*
X90700241Y-76676401D01*
X90756210Y-76651687D01*
X90789673Y-76636084D01*
X90792346Y-76635732D01*
X90797062Y-76633650D01*
X90863000Y-76626000D01*
X91763000Y-76626000D01*
X91828938Y-76633650D01*
G37*
G36*
X93987938Y-76633650D02*
G01*
X93992653Y-76635732D01*
X93995326Y-76636084D01*
X94028770Y-76651679D01*
X94084759Y-76676401D01*
X94159599Y-76751241D01*
X94184330Y-76807251D01*
X94199915Y-76840673D01*
X94200266Y-76843343D01*
X94202350Y-76848062D01*
X94210000Y-76914000D01*
X94210000Y-77439000D01*
X94202350Y-77504938D01*
X94200266Y-77509656D01*
X94199915Y-77512326D01*
X94184338Y-77545730D01*
X94159599Y-77601759D01*
X94084759Y-77676599D01*
X94028730Y-77701338D01*
X93995326Y-77716915D01*
X93992656Y-77717266D01*
X93987938Y-77719350D01*
X93922000Y-77727000D01*
X93022000Y-77727000D01*
X92956062Y-77719350D01*
X92951343Y-77717266D01*
X92948673Y-77716915D01*
X92915251Y-77701330D01*
X92859241Y-77676599D01*
X92784401Y-77601759D01*
X92759679Y-77545770D01*
X92744084Y-77512326D01*
X92743732Y-77509653D01*
X92741650Y-77504938D01*
X92734000Y-77439000D01*
X92734000Y-76914000D01*
X92741650Y-76848062D01*
X92743732Y-76843346D01*
X92744084Y-76840673D01*
X92759687Y-76807210D01*
X92784401Y-76751241D01*
X92859241Y-76676401D01*
X92915210Y-76651687D01*
X92948673Y-76636084D01*
X92951346Y-76635732D01*
X92956062Y-76633650D01*
X93022000Y-76626000D01*
X93922000Y-76626000D01*
X93987938Y-76633650D01*
G37*
G36*
X101861938Y-76633650D02*
G01*
X101866653Y-76635732D01*
X101869326Y-76636084D01*
X101902770Y-76651679D01*
X101958759Y-76676401D01*
X102033599Y-76751241D01*
X102058330Y-76807251D01*
X102073915Y-76840673D01*
X102074266Y-76843343D01*
X102076350Y-76848062D01*
X102084000Y-76914000D01*
X102084000Y-77439000D01*
X102076350Y-77504938D01*
X102074266Y-77509656D01*
X102073915Y-77512326D01*
X102058338Y-77545730D01*
X102033599Y-77601759D01*
X101958759Y-77676599D01*
X101902730Y-77701338D01*
X101869326Y-77716915D01*
X101866656Y-77717266D01*
X101861938Y-77719350D01*
X101796000Y-77727000D01*
X100896000Y-77727000D01*
X100830062Y-77719350D01*
X100825343Y-77717266D01*
X100822673Y-77716915D01*
X100789251Y-77701330D01*
X100733241Y-77676599D01*
X100658401Y-77601759D01*
X100633679Y-77545770D01*
X100618084Y-77512326D01*
X100617732Y-77509653D01*
X100615650Y-77504938D01*
X100608000Y-77439000D01*
X100608000Y-76914000D01*
X100615650Y-76848062D01*
X100617732Y-76843346D01*
X100618084Y-76840673D01*
X100633687Y-76807210D01*
X100658401Y-76751241D01*
X100733241Y-76676401D01*
X100789210Y-76651687D01*
X100822673Y-76636084D01*
X100825346Y-76635732D01*
X100830062Y-76633650D01*
X100896000Y-76626000D01*
X101796000Y-76626000D01*
X101861938Y-76633650D01*
G37*
G36*
X103893938Y-76633650D02*
G01*
X103898653Y-76635732D01*
X103901326Y-76636084D01*
X103934770Y-76651679D01*
X103990759Y-76676401D01*
X104065599Y-76751241D01*
X104090330Y-76807251D01*
X104105915Y-76840673D01*
X104106266Y-76843343D01*
X104108350Y-76848062D01*
X104116000Y-76914000D01*
X104116000Y-77439000D01*
X104108350Y-77504938D01*
X104106266Y-77509656D01*
X104105915Y-77512326D01*
X104090338Y-77545730D01*
X104065599Y-77601759D01*
X103990759Y-77676599D01*
X103934730Y-77701338D01*
X103901326Y-77716915D01*
X103898656Y-77717266D01*
X103893938Y-77719350D01*
X103828000Y-77727000D01*
X102928000Y-77727000D01*
X102862062Y-77719350D01*
X102857343Y-77717266D01*
X102854673Y-77716915D01*
X102821251Y-77701330D01*
X102765241Y-77676599D01*
X102690401Y-77601759D01*
X102665679Y-77545770D01*
X102650084Y-77512326D01*
X102649732Y-77509653D01*
X102647650Y-77504938D01*
X102640000Y-77439000D01*
X102640000Y-76914000D01*
X102647650Y-76848062D01*
X102649732Y-76843346D01*
X102650084Y-76840673D01*
X102665687Y-76807210D01*
X102690401Y-76751241D01*
X102765241Y-76676401D01*
X102821210Y-76651687D01*
X102854673Y-76636084D01*
X102857346Y-76635732D01*
X102862062Y-76633650D01*
X102928000Y-76626000D01*
X103828000Y-76626000D01*
X103893938Y-76633650D01*
G37*
G36*
X105925938Y-76633650D02*
G01*
X105930653Y-76635732D01*
X105933326Y-76636084D01*
X105966770Y-76651679D01*
X106022759Y-76676401D01*
X106097599Y-76751241D01*
X106122330Y-76807251D01*
X106137915Y-76840673D01*
X106138266Y-76843343D01*
X106140350Y-76848062D01*
X106148000Y-76914000D01*
X106148000Y-77439000D01*
X106140350Y-77504938D01*
X106138266Y-77509656D01*
X106137915Y-77512326D01*
X106122338Y-77545730D01*
X106097599Y-77601759D01*
X106022759Y-77676599D01*
X105966730Y-77701338D01*
X105933326Y-77716915D01*
X105930656Y-77717266D01*
X105925938Y-77719350D01*
X105860000Y-77727000D01*
X104960000Y-77727000D01*
X104894062Y-77719350D01*
X104889343Y-77717266D01*
X104886673Y-77716915D01*
X104853251Y-77701330D01*
X104797241Y-77676599D01*
X104722401Y-77601759D01*
X104697679Y-77545770D01*
X104682084Y-77512326D01*
X104681732Y-77509653D01*
X104679650Y-77504938D01*
X104672000Y-77439000D01*
X104672000Y-76914000D01*
X104679650Y-76848062D01*
X104681732Y-76843346D01*
X104682084Y-76840673D01*
X104697687Y-76807210D01*
X104722401Y-76751241D01*
X104797241Y-76676401D01*
X104853210Y-76651687D01*
X104886673Y-76636084D01*
X104889346Y-76635732D01*
X104894062Y-76633650D01*
X104960000Y-76626000D01*
X105860000Y-76626000D01*
X105925938Y-76633650D01*
G37*
G36*
X107957938Y-76633650D02*
G01*
X107962653Y-76635732D01*
X107965326Y-76636084D01*
X107998770Y-76651679D01*
X108054759Y-76676401D01*
X108129599Y-76751241D01*
X108154330Y-76807251D01*
X108169915Y-76840673D01*
X108170266Y-76843343D01*
X108172350Y-76848062D01*
X108180000Y-76914000D01*
X108180000Y-77439000D01*
X108172350Y-77504938D01*
X108170266Y-77509656D01*
X108169915Y-77512326D01*
X108154338Y-77545730D01*
X108129599Y-77601759D01*
X108054759Y-77676599D01*
X107998730Y-77701338D01*
X107965326Y-77716915D01*
X107962656Y-77717266D01*
X107957938Y-77719350D01*
X107892000Y-77727000D01*
X106992000Y-77727000D01*
X106926062Y-77719350D01*
X106921343Y-77717266D01*
X106918673Y-77716915D01*
X106885251Y-77701330D01*
X106829241Y-77676599D01*
X106754401Y-77601759D01*
X106729679Y-77545770D01*
X106714084Y-77512326D01*
X106713732Y-77509653D01*
X106711650Y-77504938D01*
X106704000Y-77439000D01*
X106704000Y-76914000D01*
X106711650Y-76848062D01*
X106713732Y-76843346D01*
X106714084Y-76840673D01*
X106729687Y-76807210D01*
X106754401Y-76751241D01*
X106829241Y-76676401D01*
X106885210Y-76651687D01*
X106918673Y-76636084D01*
X106921346Y-76635732D01*
X106926062Y-76633650D01*
X106992000Y-76626000D01*
X107892000Y-76626000D01*
X107957938Y-76633650D01*
G37*
G36*
X73228810Y-62734565D02*
G01*
X73234005Y-62736987D01*
X73236437Y-62737342D01*
X73270979Y-62754228D01*
X73327329Y-62780505D01*
X73404195Y-62857371D01*
X73430481Y-62913743D01*
X73447357Y-62948262D01*
X73447710Y-62950691D01*
X73450135Y-62955890D01*
X73460800Y-63036900D01*
X73460800Y-67986900D01*
X73450135Y-68067910D01*
X73447710Y-68073108D01*
X73447357Y-68075537D01*
X73430491Y-68110035D01*
X73404195Y-68166429D01*
X73327329Y-68243295D01*
X73270935Y-68269591D01*
X73236437Y-68286457D01*
X73234008Y-68286810D01*
X73228810Y-68289235D01*
X73147800Y-68299900D01*
X72597800Y-68299900D01*
X72516790Y-68289235D01*
X72511591Y-68286810D01*
X72509162Y-68286457D01*
X72474643Y-68269581D01*
X72418271Y-68243295D01*
X72341405Y-68166429D01*
X72315128Y-68110079D01*
X72298242Y-68075537D01*
X72297887Y-68073105D01*
X72295465Y-68067910D01*
X72284800Y-67986900D01*
X72284800Y-63036900D01*
X72295465Y-62955890D01*
X72297887Y-62950694D01*
X72298242Y-62948262D01*
X72315138Y-62913698D01*
X72341405Y-62857371D01*
X72418271Y-62780505D01*
X72474598Y-62754238D01*
X72509162Y-62737342D01*
X72511594Y-62736987D01*
X72516790Y-62734565D01*
X72597800Y-62723900D01*
X73147800Y-62723900D01*
X73228810Y-62734565D01*
G37*
G36*
X127228810Y-62734565D02*
G01*
X127234005Y-62736987D01*
X127236437Y-62737342D01*
X127270979Y-62754228D01*
X127327329Y-62780505D01*
X127404195Y-62857371D01*
X127430481Y-62913743D01*
X127447357Y-62948262D01*
X127447710Y-62950691D01*
X127450135Y-62955890D01*
X127460800Y-63036900D01*
X127460800Y-67986900D01*
X127450135Y-68067910D01*
X127447710Y-68073108D01*
X127447357Y-68075537D01*
X127430491Y-68110035D01*
X127404195Y-68166429D01*
X127327329Y-68243295D01*
X127270935Y-68269591D01*
X127236437Y-68286457D01*
X127234008Y-68286810D01*
X127228810Y-68289235D01*
X127147800Y-68299900D01*
X126597800Y-68299900D01*
X126516790Y-68289235D01*
X126511591Y-68286810D01*
X126509162Y-68286457D01*
X126474643Y-68269581D01*
X126418271Y-68243295D01*
X126341405Y-68166429D01*
X126315128Y-68110079D01*
X126298242Y-68075537D01*
X126297887Y-68073105D01*
X126295465Y-68067910D01*
X126284800Y-67986900D01*
X126284800Y-63036900D01*
X126295465Y-62955890D01*
X126297887Y-62950694D01*
X126298242Y-62948262D01*
X126315138Y-62913698D01*
X126341405Y-62857371D01*
X126418271Y-62780505D01*
X126474598Y-62754238D01*
X126509162Y-62737342D01*
X126511594Y-62736987D01*
X126516790Y-62734565D01*
X126597800Y-62723900D01*
X127147800Y-62723900D01*
X127228810Y-62734565D01*
G37*
G36*
X86919921Y-66138541D02*
G01*
X86968553Y-66138541D01*
X87022711Y-66148665D01*
X87075304Y-66153845D01*
X87115259Y-66165965D01*
X87156802Y-66173731D01*
X87214340Y-66196021D01*
X87270025Y-66212913D01*
X87301839Y-66229918D01*
X87335383Y-66242913D01*
X87393667Y-66279001D01*
X87449482Y-66308835D01*
X87472933Y-66328081D01*
X87498204Y-66343728D01*
X87554191Y-66394767D01*
X87606777Y-66437923D01*
X87622361Y-66456912D01*
X87639733Y-66472749D01*
X87690169Y-66539537D01*
X87735865Y-66595218D01*
X87744700Y-66611748D01*
X87755142Y-66625575D01*
X87796687Y-66709008D01*
X87831787Y-66774675D01*
X87835529Y-66787013D01*
X87840507Y-66797009D01*
X87869909Y-66900346D01*
X87890855Y-66969396D01*
X87891543Y-66976382D01*
X87892915Y-66981204D01*
X87907168Y-67135030D01*
X87910800Y-67171900D01*
X87907168Y-67208772D01*
X87892915Y-67362595D01*
X87891543Y-67367416D01*
X87890855Y-67374404D01*
X87869904Y-67443468D01*
X87840507Y-67546790D01*
X87835530Y-67556783D01*
X87831787Y-67569125D01*
X87796680Y-67634805D01*
X87755142Y-67718224D01*
X87744702Y-67732047D01*
X87735865Y-67748582D01*
X87690159Y-67804274D01*
X87639733Y-67871050D01*
X87622364Y-67886883D01*
X87606777Y-67905877D01*
X87554180Y-67949041D01*
X87498204Y-68000071D01*
X87472938Y-68015714D01*
X87449482Y-68034965D01*
X87393656Y-68064804D01*
X87335383Y-68100886D01*
X87301846Y-68113877D01*
X87270025Y-68130887D01*
X87214328Y-68147782D01*
X87156802Y-68170068D01*
X87115265Y-68177832D01*
X87075304Y-68189955D01*
X87022708Y-68195135D01*
X86968553Y-68205259D01*
X86919921Y-68205259D01*
X86872800Y-68209900D01*
X86825679Y-68205259D01*
X86777047Y-68205259D01*
X86722890Y-68195135D01*
X86670296Y-68189955D01*
X86630335Y-68177833D01*
X86588797Y-68170068D01*
X86531267Y-68147781D01*
X86475575Y-68130887D01*
X86443755Y-68113879D01*
X86410216Y-68100886D01*
X86351936Y-68064800D01*
X86296118Y-68034965D01*
X86272664Y-68015717D01*
X86247395Y-68000071D01*
X86191409Y-67949033D01*
X86138823Y-67905877D01*
X86123238Y-67886887D01*
X86105866Y-67871050D01*
X86055427Y-67804259D01*
X86009735Y-67748582D01*
X86000899Y-67732052D01*
X85990457Y-67718224D01*
X85948905Y-67634777D01*
X85913813Y-67569125D01*
X85910070Y-67556788D01*
X85905092Y-67546790D01*
X85875679Y-67443415D01*
X85854745Y-67374404D01*
X85854057Y-67367421D01*
X85852684Y-67362595D01*
X85838414Y-67208601D01*
X85834800Y-67171900D01*
X85838414Y-67135201D01*
X85852684Y-66981204D01*
X85854057Y-66976376D01*
X85854745Y-66969396D01*
X85875674Y-66900399D01*
X85905092Y-66797009D01*
X85910071Y-66787008D01*
X85913813Y-66774675D01*
X85948897Y-66709035D01*
X85990457Y-66625575D01*
X86000901Y-66611744D01*
X86009735Y-66595218D01*
X86055418Y-66539552D01*
X86105866Y-66472749D01*
X86123241Y-66456908D01*
X86138823Y-66437923D01*
X86191398Y-66394775D01*
X86247395Y-66343728D01*
X86272669Y-66328078D01*
X86296118Y-66308835D01*
X86351924Y-66279005D01*
X86410216Y-66242913D01*
X86443762Y-66229917D01*
X86475575Y-66212913D01*
X86531255Y-66196022D01*
X86588797Y-66173731D01*
X86630342Y-66165964D01*
X86670296Y-66153845D01*
X86722887Y-66148665D01*
X86777047Y-66138541D01*
X86825679Y-66138541D01*
X86872800Y-66133900D01*
X86919921Y-66138541D01*
G37*
G36*
X112919921Y-66138541D02*
G01*
X112968553Y-66138541D01*
X113022711Y-66148665D01*
X113075304Y-66153845D01*
X113115259Y-66165965D01*
X113156802Y-66173731D01*
X113214340Y-66196021D01*
X113270025Y-66212913D01*
X113301839Y-66229918D01*
X113335383Y-66242913D01*
X113393667Y-66279001D01*
X113449482Y-66308835D01*
X113472933Y-66328081D01*
X113498204Y-66343728D01*
X113554191Y-66394767D01*
X113606777Y-66437923D01*
X113622361Y-66456912D01*
X113639733Y-66472749D01*
X113690169Y-66539537D01*
X113735865Y-66595218D01*
X113744700Y-66611748D01*
X113755142Y-66625575D01*
X113796687Y-66709008D01*
X113831787Y-66774675D01*
X113835529Y-66787013D01*
X113840507Y-66797009D01*
X113869909Y-66900346D01*
X113890855Y-66969396D01*
X113891543Y-66976382D01*
X113892915Y-66981204D01*
X113907168Y-67135030D01*
X113910800Y-67171900D01*
X113907168Y-67208772D01*
X113892915Y-67362595D01*
X113891543Y-67367416D01*
X113890855Y-67374404D01*
X113869904Y-67443468D01*
X113840507Y-67546790D01*
X113835530Y-67556783D01*
X113831787Y-67569125D01*
X113796680Y-67634805D01*
X113755142Y-67718224D01*
X113744702Y-67732047D01*
X113735865Y-67748582D01*
X113690159Y-67804274D01*
X113639733Y-67871050D01*
X113622364Y-67886883D01*
X113606777Y-67905877D01*
X113554180Y-67949041D01*
X113498204Y-68000071D01*
X113472938Y-68015714D01*
X113449482Y-68034965D01*
X113393656Y-68064804D01*
X113335383Y-68100886D01*
X113301846Y-68113877D01*
X113270025Y-68130887D01*
X113214328Y-68147782D01*
X113156802Y-68170068D01*
X113115265Y-68177832D01*
X113075304Y-68189955D01*
X113022708Y-68195135D01*
X112968553Y-68205259D01*
X112919921Y-68205259D01*
X112872800Y-68209900D01*
X112825679Y-68205259D01*
X112777047Y-68205259D01*
X112722890Y-68195135D01*
X112670296Y-68189955D01*
X112630335Y-68177833D01*
X112588797Y-68170068D01*
X112531267Y-68147781D01*
X112475575Y-68130887D01*
X112443755Y-68113879D01*
X112410216Y-68100886D01*
X112351936Y-68064800D01*
X112296118Y-68034965D01*
X112272664Y-68015717D01*
X112247395Y-68000071D01*
X112191409Y-67949033D01*
X112138823Y-67905877D01*
X112123238Y-67886887D01*
X112105866Y-67871050D01*
X112055427Y-67804259D01*
X112009735Y-67748582D01*
X112000899Y-67732052D01*
X111990457Y-67718224D01*
X111948905Y-67634777D01*
X111913813Y-67569125D01*
X111910070Y-67556788D01*
X111905092Y-67546790D01*
X111875679Y-67443415D01*
X111854745Y-67374404D01*
X111854057Y-67367421D01*
X111852684Y-67362595D01*
X111838414Y-67208601D01*
X111834800Y-67171900D01*
X111838414Y-67135201D01*
X111852684Y-66981204D01*
X111854057Y-66976376D01*
X111854745Y-66969396D01*
X111875674Y-66900399D01*
X111905092Y-66797009D01*
X111910071Y-66787008D01*
X111913813Y-66774675D01*
X111948897Y-66709035D01*
X111990457Y-66625575D01*
X112000901Y-66611744D01*
X112009735Y-66595218D01*
X112055418Y-66539552D01*
X112105866Y-66472749D01*
X112123241Y-66456908D01*
X112138823Y-66437923D01*
X112191398Y-66394775D01*
X112247395Y-66343728D01*
X112272669Y-66328078D01*
X112296118Y-66308835D01*
X112351924Y-66279005D01*
X112410216Y-66242913D01*
X112443762Y-66229917D01*
X112475575Y-66212913D01*
X112531255Y-66196022D01*
X112588797Y-66173731D01*
X112630342Y-66165964D01*
X112670296Y-66153845D01*
X112722887Y-66148665D01*
X112777047Y-66138541D01*
X112825679Y-66138541D01*
X112872800Y-66133900D01*
X112919921Y-66138541D01*
G37*
M02*
