%TF.GenerationSoftware,KiCad,Pcbnew,9.0.3*%
%TF.CreationDate,2025-08-22T11:29:54-04:00*%
%TF.ProjectId,roversa2,726f7665-7273-4613-922e-6b696361645f,rev?*%
%TF.SameCoordinates,Original*%
%TF.FileFunction,Paste,Top*%
%TF.FilePolarity,Positive*%
%FSLAX46Y46*%
G04 Gerber Fmt 4.6, Leading zero omitted, Abs format (unit mm)*
G04 Created by KiCad (PCBNEW 9.0.3) date 2025-08-22 11:29:54*
%MOMM*%
%LPD*%
G01*
G04 APERTURE LIST*
G04 Aperture macros list*
%AMRoundRect*
0 Rectangle with rounded corners*
0 $1 Rounding radius*
0 $2 $3 $4 $5 $6 $7 $8 $9 X,Y pos of 4 corners*
0 Add a 4 corners polygon primitive as box body*
4,1,4,$2,$3,$4,$5,$6,$7,$8,$9,$2,$3,0*
0 Add four circle primitives for the rounded corners*
1,1,$1+$1,$2,$3*
1,1,$1+$1,$4,$5*
1,1,$1+$1,$6,$7*
1,1,$1+$1,$8,$9*
0 Add four rect primitives between the rounded corners*
20,1,$1+$1,$2,$3,$4,$5,0*
20,1,$1+$1,$4,$5,$6,$7,0*
20,1,$1+$1,$6,$7,$8,$9,0*
20,1,$1+$1,$8,$9,$2,$3,0*%
G04 Aperture macros list end*
%ADD10R,1.950000X1.300000*%
%ADD11RoundRect,0.250000X-0.475000X0.250000X-0.475000X-0.250000X0.475000X-0.250000X0.475000X0.250000X0*%
%ADD12RoundRect,0.140000X0.170000X-0.140000X0.170000X0.140000X-0.170000X0.140000X-0.170000X-0.140000X0*%
%ADD13RoundRect,0.200000X-0.200000X-1.050000X0.200000X-1.050000X0.200000X1.050000X-0.200000X1.050000X0*%
%ADD14RoundRect,0.140000X-0.170000X0.140000X-0.170000X-0.140000X0.170000X-0.140000X0.170000X0.140000X0*%
%ADD15RoundRect,0.140000X-0.140000X-0.170000X0.140000X-0.170000X0.140000X0.170000X-0.140000X0.170000X0*%
%ADD16R,0.950000X0.250000*%
%ADD17R,0.250000X0.950000*%
%ADD18R,0.550000X0.250000*%
%ADD19R,0.250000X0.550000*%
G04 APERTURE END LIST*
D10*
%TO.C,SW2*%
X92897800Y-126021900D03*
X106847800Y-126021900D03*
X92897800Y-131021900D03*
X106847800Y-131021900D03*
%TD*%
D11*
%TO.C,C6*%
X100914200Y-98948200D03*
X100914200Y-100848200D03*
%TD*%
D12*
%TO.C,C5*%
X98000000Y-98571500D03*
X98000000Y-97611500D03*
%TD*%
D13*
%TO.C,EC1*%
X75107800Y-74021900D03*
X76377800Y-74021900D03*
X77647800Y-74021900D03*
X78917800Y-74021900D03*
X80187800Y-74021900D03*
X81457800Y-74021900D03*
X82727800Y-74021900D03*
X83997800Y-74021900D03*
X85267800Y-74021900D03*
X86537800Y-74021900D03*
X87807800Y-74021900D03*
X89077800Y-74021900D03*
X90347800Y-74021900D03*
X91617800Y-74021900D03*
X92887800Y-74021900D03*
X94157800Y-74021900D03*
X95427800Y-74021900D03*
X96697800Y-74021900D03*
X97967800Y-74021900D03*
X99237800Y-74021900D03*
X100507800Y-74021900D03*
X101777800Y-74021900D03*
X103047800Y-74021900D03*
X104317800Y-74021900D03*
X105587800Y-74021900D03*
X106857800Y-74021900D03*
X108127800Y-74021900D03*
X109397800Y-74021900D03*
X110667800Y-74021900D03*
X111937800Y-74021900D03*
X113207800Y-74021900D03*
X114477800Y-74021900D03*
X115747800Y-74021900D03*
X117017800Y-74021900D03*
X118287800Y-74021900D03*
X119557800Y-74021900D03*
X120827800Y-74021900D03*
X122097800Y-74021900D03*
X123367800Y-74021900D03*
X124637800Y-74021900D03*
%TD*%
D14*
%TO.C,C8*%
X102500000Y-52207900D03*
X102500000Y-53167900D03*
%TD*%
D10*
%TO.C,SW3*%
X114897800Y-126021900D03*
X128847800Y-126021900D03*
X114897800Y-131021900D03*
X128847800Y-131021900D03*
%TD*%
%TO.C,SW8*%
X78397800Y-94521900D03*
X92347800Y-94521900D03*
X78397800Y-99521900D03*
X92347800Y-99521900D03*
%TD*%
D15*
%TO.C,C9*%
X99392800Y-54000000D03*
X100352800Y-54000000D03*
%TD*%
D10*
%TO.C,SW7*%
X107397800Y-94521900D03*
X121347800Y-94521900D03*
X107397800Y-99521900D03*
X121347800Y-99521900D03*
%TD*%
D14*
%TO.C,C7*%
X99390200Y-98656200D03*
X99390200Y-99616200D03*
%TD*%
D10*
%TO.C,SW6*%
X92897800Y-109021900D03*
X106847800Y-109021900D03*
X92897800Y-114021900D03*
X106847800Y-114021900D03*
%TD*%
%TO.C,SW4*%
X70897800Y-126021900D03*
X84847800Y-126021900D03*
X70897800Y-131021900D03*
X84847800Y-131021900D03*
%TD*%
%TO.C,SW5*%
X92897800Y-80021900D03*
X106847800Y-80021900D03*
X92897800Y-85021900D03*
X106847800Y-85021900D03*
%TD*%
D16*
%TO.C,U4*%
X98472800Y-50921900D03*
X98472800Y-51421900D03*
X98472800Y-51921900D03*
X98472800Y-52421900D03*
D17*
X99372800Y-52821900D03*
X99872800Y-52821900D03*
X100372800Y-52821900D03*
D16*
X101260300Y-52421900D03*
X101260300Y-51921900D03*
X101260300Y-51421900D03*
X101260300Y-50921900D03*
D17*
X100372800Y-50521900D03*
X99872800Y-50521900D03*
X99372800Y-50521900D03*
%TD*%
D18*
%TO.C,U3*%
X98972800Y-96271900D03*
X98972800Y-96771900D03*
X98972800Y-97271900D03*
X98972800Y-97771900D03*
D19*
X99622800Y-97921900D03*
X100122800Y-97921900D03*
D18*
X100772800Y-97771900D03*
X100772800Y-97271900D03*
X100772800Y-96771900D03*
X100772800Y-96271900D03*
D19*
X100122800Y-96121900D03*
X99622800Y-96121900D03*
%TD*%
M02*
