%TF.GenerationSoftware,KiCad,Pcbnew,9.0.3*%
%TF.CreationDate,2025-08-22T11:29:55-04:00*%
%TF.ProjectId,roversa2,726f7665-7273-4613-922e-6b696361645f,rev?*%
%TF.SameCoordinates,Original*%
%TF.FileFunction,Legend,Top*%
%TF.FilePolarity,Positive*%
%FSLAX46Y46*%
G04 Gerber Fmt 4.6, Leading zero omitted, Abs format (unit mm)*
G04 Created by KiCad (PCBNEW 9.0.3) date 2025-08-22 11:29:55*
%MOMM*%
%LPD*%
G01*
G04 APERTURE LIST*
%ADD10C,0.300000*%
%ADD11C,0.150000*%
%ADD12C,0.100000*%
%ADD13C,0.120000*%
G04 APERTURE END LIST*
D10*
X74422000Y-145796000D02*
X72898000Y-146050000D01*
X73406000Y-144272000D02*
X72136000Y-146558000D01*
X72644000Y-148082000D02*
X74422000Y-145796000D01*
D11*
X98231000Y-50215800D02*
G75*
G02*
X98111000Y-50215800I-60000J0D01*
G01*
X98111000Y-50215800D02*
G75*
G02*
X98231000Y-50215800I60000J0D01*
G01*
D10*
X72898000Y-146050000D02*
X73406000Y-144272000D01*
D11*
X98739000Y-95834200D02*
G75*
G02*
X98619000Y-95834200I-60000J0D01*
G01*
X98619000Y-95834200D02*
G75*
G02*
X98739000Y-95834200I60000J0D01*
G01*
D10*
X73406000Y-146304000D02*
X72644000Y-148082000D01*
X72136000Y-146558000D02*
X73406000Y-146304000D01*
X94367510Y-148088828D02*
X94367510Y-146588828D01*
X95010368Y-146731685D02*
X95081796Y-146660257D01*
X95081796Y-146660257D02*
X95224654Y-146588828D01*
X95224654Y-146588828D02*
X95581796Y-146588828D01*
X95581796Y-146588828D02*
X95724654Y-146660257D01*
X95724654Y-146660257D02*
X95796082Y-146731685D01*
X95796082Y-146731685D02*
X95867511Y-146874542D01*
X95867511Y-146874542D02*
X95867511Y-147017400D01*
X95867511Y-147017400D02*
X95796082Y-147231685D01*
X95796082Y-147231685D02*
X94938939Y-148088828D01*
X94938939Y-148088828D02*
X95867511Y-148088828D01*
X97367510Y-147945971D02*
X97296082Y-148017400D01*
X97296082Y-148017400D02*
X97081796Y-148088828D01*
X97081796Y-148088828D02*
X96938939Y-148088828D01*
X96938939Y-148088828D02*
X96724653Y-148017400D01*
X96724653Y-148017400D02*
X96581796Y-147874542D01*
X96581796Y-147874542D02*
X96510367Y-147731685D01*
X96510367Y-147731685D02*
X96438939Y-147445971D01*
X96438939Y-147445971D02*
X96438939Y-147231685D01*
X96438939Y-147231685D02*
X96510367Y-146945971D01*
X96510367Y-146945971D02*
X96581796Y-146803114D01*
X96581796Y-146803114D02*
X96724653Y-146660257D01*
X96724653Y-146660257D02*
X96938939Y-146588828D01*
X96938939Y-146588828D02*
X97081796Y-146588828D01*
X97081796Y-146588828D02*
X97296082Y-146660257D01*
X97296082Y-146660257D02*
X97367510Y-146731685D01*
X112292999Y-105643912D02*
X111792999Y-104929626D01*
X111435856Y-105643912D02*
X111435856Y-104143912D01*
X111435856Y-104143912D02*
X112007285Y-104143912D01*
X112007285Y-104143912D02*
X112150142Y-104215341D01*
X112150142Y-104215341D02*
X112221571Y-104286769D01*
X112221571Y-104286769D02*
X112292999Y-104429626D01*
X112292999Y-104429626D02*
X112292999Y-104643912D01*
X112292999Y-104643912D02*
X112221571Y-104786769D01*
X112221571Y-104786769D02*
X112150142Y-104858198D01*
X112150142Y-104858198D02*
X112007285Y-104929626D01*
X112007285Y-104929626D02*
X111435856Y-104929626D01*
X112935856Y-105643912D02*
X112935856Y-104143912D01*
X114435857Y-104215341D02*
X114293000Y-104143912D01*
X114293000Y-104143912D02*
X114078714Y-104143912D01*
X114078714Y-104143912D02*
X113864428Y-104215341D01*
X113864428Y-104215341D02*
X113721571Y-104358198D01*
X113721571Y-104358198D02*
X113650142Y-104501055D01*
X113650142Y-104501055D02*
X113578714Y-104786769D01*
X113578714Y-104786769D02*
X113578714Y-105001055D01*
X113578714Y-105001055D02*
X113650142Y-105286769D01*
X113650142Y-105286769D02*
X113721571Y-105429626D01*
X113721571Y-105429626D02*
X113864428Y-105572484D01*
X113864428Y-105572484D02*
X114078714Y-105643912D01*
X114078714Y-105643912D02*
X114221571Y-105643912D01*
X114221571Y-105643912D02*
X114435857Y-105572484D01*
X114435857Y-105572484D02*
X114507285Y-105501055D01*
X114507285Y-105501055D02*
X114507285Y-105001055D01*
X114507285Y-105001055D02*
X114221571Y-105001055D01*
X115150142Y-105643912D02*
X115150142Y-104143912D01*
X115150142Y-104858198D02*
X116007285Y-104858198D01*
X116007285Y-105643912D02*
X116007285Y-104143912D01*
X116507286Y-104143912D02*
X117364429Y-104143912D01*
X116935857Y-105643912D02*
X116935857Y-104143912D01*
X111543000Y-106558828D02*
X112400143Y-106558828D01*
X111971571Y-108058828D02*
X111971571Y-106558828D01*
X112900142Y-106558828D02*
X112900142Y-107773114D01*
X112900142Y-107773114D02*
X112971571Y-107915971D01*
X112971571Y-107915971D02*
X113043000Y-107987400D01*
X113043000Y-107987400D02*
X113185857Y-108058828D01*
X113185857Y-108058828D02*
X113471571Y-108058828D01*
X113471571Y-108058828D02*
X113614428Y-107987400D01*
X113614428Y-107987400D02*
X113685857Y-107915971D01*
X113685857Y-107915971D02*
X113757285Y-107773114D01*
X113757285Y-107773114D02*
X113757285Y-106558828D01*
X115328714Y-108058828D02*
X114828714Y-107344542D01*
X114471571Y-108058828D02*
X114471571Y-106558828D01*
X114471571Y-106558828D02*
X115043000Y-106558828D01*
X115043000Y-106558828D02*
X115185857Y-106630257D01*
X115185857Y-106630257D02*
X115257286Y-106701685D01*
X115257286Y-106701685D02*
X115328714Y-106844542D01*
X115328714Y-106844542D02*
X115328714Y-107058828D01*
X115328714Y-107058828D02*
X115257286Y-107201685D01*
X115257286Y-107201685D02*
X115185857Y-107273114D01*
X115185857Y-107273114D02*
X115043000Y-107344542D01*
X115043000Y-107344542D02*
X114471571Y-107344542D01*
X115971571Y-108058828D02*
X115971571Y-106558828D01*
X115971571Y-106558828D02*
X116828714Y-108058828D01*
X116828714Y-108058828D02*
X116828714Y-106558828D01*
X96534653Y-120290828D02*
X96034653Y-119576542D01*
X95677510Y-120290828D02*
X95677510Y-118790828D01*
X95677510Y-118790828D02*
X96248939Y-118790828D01*
X96248939Y-118790828D02*
X96391796Y-118862257D01*
X96391796Y-118862257D02*
X96463225Y-118933685D01*
X96463225Y-118933685D02*
X96534653Y-119076542D01*
X96534653Y-119076542D02*
X96534653Y-119290828D01*
X96534653Y-119290828D02*
X96463225Y-119433685D01*
X96463225Y-119433685D02*
X96391796Y-119505114D01*
X96391796Y-119505114D02*
X96248939Y-119576542D01*
X96248939Y-119576542D02*
X95677510Y-119576542D01*
X97177510Y-119505114D02*
X97677510Y-119505114D01*
X97891796Y-120290828D02*
X97177510Y-120290828D01*
X97177510Y-120290828D02*
X97177510Y-118790828D01*
X97177510Y-118790828D02*
X97891796Y-118790828D01*
X98320368Y-118790828D02*
X98820368Y-120290828D01*
X98820368Y-120290828D02*
X99320368Y-118790828D01*
X99820367Y-119505114D02*
X100320367Y-119505114D01*
X100534653Y-120290828D02*
X99820367Y-120290828D01*
X99820367Y-120290828D02*
X99820367Y-118790828D01*
X99820367Y-118790828D02*
X100534653Y-118790828D01*
X102034653Y-120290828D02*
X101534653Y-119576542D01*
X101177510Y-120290828D02*
X101177510Y-118790828D01*
X101177510Y-118790828D02*
X101748939Y-118790828D01*
X101748939Y-118790828D02*
X101891796Y-118862257D01*
X101891796Y-118862257D02*
X101963225Y-118933685D01*
X101963225Y-118933685D02*
X102034653Y-119076542D01*
X102034653Y-119076542D02*
X102034653Y-119290828D01*
X102034653Y-119290828D02*
X101963225Y-119433685D01*
X101963225Y-119433685D02*
X101891796Y-119505114D01*
X101891796Y-119505114D02*
X101748939Y-119576542D01*
X101748939Y-119576542D02*
X101177510Y-119576542D01*
X102606082Y-120219400D02*
X102820368Y-120290828D01*
X102820368Y-120290828D02*
X103177510Y-120290828D01*
X103177510Y-120290828D02*
X103320368Y-120219400D01*
X103320368Y-120219400D02*
X103391796Y-120147971D01*
X103391796Y-120147971D02*
X103463225Y-120005114D01*
X103463225Y-120005114D02*
X103463225Y-119862257D01*
X103463225Y-119862257D02*
X103391796Y-119719400D01*
X103391796Y-119719400D02*
X103320368Y-119647971D01*
X103320368Y-119647971D02*
X103177510Y-119576542D01*
X103177510Y-119576542D02*
X102891796Y-119505114D01*
X102891796Y-119505114D02*
X102748939Y-119433685D01*
X102748939Y-119433685D02*
X102677510Y-119362257D01*
X102677510Y-119362257D02*
X102606082Y-119219400D01*
X102606082Y-119219400D02*
X102606082Y-119076542D01*
X102606082Y-119076542D02*
X102677510Y-118933685D01*
X102677510Y-118933685D02*
X102748939Y-118862257D01*
X102748939Y-118862257D02*
X102891796Y-118790828D01*
X102891796Y-118790828D02*
X103248939Y-118790828D01*
X103248939Y-118790828D02*
X103463225Y-118862257D01*
X104106081Y-119505114D02*
X104606081Y-119505114D01*
X104820367Y-120290828D02*
X104106081Y-120290828D01*
X104106081Y-120290828D02*
X104106081Y-118790828D01*
X104106081Y-118790828D02*
X104820367Y-118790828D01*
X110844652Y-148088828D02*
X110844652Y-146588828D01*
X110844652Y-146588828D02*
X111201795Y-146588828D01*
X111201795Y-146588828D02*
X111416081Y-146660257D01*
X111416081Y-146660257D02*
X111558938Y-146803114D01*
X111558938Y-146803114D02*
X111630367Y-146945971D01*
X111630367Y-146945971D02*
X111701795Y-147231685D01*
X111701795Y-147231685D02*
X111701795Y-147445971D01*
X111701795Y-147445971D02*
X111630367Y-147731685D01*
X111630367Y-147731685D02*
X111558938Y-147874542D01*
X111558938Y-147874542D02*
X111416081Y-148017400D01*
X111416081Y-148017400D02*
X111201795Y-148088828D01*
X111201795Y-148088828D02*
X110844652Y-148088828D01*
X112344652Y-148088828D02*
X112344652Y-147088828D01*
X112344652Y-146588828D02*
X112273224Y-146660257D01*
X112273224Y-146660257D02*
X112344652Y-146731685D01*
X112344652Y-146731685D02*
X112416081Y-146660257D01*
X112416081Y-146660257D02*
X112344652Y-146588828D01*
X112344652Y-146588828D02*
X112344652Y-146731685D01*
X113701796Y-147088828D02*
X113701796Y-148303114D01*
X113701796Y-148303114D02*
X113630367Y-148445971D01*
X113630367Y-148445971D02*
X113558938Y-148517400D01*
X113558938Y-148517400D02*
X113416081Y-148588828D01*
X113416081Y-148588828D02*
X113201796Y-148588828D01*
X113201796Y-148588828D02*
X113058938Y-148517400D01*
X113701796Y-148017400D02*
X113558938Y-148088828D01*
X113558938Y-148088828D02*
X113273224Y-148088828D01*
X113273224Y-148088828D02*
X113130367Y-148017400D01*
X113130367Y-148017400D02*
X113058938Y-147945971D01*
X113058938Y-147945971D02*
X112987510Y-147803114D01*
X112987510Y-147803114D02*
X112987510Y-147374542D01*
X112987510Y-147374542D02*
X113058938Y-147231685D01*
X113058938Y-147231685D02*
X113130367Y-147160257D01*
X113130367Y-147160257D02*
X113273224Y-147088828D01*
X113273224Y-147088828D02*
X113558938Y-147088828D01*
X113558938Y-147088828D02*
X113701796Y-147160257D01*
X114416081Y-148088828D02*
X114416081Y-147088828D01*
X114416081Y-146588828D02*
X114344653Y-146660257D01*
X114344653Y-146660257D02*
X114416081Y-146731685D01*
X114416081Y-146731685D02*
X114487510Y-146660257D01*
X114487510Y-146660257D02*
X114416081Y-146588828D01*
X114416081Y-146588828D02*
X114416081Y-146731685D01*
X114916082Y-147088828D02*
X115487510Y-147088828D01*
X115130367Y-146588828D02*
X115130367Y-147874542D01*
X115130367Y-147874542D02*
X115201796Y-148017400D01*
X115201796Y-148017400D02*
X115344653Y-148088828D01*
X115344653Y-148088828D02*
X115487510Y-148088828D01*
X116630368Y-148088828D02*
X116630368Y-147303114D01*
X116630368Y-147303114D02*
X116558939Y-147160257D01*
X116558939Y-147160257D02*
X116416082Y-147088828D01*
X116416082Y-147088828D02*
X116130368Y-147088828D01*
X116130368Y-147088828D02*
X115987510Y-147160257D01*
X116630368Y-148017400D02*
X116487510Y-148088828D01*
X116487510Y-148088828D02*
X116130368Y-148088828D01*
X116130368Y-148088828D02*
X115987510Y-148017400D01*
X115987510Y-148017400D02*
X115916082Y-147874542D01*
X115916082Y-147874542D02*
X115916082Y-147731685D01*
X115916082Y-147731685D02*
X115987510Y-147588828D01*
X115987510Y-147588828D02*
X116130368Y-147517400D01*
X116130368Y-147517400D02*
X116487510Y-147517400D01*
X116487510Y-147517400D02*
X116630368Y-147445971D01*
X117558939Y-148088828D02*
X117416082Y-148017400D01*
X117416082Y-148017400D02*
X117344653Y-147874542D01*
X117344653Y-147874542D02*
X117344653Y-146588828D01*
X95891796Y-90469114D02*
X95391796Y-90469114D01*
X95391796Y-91254828D02*
X95391796Y-89754828D01*
X95391796Y-89754828D02*
X96106082Y-89754828D01*
X96963225Y-89754828D02*
X97248939Y-89754828D01*
X97248939Y-89754828D02*
X97391796Y-89826257D01*
X97391796Y-89826257D02*
X97534653Y-89969114D01*
X97534653Y-89969114D02*
X97606082Y-90254828D01*
X97606082Y-90254828D02*
X97606082Y-90754828D01*
X97606082Y-90754828D02*
X97534653Y-91040542D01*
X97534653Y-91040542D02*
X97391796Y-91183400D01*
X97391796Y-91183400D02*
X97248939Y-91254828D01*
X97248939Y-91254828D02*
X96963225Y-91254828D01*
X96963225Y-91254828D02*
X96820368Y-91183400D01*
X96820368Y-91183400D02*
X96677510Y-91040542D01*
X96677510Y-91040542D02*
X96606082Y-90754828D01*
X96606082Y-90754828D02*
X96606082Y-90254828D01*
X96606082Y-90254828D02*
X96677510Y-89969114D01*
X96677510Y-89969114D02*
X96820368Y-89826257D01*
X96820368Y-89826257D02*
X96963225Y-89754828D01*
X99106082Y-91254828D02*
X98606082Y-90540542D01*
X98248939Y-91254828D02*
X98248939Y-89754828D01*
X98248939Y-89754828D02*
X98820368Y-89754828D01*
X98820368Y-89754828D02*
X98963225Y-89826257D01*
X98963225Y-89826257D02*
X99034654Y-89897685D01*
X99034654Y-89897685D02*
X99106082Y-90040542D01*
X99106082Y-90040542D02*
X99106082Y-90254828D01*
X99106082Y-90254828D02*
X99034654Y-90397685D01*
X99034654Y-90397685D02*
X98963225Y-90469114D01*
X98963225Y-90469114D02*
X98820368Y-90540542D01*
X98820368Y-90540542D02*
X98248939Y-90540542D01*
X99606082Y-89754828D02*
X99963225Y-91254828D01*
X99963225Y-91254828D02*
X100248939Y-90183400D01*
X100248939Y-90183400D02*
X100534654Y-91254828D01*
X100534654Y-91254828D02*
X100891797Y-89754828D01*
X101391797Y-90826257D02*
X102106083Y-90826257D01*
X101248940Y-91254828D02*
X101748940Y-89754828D01*
X101748940Y-89754828D02*
X102248940Y-91254828D01*
X103606082Y-91254828D02*
X103106082Y-90540542D01*
X102748939Y-91254828D02*
X102748939Y-89754828D01*
X102748939Y-89754828D02*
X103320368Y-89754828D01*
X103320368Y-89754828D02*
X103463225Y-89826257D01*
X103463225Y-89826257D02*
X103534654Y-89897685D01*
X103534654Y-89897685D02*
X103606082Y-90040542D01*
X103606082Y-90040542D02*
X103606082Y-90254828D01*
X103606082Y-90254828D02*
X103534654Y-90397685D01*
X103534654Y-90397685D02*
X103463225Y-90469114D01*
X103463225Y-90469114D02*
X103320368Y-90540542D01*
X103320368Y-90540542D02*
X102748939Y-90540542D01*
X104248939Y-91254828D02*
X104248939Y-89754828D01*
X104248939Y-89754828D02*
X104606082Y-89754828D01*
X104606082Y-89754828D02*
X104820368Y-89826257D01*
X104820368Y-89826257D02*
X104963225Y-89969114D01*
X104963225Y-89969114D02*
X105034654Y-90111971D01*
X105034654Y-90111971D02*
X105106082Y-90397685D01*
X105106082Y-90397685D02*
X105106082Y-90611971D01*
X105106082Y-90611971D02*
X105034654Y-90897685D01*
X105034654Y-90897685D02*
X104963225Y-91040542D01*
X104963225Y-91040542D02*
X104820368Y-91183400D01*
X104820368Y-91183400D02*
X104606082Y-91254828D01*
X104606082Y-91254828D02*
X104248939Y-91254828D01*
X75413082Y-137063400D02*
X75627368Y-137134828D01*
X75627368Y-137134828D02*
X75984510Y-137134828D01*
X75984510Y-137134828D02*
X76127368Y-137063400D01*
X76127368Y-137063400D02*
X76198796Y-136991971D01*
X76198796Y-136991971D02*
X76270225Y-136849114D01*
X76270225Y-136849114D02*
X76270225Y-136706257D01*
X76270225Y-136706257D02*
X76198796Y-136563400D01*
X76198796Y-136563400D02*
X76127368Y-136491971D01*
X76127368Y-136491971D02*
X75984510Y-136420542D01*
X75984510Y-136420542D02*
X75698796Y-136349114D01*
X75698796Y-136349114D02*
X75555939Y-136277685D01*
X75555939Y-136277685D02*
X75484510Y-136206257D01*
X75484510Y-136206257D02*
X75413082Y-136063400D01*
X75413082Y-136063400D02*
X75413082Y-135920542D01*
X75413082Y-135920542D02*
X75484510Y-135777685D01*
X75484510Y-135777685D02*
X75555939Y-135706257D01*
X75555939Y-135706257D02*
X75698796Y-135634828D01*
X75698796Y-135634828D02*
X76055939Y-135634828D01*
X76055939Y-135634828D02*
X76270225Y-135706257D01*
X76698796Y-135634828D02*
X77555939Y-135634828D01*
X77127367Y-137134828D02*
X77127367Y-135634828D01*
X78341653Y-135634828D02*
X78627367Y-135634828D01*
X78627367Y-135634828D02*
X78770224Y-135706257D01*
X78770224Y-135706257D02*
X78913081Y-135849114D01*
X78913081Y-135849114D02*
X78984510Y-136134828D01*
X78984510Y-136134828D02*
X78984510Y-136634828D01*
X78984510Y-136634828D02*
X78913081Y-136920542D01*
X78913081Y-136920542D02*
X78770224Y-137063400D01*
X78770224Y-137063400D02*
X78627367Y-137134828D01*
X78627367Y-137134828D02*
X78341653Y-137134828D01*
X78341653Y-137134828D02*
X78198796Y-137063400D01*
X78198796Y-137063400D02*
X78055938Y-136920542D01*
X78055938Y-136920542D02*
X77984510Y-136634828D01*
X77984510Y-136634828D02*
X77984510Y-136134828D01*
X77984510Y-136134828D02*
X78055938Y-135849114D01*
X78055938Y-135849114D02*
X78198796Y-135706257D01*
X78198796Y-135706257D02*
X78341653Y-135634828D01*
X79627367Y-137134828D02*
X79627367Y-135634828D01*
X79627367Y-135634828D02*
X80198796Y-135634828D01*
X80198796Y-135634828D02*
X80341653Y-135706257D01*
X80341653Y-135706257D02*
X80413082Y-135777685D01*
X80413082Y-135777685D02*
X80484510Y-135920542D01*
X80484510Y-135920542D02*
X80484510Y-136134828D01*
X80484510Y-136134828D02*
X80413082Y-136277685D01*
X80413082Y-136277685D02*
X80341653Y-136349114D01*
X80341653Y-136349114D02*
X80198796Y-136420542D01*
X80198796Y-136420542D02*
X79627367Y-136420542D01*
X103003510Y-148088828D02*
X103003510Y-146588828D01*
X103646368Y-146731685D02*
X103717796Y-146660257D01*
X103717796Y-146660257D02*
X103860654Y-146588828D01*
X103860654Y-146588828D02*
X104217796Y-146588828D01*
X104217796Y-146588828D02*
X104360654Y-146660257D01*
X104360654Y-146660257D02*
X104432082Y-146731685D01*
X104432082Y-146731685D02*
X104503511Y-146874542D01*
X104503511Y-146874542D02*
X104503511Y-147017400D01*
X104503511Y-147017400D02*
X104432082Y-147231685D01*
X104432082Y-147231685D02*
X103574939Y-148088828D01*
X103574939Y-148088828D02*
X104503511Y-148088828D01*
X106003510Y-147945971D02*
X105932082Y-148017400D01*
X105932082Y-148017400D02*
X105717796Y-148088828D01*
X105717796Y-148088828D02*
X105574939Y-148088828D01*
X105574939Y-148088828D02*
X105360653Y-148017400D01*
X105360653Y-148017400D02*
X105217796Y-147874542D01*
X105217796Y-147874542D02*
X105146367Y-147731685D01*
X105146367Y-147731685D02*
X105074939Y-147445971D01*
X105074939Y-147445971D02*
X105074939Y-147231685D01*
X105074939Y-147231685D02*
X105146367Y-146945971D01*
X105146367Y-146945971D02*
X105217796Y-146803114D01*
X105217796Y-146803114D02*
X105360653Y-146660257D01*
X105360653Y-146660257D02*
X105574939Y-146588828D01*
X105574939Y-146588828D02*
X105717796Y-146588828D01*
X105717796Y-146588828D02*
X105932082Y-146660257D01*
X105932082Y-146660257D02*
X106003510Y-146731685D01*
X83795428Y-105643912D02*
X83081142Y-105643912D01*
X83081142Y-105643912D02*
X83081142Y-104143912D01*
X84295428Y-104858198D02*
X84795428Y-104858198D01*
X85009714Y-105643912D02*
X84295428Y-105643912D01*
X84295428Y-105643912D02*
X84295428Y-104143912D01*
X84295428Y-104143912D02*
X85009714Y-104143912D01*
X86152571Y-104858198D02*
X85652571Y-104858198D01*
X85652571Y-105643912D02*
X85652571Y-104143912D01*
X85652571Y-104143912D02*
X86366857Y-104143912D01*
X86724000Y-104143912D02*
X87581143Y-104143912D01*
X87152571Y-105643912D02*
X87152571Y-104143912D01*
X82474000Y-106558828D02*
X83331143Y-106558828D01*
X82902571Y-108058828D02*
X82902571Y-106558828D01*
X83831142Y-106558828D02*
X83831142Y-107773114D01*
X83831142Y-107773114D02*
X83902571Y-107915971D01*
X83902571Y-107915971D02*
X83974000Y-107987400D01*
X83974000Y-107987400D02*
X84116857Y-108058828D01*
X84116857Y-108058828D02*
X84402571Y-108058828D01*
X84402571Y-108058828D02*
X84545428Y-107987400D01*
X84545428Y-107987400D02*
X84616857Y-107915971D01*
X84616857Y-107915971D02*
X84688285Y-107773114D01*
X84688285Y-107773114D02*
X84688285Y-106558828D01*
X86259714Y-108058828D02*
X85759714Y-107344542D01*
X85402571Y-108058828D02*
X85402571Y-106558828D01*
X85402571Y-106558828D02*
X85974000Y-106558828D01*
X85974000Y-106558828D02*
X86116857Y-106630257D01*
X86116857Y-106630257D02*
X86188286Y-106701685D01*
X86188286Y-106701685D02*
X86259714Y-106844542D01*
X86259714Y-106844542D02*
X86259714Y-107058828D01*
X86259714Y-107058828D02*
X86188286Y-107201685D01*
X86188286Y-107201685D02*
X86116857Y-107273114D01*
X86116857Y-107273114D02*
X85974000Y-107344542D01*
X85974000Y-107344542D02*
X85402571Y-107344542D01*
X86902571Y-108058828D02*
X86902571Y-106558828D01*
X86902571Y-106558828D02*
X87759714Y-108058828D01*
X87759714Y-108058828D02*
X87759714Y-106558828D01*
X84071225Y-143993257D02*
X83928368Y-143921828D01*
X83928368Y-143921828D02*
X83714082Y-143921828D01*
X83714082Y-143921828D02*
X83499796Y-143993257D01*
X83499796Y-143993257D02*
X83356939Y-144136114D01*
X83356939Y-144136114D02*
X83285510Y-144278971D01*
X83285510Y-144278971D02*
X83214082Y-144564685D01*
X83214082Y-144564685D02*
X83214082Y-144778971D01*
X83214082Y-144778971D02*
X83285510Y-145064685D01*
X83285510Y-145064685D02*
X83356939Y-145207542D01*
X83356939Y-145207542D02*
X83499796Y-145350400D01*
X83499796Y-145350400D02*
X83714082Y-145421828D01*
X83714082Y-145421828D02*
X83856939Y-145421828D01*
X83856939Y-145421828D02*
X84071225Y-145350400D01*
X84071225Y-145350400D02*
X84142653Y-145278971D01*
X84142653Y-145278971D02*
X84142653Y-144778971D01*
X84142653Y-144778971D02*
X83856939Y-144778971D01*
X85714082Y-143921828D02*
X86214082Y-145421828D01*
X86214082Y-145421828D02*
X86714082Y-143921828D01*
X88285510Y-145350400D02*
X88499796Y-145421828D01*
X88499796Y-145421828D02*
X88856938Y-145421828D01*
X88856938Y-145421828D02*
X88999796Y-145350400D01*
X88999796Y-145350400D02*
X89071224Y-145278971D01*
X89071224Y-145278971D02*
X89142653Y-145136114D01*
X89142653Y-145136114D02*
X89142653Y-144993257D01*
X89142653Y-144993257D02*
X89071224Y-144850400D01*
X89071224Y-144850400D02*
X88999796Y-144778971D01*
X88999796Y-144778971D02*
X88856938Y-144707542D01*
X88856938Y-144707542D02*
X88571224Y-144636114D01*
X88571224Y-144636114D02*
X88428367Y-144564685D01*
X88428367Y-144564685D02*
X88356938Y-144493257D01*
X88356938Y-144493257D02*
X88285510Y-144350400D01*
X88285510Y-144350400D02*
X88285510Y-144207542D01*
X88285510Y-144207542D02*
X88356938Y-144064685D01*
X88356938Y-144064685D02*
X88428367Y-143993257D01*
X88428367Y-143993257D02*
X88571224Y-143921828D01*
X88571224Y-143921828D02*
X88928367Y-143921828D01*
X88928367Y-143921828D02*
X89142653Y-143993257D01*
X112023225Y-143993257D02*
X111880368Y-143921828D01*
X111880368Y-143921828D02*
X111666082Y-143921828D01*
X111666082Y-143921828D02*
X111451796Y-143993257D01*
X111451796Y-143993257D02*
X111308939Y-144136114D01*
X111308939Y-144136114D02*
X111237510Y-144278971D01*
X111237510Y-144278971D02*
X111166082Y-144564685D01*
X111166082Y-144564685D02*
X111166082Y-144778971D01*
X111166082Y-144778971D02*
X111237510Y-145064685D01*
X111237510Y-145064685D02*
X111308939Y-145207542D01*
X111308939Y-145207542D02*
X111451796Y-145350400D01*
X111451796Y-145350400D02*
X111666082Y-145421828D01*
X111666082Y-145421828D02*
X111808939Y-145421828D01*
X111808939Y-145421828D02*
X112023225Y-145350400D01*
X112023225Y-145350400D02*
X112094653Y-145278971D01*
X112094653Y-145278971D02*
X112094653Y-144778971D01*
X112094653Y-144778971D02*
X111808939Y-144778971D01*
X113666082Y-143921828D02*
X114166082Y-145421828D01*
X114166082Y-145421828D02*
X114666082Y-143921828D01*
X116237510Y-145350400D02*
X116451796Y-145421828D01*
X116451796Y-145421828D02*
X116808938Y-145421828D01*
X116808938Y-145421828D02*
X116951796Y-145350400D01*
X116951796Y-145350400D02*
X117023224Y-145278971D01*
X117023224Y-145278971D02*
X117094653Y-145136114D01*
X117094653Y-145136114D02*
X117094653Y-144993257D01*
X117094653Y-144993257D02*
X117023224Y-144850400D01*
X117023224Y-144850400D02*
X116951796Y-144778971D01*
X116951796Y-144778971D02*
X116808938Y-144707542D01*
X116808938Y-144707542D02*
X116523224Y-144636114D01*
X116523224Y-144636114D02*
X116380367Y-144564685D01*
X116380367Y-144564685D02*
X116308938Y-144493257D01*
X116308938Y-144493257D02*
X116237510Y-144350400D01*
X116237510Y-144350400D02*
X116237510Y-144207542D01*
X116237510Y-144207542D02*
X116308938Y-144064685D01*
X116308938Y-144064685D02*
X116380367Y-143993257D01*
X116380367Y-143993257D02*
X116523224Y-143921828D01*
X116523224Y-143921828D02*
X116880367Y-143921828D01*
X116880367Y-143921828D02*
X117094653Y-143993257D01*
X124252510Y-148088828D02*
X124252510Y-146588828D01*
X126038225Y-146517400D02*
X124752511Y-148445971D01*
X126823940Y-146588828D02*
X127109654Y-146588828D01*
X127109654Y-146588828D02*
X127252511Y-146660257D01*
X127252511Y-146660257D02*
X127395368Y-146803114D01*
X127395368Y-146803114D02*
X127466797Y-147088828D01*
X127466797Y-147088828D02*
X127466797Y-147588828D01*
X127466797Y-147588828D02*
X127395368Y-147874542D01*
X127395368Y-147874542D02*
X127252511Y-148017400D01*
X127252511Y-148017400D02*
X127109654Y-148088828D01*
X127109654Y-148088828D02*
X126823940Y-148088828D01*
X126823940Y-148088828D02*
X126681083Y-148017400D01*
X126681083Y-148017400D02*
X126538225Y-147874542D01*
X126538225Y-147874542D02*
X126466797Y-147588828D01*
X126466797Y-147588828D02*
X126466797Y-147088828D01*
X126466797Y-147088828D02*
X126538225Y-146803114D01*
X126538225Y-146803114D02*
X126681083Y-146660257D01*
X126681083Y-146660257D02*
X126823940Y-146588828D01*
X97587085Y-137134828D02*
X97587085Y-135634828D01*
X97587085Y-135634828D02*
X98158514Y-135634828D01*
X98158514Y-135634828D02*
X98301371Y-135706257D01*
X98301371Y-135706257D02*
X98372800Y-135777685D01*
X98372800Y-135777685D02*
X98444228Y-135920542D01*
X98444228Y-135920542D02*
X98444228Y-136134828D01*
X98444228Y-136134828D02*
X98372800Y-136277685D01*
X98372800Y-136277685D02*
X98301371Y-136349114D01*
X98301371Y-136349114D02*
X98158514Y-136420542D01*
X98158514Y-136420542D02*
X97587085Y-136420542D01*
X99801371Y-137134828D02*
X99087085Y-137134828D01*
X99087085Y-137134828D02*
X99087085Y-135634828D01*
X100229943Y-136706257D02*
X100944229Y-136706257D01*
X100087086Y-137134828D02*
X100587086Y-135634828D01*
X100587086Y-135634828D02*
X101087086Y-137134828D01*
X101872800Y-136420542D02*
X101872800Y-137134828D01*
X101372800Y-135634828D02*
X101872800Y-136420542D01*
X101872800Y-136420542D02*
X102372800Y-135634828D01*
X119807510Y-137134828D02*
X119807510Y-135634828D01*
X119807510Y-135634828D02*
X120307510Y-136706257D01*
X120307510Y-136706257D02*
X120807510Y-135634828D01*
X120807510Y-135634828D02*
X120807510Y-137134828D01*
X121521796Y-136349114D02*
X122021796Y-136349114D01*
X122236082Y-137134828D02*
X121521796Y-137134828D01*
X121521796Y-137134828D02*
X121521796Y-135634828D01*
X121521796Y-135634828D02*
X122236082Y-135634828D01*
X122878939Y-137134828D02*
X122878939Y-135634828D01*
X122878939Y-135634828D02*
X123736082Y-137134828D01*
X123736082Y-137134828D02*
X123736082Y-135634828D01*
X124450368Y-135634828D02*
X124450368Y-136849114D01*
X124450368Y-136849114D02*
X124521797Y-136991971D01*
X124521797Y-136991971D02*
X124593226Y-137063400D01*
X124593226Y-137063400D02*
X124736083Y-137134828D01*
X124736083Y-137134828D02*
X125021797Y-137134828D01*
X125021797Y-137134828D02*
X125164654Y-137063400D01*
X125164654Y-137063400D02*
X125236083Y-136991971D01*
X125236083Y-136991971D02*
X125307511Y-136849114D01*
X125307511Y-136849114D02*
X125307511Y-135634828D01*
X82714081Y-147660257D02*
X83428367Y-147660257D01*
X82571224Y-148088828D02*
X83071224Y-146588828D01*
X83071224Y-146588828D02*
X83571224Y-148088828D01*
X84071223Y-147088828D02*
X84071223Y-148088828D01*
X84071223Y-147231685D02*
X84142652Y-147160257D01*
X84142652Y-147160257D02*
X84285509Y-147088828D01*
X84285509Y-147088828D02*
X84499795Y-147088828D01*
X84499795Y-147088828D02*
X84642652Y-147160257D01*
X84642652Y-147160257D02*
X84714081Y-147303114D01*
X84714081Y-147303114D02*
X84714081Y-148088828D01*
X86071224Y-148088828D02*
X86071224Y-147303114D01*
X86071224Y-147303114D02*
X85999795Y-147160257D01*
X85999795Y-147160257D02*
X85856938Y-147088828D01*
X85856938Y-147088828D02*
X85571224Y-147088828D01*
X85571224Y-147088828D02*
X85428366Y-147160257D01*
X86071224Y-148017400D02*
X85928366Y-148088828D01*
X85928366Y-148088828D02*
X85571224Y-148088828D01*
X85571224Y-148088828D02*
X85428366Y-148017400D01*
X85428366Y-148017400D02*
X85356938Y-147874542D01*
X85356938Y-147874542D02*
X85356938Y-147731685D01*
X85356938Y-147731685D02*
X85428366Y-147588828D01*
X85428366Y-147588828D02*
X85571224Y-147517400D01*
X85571224Y-147517400D02*
X85928366Y-147517400D01*
X85928366Y-147517400D02*
X86071224Y-147445971D01*
X86999795Y-148088828D02*
X86856938Y-148017400D01*
X86856938Y-148017400D02*
X86785509Y-147874542D01*
X86785509Y-147874542D02*
X86785509Y-146588828D01*
X87785509Y-148088828D02*
X87642652Y-148017400D01*
X87642652Y-148017400D02*
X87571223Y-147945971D01*
X87571223Y-147945971D02*
X87499795Y-147803114D01*
X87499795Y-147803114D02*
X87499795Y-147374542D01*
X87499795Y-147374542D02*
X87571223Y-147231685D01*
X87571223Y-147231685D02*
X87642652Y-147160257D01*
X87642652Y-147160257D02*
X87785509Y-147088828D01*
X87785509Y-147088828D02*
X87999795Y-147088828D01*
X87999795Y-147088828D02*
X88142652Y-147160257D01*
X88142652Y-147160257D02*
X88214081Y-147231685D01*
X88214081Y-147231685D02*
X88285509Y-147374542D01*
X88285509Y-147374542D02*
X88285509Y-147803114D01*
X88285509Y-147803114D02*
X88214081Y-147945971D01*
X88214081Y-147945971D02*
X88142652Y-148017400D01*
X88142652Y-148017400D02*
X87999795Y-148088828D01*
X87999795Y-148088828D02*
X87785509Y-148088828D01*
X89571224Y-147088828D02*
X89571224Y-148303114D01*
X89571224Y-148303114D02*
X89499795Y-148445971D01*
X89499795Y-148445971D02*
X89428366Y-148517400D01*
X89428366Y-148517400D02*
X89285509Y-148588828D01*
X89285509Y-148588828D02*
X89071224Y-148588828D01*
X89071224Y-148588828D02*
X88928366Y-148517400D01*
X89571224Y-148017400D02*
X89428366Y-148088828D01*
X89428366Y-148088828D02*
X89142652Y-148088828D01*
X89142652Y-148088828D02*
X88999795Y-148017400D01*
X88999795Y-148017400D02*
X88928366Y-147945971D01*
X88928366Y-147945971D02*
X88856938Y-147803114D01*
X88856938Y-147803114D02*
X88856938Y-147374542D01*
X88856938Y-147374542D02*
X88928366Y-147231685D01*
X88928366Y-147231685D02*
X88999795Y-147160257D01*
X88999795Y-147160257D02*
X89142652Y-147088828D01*
X89142652Y-147088828D02*
X89428366Y-147088828D01*
X89428366Y-147088828D02*
X89571224Y-147160257D01*
%TO.C,SW2*%
D12*
X93872800Y-122521900D02*
X105872800Y-122521900D01*
X105872800Y-134521900D01*
X93872800Y-134521900D01*
X93872800Y-122521900D01*
X102872800Y-128521900D02*
G75*
G02*
X96872800Y-128521900I-3000000J0D01*
G01*
X96872800Y-128521900D02*
G75*
G02*
X102872800Y-128521900I3000000J0D01*
G01*
D13*
%TO.C,C6*%
X100179200Y-99636948D02*
X100179200Y-100159452D01*
X101649200Y-99636948D02*
X101649200Y-100159452D01*
%TO.C,C5*%
X97640000Y-98199336D02*
X97640000Y-97983664D01*
X98360000Y-98199336D02*
X98360000Y-97983664D01*
%TO.C,EC1*%
D12*
X72313800Y-62718900D02*
X127431800Y-62718900D01*
X127431800Y-73386900D01*
X72313800Y-73386900D01*
X72313800Y-62718900D01*
D13*
%TO.C,C8*%
X102140000Y-52580064D02*
X102140000Y-52795736D01*
X102860000Y-52580064D02*
X102860000Y-52795736D01*
%TO.C,SW3*%
D12*
X115872800Y-122521900D02*
X127872800Y-122521900D01*
X127872800Y-134521900D01*
X115872800Y-134521900D01*
X115872800Y-122521900D01*
X124872800Y-128521900D02*
G75*
G02*
X118872800Y-128521900I-3000000J0D01*
G01*
X118872800Y-128521900D02*
G75*
G02*
X124872800Y-128521900I3000000J0D01*
G01*
%TO.C,SW8*%
X79372800Y-91021900D02*
X91372800Y-91021900D01*
X91372800Y-103021900D01*
X79372800Y-103021900D01*
X79372800Y-91021900D01*
X88372800Y-97021900D02*
G75*
G02*
X82372800Y-97021900I-3000000J0D01*
G01*
X82372800Y-97021900D02*
G75*
G02*
X88372800Y-97021900I3000000J0D01*
G01*
D13*
%TO.C,C9*%
X99764964Y-53640000D02*
X99980636Y-53640000D01*
X99764964Y-54360000D02*
X99980636Y-54360000D01*
%TO.C,SW7*%
D12*
X108372800Y-91021900D02*
X120372800Y-91021900D01*
X120372800Y-103021900D01*
X108372800Y-103021900D01*
X108372800Y-91021900D01*
X117372800Y-97021900D02*
G75*
G02*
X111372800Y-97021900I-3000000J0D01*
G01*
X111372800Y-97021900D02*
G75*
G02*
X117372800Y-97021900I3000000J0D01*
G01*
D13*
%TO.C,C7*%
X99030200Y-99028364D02*
X99030200Y-99244036D01*
X99750200Y-99028364D02*
X99750200Y-99244036D01*
%TO.C,SW6*%
D12*
X93872800Y-105521900D02*
X105872800Y-105521900D01*
X105872800Y-117521900D01*
X93872800Y-117521900D01*
X93872800Y-105521900D01*
X102872800Y-111521900D02*
G75*
G02*
X96872800Y-111521900I-3000000J0D01*
G01*
X96872800Y-111521900D02*
G75*
G02*
X102872800Y-111521900I3000000J0D01*
G01*
%TO.C,SW4*%
X71872800Y-122521900D02*
X83872800Y-122521900D01*
X83872800Y-134521900D01*
X71872800Y-134521900D01*
X71872800Y-122521900D01*
X80872800Y-128521900D02*
G75*
G02*
X74872800Y-128521900I-3000000J0D01*
G01*
X74872800Y-128521900D02*
G75*
G02*
X80872800Y-128521900I3000000J0D01*
G01*
%TO.C,SW5*%
X93872800Y-76521900D02*
X105872800Y-76521900D01*
X105872800Y-88521900D01*
X93872800Y-88521900D01*
X93872800Y-76521900D01*
X102872800Y-82521900D02*
G75*
G02*
X96872800Y-82521900I-3000000J0D01*
G01*
X96872800Y-82521900D02*
G75*
G02*
X102872800Y-82521900I3000000J0D01*
G01*
%TO.C,U4*%
X98372800Y-50421900D02*
X101372800Y-50421900D01*
X101372800Y-52921900D01*
X98372800Y-52921900D01*
X98372800Y-50421900D01*
%TO.C,U3*%
X98872800Y-96021900D02*
X100872800Y-96021900D01*
X100872800Y-98021900D01*
X98872800Y-98021900D01*
X98872800Y-96021900D01*
%TD*%
M02*
