%TF.GenerationSoftware,KiCad,Pcbnew,9.0.3*%
%TF.CreationDate,2025-08-22T11:29:55-04:00*%
%TF.ProjectId,roversa2,726f7665-7273-4613-922e-6b696361645f,rev?*%
%TF.SameCoordinates,Original*%
%TF.FileFunction,Soldermask,Top*%
%TF.FilePolarity,Negative*%
%FSLAX46Y46*%
G04 Gerber Fmt 4.6, Leading zero omitted, Abs format (unit mm)*
G04 Created by KiCad (PCBNEW 9.0.3) date 2025-08-22 11:29:55*
%MOMM*%
%LPD*%
G01*
G04 APERTURE LIST*
G04 APERTURE END LIST*
G36*
X69703684Y-146924853D02*
G01*
X69825314Y-146995076D01*
X69924624Y-147094386D01*
X69994847Y-147216016D01*
X70031197Y-147351677D01*
X70035800Y-147421900D01*
X70035800Y-148121900D01*
X70031197Y-148192123D01*
X69994847Y-148327784D01*
X69924624Y-148449414D01*
X69825314Y-148548724D01*
X69703684Y-148618947D01*
X69568023Y-148655297D01*
X69427577Y-148655297D01*
X69291916Y-148618947D01*
X69170286Y-148548724D01*
X69070976Y-148449414D01*
X69000753Y-148327784D01*
X68964403Y-148192123D01*
X68959800Y-148121900D01*
X68959800Y-147421900D01*
X68964403Y-147351677D01*
X69000753Y-147216016D01*
X69070976Y-147094386D01*
X69170286Y-146995076D01*
X69291916Y-146924853D01*
X69427577Y-146888503D01*
X69568023Y-146888503D01*
X69703684Y-146924853D01*
G37*
G36*
X76853684Y-146924853D02*
G01*
X76975314Y-146995076D01*
X77074624Y-147094386D01*
X77144847Y-147216016D01*
X77181197Y-147351677D01*
X77185800Y-147421900D01*
X77185800Y-148121900D01*
X77181197Y-148192123D01*
X77144847Y-148327784D01*
X77074624Y-148449414D01*
X76975314Y-148548724D01*
X76853684Y-148618947D01*
X76718023Y-148655297D01*
X76577577Y-148655297D01*
X76441916Y-148618947D01*
X76320286Y-148548724D01*
X76220976Y-148449414D01*
X76150753Y-148327784D01*
X76114403Y-148192123D01*
X76109800Y-148121900D01*
X76109800Y-147421900D01*
X76114403Y-147351677D01*
X76150753Y-147216016D01*
X76220976Y-147094386D01*
X76320286Y-146995076D01*
X76441916Y-146924853D01*
X76577577Y-146888503D01*
X76718023Y-146888503D01*
X76853684Y-146924853D01*
G37*
G36*
X84237342Y-135086793D02*
G01*
X84249670Y-135095030D01*
X84257907Y-135107358D01*
X84260800Y-135121900D01*
X84260800Y-136821900D01*
X84257907Y-136836442D01*
X84249670Y-136848770D01*
X84237342Y-136857007D01*
X84222800Y-136859900D01*
X82522800Y-136859900D01*
X82508258Y-136857007D01*
X82495930Y-136848770D01*
X82487693Y-136836442D01*
X82484800Y-136821900D01*
X82484800Y-135121900D01*
X82487693Y-135107358D01*
X82495930Y-135095030D01*
X82508258Y-135086793D01*
X82522800Y-135083900D01*
X84222800Y-135083900D01*
X84237342Y-135086793D01*
G37*
G36*
X112187342Y-135086793D02*
G01*
X112199670Y-135095030D01*
X112207907Y-135107358D01*
X112210800Y-135121900D01*
X112210800Y-136821900D01*
X112207907Y-136836442D01*
X112199670Y-136848770D01*
X112187342Y-136857007D01*
X112172800Y-136859900D01*
X110472800Y-136859900D01*
X110458258Y-136857007D01*
X110445930Y-136848770D01*
X110437693Y-136836442D01*
X110434800Y-136821900D01*
X110434800Y-135121900D01*
X110437693Y-135107358D01*
X110445930Y-135095030D01*
X110458258Y-135086793D01*
X110472800Y-135083900D01*
X112172800Y-135083900D01*
X112187342Y-135086793D01*
G37*
G36*
X86170573Y-135122137D02*
G01*
X86331400Y-135188754D01*
X86476141Y-135285467D01*
X86599233Y-135408559D01*
X86695946Y-135553300D01*
X86762563Y-135714127D01*
X86796524Y-135884861D01*
X86796524Y-136058939D01*
X86762563Y-136229673D01*
X86695946Y-136390500D01*
X86599233Y-136535241D01*
X86476141Y-136658333D01*
X86331400Y-136755046D01*
X86170573Y-136821663D01*
X85999839Y-136855624D01*
X85825761Y-136855624D01*
X85655027Y-136821663D01*
X85494200Y-136755046D01*
X85349459Y-136658333D01*
X85226367Y-136535241D01*
X85129654Y-136390500D01*
X85063037Y-136229673D01*
X85029076Y-136058939D01*
X85029076Y-135884861D01*
X85063037Y-135714127D01*
X85129654Y-135553300D01*
X85226367Y-135408559D01*
X85349459Y-135285467D01*
X85494200Y-135188754D01*
X85655027Y-135122137D01*
X85825761Y-135088176D01*
X85999839Y-135088176D01*
X86170573Y-135122137D01*
G37*
G36*
X88710573Y-135122137D02*
G01*
X88871400Y-135188754D01*
X89016141Y-135285467D01*
X89139233Y-135408559D01*
X89235946Y-135553300D01*
X89302563Y-135714127D01*
X89336524Y-135884861D01*
X89336524Y-136058939D01*
X89302563Y-136229673D01*
X89235946Y-136390500D01*
X89139233Y-136535241D01*
X89016141Y-136658333D01*
X88871400Y-136755046D01*
X88710573Y-136821663D01*
X88539839Y-136855624D01*
X88365761Y-136855624D01*
X88195027Y-136821663D01*
X88034200Y-136755046D01*
X87889459Y-136658333D01*
X87766367Y-136535241D01*
X87669654Y-136390500D01*
X87603037Y-136229673D01*
X87569076Y-136058939D01*
X87569076Y-135884861D01*
X87603037Y-135714127D01*
X87669654Y-135553300D01*
X87766367Y-135408559D01*
X87889459Y-135285467D01*
X88034200Y-135188754D01*
X88195027Y-135122137D01*
X88365761Y-135088176D01*
X88539839Y-135088176D01*
X88710573Y-135122137D01*
G37*
G36*
X114120573Y-135122137D02*
G01*
X114281400Y-135188754D01*
X114426141Y-135285467D01*
X114549233Y-135408559D01*
X114645946Y-135553300D01*
X114712563Y-135714127D01*
X114746524Y-135884861D01*
X114746524Y-136058939D01*
X114712563Y-136229673D01*
X114645946Y-136390500D01*
X114549233Y-136535241D01*
X114426141Y-136658333D01*
X114281400Y-136755046D01*
X114120573Y-136821663D01*
X113949839Y-136855624D01*
X113775761Y-136855624D01*
X113605027Y-136821663D01*
X113444200Y-136755046D01*
X113299459Y-136658333D01*
X113176367Y-136535241D01*
X113079654Y-136390500D01*
X113013037Y-136229673D01*
X112979076Y-136058939D01*
X112979076Y-135884861D01*
X113013037Y-135714127D01*
X113079654Y-135553300D01*
X113176367Y-135408559D01*
X113299459Y-135285467D01*
X113444200Y-135188754D01*
X113605027Y-135122137D01*
X113775761Y-135088176D01*
X113949839Y-135088176D01*
X114120573Y-135122137D01*
G37*
G36*
X116660573Y-135122137D02*
G01*
X116821400Y-135188754D01*
X116966141Y-135285467D01*
X117089233Y-135408559D01*
X117185946Y-135553300D01*
X117252563Y-135714127D01*
X117286524Y-135884861D01*
X117286524Y-136058939D01*
X117252563Y-136229673D01*
X117185946Y-136390500D01*
X117089233Y-136535241D01*
X116966141Y-136658333D01*
X116821400Y-136755046D01*
X116660573Y-136821663D01*
X116489839Y-136855624D01*
X116315761Y-136855624D01*
X116145027Y-136821663D01*
X115984200Y-136755046D01*
X115839459Y-136658333D01*
X115716367Y-136535241D01*
X115619654Y-136390500D01*
X115553037Y-136229673D01*
X115519076Y-136058939D01*
X115519076Y-135884861D01*
X115553037Y-135714127D01*
X115619654Y-135553300D01*
X115716367Y-135408559D01*
X115839459Y-135285467D01*
X115984200Y-135188754D01*
X116145027Y-135122137D01*
X116315761Y-135088176D01*
X116489839Y-135088176D01*
X116660573Y-135122137D01*
G37*
G36*
X71887342Y-130336793D02*
G01*
X71899670Y-130345030D01*
X71907907Y-130357358D01*
X71910800Y-130371900D01*
X71910800Y-131671900D01*
X71907907Y-131686442D01*
X71899670Y-131698770D01*
X71887342Y-131707007D01*
X71872800Y-131709900D01*
X69922800Y-131709900D01*
X69908258Y-131707007D01*
X69895930Y-131698770D01*
X69887693Y-131686442D01*
X69884800Y-131671900D01*
X69884800Y-130371900D01*
X69887693Y-130357358D01*
X69895930Y-130345030D01*
X69908258Y-130336793D01*
X69922800Y-130333900D01*
X71872800Y-130333900D01*
X71887342Y-130336793D01*
G37*
G36*
X85837342Y-130336793D02*
G01*
X85849670Y-130345030D01*
X85857907Y-130357358D01*
X85860800Y-130371900D01*
X85860800Y-131671900D01*
X85857907Y-131686442D01*
X85849670Y-131698770D01*
X85837342Y-131707007D01*
X85822800Y-131709900D01*
X83872800Y-131709900D01*
X83858258Y-131707007D01*
X83845930Y-131698770D01*
X83837693Y-131686442D01*
X83834800Y-131671900D01*
X83834800Y-130371900D01*
X83837693Y-130357358D01*
X83845930Y-130345030D01*
X83858258Y-130336793D01*
X83872800Y-130333900D01*
X85822800Y-130333900D01*
X85837342Y-130336793D01*
G37*
G36*
X93887342Y-130336793D02*
G01*
X93899670Y-130345030D01*
X93907907Y-130357358D01*
X93910800Y-130371900D01*
X93910800Y-131671900D01*
X93907907Y-131686442D01*
X93899670Y-131698770D01*
X93887342Y-131707007D01*
X93872800Y-131709900D01*
X91922800Y-131709900D01*
X91908258Y-131707007D01*
X91895930Y-131698770D01*
X91887693Y-131686442D01*
X91884800Y-131671900D01*
X91884800Y-130371900D01*
X91887693Y-130357358D01*
X91895930Y-130345030D01*
X91908258Y-130336793D01*
X91922800Y-130333900D01*
X93872800Y-130333900D01*
X93887342Y-130336793D01*
G37*
G36*
X107837342Y-130336793D02*
G01*
X107849670Y-130345030D01*
X107857907Y-130357358D01*
X107860800Y-130371900D01*
X107860800Y-131671900D01*
X107857907Y-131686442D01*
X107849670Y-131698770D01*
X107837342Y-131707007D01*
X107822800Y-131709900D01*
X105872800Y-131709900D01*
X105858258Y-131707007D01*
X105845930Y-131698770D01*
X105837693Y-131686442D01*
X105834800Y-131671900D01*
X105834800Y-130371900D01*
X105837693Y-130357358D01*
X105845930Y-130345030D01*
X105858258Y-130336793D01*
X105872800Y-130333900D01*
X107822800Y-130333900D01*
X107837342Y-130336793D01*
G37*
G36*
X115887342Y-130336793D02*
G01*
X115899670Y-130345030D01*
X115907907Y-130357358D01*
X115910800Y-130371900D01*
X115910800Y-131671900D01*
X115907907Y-131686442D01*
X115899670Y-131698770D01*
X115887342Y-131707007D01*
X115872800Y-131709900D01*
X113922800Y-131709900D01*
X113908258Y-131707007D01*
X113895930Y-131698770D01*
X113887693Y-131686442D01*
X113884800Y-131671900D01*
X113884800Y-130371900D01*
X113887693Y-130357358D01*
X113895930Y-130345030D01*
X113908258Y-130336793D01*
X113922800Y-130333900D01*
X115872800Y-130333900D01*
X115887342Y-130336793D01*
G37*
G36*
X129837342Y-130336793D02*
G01*
X129849670Y-130345030D01*
X129857907Y-130357358D01*
X129860800Y-130371900D01*
X129860800Y-131671900D01*
X129857907Y-131686442D01*
X129849670Y-131698770D01*
X129837342Y-131707007D01*
X129822800Y-131709900D01*
X127872800Y-131709900D01*
X127858258Y-131707007D01*
X127845930Y-131698770D01*
X127837693Y-131686442D01*
X127834800Y-131671900D01*
X127834800Y-130371900D01*
X127837693Y-130357358D01*
X127845930Y-130345030D01*
X127858258Y-130336793D01*
X127872800Y-130333900D01*
X129822800Y-130333900D01*
X129837342Y-130336793D01*
G37*
G36*
X71887342Y-125336793D02*
G01*
X71899670Y-125345030D01*
X71907907Y-125357358D01*
X71910800Y-125371900D01*
X71910800Y-126671900D01*
X71907907Y-126686442D01*
X71899670Y-126698770D01*
X71887342Y-126707007D01*
X71872800Y-126709900D01*
X69922800Y-126709900D01*
X69908258Y-126707007D01*
X69895930Y-126698770D01*
X69887693Y-126686442D01*
X69884800Y-126671900D01*
X69884800Y-125371900D01*
X69887693Y-125357358D01*
X69895930Y-125345030D01*
X69908258Y-125336793D01*
X69922800Y-125333900D01*
X71872800Y-125333900D01*
X71887342Y-125336793D01*
G37*
G36*
X85837342Y-125336793D02*
G01*
X85849670Y-125345030D01*
X85857907Y-125357358D01*
X85860800Y-125371900D01*
X85860800Y-126671900D01*
X85857907Y-126686442D01*
X85849670Y-126698770D01*
X85837342Y-126707007D01*
X85822800Y-126709900D01*
X83872800Y-126709900D01*
X83858258Y-126707007D01*
X83845930Y-126698770D01*
X83837693Y-126686442D01*
X83834800Y-126671900D01*
X83834800Y-125371900D01*
X83837693Y-125357358D01*
X83845930Y-125345030D01*
X83858258Y-125336793D01*
X83872800Y-125333900D01*
X85822800Y-125333900D01*
X85837342Y-125336793D01*
G37*
G36*
X93887342Y-125336793D02*
G01*
X93899670Y-125345030D01*
X93907907Y-125357358D01*
X93910800Y-125371900D01*
X93910800Y-126671900D01*
X93907907Y-126686442D01*
X93899670Y-126698770D01*
X93887342Y-126707007D01*
X93872800Y-126709900D01*
X91922800Y-126709900D01*
X91908258Y-126707007D01*
X91895930Y-126698770D01*
X91887693Y-126686442D01*
X91884800Y-126671900D01*
X91884800Y-125371900D01*
X91887693Y-125357358D01*
X91895930Y-125345030D01*
X91908258Y-125336793D01*
X91922800Y-125333900D01*
X93872800Y-125333900D01*
X93887342Y-125336793D01*
G37*
G36*
X107837342Y-125336793D02*
G01*
X107849670Y-125345030D01*
X107857907Y-125357358D01*
X107860800Y-125371900D01*
X107860800Y-126671900D01*
X107857907Y-126686442D01*
X107849670Y-126698770D01*
X107837342Y-126707007D01*
X107822800Y-126709900D01*
X105872800Y-126709900D01*
X105858258Y-126707007D01*
X105845930Y-126698770D01*
X105837693Y-126686442D01*
X105834800Y-126671900D01*
X105834800Y-125371900D01*
X105837693Y-125357358D01*
X105845930Y-125345030D01*
X105858258Y-125336793D01*
X105872800Y-125333900D01*
X107822800Y-125333900D01*
X107837342Y-125336793D01*
G37*
G36*
X115887342Y-125336793D02*
G01*
X115899670Y-125345030D01*
X115907907Y-125357358D01*
X115910800Y-125371900D01*
X115910800Y-126671900D01*
X115907907Y-126686442D01*
X115899670Y-126698770D01*
X115887342Y-126707007D01*
X115872800Y-126709900D01*
X113922800Y-126709900D01*
X113908258Y-126707007D01*
X113895930Y-126698770D01*
X113887693Y-126686442D01*
X113884800Y-126671900D01*
X113884800Y-125371900D01*
X113887693Y-125357358D01*
X113895930Y-125345030D01*
X113908258Y-125336793D01*
X113922800Y-125333900D01*
X115872800Y-125333900D01*
X115887342Y-125336793D01*
G37*
G36*
X129837342Y-125336793D02*
G01*
X129849670Y-125345030D01*
X129857907Y-125357358D01*
X129860800Y-125371900D01*
X129860800Y-126671900D01*
X129857907Y-126686442D01*
X129849670Y-126698770D01*
X129837342Y-126707007D01*
X129822800Y-126709900D01*
X127872800Y-126709900D01*
X127858258Y-126707007D01*
X127845930Y-126698770D01*
X127837693Y-126686442D01*
X127834800Y-126671900D01*
X127834800Y-125371900D01*
X127837693Y-125357358D01*
X127845930Y-125345030D01*
X127858258Y-125336793D01*
X127872800Y-125333900D01*
X129822800Y-125333900D01*
X129837342Y-125336793D01*
G37*
G36*
X93887342Y-113336793D02*
G01*
X93899670Y-113345030D01*
X93907907Y-113357358D01*
X93910800Y-113371900D01*
X93910800Y-114671900D01*
X93907907Y-114686442D01*
X93899670Y-114698770D01*
X93887342Y-114707007D01*
X93872800Y-114709900D01*
X91922800Y-114709900D01*
X91908258Y-114707007D01*
X91895930Y-114698770D01*
X91887693Y-114686442D01*
X91884800Y-114671900D01*
X91884800Y-113371900D01*
X91887693Y-113357358D01*
X91895930Y-113345030D01*
X91908258Y-113336793D01*
X91922800Y-113333900D01*
X93872800Y-113333900D01*
X93887342Y-113336793D01*
G37*
G36*
X107837342Y-113336793D02*
G01*
X107849670Y-113345030D01*
X107857907Y-113357358D01*
X107860800Y-113371900D01*
X107860800Y-114671900D01*
X107857907Y-114686442D01*
X107849670Y-114698770D01*
X107837342Y-114707007D01*
X107822800Y-114709900D01*
X105872800Y-114709900D01*
X105858258Y-114707007D01*
X105845930Y-114698770D01*
X105837693Y-114686442D01*
X105834800Y-114671900D01*
X105834800Y-113371900D01*
X105837693Y-113357358D01*
X105845930Y-113345030D01*
X105858258Y-113336793D01*
X105872800Y-113333900D01*
X107822800Y-113333900D01*
X107837342Y-113336793D01*
G37*
G36*
X82737342Y-109636793D02*
G01*
X82749670Y-109645030D01*
X82757907Y-109657358D01*
X82760800Y-109671900D01*
X82760800Y-111371900D01*
X82757907Y-111386442D01*
X82749670Y-111398770D01*
X82737342Y-111407007D01*
X82722800Y-111409900D01*
X81022800Y-111409900D01*
X81008258Y-111407007D01*
X80995930Y-111398770D01*
X80987693Y-111386442D01*
X80984800Y-111371900D01*
X80984800Y-109671900D01*
X80987693Y-109657358D01*
X80995930Y-109645030D01*
X81008258Y-109636793D01*
X81022800Y-109633900D01*
X82722800Y-109633900D01*
X82737342Y-109636793D01*
G37*
G36*
X123787342Y-109636793D02*
G01*
X123799670Y-109645030D01*
X123807907Y-109657358D01*
X123810800Y-109671900D01*
X123810800Y-111371900D01*
X123807907Y-111386442D01*
X123799670Y-111398770D01*
X123787342Y-111407007D01*
X123772800Y-111409900D01*
X122072800Y-111409900D01*
X122058258Y-111407007D01*
X122045930Y-111398770D01*
X122037693Y-111386442D01*
X122034800Y-111371900D01*
X122034800Y-109671900D01*
X122037693Y-109657358D01*
X122045930Y-109645030D01*
X122058258Y-109636793D01*
X122072800Y-109633900D01*
X123772800Y-109633900D01*
X123787342Y-109636793D01*
G37*
G36*
X77050573Y-109672137D02*
G01*
X77211400Y-109738754D01*
X77356141Y-109835467D01*
X77479233Y-109958559D01*
X77575946Y-110103300D01*
X77642563Y-110264127D01*
X77676524Y-110434861D01*
X77676524Y-110608939D01*
X77642563Y-110779673D01*
X77575946Y-110940500D01*
X77479233Y-111085241D01*
X77356141Y-111208333D01*
X77211400Y-111305046D01*
X77050573Y-111371663D01*
X76879839Y-111405624D01*
X76705761Y-111405624D01*
X76535027Y-111371663D01*
X76374200Y-111305046D01*
X76229459Y-111208333D01*
X76106367Y-111085241D01*
X76009654Y-110940500D01*
X75943037Y-110779673D01*
X75909076Y-110608939D01*
X75909076Y-110434861D01*
X75943037Y-110264127D01*
X76009654Y-110103300D01*
X76106367Y-109958559D01*
X76229459Y-109835467D01*
X76374200Y-109738754D01*
X76535027Y-109672137D01*
X76705761Y-109638176D01*
X76879839Y-109638176D01*
X77050573Y-109672137D01*
G37*
G36*
X79590573Y-109672137D02*
G01*
X79751400Y-109738754D01*
X79896141Y-109835467D01*
X80019233Y-109958559D01*
X80115946Y-110103300D01*
X80182563Y-110264127D01*
X80216524Y-110434861D01*
X80216524Y-110608939D01*
X80182563Y-110779673D01*
X80115946Y-110940500D01*
X80019233Y-111085241D01*
X79896141Y-111208333D01*
X79751400Y-111305046D01*
X79590573Y-111371663D01*
X79419839Y-111405624D01*
X79245761Y-111405624D01*
X79075027Y-111371663D01*
X78914200Y-111305046D01*
X78769459Y-111208333D01*
X78646367Y-111085241D01*
X78549654Y-110940500D01*
X78483037Y-110779673D01*
X78449076Y-110608939D01*
X78449076Y-110434861D01*
X78483037Y-110264127D01*
X78549654Y-110103300D01*
X78646367Y-109958559D01*
X78769459Y-109835467D01*
X78914200Y-109738754D01*
X79075027Y-109672137D01*
X79245761Y-109638176D01*
X79419839Y-109638176D01*
X79590573Y-109672137D01*
G37*
G36*
X118100573Y-109672137D02*
G01*
X118261400Y-109738754D01*
X118406141Y-109835467D01*
X118529233Y-109958559D01*
X118625946Y-110103300D01*
X118692563Y-110264127D01*
X118726524Y-110434861D01*
X118726524Y-110608939D01*
X118692563Y-110779673D01*
X118625946Y-110940500D01*
X118529233Y-111085241D01*
X118406141Y-111208333D01*
X118261400Y-111305046D01*
X118100573Y-111371663D01*
X117929839Y-111405624D01*
X117755761Y-111405624D01*
X117585027Y-111371663D01*
X117424200Y-111305046D01*
X117279459Y-111208333D01*
X117156367Y-111085241D01*
X117059654Y-110940500D01*
X116993037Y-110779673D01*
X116959076Y-110608939D01*
X116959076Y-110434861D01*
X116993037Y-110264127D01*
X117059654Y-110103300D01*
X117156367Y-109958559D01*
X117279459Y-109835467D01*
X117424200Y-109738754D01*
X117585027Y-109672137D01*
X117755761Y-109638176D01*
X117929839Y-109638176D01*
X118100573Y-109672137D01*
G37*
G36*
X120640573Y-109672137D02*
G01*
X120801400Y-109738754D01*
X120946141Y-109835467D01*
X121069233Y-109958559D01*
X121165946Y-110103300D01*
X121232563Y-110264127D01*
X121266524Y-110434861D01*
X121266524Y-110608939D01*
X121232563Y-110779673D01*
X121165946Y-110940500D01*
X121069233Y-111085241D01*
X120946141Y-111208333D01*
X120801400Y-111305046D01*
X120640573Y-111371663D01*
X120469839Y-111405624D01*
X120295761Y-111405624D01*
X120125027Y-111371663D01*
X119964200Y-111305046D01*
X119819459Y-111208333D01*
X119696367Y-111085241D01*
X119599654Y-110940500D01*
X119533037Y-110779673D01*
X119499076Y-110608939D01*
X119499076Y-110434861D01*
X119533037Y-110264127D01*
X119599654Y-110103300D01*
X119696367Y-109958559D01*
X119819459Y-109835467D01*
X119964200Y-109738754D01*
X120125027Y-109672137D01*
X120295761Y-109638176D01*
X120469839Y-109638176D01*
X120640573Y-109672137D01*
G37*
G36*
X93887342Y-108336793D02*
G01*
X93899670Y-108345030D01*
X93907907Y-108357358D01*
X93910800Y-108371900D01*
X93910800Y-109671900D01*
X93907907Y-109686442D01*
X93899670Y-109698770D01*
X93887342Y-109707007D01*
X93872800Y-109709900D01*
X91922800Y-109709900D01*
X91908258Y-109707007D01*
X91895930Y-109698770D01*
X91887693Y-109686442D01*
X91884800Y-109671900D01*
X91884800Y-108371900D01*
X91887693Y-108357358D01*
X91895930Y-108345030D01*
X91908258Y-108336793D01*
X91922800Y-108333900D01*
X93872800Y-108333900D01*
X93887342Y-108336793D01*
G37*
G36*
X107837342Y-108336793D02*
G01*
X107849670Y-108345030D01*
X107857907Y-108357358D01*
X107860800Y-108371900D01*
X107860800Y-109671900D01*
X107857907Y-109686442D01*
X107849670Y-109698770D01*
X107837342Y-109707007D01*
X107822800Y-109709900D01*
X105872800Y-109709900D01*
X105858258Y-109707007D01*
X105845930Y-109698770D01*
X105837693Y-109686442D01*
X105834800Y-109671900D01*
X105834800Y-108371900D01*
X105837693Y-108357358D01*
X105845930Y-108345030D01*
X105858258Y-108336793D01*
X105872800Y-108333900D01*
X107822800Y-108333900D01*
X107837342Y-108336793D01*
G37*
G36*
X101455138Y-100317850D02*
G01*
X101459853Y-100319932D01*
X101462526Y-100320284D01*
X101495970Y-100335879D01*
X101551959Y-100360601D01*
X101626799Y-100435441D01*
X101651530Y-100491451D01*
X101667115Y-100524873D01*
X101667466Y-100527543D01*
X101669550Y-100532262D01*
X101677200Y-100598200D01*
X101677200Y-101098200D01*
X101669550Y-101164138D01*
X101667466Y-101168856D01*
X101667115Y-101171526D01*
X101651538Y-101204930D01*
X101626799Y-101260959D01*
X101551959Y-101335799D01*
X101495930Y-101360538D01*
X101462526Y-101376115D01*
X101459856Y-101376466D01*
X101455138Y-101378550D01*
X101389200Y-101386200D01*
X100439200Y-101386200D01*
X100373262Y-101378550D01*
X100368543Y-101376466D01*
X100365873Y-101376115D01*
X100332451Y-101360530D01*
X100276441Y-101335799D01*
X100201601Y-101260959D01*
X100176879Y-101204970D01*
X100161284Y-101171526D01*
X100160932Y-101168853D01*
X100158850Y-101164138D01*
X100151200Y-101098200D01*
X100151200Y-100598200D01*
X100158850Y-100532262D01*
X100160932Y-100527546D01*
X100161284Y-100524873D01*
X100176887Y-100491410D01*
X100201601Y-100435441D01*
X100276441Y-100360601D01*
X100332410Y-100335887D01*
X100365873Y-100320284D01*
X100368546Y-100319932D01*
X100373262Y-100317850D01*
X100439200Y-100310200D01*
X101389200Y-100310200D01*
X101455138Y-100317850D01*
G37*
G36*
X79387342Y-98836793D02*
G01*
X79399670Y-98845030D01*
X79407907Y-98857358D01*
X79410800Y-98871900D01*
X79410800Y-100171900D01*
X79407907Y-100186442D01*
X79399670Y-100198770D01*
X79387342Y-100207007D01*
X79372800Y-100209900D01*
X77422800Y-100209900D01*
X77408258Y-100207007D01*
X77395930Y-100198770D01*
X77387693Y-100186442D01*
X77384800Y-100171900D01*
X77384800Y-98871900D01*
X77387693Y-98857358D01*
X77395930Y-98845030D01*
X77408258Y-98836793D01*
X77422800Y-98833900D01*
X79372800Y-98833900D01*
X79387342Y-98836793D01*
G37*
G36*
X93337342Y-98836793D02*
G01*
X93349670Y-98845030D01*
X93357907Y-98857358D01*
X93360800Y-98871900D01*
X93360800Y-100171900D01*
X93357907Y-100186442D01*
X93349670Y-100198770D01*
X93337342Y-100207007D01*
X93322800Y-100209900D01*
X91372800Y-100209900D01*
X91358258Y-100207007D01*
X91345930Y-100198770D01*
X91337693Y-100186442D01*
X91334800Y-100171900D01*
X91334800Y-98871900D01*
X91337693Y-98857358D01*
X91345930Y-98845030D01*
X91358258Y-98836793D01*
X91372800Y-98833900D01*
X93322800Y-98833900D01*
X93337342Y-98836793D01*
G37*
G36*
X108387342Y-98836793D02*
G01*
X108399670Y-98845030D01*
X108407907Y-98857358D01*
X108410800Y-98871900D01*
X108410800Y-100171900D01*
X108407907Y-100186442D01*
X108399670Y-100198770D01*
X108387342Y-100207007D01*
X108372800Y-100209900D01*
X106422800Y-100209900D01*
X106408258Y-100207007D01*
X106395930Y-100198770D01*
X106387693Y-100186442D01*
X106384800Y-100171900D01*
X106384800Y-98871900D01*
X106387693Y-98857358D01*
X106395930Y-98845030D01*
X106408258Y-98836793D01*
X106422800Y-98833900D01*
X108372800Y-98833900D01*
X108387342Y-98836793D01*
G37*
G36*
X122337342Y-98836793D02*
G01*
X122349670Y-98845030D01*
X122357907Y-98857358D01*
X122360800Y-98871900D01*
X122360800Y-100171900D01*
X122357907Y-100186442D01*
X122349670Y-100198770D01*
X122337342Y-100207007D01*
X122322800Y-100209900D01*
X120372800Y-100209900D01*
X120358258Y-100207007D01*
X120345930Y-100198770D01*
X120337693Y-100186442D01*
X120334800Y-100171900D01*
X120334800Y-98871900D01*
X120337693Y-98857358D01*
X120345930Y-98845030D01*
X120358258Y-98836793D01*
X120372800Y-98833900D01*
X122322800Y-98833900D01*
X122337342Y-98836793D01*
G37*
G36*
X99628318Y-99311749D02*
G01*
X99686065Y-99350335D01*
X99724651Y-99408082D01*
X99738200Y-99476200D01*
X99738200Y-99756200D01*
X99724651Y-99824318D01*
X99686065Y-99882065D01*
X99628318Y-99920651D01*
X99560200Y-99934200D01*
X99220200Y-99934200D01*
X99152082Y-99920651D01*
X99094335Y-99882065D01*
X99055749Y-99824318D01*
X99042200Y-99756200D01*
X99042200Y-99476200D01*
X99055749Y-99408082D01*
X99094335Y-99350335D01*
X99152082Y-99311749D01*
X99220200Y-99298200D01*
X99560200Y-99298200D01*
X99628318Y-99311749D01*
G37*
G36*
X101455138Y-98417850D02*
G01*
X101459853Y-98419932D01*
X101462526Y-98420284D01*
X101495970Y-98435879D01*
X101551959Y-98460601D01*
X101626799Y-98535441D01*
X101651530Y-98591451D01*
X101667115Y-98624873D01*
X101667466Y-98627543D01*
X101669550Y-98632262D01*
X101677200Y-98698200D01*
X101677200Y-99198200D01*
X101669550Y-99264138D01*
X101667466Y-99268856D01*
X101667115Y-99271526D01*
X101651538Y-99304930D01*
X101626799Y-99360959D01*
X101551959Y-99435799D01*
X101495930Y-99460538D01*
X101462526Y-99476115D01*
X101459856Y-99476466D01*
X101455138Y-99478550D01*
X101389200Y-99486200D01*
X100439200Y-99486200D01*
X100373262Y-99478550D01*
X100368543Y-99476466D01*
X100365873Y-99476115D01*
X100332451Y-99460530D01*
X100276441Y-99435799D01*
X100201601Y-99360959D01*
X100176879Y-99304970D01*
X100161284Y-99271526D01*
X100160932Y-99268853D01*
X100158850Y-99264138D01*
X100151200Y-99198200D01*
X100151200Y-98698200D01*
X100158850Y-98632262D01*
X100160932Y-98627546D01*
X100161284Y-98624873D01*
X100176887Y-98591410D01*
X100201601Y-98535441D01*
X100276441Y-98460601D01*
X100332410Y-98435887D01*
X100365873Y-98420284D01*
X100368546Y-98419932D01*
X100373262Y-98417850D01*
X100439200Y-98410200D01*
X101389200Y-98410200D01*
X101455138Y-98417850D01*
G37*
G36*
X99628318Y-98351749D02*
G01*
X99686065Y-98390335D01*
X99724651Y-98448082D01*
X99738200Y-98516200D01*
X99738200Y-98796200D01*
X99724651Y-98864318D01*
X99686065Y-98922065D01*
X99628318Y-98960651D01*
X99560200Y-98974200D01*
X99220200Y-98974200D01*
X99152082Y-98960651D01*
X99094335Y-98922065D01*
X99055749Y-98864318D01*
X99042200Y-98796200D01*
X99042200Y-98516200D01*
X99055749Y-98448082D01*
X99094335Y-98390335D01*
X99152082Y-98351749D01*
X99220200Y-98338200D01*
X99560200Y-98338200D01*
X99628318Y-98351749D01*
G37*
G36*
X98238118Y-98267049D02*
G01*
X98295865Y-98305635D01*
X98334451Y-98363382D01*
X98348000Y-98431500D01*
X98348000Y-98711500D01*
X98334451Y-98779618D01*
X98295865Y-98837365D01*
X98238118Y-98875951D01*
X98170000Y-98889500D01*
X97830000Y-98889500D01*
X97761882Y-98875951D01*
X97704135Y-98837365D01*
X97665549Y-98779618D01*
X97652000Y-98711500D01*
X97652000Y-98431500D01*
X97665549Y-98363382D01*
X97704135Y-98305635D01*
X97761882Y-98267049D01*
X97830000Y-98253500D01*
X98170000Y-98253500D01*
X98238118Y-98267049D01*
G37*
G36*
X99762342Y-97611793D02*
G01*
X99774670Y-97620030D01*
X99782907Y-97632358D01*
X99785800Y-97646900D01*
X99785800Y-98196900D01*
X99782907Y-98211442D01*
X99774670Y-98223770D01*
X99762342Y-98232007D01*
X99747800Y-98234900D01*
X99497800Y-98234900D01*
X99483258Y-98232007D01*
X99470930Y-98223770D01*
X99462693Y-98211442D01*
X99459800Y-98196900D01*
X99459800Y-97646900D01*
X99462693Y-97632358D01*
X99470930Y-97620030D01*
X99483258Y-97611793D01*
X99497800Y-97608900D01*
X99747800Y-97608900D01*
X99762342Y-97611793D01*
G37*
G36*
X100262342Y-97611793D02*
G01*
X100274670Y-97620030D01*
X100282907Y-97632358D01*
X100285800Y-97646900D01*
X100285800Y-98196900D01*
X100282907Y-98211442D01*
X100274670Y-98223770D01*
X100262342Y-98232007D01*
X100247800Y-98234900D01*
X99997800Y-98234900D01*
X99983258Y-98232007D01*
X99970930Y-98223770D01*
X99962693Y-98211442D01*
X99959800Y-98196900D01*
X99959800Y-97646900D01*
X99962693Y-97632358D01*
X99970930Y-97620030D01*
X99983258Y-97611793D01*
X99997800Y-97608900D01*
X100247800Y-97608900D01*
X100262342Y-97611793D01*
G37*
G36*
X99262342Y-97611793D02*
G01*
X99274670Y-97620030D01*
X99282907Y-97632358D01*
X99285800Y-97646900D01*
X99285800Y-97896900D01*
X99282907Y-97911442D01*
X99274670Y-97923770D01*
X99262342Y-97932007D01*
X99247800Y-97934900D01*
X98697800Y-97934900D01*
X98683258Y-97932007D01*
X98670930Y-97923770D01*
X98662693Y-97911442D01*
X98659800Y-97896900D01*
X98659800Y-97646900D01*
X98662693Y-97632358D01*
X98670930Y-97620030D01*
X98683258Y-97611793D01*
X98697800Y-97608900D01*
X99247800Y-97608900D01*
X99262342Y-97611793D01*
G37*
G36*
X101062342Y-97611793D02*
G01*
X101074670Y-97620030D01*
X101082907Y-97632358D01*
X101085800Y-97646900D01*
X101085800Y-97896900D01*
X101082907Y-97911442D01*
X101074670Y-97923770D01*
X101062342Y-97932007D01*
X101047800Y-97934900D01*
X100497800Y-97934900D01*
X100483258Y-97932007D01*
X100470930Y-97923770D01*
X100462693Y-97911442D01*
X100459800Y-97896900D01*
X100459800Y-97646900D01*
X100462693Y-97632358D01*
X100470930Y-97620030D01*
X100483258Y-97611793D01*
X100497800Y-97608900D01*
X101047800Y-97608900D01*
X101062342Y-97611793D01*
G37*
G36*
X98238118Y-97307049D02*
G01*
X98295865Y-97345635D01*
X98334451Y-97403382D01*
X98348000Y-97471500D01*
X98348000Y-97751500D01*
X98334451Y-97819618D01*
X98295865Y-97877365D01*
X98238118Y-97915951D01*
X98170000Y-97929500D01*
X97830000Y-97929500D01*
X97761882Y-97915951D01*
X97704135Y-97877365D01*
X97665549Y-97819618D01*
X97652000Y-97751500D01*
X97652000Y-97471500D01*
X97665549Y-97403382D01*
X97704135Y-97345635D01*
X97761882Y-97307049D01*
X97830000Y-97293500D01*
X98170000Y-97293500D01*
X98238118Y-97307049D01*
G37*
G36*
X99262342Y-97111793D02*
G01*
X99274670Y-97120030D01*
X99282907Y-97132358D01*
X99285800Y-97146900D01*
X99285800Y-97396900D01*
X99282907Y-97411442D01*
X99274670Y-97423770D01*
X99262342Y-97432007D01*
X99247800Y-97434900D01*
X98697800Y-97434900D01*
X98683258Y-97432007D01*
X98670930Y-97423770D01*
X98662693Y-97411442D01*
X98659800Y-97396900D01*
X98659800Y-97146900D01*
X98662693Y-97132358D01*
X98670930Y-97120030D01*
X98683258Y-97111793D01*
X98697800Y-97108900D01*
X99247800Y-97108900D01*
X99262342Y-97111793D01*
G37*
G36*
X101062342Y-97111793D02*
G01*
X101074670Y-97120030D01*
X101082907Y-97132358D01*
X101085800Y-97146900D01*
X101085800Y-97396900D01*
X101082907Y-97411442D01*
X101074670Y-97423770D01*
X101062342Y-97432007D01*
X101047800Y-97434900D01*
X100497800Y-97434900D01*
X100483258Y-97432007D01*
X100470930Y-97423770D01*
X100462693Y-97411442D01*
X100459800Y-97396900D01*
X100459800Y-97146900D01*
X100462693Y-97132358D01*
X100470930Y-97120030D01*
X100483258Y-97111793D01*
X100497800Y-97108900D01*
X101047800Y-97108900D01*
X101062342Y-97111793D01*
G37*
G36*
X99262342Y-96611793D02*
G01*
X99274670Y-96620030D01*
X99282907Y-96632358D01*
X99285800Y-96646900D01*
X99285800Y-96896900D01*
X99282907Y-96911442D01*
X99274670Y-96923770D01*
X99262342Y-96932007D01*
X99247800Y-96934900D01*
X98697800Y-96934900D01*
X98683258Y-96932007D01*
X98670930Y-96923770D01*
X98662693Y-96911442D01*
X98659800Y-96896900D01*
X98659800Y-96646900D01*
X98662693Y-96632358D01*
X98670930Y-96620030D01*
X98683258Y-96611793D01*
X98697800Y-96608900D01*
X99247800Y-96608900D01*
X99262342Y-96611793D01*
G37*
G36*
X101062342Y-96611793D02*
G01*
X101074670Y-96620030D01*
X101082907Y-96632358D01*
X101085800Y-96646900D01*
X101085800Y-96896900D01*
X101082907Y-96911442D01*
X101074670Y-96923770D01*
X101062342Y-96932007D01*
X101047800Y-96934900D01*
X100497800Y-96934900D01*
X100483258Y-96932007D01*
X100470930Y-96923770D01*
X100462693Y-96911442D01*
X100459800Y-96896900D01*
X100459800Y-96646900D01*
X100462693Y-96632358D01*
X100470930Y-96620030D01*
X100483258Y-96611793D01*
X100497800Y-96608900D01*
X101047800Y-96608900D01*
X101062342Y-96611793D01*
G37*
G36*
X99262342Y-96111793D02*
G01*
X99274670Y-96120030D01*
X99282907Y-96132358D01*
X99285800Y-96146900D01*
X99285800Y-96396900D01*
X99282907Y-96411442D01*
X99274670Y-96423770D01*
X99262342Y-96432007D01*
X99247800Y-96434900D01*
X98697800Y-96434900D01*
X98683258Y-96432007D01*
X98670930Y-96423770D01*
X98662693Y-96411442D01*
X98659800Y-96396900D01*
X98659800Y-96146900D01*
X98662693Y-96132358D01*
X98670930Y-96120030D01*
X98683258Y-96111793D01*
X98697800Y-96108900D01*
X99247800Y-96108900D01*
X99262342Y-96111793D01*
G37*
G36*
X99762342Y-95811793D02*
G01*
X99774670Y-95820030D01*
X99782907Y-95832358D01*
X99785800Y-95846900D01*
X99785800Y-96396900D01*
X99782907Y-96411442D01*
X99774670Y-96423770D01*
X99762342Y-96432007D01*
X99747800Y-96434900D01*
X99497800Y-96434900D01*
X99483258Y-96432007D01*
X99470930Y-96423770D01*
X99462693Y-96411442D01*
X99459800Y-96396900D01*
X99459800Y-95846900D01*
X99462693Y-95832358D01*
X99470930Y-95820030D01*
X99483258Y-95811793D01*
X99497800Y-95808900D01*
X99747800Y-95808900D01*
X99762342Y-95811793D01*
G37*
G36*
X100262342Y-95811793D02*
G01*
X100274670Y-95820030D01*
X100282907Y-95832358D01*
X100285800Y-95846900D01*
X100285800Y-96396900D01*
X100282907Y-96411442D01*
X100274670Y-96423770D01*
X100262342Y-96432007D01*
X100247800Y-96434900D01*
X99997800Y-96434900D01*
X99983258Y-96432007D01*
X99970930Y-96423770D01*
X99962693Y-96411442D01*
X99959800Y-96396900D01*
X99959800Y-95846900D01*
X99962693Y-95832358D01*
X99970930Y-95820030D01*
X99983258Y-95811793D01*
X99997800Y-95808900D01*
X100247800Y-95808900D01*
X100262342Y-95811793D01*
G37*
G36*
X101062342Y-96111793D02*
G01*
X101074670Y-96120030D01*
X101082907Y-96132358D01*
X101085800Y-96146900D01*
X101085800Y-96396900D01*
X101082907Y-96411442D01*
X101074670Y-96423770D01*
X101062342Y-96432007D01*
X101047800Y-96434900D01*
X100497800Y-96434900D01*
X100483258Y-96432007D01*
X100470930Y-96423770D01*
X100462693Y-96411442D01*
X100459800Y-96396900D01*
X100459800Y-96146900D01*
X100462693Y-96132358D01*
X100470930Y-96120030D01*
X100483258Y-96111793D01*
X100497800Y-96108900D01*
X101047800Y-96108900D01*
X101062342Y-96111793D01*
G37*
G36*
X79387342Y-93836793D02*
G01*
X79399670Y-93845030D01*
X79407907Y-93857358D01*
X79410800Y-93871900D01*
X79410800Y-95171900D01*
X79407907Y-95186442D01*
X79399670Y-95198770D01*
X79387342Y-95207007D01*
X79372800Y-95209900D01*
X77422800Y-95209900D01*
X77408258Y-95207007D01*
X77395930Y-95198770D01*
X77387693Y-95186442D01*
X77384800Y-95171900D01*
X77384800Y-93871900D01*
X77387693Y-93857358D01*
X77395930Y-93845030D01*
X77408258Y-93836793D01*
X77422800Y-93833900D01*
X79372800Y-93833900D01*
X79387342Y-93836793D01*
G37*
G36*
X93337342Y-93836793D02*
G01*
X93349670Y-93845030D01*
X93357907Y-93857358D01*
X93360800Y-93871900D01*
X93360800Y-95171900D01*
X93357907Y-95186442D01*
X93349670Y-95198770D01*
X93337342Y-95207007D01*
X93322800Y-95209900D01*
X91372800Y-95209900D01*
X91358258Y-95207007D01*
X91345930Y-95198770D01*
X91337693Y-95186442D01*
X91334800Y-95171900D01*
X91334800Y-93871900D01*
X91337693Y-93857358D01*
X91345930Y-93845030D01*
X91358258Y-93836793D01*
X91372800Y-93833900D01*
X93322800Y-93833900D01*
X93337342Y-93836793D01*
G37*
G36*
X108387342Y-93836793D02*
G01*
X108399670Y-93845030D01*
X108407907Y-93857358D01*
X108410800Y-93871900D01*
X108410800Y-95171900D01*
X108407907Y-95186442D01*
X108399670Y-95198770D01*
X108387342Y-95207007D01*
X108372800Y-95209900D01*
X106422800Y-95209900D01*
X106408258Y-95207007D01*
X106395930Y-95198770D01*
X106387693Y-95186442D01*
X106384800Y-95171900D01*
X106384800Y-93871900D01*
X106387693Y-93857358D01*
X106395930Y-93845030D01*
X106408258Y-93836793D01*
X106422800Y-93833900D01*
X108372800Y-93833900D01*
X108387342Y-93836793D01*
G37*
G36*
X122337342Y-93836793D02*
G01*
X122349670Y-93845030D01*
X122357907Y-93857358D01*
X122360800Y-93871900D01*
X122360800Y-95171900D01*
X122357907Y-95186442D01*
X122349670Y-95198770D01*
X122337342Y-95207007D01*
X122322800Y-95209900D01*
X120372800Y-95209900D01*
X120358258Y-95207007D01*
X120345930Y-95198770D01*
X120337693Y-95186442D01*
X120334800Y-95171900D01*
X120334800Y-93871900D01*
X120337693Y-93857358D01*
X120345930Y-93845030D01*
X120358258Y-93836793D01*
X120372800Y-93833900D01*
X122322800Y-93833900D01*
X122337342Y-93836793D01*
G37*
G36*
X93887342Y-84336793D02*
G01*
X93899670Y-84345030D01*
X93907907Y-84357358D01*
X93910800Y-84371900D01*
X93910800Y-85671900D01*
X93907907Y-85686442D01*
X93899670Y-85698770D01*
X93887342Y-85707007D01*
X93872800Y-85709900D01*
X91922800Y-85709900D01*
X91908258Y-85707007D01*
X91895930Y-85698770D01*
X91887693Y-85686442D01*
X91884800Y-85671900D01*
X91884800Y-84371900D01*
X91887693Y-84357358D01*
X91895930Y-84345030D01*
X91908258Y-84336793D01*
X91922800Y-84333900D01*
X93872800Y-84333900D01*
X93887342Y-84336793D01*
G37*
G36*
X107837342Y-84336793D02*
G01*
X107849670Y-84345030D01*
X107857907Y-84357358D01*
X107860800Y-84371900D01*
X107860800Y-85671900D01*
X107857907Y-85686442D01*
X107849670Y-85698770D01*
X107837342Y-85707007D01*
X107822800Y-85709900D01*
X105872800Y-85709900D01*
X105858258Y-85707007D01*
X105845930Y-85698770D01*
X105837693Y-85686442D01*
X105834800Y-85671900D01*
X105834800Y-84371900D01*
X105837693Y-84357358D01*
X105845930Y-84345030D01*
X105858258Y-84336793D01*
X105872800Y-84333900D01*
X107822800Y-84333900D01*
X107837342Y-84336793D01*
G37*
G36*
X93887342Y-79336793D02*
G01*
X93899670Y-79345030D01*
X93907907Y-79357358D01*
X93910800Y-79371900D01*
X93910800Y-80671900D01*
X93907907Y-80686442D01*
X93899670Y-80698770D01*
X93887342Y-80707007D01*
X93872800Y-80709900D01*
X91922800Y-80709900D01*
X91908258Y-80707007D01*
X91895930Y-80698770D01*
X91887693Y-80686442D01*
X91884800Y-80671900D01*
X91884800Y-79371900D01*
X91887693Y-79357358D01*
X91895930Y-79345030D01*
X91908258Y-79336793D01*
X91922800Y-79333900D01*
X93872800Y-79333900D01*
X93887342Y-79336793D01*
G37*
G36*
X107837342Y-79336793D02*
G01*
X107849670Y-79345030D01*
X107857907Y-79357358D01*
X107860800Y-79371900D01*
X107860800Y-80671900D01*
X107857907Y-80686442D01*
X107849670Y-80698770D01*
X107837342Y-80707007D01*
X107822800Y-80709900D01*
X105872800Y-80709900D01*
X105858258Y-80707007D01*
X105845930Y-80698770D01*
X105837693Y-80686442D01*
X105834800Y-80671900D01*
X105834800Y-79371900D01*
X105837693Y-79357358D01*
X105845930Y-79345030D01*
X105858258Y-79336793D01*
X105872800Y-79333900D01*
X107822800Y-79333900D01*
X107837342Y-79336793D01*
G37*
G36*
X75311847Y-72734705D02*
G01*
X75360461Y-72740345D01*
X75377071Y-72747679D01*
X75398879Y-72752017D01*
X75422225Y-72767616D01*
X75441812Y-72776265D01*
X75455190Y-72789643D01*
X75476091Y-72803609D01*
X75490056Y-72824509D01*
X75503434Y-72837887D01*
X75512081Y-72857472D01*
X75527683Y-72880821D01*
X75532021Y-72902631D01*
X75539354Y-72919238D01*
X75544992Y-72967842D01*
X75545800Y-72971900D01*
X75545800Y-75071900D01*
X75544992Y-75075959D01*
X75539354Y-75124561D01*
X75532021Y-75141166D01*
X75527683Y-75162979D01*
X75512080Y-75186329D01*
X75503434Y-75205912D01*
X75490058Y-75219287D01*
X75476091Y-75240191D01*
X75455187Y-75254158D01*
X75441812Y-75267534D01*
X75422229Y-75276180D01*
X75398879Y-75291783D01*
X75377066Y-75296121D01*
X75360461Y-75303454D01*
X75311859Y-75309092D01*
X75307800Y-75309900D01*
X74907800Y-75309900D01*
X74903742Y-75309092D01*
X74855138Y-75303454D01*
X74838531Y-75296121D01*
X74816721Y-75291783D01*
X74793372Y-75276181D01*
X74773787Y-75267534D01*
X74760409Y-75254156D01*
X74739509Y-75240191D01*
X74725543Y-75219290D01*
X74712165Y-75205912D01*
X74703516Y-75186325D01*
X74687917Y-75162979D01*
X74683579Y-75141171D01*
X74676245Y-75124561D01*
X74670605Y-75075947D01*
X74669800Y-75071900D01*
X74669800Y-72971900D01*
X74670604Y-72967854D01*
X74676245Y-72919238D01*
X74683579Y-72902627D01*
X74687917Y-72880821D01*
X74703515Y-72857476D01*
X74712165Y-72837887D01*
X74725545Y-72824506D01*
X74739509Y-72803609D01*
X74760406Y-72789645D01*
X74773787Y-72776265D01*
X74793376Y-72767615D01*
X74816721Y-72752017D01*
X74838527Y-72747679D01*
X74855138Y-72740345D01*
X74903754Y-72734704D01*
X74907800Y-72733900D01*
X75307800Y-72733900D01*
X75311847Y-72734705D01*
G37*
G36*
X76581847Y-72734705D02*
G01*
X76630461Y-72740345D01*
X76647071Y-72747679D01*
X76668879Y-72752017D01*
X76692225Y-72767616D01*
X76711812Y-72776265D01*
X76725190Y-72789643D01*
X76746091Y-72803609D01*
X76760056Y-72824509D01*
X76773434Y-72837887D01*
X76782081Y-72857472D01*
X76797683Y-72880821D01*
X76802021Y-72902631D01*
X76809354Y-72919238D01*
X76814992Y-72967842D01*
X76815800Y-72971900D01*
X76815800Y-75071900D01*
X76814992Y-75075959D01*
X76809354Y-75124561D01*
X76802021Y-75141166D01*
X76797683Y-75162979D01*
X76782080Y-75186329D01*
X76773434Y-75205912D01*
X76760058Y-75219287D01*
X76746091Y-75240191D01*
X76725187Y-75254158D01*
X76711812Y-75267534D01*
X76692229Y-75276180D01*
X76668879Y-75291783D01*
X76647066Y-75296121D01*
X76630461Y-75303454D01*
X76581859Y-75309092D01*
X76577800Y-75309900D01*
X76177800Y-75309900D01*
X76173742Y-75309092D01*
X76125138Y-75303454D01*
X76108531Y-75296121D01*
X76086721Y-75291783D01*
X76063372Y-75276181D01*
X76043787Y-75267534D01*
X76030409Y-75254156D01*
X76009509Y-75240191D01*
X75995543Y-75219290D01*
X75982165Y-75205912D01*
X75973516Y-75186325D01*
X75957917Y-75162979D01*
X75953579Y-75141171D01*
X75946245Y-75124561D01*
X75940605Y-75075947D01*
X75939800Y-75071900D01*
X75939800Y-72971900D01*
X75940604Y-72967854D01*
X75946245Y-72919238D01*
X75953579Y-72902627D01*
X75957917Y-72880821D01*
X75973515Y-72857476D01*
X75982165Y-72837887D01*
X75995545Y-72824506D01*
X76009509Y-72803609D01*
X76030406Y-72789645D01*
X76043787Y-72776265D01*
X76063376Y-72767615D01*
X76086721Y-72752017D01*
X76108527Y-72747679D01*
X76125138Y-72740345D01*
X76173754Y-72734704D01*
X76177800Y-72733900D01*
X76577800Y-72733900D01*
X76581847Y-72734705D01*
G37*
G36*
X77851847Y-72734705D02*
G01*
X77900461Y-72740345D01*
X77917071Y-72747679D01*
X77938879Y-72752017D01*
X77962225Y-72767616D01*
X77981812Y-72776265D01*
X77995190Y-72789643D01*
X78016091Y-72803609D01*
X78030056Y-72824509D01*
X78043434Y-72837887D01*
X78052081Y-72857472D01*
X78067683Y-72880821D01*
X78072021Y-72902631D01*
X78079354Y-72919238D01*
X78084992Y-72967842D01*
X78085800Y-72971900D01*
X78085800Y-75071900D01*
X78084992Y-75075959D01*
X78079354Y-75124561D01*
X78072021Y-75141166D01*
X78067683Y-75162979D01*
X78052080Y-75186329D01*
X78043434Y-75205912D01*
X78030058Y-75219287D01*
X78016091Y-75240191D01*
X77995187Y-75254158D01*
X77981812Y-75267534D01*
X77962229Y-75276180D01*
X77938879Y-75291783D01*
X77917066Y-75296121D01*
X77900461Y-75303454D01*
X77851859Y-75309092D01*
X77847800Y-75309900D01*
X77447800Y-75309900D01*
X77443742Y-75309092D01*
X77395138Y-75303454D01*
X77378531Y-75296121D01*
X77356721Y-75291783D01*
X77333372Y-75276181D01*
X77313787Y-75267534D01*
X77300409Y-75254156D01*
X77279509Y-75240191D01*
X77265543Y-75219290D01*
X77252165Y-75205912D01*
X77243516Y-75186325D01*
X77227917Y-75162979D01*
X77223579Y-75141171D01*
X77216245Y-75124561D01*
X77210605Y-75075947D01*
X77209800Y-75071900D01*
X77209800Y-72971900D01*
X77210604Y-72967854D01*
X77216245Y-72919238D01*
X77223579Y-72902627D01*
X77227917Y-72880821D01*
X77243515Y-72857476D01*
X77252165Y-72837887D01*
X77265545Y-72824506D01*
X77279509Y-72803609D01*
X77300406Y-72789645D01*
X77313787Y-72776265D01*
X77333376Y-72767615D01*
X77356721Y-72752017D01*
X77378527Y-72747679D01*
X77395138Y-72740345D01*
X77443754Y-72734704D01*
X77447800Y-72733900D01*
X77847800Y-72733900D01*
X77851847Y-72734705D01*
G37*
G36*
X79121847Y-72734705D02*
G01*
X79170461Y-72740345D01*
X79187071Y-72747679D01*
X79208879Y-72752017D01*
X79232225Y-72767616D01*
X79251812Y-72776265D01*
X79265190Y-72789643D01*
X79286091Y-72803609D01*
X79300056Y-72824509D01*
X79313434Y-72837887D01*
X79322081Y-72857472D01*
X79337683Y-72880821D01*
X79342021Y-72902631D01*
X79349354Y-72919238D01*
X79354992Y-72967842D01*
X79355800Y-72971900D01*
X79355800Y-75071900D01*
X79354992Y-75075959D01*
X79349354Y-75124561D01*
X79342021Y-75141166D01*
X79337683Y-75162979D01*
X79322080Y-75186329D01*
X79313434Y-75205912D01*
X79300058Y-75219287D01*
X79286091Y-75240191D01*
X79265187Y-75254158D01*
X79251812Y-75267534D01*
X79232229Y-75276180D01*
X79208879Y-75291783D01*
X79187066Y-75296121D01*
X79170461Y-75303454D01*
X79121859Y-75309092D01*
X79117800Y-75309900D01*
X78717800Y-75309900D01*
X78713742Y-75309092D01*
X78665138Y-75303454D01*
X78648531Y-75296121D01*
X78626721Y-75291783D01*
X78603372Y-75276181D01*
X78583787Y-75267534D01*
X78570409Y-75254156D01*
X78549509Y-75240191D01*
X78535543Y-75219290D01*
X78522165Y-75205912D01*
X78513516Y-75186325D01*
X78497917Y-75162979D01*
X78493579Y-75141171D01*
X78486245Y-75124561D01*
X78480605Y-75075947D01*
X78479800Y-75071900D01*
X78479800Y-72971900D01*
X78480604Y-72967854D01*
X78486245Y-72919238D01*
X78493579Y-72902627D01*
X78497917Y-72880821D01*
X78513515Y-72857476D01*
X78522165Y-72837887D01*
X78535545Y-72824506D01*
X78549509Y-72803609D01*
X78570406Y-72789645D01*
X78583787Y-72776265D01*
X78603376Y-72767615D01*
X78626721Y-72752017D01*
X78648527Y-72747679D01*
X78665138Y-72740345D01*
X78713754Y-72734704D01*
X78717800Y-72733900D01*
X79117800Y-72733900D01*
X79121847Y-72734705D01*
G37*
G36*
X80391847Y-72734705D02*
G01*
X80440461Y-72740345D01*
X80457071Y-72747679D01*
X80478879Y-72752017D01*
X80502225Y-72767616D01*
X80521812Y-72776265D01*
X80535190Y-72789643D01*
X80556091Y-72803609D01*
X80570056Y-72824509D01*
X80583434Y-72837887D01*
X80592081Y-72857472D01*
X80607683Y-72880821D01*
X80612021Y-72902631D01*
X80619354Y-72919238D01*
X80624992Y-72967842D01*
X80625800Y-72971900D01*
X80625800Y-75071900D01*
X80624992Y-75075959D01*
X80619354Y-75124561D01*
X80612021Y-75141166D01*
X80607683Y-75162979D01*
X80592080Y-75186329D01*
X80583434Y-75205912D01*
X80570058Y-75219287D01*
X80556091Y-75240191D01*
X80535187Y-75254158D01*
X80521812Y-75267534D01*
X80502229Y-75276180D01*
X80478879Y-75291783D01*
X80457066Y-75296121D01*
X80440461Y-75303454D01*
X80391859Y-75309092D01*
X80387800Y-75309900D01*
X79987800Y-75309900D01*
X79983742Y-75309092D01*
X79935138Y-75303454D01*
X79918531Y-75296121D01*
X79896721Y-75291783D01*
X79873372Y-75276181D01*
X79853787Y-75267534D01*
X79840409Y-75254156D01*
X79819509Y-75240191D01*
X79805543Y-75219290D01*
X79792165Y-75205912D01*
X79783516Y-75186325D01*
X79767917Y-75162979D01*
X79763579Y-75141171D01*
X79756245Y-75124561D01*
X79750605Y-75075947D01*
X79749800Y-75071900D01*
X79749800Y-72971900D01*
X79750604Y-72967854D01*
X79756245Y-72919238D01*
X79763579Y-72902627D01*
X79767917Y-72880821D01*
X79783515Y-72857476D01*
X79792165Y-72837887D01*
X79805545Y-72824506D01*
X79819509Y-72803609D01*
X79840406Y-72789645D01*
X79853787Y-72776265D01*
X79873376Y-72767615D01*
X79896721Y-72752017D01*
X79918527Y-72747679D01*
X79935138Y-72740345D01*
X79983754Y-72734704D01*
X79987800Y-72733900D01*
X80387800Y-72733900D01*
X80391847Y-72734705D01*
G37*
G36*
X81661847Y-72734705D02*
G01*
X81710461Y-72740345D01*
X81727071Y-72747679D01*
X81748879Y-72752017D01*
X81772225Y-72767616D01*
X81791812Y-72776265D01*
X81805190Y-72789643D01*
X81826091Y-72803609D01*
X81840056Y-72824509D01*
X81853434Y-72837887D01*
X81862081Y-72857472D01*
X81877683Y-72880821D01*
X81882021Y-72902631D01*
X81889354Y-72919238D01*
X81894992Y-72967842D01*
X81895800Y-72971900D01*
X81895800Y-75071900D01*
X81894992Y-75075959D01*
X81889354Y-75124561D01*
X81882021Y-75141166D01*
X81877683Y-75162979D01*
X81862080Y-75186329D01*
X81853434Y-75205912D01*
X81840058Y-75219287D01*
X81826091Y-75240191D01*
X81805187Y-75254158D01*
X81791812Y-75267534D01*
X81772229Y-75276180D01*
X81748879Y-75291783D01*
X81727066Y-75296121D01*
X81710461Y-75303454D01*
X81661859Y-75309092D01*
X81657800Y-75309900D01*
X81257800Y-75309900D01*
X81253742Y-75309092D01*
X81205138Y-75303454D01*
X81188531Y-75296121D01*
X81166721Y-75291783D01*
X81143372Y-75276181D01*
X81123787Y-75267534D01*
X81110409Y-75254156D01*
X81089509Y-75240191D01*
X81075543Y-75219290D01*
X81062165Y-75205912D01*
X81053516Y-75186325D01*
X81037917Y-75162979D01*
X81033579Y-75141171D01*
X81026245Y-75124561D01*
X81020605Y-75075947D01*
X81019800Y-75071900D01*
X81019800Y-72971900D01*
X81020604Y-72967854D01*
X81026245Y-72919238D01*
X81033579Y-72902627D01*
X81037917Y-72880821D01*
X81053515Y-72857476D01*
X81062165Y-72837887D01*
X81075545Y-72824506D01*
X81089509Y-72803609D01*
X81110406Y-72789645D01*
X81123787Y-72776265D01*
X81143376Y-72767615D01*
X81166721Y-72752017D01*
X81188527Y-72747679D01*
X81205138Y-72740345D01*
X81253754Y-72734704D01*
X81257800Y-72733900D01*
X81657800Y-72733900D01*
X81661847Y-72734705D01*
G37*
G36*
X82931847Y-72734705D02*
G01*
X82980461Y-72740345D01*
X82997071Y-72747679D01*
X83018879Y-72752017D01*
X83042225Y-72767616D01*
X83061812Y-72776265D01*
X83075190Y-72789643D01*
X83096091Y-72803609D01*
X83110056Y-72824509D01*
X83123434Y-72837887D01*
X83132081Y-72857472D01*
X83147683Y-72880821D01*
X83152021Y-72902631D01*
X83159354Y-72919238D01*
X83164992Y-72967842D01*
X83165800Y-72971900D01*
X83165800Y-75071900D01*
X83164992Y-75075959D01*
X83159354Y-75124561D01*
X83152021Y-75141166D01*
X83147683Y-75162979D01*
X83132080Y-75186329D01*
X83123434Y-75205912D01*
X83110058Y-75219287D01*
X83096091Y-75240191D01*
X83075187Y-75254158D01*
X83061812Y-75267534D01*
X83042229Y-75276180D01*
X83018879Y-75291783D01*
X82997066Y-75296121D01*
X82980461Y-75303454D01*
X82931859Y-75309092D01*
X82927800Y-75309900D01*
X82527800Y-75309900D01*
X82523742Y-75309092D01*
X82475138Y-75303454D01*
X82458531Y-75296121D01*
X82436721Y-75291783D01*
X82413372Y-75276181D01*
X82393787Y-75267534D01*
X82380409Y-75254156D01*
X82359509Y-75240191D01*
X82345543Y-75219290D01*
X82332165Y-75205912D01*
X82323516Y-75186325D01*
X82307917Y-75162979D01*
X82303579Y-75141171D01*
X82296245Y-75124561D01*
X82290605Y-75075947D01*
X82289800Y-75071900D01*
X82289800Y-72971900D01*
X82290604Y-72967854D01*
X82296245Y-72919238D01*
X82303579Y-72902627D01*
X82307917Y-72880821D01*
X82323515Y-72857476D01*
X82332165Y-72837887D01*
X82345545Y-72824506D01*
X82359509Y-72803609D01*
X82380406Y-72789645D01*
X82393787Y-72776265D01*
X82413376Y-72767615D01*
X82436721Y-72752017D01*
X82458527Y-72747679D01*
X82475138Y-72740345D01*
X82523754Y-72734704D01*
X82527800Y-72733900D01*
X82927800Y-72733900D01*
X82931847Y-72734705D01*
G37*
G36*
X84201847Y-72734705D02*
G01*
X84250461Y-72740345D01*
X84267071Y-72747679D01*
X84288879Y-72752017D01*
X84312225Y-72767616D01*
X84331812Y-72776265D01*
X84345190Y-72789643D01*
X84366091Y-72803609D01*
X84380056Y-72824509D01*
X84393434Y-72837887D01*
X84402081Y-72857472D01*
X84417683Y-72880821D01*
X84422021Y-72902631D01*
X84429354Y-72919238D01*
X84434992Y-72967842D01*
X84435800Y-72971900D01*
X84435800Y-75071900D01*
X84434992Y-75075959D01*
X84429354Y-75124561D01*
X84422021Y-75141166D01*
X84417683Y-75162979D01*
X84402080Y-75186329D01*
X84393434Y-75205912D01*
X84380058Y-75219287D01*
X84366091Y-75240191D01*
X84345187Y-75254158D01*
X84331812Y-75267534D01*
X84312229Y-75276180D01*
X84288879Y-75291783D01*
X84267066Y-75296121D01*
X84250461Y-75303454D01*
X84201859Y-75309092D01*
X84197800Y-75309900D01*
X83797800Y-75309900D01*
X83793742Y-75309092D01*
X83745138Y-75303454D01*
X83728531Y-75296121D01*
X83706721Y-75291783D01*
X83683372Y-75276181D01*
X83663787Y-75267534D01*
X83650409Y-75254156D01*
X83629509Y-75240191D01*
X83615543Y-75219290D01*
X83602165Y-75205912D01*
X83593516Y-75186325D01*
X83577917Y-75162979D01*
X83573579Y-75141171D01*
X83566245Y-75124561D01*
X83560605Y-75075947D01*
X83559800Y-75071900D01*
X83559800Y-72971900D01*
X83560604Y-72967854D01*
X83566245Y-72919238D01*
X83573579Y-72902627D01*
X83577917Y-72880821D01*
X83593515Y-72857476D01*
X83602165Y-72837887D01*
X83615545Y-72824506D01*
X83629509Y-72803609D01*
X83650406Y-72789645D01*
X83663787Y-72776265D01*
X83683376Y-72767615D01*
X83706721Y-72752017D01*
X83728527Y-72747679D01*
X83745138Y-72740345D01*
X83793754Y-72734704D01*
X83797800Y-72733900D01*
X84197800Y-72733900D01*
X84201847Y-72734705D01*
G37*
G36*
X85471847Y-72734705D02*
G01*
X85520461Y-72740345D01*
X85537071Y-72747679D01*
X85558879Y-72752017D01*
X85582225Y-72767616D01*
X85601812Y-72776265D01*
X85615190Y-72789643D01*
X85636091Y-72803609D01*
X85650056Y-72824509D01*
X85663434Y-72837887D01*
X85672081Y-72857472D01*
X85687683Y-72880821D01*
X85692021Y-72902631D01*
X85699354Y-72919238D01*
X85704992Y-72967842D01*
X85705800Y-72971900D01*
X85705800Y-75071900D01*
X85704992Y-75075959D01*
X85699354Y-75124561D01*
X85692021Y-75141166D01*
X85687683Y-75162979D01*
X85672080Y-75186329D01*
X85663434Y-75205912D01*
X85650058Y-75219287D01*
X85636091Y-75240191D01*
X85615187Y-75254158D01*
X85601812Y-75267534D01*
X85582229Y-75276180D01*
X85558879Y-75291783D01*
X85537066Y-75296121D01*
X85520461Y-75303454D01*
X85471859Y-75309092D01*
X85467800Y-75309900D01*
X85067800Y-75309900D01*
X85063742Y-75309092D01*
X85015138Y-75303454D01*
X84998531Y-75296121D01*
X84976721Y-75291783D01*
X84953372Y-75276181D01*
X84933787Y-75267534D01*
X84920409Y-75254156D01*
X84899509Y-75240191D01*
X84885543Y-75219290D01*
X84872165Y-75205912D01*
X84863516Y-75186325D01*
X84847917Y-75162979D01*
X84843579Y-75141171D01*
X84836245Y-75124561D01*
X84830605Y-75075947D01*
X84829800Y-75071900D01*
X84829800Y-72971900D01*
X84830604Y-72967854D01*
X84836245Y-72919238D01*
X84843579Y-72902627D01*
X84847917Y-72880821D01*
X84863515Y-72857476D01*
X84872165Y-72837887D01*
X84885545Y-72824506D01*
X84899509Y-72803609D01*
X84920406Y-72789645D01*
X84933787Y-72776265D01*
X84953376Y-72767615D01*
X84976721Y-72752017D01*
X84998527Y-72747679D01*
X85015138Y-72740345D01*
X85063754Y-72734704D01*
X85067800Y-72733900D01*
X85467800Y-72733900D01*
X85471847Y-72734705D01*
G37*
G36*
X86741847Y-72734705D02*
G01*
X86790461Y-72740345D01*
X86807071Y-72747679D01*
X86828879Y-72752017D01*
X86852225Y-72767616D01*
X86871812Y-72776265D01*
X86885190Y-72789643D01*
X86906091Y-72803609D01*
X86920056Y-72824509D01*
X86933434Y-72837887D01*
X86942081Y-72857472D01*
X86957683Y-72880821D01*
X86962021Y-72902631D01*
X86969354Y-72919238D01*
X86974992Y-72967842D01*
X86975800Y-72971900D01*
X86975800Y-75071900D01*
X86974992Y-75075959D01*
X86969354Y-75124561D01*
X86962021Y-75141166D01*
X86957683Y-75162979D01*
X86942080Y-75186329D01*
X86933434Y-75205912D01*
X86920058Y-75219287D01*
X86906091Y-75240191D01*
X86885187Y-75254158D01*
X86871812Y-75267534D01*
X86852229Y-75276180D01*
X86828879Y-75291783D01*
X86807066Y-75296121D01*
X86790461Y-75303454D01*
X86741859Y-75309092D01*
X86737800Y-75309900D01*
X86337800Y-75309900D01*
X86333742Y-75309092D01*
X86285138Y-75303454D01*
X86268531Y-75296121D01*
X86246721Y-75291783D01*
X86223372Y-75276181D01*
X86203787Y-75267534D01*
X86190409Y-75254156D01*
X86169509Y-75240191D01*
X86155543Y-75219290D01*
X86142165Y-75205912D01*
X86133516Y-75186325D01*
X86117917Y-75162979D01*
X86113579Y-75141171D01*
X86106245Y-75124561D01*
X86100605Y-75075947D01*
X86099800Y-75071900D01*
X86099800Y-72971900D01*
X86100604Y-72967854D01*
X86106245Y-72919238D01*
X86113579Y-72902627D01*
X86117917Y-72880821D01*
X86133515Y-72857476D01*
X86142165Y-72837887D01*
X86155545Y-72824506D01*
X86169509Y-72803609D01*
X86190406Y-72789645D01*
X86203787Y-72776265D01*
X86223376Y-72767615D01*
X86246721Y-72752017D01*
X86268527Y-72747679D01*
X86285138Y-72740345D01*
X86333754Y-72734704D01*
X86337800Y-72733900D01*
X86737800Y-72733900D01*
X86741847Y-72734705D01*
G37*
G36*
X88011847Y-72734705D02*
G01*
X88060461Y-72740345D01*
X88077071Y-72747679D01*
X88098879Y-72752017D01*
X88122225Y-72767616D01*
X88141812Y-72776265D01*
X88155190Y-72789643D01*
X88176091Y-72803609D01*
X88190056Y-72824509D01*
X88203434Y-72837887D01*
X88212081Y-72857472D01*
X88227683Y-72880821D01*
X88232021Y-72902631D01*
X88239354Y-72919238D01*
X88244992Y-72967842D01*
X88245800Y-72971900D01*
X88245800Y-75071900D01*
X88244992Y-75075959D01*
X88239354Y-75124561D01*
X88232021Y-75141166D01*
X88227683Y-75162979D01*
X88212080Y-75186329D01*
X88203434Y-75205912D01*
X88190058Y-75219287D01*
X88176091Y-75240191D01*
X88155187Y-75254158D01*
X88141812Y-75267534D01*
X88122229Y-75276180D01*
X88098879Y-75291783D01*
X88077066Y-75296121D01*
X88060461Y-75303454D01*
X88011859Y-75309092D01*
X88007800Y-75309900D01*
X87607800Y-75309900D01*
X87603742Y-75309092D01*
X87555138Y-75303454D01*
X87538531Y-75296121D01*
X87516721Y-75291783D01*
X87493372Y-75276181D01*
X87473787Y-75267534D01*
X87460409Y-75254156D01*
X87439509Y-75240191D01*
X87425543Y-75219290D01*
X87412165Y-75205912D01*
X87403516Y-75186325D01*
X87387917Y-75162979D01*
X87383579Y-75141171D01*
X87376245Y-75124561D01*
X87370605Y-75075947D01*
X87369800Y-75071900D01*
X87369800Y-72971900D01*
X87370604Y-72967854D01*
X87376245Y-72919238D01*
X87383579Y-72902627D01*
X87387917Y-72880821D01*
X87403515Y-72857476D01*
X87412165Y-72837887D01*
X87425545Y-72824506D01*
X87439509Y-72803609D01*
X87460406Y-72789645D01*
X87473787Y-72776265D01*
X87493376Y-72767615D01*
X87516721Y-72752017D01*
X87538527Y-72747679D01*
X87555138Y-72740345D01*
X87603754Y-72734704D01*
X87607800Y-72733900D01*
X88007800Y-72733900D01*
X88011847Y-72734705D01*
G37*
G36*
X89281847Y-72734705D02*
G01*
X89330461Y-72740345D01*
X89347071Y-72747679D01*
X89368879Y-72752017D01*
X89392225Y-72767616D01*
X89411812Y-72776265D01*
X89425190Y-72789643D01*
X89446091Y-72803609D01*
X89460056Y-72824509D01*
X89473434Y-72837887D01*
X89482081Y-72857472D01*
X89497683Y-72880821D01*
X89502021Y-72902631D01*
X89509354Y-72919238D01*
X89514992Y-72967842D01*
X89515800Y-72971900D01*
X89515800Y-75071900D01*
X89514992Y-75075959D01*
X89509354Y-75124561D01*
X89502021Y-75141166D01*
X89497683Y-75162979D01*
X89482080Y-75186329D01*
X89473434Y-75205912D01*
X89460058Y-75219287D01*
X89446091Y-75240191D01*
X89425187Y-75254158D01*
X89411812Y-75267534D01*
X89392229Y-75276180D01*
X89368879Y-75291783D01*
X89347066Y-75296121D01*
X89330461Y-75303454D01*
X89281859Y-75309092D01*
X89277800Y-75309900D01*
X88877800Y-75309900D01*
X88873742Y-75309092D01*
X88825138Y-75303454D01*
X88808531Y-75296121D01*
X88786721Y-75291783D01*
X88763372Y-75276181D01*
X88743787Y-75267534D01*
X88730409Y-75254156D01*
X88709509Y-75240191D01*
X88695543Y-75219290D01*
X88682165Y-75205912D01*
X88673516Y-75186325D01*
X88657917Y-75162979D01*
X88653579Y-75141171D01*
X88646245Y-75124561D01*
X88640605Y-75075947D01*
X88639800Y-75071900D01*
X88639800Y-72971900D01*
X88640604Y-72967854D01*
X88646245Y-72919238D01*
X88653579Y-72902627D01*
X88657917Y-72880821D01*
X88673515Y-72857476D01*
X88682165Y-72837887D01*
X88695545Y-72824506D01*
X88709509Y-72803609D01*
X88730406Y-72789645D01*
X88743787Y-72776265D01*
X88763376Y-72767615D01*
X88786721Y-72752017D01*
X88808527Y-72747679D01*
X88825138Y-72740345D01*
X88873754Y-72734704D01*
X88877800Y-72733900D01*
X89277800Y-72733900D01*
X89281847Y-72734705D01*
G37*
G36*
X90551847Y-72734705D02*
G01*
X90600461Y-72740345D01*
X90617071Y-72747679D01*
X90638879Y-72752017D01*
X90662225Y-72767616D01*
X90681812Y-72776265D01*
X90695190Y-72789643D01*
X90716091Y-72803609D01*
X90730056Y-72824509D01*
X90743434Y-72837887D01*
X90752081Y-72857472D01*
X90767683Y-72880821D01*
X90772021Y-72902631D01*
X90779354Y-72919238D01*
X90784992Y-72967842D01*
X90785800Y-72971900D01*
X90785800Y-75071900D01*
X90784992Y-75075959D01*
X90779354Y-75124561D01*
X90772021Y-75141166D01*
X90767683Y-75162979D01*
X90752080Y-75186329D01*
X90743434Y-75205912D01*
X90730058Y-75219287D01*
X90716091Y-75240191D01*
X90695187Y-75254158D01*
X90681812Y-75267534D01*
X90662229Y-75276180D01*
X90638879Y-75291783D01*
X90617066Y-75296121D01*
X90600461Y-75303454D01*
X90551859Y-75309092D01*
X90547800Y-75309900D01*
X90147800Y-75309900D01*
X90143742Y-75309092D01*
X90095138Y-75303454D01*
X90078531Y-75296121D01*
X90056721Y-75291783D01*
X90033372Y-75276181D01*
X90013787Y-75267534D01*
X90000409Y-75254156D01*
X89979509Y-75240191D01*
X89965543Y-75219290D01*
X89952165Y-75205912D01*
X89943516Y-75186325D01*
X89927917Y-75162979D01*
X89923579Y-75141171D01*
X89916245Y-75124561D01*
X89910605Y-75075947D01*
X89909800Y-75071900D01*
X89909800Y-72971900D01*
X89910604Y-72967854D01*
X89916245Y-72919238D01*
X89923579Y-72902627D01*
X89927917Y-72880821D01*
X89943515Y-72857476D01*
X89952165Y-72837887D01*
X89965545Y-72824506D01*
X89979509Y-72803609D01*
X90000406Y-72789645D01*
X90013787Y-72776265D01*
X90033376Y-72767615D01*
X90056721Y-72752017D01*
X90078527Y-72747679D01*
X90095138Y-72740345D01*
X90143754Y-72734704D01*
X90147800Y-72733900D01*
X90547800Y-72733900D01*
X90551847Y-72734705D01*
G37*
G36*
X91821847Y-72734705D02*
G01*
X91870461Y-72740345D01*
X91887071Y-72747679D01*
X91908879Y-72752017D01*
X91932225Y-72767616D01*
X91951812Y-72776265D01*
X91965190Y-72789643D01*
X91986091Y-72803609D01*
X92000056Y-72824509D01*
X92013434Y-72837887D01*
X92022081Y-72857472D01*
X92037683Y-72880821D01*
X92042021Y-72902631D01*
X92049354Y-72919238D01*
X92054992Y-72967842D01*
X92055800Y-72971900D01*
X92055800Y-75071900D01*
X92054992Y-75075959D01*
X92049354Y-75124561D01*
X92042021Y-75141166D01*
X92037683Y-75162979D01*
X92022080Y-75186329D01*
X92013434Y-75205912D01*
X92000058Y-75219287D01*
X91986091Y-75240191D01*
X91965187Y-75254158D01*
X91951812Y-75267534D01*
X91932229Y-75276180D01*
X91908879Y-75291783D01*
X91887066Y-75296121D01*
X91870461Y-75303454D01*
X91821859Y-75309092D01*
X91817800Y-75309900D01*
X91417800Y-75309900D01*
X91413742Y-75309092D01*
X91365138Y-75303454D01*
X91348531Y-75296121D01*
X91326721Y-75291783D01*
X91303372Y-75276181D01*
X91283787Y-75267534D01*
X91270409Y-75254156D01*
X91249509Y-75240191D01*
X91235543Y-75219290D01*
X91222165Y-75205912D01*
X91213516Y-75186325D01*
X91197917Y-75162979D01*
X91193579Y-75141171D01*
X91186245Y-75124561D01*
X91180605Y-75075947D01*
X91179800Y-75071900D01*
X91179800Y-72971900D01*
X91180604Y-72967854D01*
X91186245Y-72919238D01*
X91193579Y-72902627D01*
X91197917Y-72880821D01*
X91213515Y-72857476D01*
X91222165Y-72837887D01*
X91235545Y-72824506D01*
X91249509Y-72803609D01*
X91270406Y-72789645D01*
X91283787Y-72776265D01*
X91303376Y-72767615D01*
X91326721Y-72752017D01*
X91348527Y-72747679D01*
X91365138Y-72740345D01*
X91413754Y-72734704D01*
X91417800Y-72733900D01*
X91817800Y-72733900D01*
X91821847Y-72734705D01*
G37*
G36*
X93091847Y-72734705D02*
G01*
X93140461Y-72740345D01*
X93157071Y-72747679D01*
X93178879Y-72752017D01*
X93202225Y-72767616D01*
X93221812Y-72776265D01*
X93235190Y-72789643D01*
X93256091Y-72803609D01*
X93270056Y-72824509D01*
X93283434Y-72837887D01*
X93292081Y-72857472D01*
X93307683Y-72880821D01*
X93312021Y-72902631D01*
X93319354Y-72919238D01*
X93324992Y-72967842D01*
X93325800Y-72971900D01*
X93325800Y-75071900D01*
X93324992Y-75075959D01*
X93319354Y-75124561D01*
X93312021Y-75141166D01*
X93307683Y-75162979D01*
X93292080Y-75186329D01*
X93283434Y-75205912D01*
X93270058Y-75219287D01*
X93256091Y-75240191D01*
X93235187Y-75254158D01*
X93221812Y-75267534D01*
X93202229Y-75276180D01*
X93178879Y-75291783D01*
X93157066Y-75296121D01*
X93140461Y-75303454D01*
X93091859Y-75309092D01*
X93087800Y-75309900D01*
X92687800Y-75309900D01*
X92683742Y-75309092D01*
X92635138Y-75303454D01*
X92618531Y-75296121D01*
X92596721Y-75291783D01*
X92573372Y-75276181D01*
X92553787Y-75267534D01*
X92540409Y-75254156D01*
X92519509Y-75240191D01*
X92505543Y-75219290D01*
X92492165Y-75205912D01*
X92483516Y-75186325D01*
X92467917Y-75162979D01*
X92463579Y-75141171D01*
X92456245Y-75124561D01*
X92450605Y-75075947D01*
X92449800Y-75071900D01*
X92449800Y-72971900D01*
X92450604Y-72967854D01*
X92456245Y-72919238D01*
X92463579Y-72902627D01*
X92467917Y-72880821D01*
X92483515Y-72857476D01*
X92492165Y-72837887D01*
X92505545Y-72824506D01*
X92519509Y-72803609D01*
X92540406Y-72789645D01*
X92553787Y-72776265D01*
X92573376Y-72767615D01*
X92596721Y-72752017D01*
X92618527Y-72747679D01*
X92635138Y-72740345D01*
X92683754Y-72734704D01*
X92687800Y-72733900D01*
X93087800Y-72733900D01*
X93091847Y-72734705D01*
G37*
G36*
X94361847Y-72734705D02*
G01*
X94410461Y-72740345D01*
X94427071Y-72747679D01*
X94448879Y-72752017D01*
X94472225Y-72767616D01*
X94491812Y-72776265D01*
X94505190Y-72789643D01*
X94526091Y-72803609D01*
X94540056Y-72824509D01*
X94553434Y-72837887D01*
X94562081Y-72857472D01*
X94577683Y-72880821D01*
X94582021Y-72902631D01*
X94589354Y-72919238D01*
X94594992Y-72967842D01*
X94595800Y-72971900D01*
X94595800Y-75071900D01*
X94594992Y-75075959D01*
X94589354Y-75124561D01*
X94582021Y-75141166D01*
X94577683Y-75162979D01*
X94562080Y-75186329D01*
X94553434Y-75205912D01*
X94540058Y-75219287D01*
X94526091Y-75240191D01*
X94505187Y-75254158D01*
X94491812Y-75267534D01*
X94472229Y-75276180D01*
X94448879Y-75291783D01*
X94427066Y-75296121D01*
X94410461Y-75303454D01*
X94361859Y-75309092D01*
X94357800Y-75309900D01*
X93957800Y-75309900D01*
X93953742Y-75309092D01*
X93905138Y-75303454D01*
X93888531Y-75296121D01*
X93866721Y-75291783D01*
X93843372Y-75276181D01*
X93823787Y-75267534D01*
X93810409Y-75254156D01*
X93789509Y-75240191D01*
X93775543Y-75219290D01*
X93762165Y-75205912D01*
X93753516Y-75186325D01*
X93737917Y-75162979D01*
X93733579Y-75141171D01*
X93726245Y-75124561D01*
X93720605Y-75075947D01*
X93719800Y-75071900D01*
X93719800Y-72971900D01*
X93720604Y-72967854D01*
X93726245Y-72919238D01*
X93733579Y-72902627D01*
X93737917Y-72880821D01*
X93753515Y-72857476D01*
X93762165Y-72837887D01*
X93775545Y-72824506D01*
X93789509Y-72803609D01*
X93810406Y-72789645D01*
X93823787Y-72776265D01*
X93843376Y-72767615D01*
X93866721Y-72752017D01*
X93888527Y-72747679D01*
X93905138Y-72740345D01*
X93953754Y-72734704D01*
X93957800Y-72733900D01*
X94357800Y-72733900D01*
X94361847Y-72734705D01*
G37*
G36*
X95631847Y-72734705D02*
G01*
X95680461Y-72740345D01*
X95697071Y-72747679D01*
X95718879Y-72752017D01*
X95742225Y-72767616D01*
X95761812Y-72776265D01*
X95775190Y-72789643D01*
X95796091Y-72803609D01*
X95810056Y-72824509D01*
X95823434Y-72837887D01*
X95832081Y-72857472D01*
X95847683Y-72880821D01*
X95852021Y-72902631D01*
X95859354Y-72919238D01*
X95864992Y-72967842D01*
X95865800Y-72971900D01*
X95865800Y-75071900D01*
X95864992Y-75075959D01*
X95859354Y-75124561D01*
X95852021Y-75141166D01*
X95847683Y-75162979D01*
X95832080Y-75186329D01*
X95823434Y-75205912D01*
X95810058Y-75219287D01*
X95796091Y-75240191D01*
X95775187Y-75254158D01*
X95761812Y-75267534D01*
X95742229Y-75276180D01*
X95718879Y-75291783D01*
X95697066Y-75296121D01*
X95680461Y-75303454D01*
X95631859Y-75309092D01*
X95627800Y-75309900D01*
X95227800Y-75309900D01*
X95223742Y-75309092D01*
X95175138Y-75303454D01*
X95158531Y-75296121D01*
X95136721Y-75291783D01*
X95113372Y-75276181D01*
X95093787Y-75267534D01*
X95080409Y-75254156D01*
X95059509Y-75240191D01*
X95045543Y-75219290D01*
X95032165Y-75205912D01*
X95023516Y-75186325D01*
X95007917Y-75162979D01*
X95003579Y-75141171D01*
X94996245Y-75124561D01*
X94990605Y-75075947D01*
X94989800Y-75071900D01*
X94989800Y-72971900D01*
X94990604Y-72967854D01*
X94996245Y-72919238D01*
X95003579Y-72902627D01*
X95007917Y-72880821D01*
X95023515Y-72857476D01*
X95032165Y-72837887D01*
X95045545Y-72824506D01*
X95059509Y-72803609D01*
X95080406Y-72789645D01*
X95093787Y-72776265D01*
X95113376Y-72767615D01*
X95136721Y-72752017D01*
X95158527Y-72747679D01*
X95175138Y-72740345D01*
X95223754Y-72734704D01*
X95227800Y-72733900D01*
X95627800Y-72733900D01*
X95631847Y-72734705D01*
G37*
G36*
X96901847Y-72734705D02*
G01*
X96950461Y-72740345D01*
X96967071Y-72747679D01*
X96988879Y-72752017D01*
X97012225Y-72767616D01*
X97031812Y-72776265D01*
X97045190Y-72789643D01*
X97066091Y-72803609D01*
X97080056Y-72824509D01*
X97093434Y-72837887D01*
X97102081Y-72857472D01*
X97117683Y-72880821D01*
X97122021Y-72902631D01*
X97129354Y-72919238D01*
X97134992Y-72967842D01*
X97135800Y-72971900D01*
X97135800Y-75071900D01*
X97134992Y-75075959D01*
X97129354Y-75124561D01*
X97122021Y-75141166D01*
X97117683Y-75162979D01*
X97102080Y-75186329D01*
X97093434Y-75205912D01*
X97080058Y-75219287D01*
X97066091Y-75240191D01*
X97045187Y-75254158D01*
X97031812Y-75267534D01*
X97012229Y-75276180D01*
X96988879Y-75291783D01*
X96967066Y-75296121D01*
X96950461Y-75303454D01*
X96901859Y-75309092D01*
X96897800Y-75309900D01*
X96497800Y-75309900D01*
X96493742Y-75309092D01*
X96445138Y-75303454D01*
X96428531Y-75296121D01*
X96406721Y-75291783D01*
X96383372Y-75276181D01*
X96363787Y-75267534D01*
X96350409Y-75254156D01*
X96329509Y-75240191D01*
X96315543Y-75219290D01*
X96302165Y-75205912D01*
X96293516Y-75186325D01*
X96277917Y-75162979D01*
X96273579Y-75141171D01*
X96266245Y-75124561D01*
X96260605Y-75075947D01*
X96259800Y-75071900D01*
X96259800Y-72971900D01*
X96260604Y-72967854D01*
X96266245Y-72919238D01*
X96273579Y-72902627D01*
X96277917Y-72880821D01*
X96293515Y-72857476D01*
X96302165Y-72837887D01*
X96315545Y-72824506D01*
X96329509Y-72803609D01*
X96350406Y-72789645D01*
X96363787Y-72776265D01*
X96383376Y-72767615D01*
X96406721Y-72752017D01*
X96428527Y-72747679D01*
X96445138Y-72740345D01*
X96493754Y-72734704D01*
X96497800Y-72733900D01*
X96897800Y-72733900D01*
X96901847Y-72734705D01*
G37*
G36*
X98171847Y-72734705D02*
G01*
X98220461Y-72740345D01*
X98237071Y-72747679D01*
X98258879Y-72752017D01*
X98282225Y-72767616D01*
X98301812Y-72776265D01*
X98315190Y-72789643D01*
X98336091Y-72803609D01*
X98350056Y-72824509D01*
X98363434Y-72837887D01*
X98372081Y-72857472D01*
X98387683Y-72880821D01*
X98392021Y-72902631D01*
X98399354Y-72919238D01*
X98404992Y-72967842D01*
X98405800Y-72971900D01*
X98405800Y-75071900D01*
X98404992Y-75075959D01*
X98399354Y-75124561D01*
X98392021Y-75141166D01*
X98387683Y-75162979D01*
X98372080Y-75186329D01*
X98363434Y-75205912D01*
X98350058Y-75219287D01*
X98336091Y-75240191D01*
X98315187Y-75254158D01*
X98301812Y-75267534D01*
X98282229Y-75276180D01*
X98258879Y-75291783D01*
X98237066Y-75296121D01*
X98220461Y-75303454D01*
X98171859Y-75309092D01*
X98167800Y-75309900D01*
X97767800Y-75309900D01*
X97763742Y-75309092D01*
X97715138Y-75303454D01*
X97698531Y-75296121D01*
X97676721Y-75291783D01*
X97653372Y-75276181D01*
X97633787Y-75267534D01*
X97620409Y-75254156D01*
X97599509Y-75240191D01*
X97585543Y-75219290D01*
X97572165Y-75205912D01*
X97563516Y-75186325D01*
X97547917Y-75162979D01*
X97543579Y-75141171D01*
X97536245Y-75124561D01*
X97530605Y-75075947D01*
X97529800Y-75071900D01*
X97529800Y-72971900D01*
X97530604Y-72967854D01*
X97536245Y-72919238D01*
X97543579Y-72902627D01*
X97547917Y-72880821D01*
X97563515Y-72857476D01*
X97572165Y-72837887D01*
X97585545Y-72824506D01*
X97599509Y-72803609D01*
X97620406Y-72789645D01*
X97633787Y-72776265D01*
X97653376Y-72767615D01*
X97676721Y-72752017D01*
X97698527Y-72747679D01*
X97715138Y-72740345D01*
X97763754Y-72734704D01*
X97767800Y-72733900D01*
X98167800Y-72733900D01*
X98171847Y-72734705D01*
G37*
G36*
X99441847Y-72734705D02*
G01*
X99490461Y-72740345D01*
X99507071Y-72747679D01*
X99528879Y-72752017D01*
X99552225Y-72767616D01*
X99571812Y-72776265D01*
X99585190Y-72789643D01*
X99606091Y-72803609D01*
X99620056Y-72824509D01*
X99633434Y-72837887D01*
X99642081Y-72857472D01*
X99657683Y-72880821D01*
X99662021Y-72902631D01*
X99669354Y-72919238D01*
X99674992Y-72967842D01*
X99675800Y-72971900D01*
X99675800Y-75071900D01*
X99674992Y-75075959D01*
X99669354Y-75124561D01*
X99662021Y-75141166D01*
X99657683Y-75162979D01*
X99642080Y-75186329D01*
X99633434Y-75205912D01*
X99620058Y-75219287D01*
X99606091Y-75240191D01*
X99585187Y-75254158D01*
X99571812Y-75267534D01*
X99552229Y-75276180D01*
X99528879Y-75291783D01*
X99507066Y-75296121D01*
X99490461Y-75303454D01*
X99441859Y-75309092D01*
X99437800Y-75309900D01*
X99037800Y-75309900D01*
X99033742Y-75309092D01*
X98985138Y-75303454D01*
X98968531Y-75296121D01*
X98946721Y-75291783D01*
X98923372Y-75276181D01*
X98903787Y-75267534D01*
X98890409Y-75254156D01*
X98869509Y-75240191D01*
X98855543Y-75219290D01*
X98842165Y-75205912D01*
X98833516Y-75186325D01*
X98817917Y-75162979D01*
X98813579Y-75141171D01*
X98806245Y-75124561D01*
X98800605Y-75075947D01*
X98799800Y-75071900D01*
X98799800Y-72971900D01*
X98800604Y-72967854D01*
X98806245Y-72919238D01*
X98813579Y-72902627D01*
X98817917Y-72880821D01*
X98833515Y-72857476D01*
X98842165Y-72837887D01*
X98855545Y-72824506D01*
X98869509Y-72803609D01*
X98890406Y-72789645D01*
X98903787Y-72776265D01*
X98923376Y-72767615D01*
X98946721Y-72752017D01*
X98968527Y-72747679D01*
X98985138Y-72740345D01*
X99033754Y-72734704D01*
X99037800Y-72733900D01*
X99437800Y-72733900D01*
X99441847Y-72734705D01*
G37*
G36*
X100711847Y-72734705D02*
G01*
X100760461Y-72740345D01*
X100777071Y-72747679D01*
X100798879Y-72752017D01*
X100822225Y-72767616D01*
X100841812Y-72776265D01*
X100855190Y-72789643D01*
X100876091Y-72803609D01*
X100890056Y-72824509D01*
X100903434Y-72837887D01*
X100912081Y-72857472D01*
X100927683Y-72880821D01*
X100932021Y-72902631D01*
X100939354Y-72919238D01*
X100944992Y-72967842D01*
X100945800Y-72971900D01*
X100945800Y-75071900D01*
X100944992Y-75075959D01*
X100939354Y-75124561D01*
X100932021Y-75141166D01*
X100927683Y-75162979D01*
X100912080Y-75186329D01*
X100903434Y-75205912D01*
X100890058Y-75219287D01*
X100876091Y-75240191D01*
X100855187Y-75254158D01*
X100841812Y-75267534D01*
X100822229Y-75276180D01*
X100798879Y-75291783D01*
X100777066Y-75296121D01*
X100760461Y-75303454D01*
X100711859Y-75309092D01*
X100707800Y-75309900D01*
X100307800Y-75309900D01*
X100303742Y-75309092D01*
X100255138Y-75303454D01*
X100238531Y-75296121D01*
X100216721Y-75291783D01*
X100193372Y-75276181D01*
X100173787Y-75267534D01*
X100160409Y-75254156D01*
X100139509Y-75240191D01*
X100125543Y-75219290D01*
X100112165Y-75205912D01*
X100103516Y-75186325D01*
X100087917Y-75162979D01*
X100083579Y-75141171D01*
X100076245Y-75124561D01*
X100070605Y-75075947D01*
X100069800Y-75071900D01*
X100069800Y-72971900D01*
X100070604Y-72967854D01*
X100076245Y-72919238D01*
X100083579Y-72902627D01*
X100087917Y-72880821D01*
X100103515Y-72857476D01*
X100112165Y-72837887D01*
X100125545Y-72824506D01*
X100139509Y-72803609D01*
X100160406Y-72789645D01*
X100173787Y-72776265D01*
X100193376Y-72767615D01*
X100216721Y-72752017D01*
X100238527Y-72747679D01*
X100255138Y-72740345D01*
X100303754Y-72734704D01*
X100307800Y-72733900D01*
X100707800Y-72733900D01*
X100711847Y-72734705D01*
G37*
G36*
X101981847Y-72734705D02*
G01*
X102030461Y-72740345D01*
X102047071Y-72747679D01*
X102068879Y-72752017D01*
X102092225Y-72767616D01*
X102111812Y-72776265D01*
X102125190Y-72789643D01*
X102146091Y-72803609D01*
X102160056Y-72824509D01*
X102173434Y-72837887D01*
X102182081Y-72857472D01*
X102197683Y-72880821D01*
X102202021Y-72902631D01*
X102209354Y-72919238D01*
X102214992Y-72967842D01*
X102215800Y-72971900D01*
X102215800Y-75071900D01*
X102214992Y-75075959D01*
X102209354Y-75124561D01*
X102202021Y-75141166D01*
X102197683Y-75162979D01*
X102182080Y-75186329D01*
X102173434Y-75205912D01*
X102160058Y-75219287D01*
X102146091Y-75240191D01*
X102125187Y-75254158D01*
X102111812Y-75267534D01*
X102092229Y-75276180D01*
X102068879Y-75291783D01*
X102047066Y-75296121D01*
X102030461Y-75303454D01*
X101981859Y-75309092D01*
X101977800Y-75309900D01*
X101577800Y-75309900D01*
X101573742Y-75309092D01*
X101525138Y-75303454D01*
X101508531Y-75296121D01*
X101486721Y-75291783D01*
X101463372Y-75276181D01*
X101443787Y-75267534D01*
X101430409Y-75254156D01*
X101409509Y-75240191D01*
X101395543Y-75219290D01*
X101382165Y-75205912D01*
X101373516Y-75186325D01*
X101357917Y-75162979D01*
X101353579Y-75141171D01*
X101346245Y-75124561D01*
X101340605Y-75075947D01*
X101339800Y-75071900D01*
X101339800Y-72971900D01*
X101340604Y-72967854D01*
X101346245Y-72919238D01*
X101353579Y-72902627D01*
X101357917Y-72880821D01*
X101373515Y-72857476D01*
X101382165Y-72837887D01*
X101395545Y-72824506D01*
X101409509Y-72803609D01*
X101430406Y-72789645D01*
X101443787Y-72776265D01*
X101463376Y-72767615D01*
X101486721Y-72752017D01*
X101508527Y-72747679D01*
X101525138Y-72740345D01*
X101573754Y-72734704D01*
X101577800Y-72733900D01*
X101977800Y-72733900D01*
X101981847Y-72734705D01*
G37*
G36*
X103251847Y-72734705D02*
G01*
X103300461Y-72740345D01*
X103317071Y-72747679D01*
X103338879Y-72752017D01*
X103362225Y-72767616D01*
X103381812Y-72776265D01*
X103395190Y-72789643D01*
X103416091Y-72803609D01*
X103430056Y-72824509D01*
X103443434Y-72837887D01*
X103452081Y-72857472D01*
X103467683Y-72880821D01*
X103472021Y-72902631D01*
X103479354Y-72919238D01*
X103484992Y-72967842D01*
X103485800Y-72971900D01*
X103485800Y-75071900D01*
X103484992Y-75075959D01*
X103479354Y-75124561D01*
X103472021Y-75141166D01*
X103467683Y-75162979D01*
X103452080Y-75186329D01*
X103443434Y-75205912D01*
X103430058Y-75219287D01*
X103416091Y-75240191D01*
X103395187Y-75254158D01*
X103381812Y-75267534D01*
X103362229Y-75276180D01*
X103338879Y-75291783D01*
X103317066Y-75296121D01*
X103300461Y-75303454D01*
X103251859Y-75309092D01*
X103247800Y-75309900D01*
X102847800Y-75309900D01*
X102843742Y-75309092D01*
X102795138Y-75303454D01*
X102778531Y-75296121D01*
X102756721Y-75291783D01*
X102733372Y-75276181D01*
X102713787Y-75267534D01*
X102700409Y-75254156D01*
X102679509Y-75240191D01*
X102665543Y-75219290D01*
X102652165Y-75205912D01*
X102643516Y-75186325D01*
X102627917Y-75162979D01*
X102623579Y-75141171D01*
X102616245Y-75124561D01*
X102610605Y-75075947D01*
X102609800Y-75071900D01*
X102609800Y-72971900D01*
X102610604Y-72967854D01*
X102616245Y-72919238D01*
X102623579Y-72902627D01*
X102627917Y-72880821D01*
X102643515Y-72857476D01*
X102652165Y-72837887D01*
X102665545Y-72824506D01*
X102679509Y-72803609D01*
X102700406Y-72789645D01*
X102713787Y-72776265D01*
X102733376Y-72767615D01*
X102756721Y-72752017D01*
X102778527Y-72747679D01*
X102795138Y-72740345D01*
X102843754Y-72734704D01*
X102847800Y-72733900D01*
X103247800Y-72733900D01*
X103251847Y-72734705D01*
G37*
G36*
X104521847Y-72734705D02*
G01*
X104570461Y-72740345D01*
X104587071Y-72747679D01*
X104608879Y-72752017D01*
X104632225Y-72767616D01*
X104651812Y-72776265D01*
X104665190Y-72789643D01*
X104686091Y-72803609D01*
X104700056Y-72824509D01*
X104713434Y-72837887D01*
X104722081Y-72857472D01*
X104737683Y-72880821D01*
X104742021Y-72902631D01*
X104749354Y-72919238D01*
X104754992Y-72967842D01*
X104755800Y-72971900D01*
X104755800Y-75071900D01*
X104754992Y-75075959D01*
X104749354Y-75124561D01*
X104742021Y-75141166D01*
X104737683Y-75162979D01*
X104722080Y-75186329D01*
X104713434Y-75205912D01*
X104700058Y-75219287D01*
X104686091Y-75240191D01*
X104665187Y-75254158D01*
X104651812Y-75267534D01*
X104632229Y-75276180D01*
X104608879Y-75291783D01*
X104587066Y-75296121D01*
X104570461Y-75303454D01*
X104521859Y-75309092D01*
X104517800Y-75309900D01*
X104117800Y-75309900D01*
X104113742Y-75309092D01*
X104065138Y-75303454D01*
X104048531Y-75296121D01*
X104026721Y-75291783D01*
X104003372Y-75276181D01*
X103983787Y-75267534D01*
X103970409Y-75254156D01*
X103949509Y-75240191D01*
X103935543Y-75219290D01*
X103922165Y-75205912D01*
X103913516Y-75186325D01*
X103897917Y-75162979D01*
X103893579Y-75141171D01*
X103886245Y-75124561D01*
X103880605Y-75075947D01*
X103879800Y-75071900D01*
X103879800Y-72971900D01*
X103880604Y-72967854D01*
X103886245Y-72919238D01*
X103893579Y-72902627D01*
X103897917Y-72880821D01*
X103913515Y-72857476D01*
X103922165Y-72837887D01*
X103935545Y-72824506D01*
X103949509Y-72803609D01*
X103970406Y-72789645D01*
X103983787Y-72776265D01*
X104003376Y-72767615D01*
X104026721Y-72752017D01*
X104048527Y-72747679D01*
X104065138Y-72740345D01*
X104113754Y-72734704D01*
X104117800Y-72733900D01*
X104517800Y-72733900D01*
X104521847Y-72734705D01*
G37*
G36*
X105791847Y-72734705D02*
G01*
X105840461Y-72740345D01*
X105857071Y-72747679D01*
X105878879Y-72752017D01*
X105902225Y-72767616D01*
X105921812Y-72776265D01*
X105935190Y-72789643D01*
X105956091Y-72803609D01*
X105970056Y-72824509D01*
X105983434Y-72837887D01*
X105992081Y-72857472D01*
X106007683Y-72880821D01*
X106012021Y-72902631D01*
X106019354Y-72919238D01*
X106024992Y-72967842D01*
X106025800Y-72971900D01*
X106025800Y-75071900D01*
X106024992Y-75075959D01*
X106019354Y-75124561D01*
X106012021Y-75141166D01*
X106007683Y-75162979D01*
X105992080Y-75186329D01*
X105983434Y-75205912D01*
X105970058Y-75219287D01*
X105956091Y-75240191D01*
X105935187Y-75254158D01*
X105921812Y-75267534D01*
X105902229Y-75276180D01*
X105878879Y-75291783D01*
X105857066Y-75296121D01*
X105840461Y-75303454D01*
X105791859Y-75309092D01*
X105787800Y-75309900D01*
X105387800Y-75309900D01*
X105383742Y-75309092D01*
X105335138Y-75303454D01*
X105318531Y-75296121D01*
X105296721Y-75291783D01*
X105273372Y-75276181D01*
X105253787Y-75267534D01*
X105240409Y-75254156D01*
X105219509Y-75240191D01*
X105205543Y-75219290D01*
X105192165Y-75205912D01*
X105183516Y-75186325D01*
X105167917Y-75162979D01*
X105163579Y-75141171D01*
X105156245Y-75124561D01*
X105150605Y-75075947D01*
X105149800Y-75071900D01*
X105149800Y-72971900D01*
X105150604Y-72967854D01*
X105156245Y-72919238D01*
X105163579Y-72902627D01*
X105167917Y-72880821D01*
X105183515Y-72857476D01*
X105192165Y-72837887D01*
X105205545Y-72824506D01*
X105219509Y-72803609D01*
X105240406Y-72789645D01*
X105253787Y-72776265D01*
X105273376Y-72767615D01*
X105296721Y-72752017D01*
X105318527Y-72747679D01*
X105335138Y-72740345D01*
X105383754Y-72734704D01*
X105387800Y-72733900D01*
X105787800Y-72733900D01*
X105791847Y-72734705D01*
G37*
G36*
X107061847Y-72734705D02*
G01*
X107110461Y-72740345D01*
X107127071Y-72747679D01*
X107148879Y-72752017D01*
X107172225Y-72767616D01*
X107191812Y-72776265D01*
X107205190Y-72789643D01*
X107226091Y-72803609D01*
X107240056Y-72824509D01*
X107253434Y-72837887D01*
X107262081Y-72857472D01*
X107277683Y-72880821D01*
X107282021Y-72902631D01*
X107289354Y-72919238D01*
X107294992Y-72967842D01*
X107295800Y-72971900D01*
X107295800Y-75071900D01*
X107294992Y-75075959D01*
X107289354Y-75124561D01*
X107282021Y-75141166D01*
X107277683Y-75162979D01*
X107262080Y-75186329D01*
X107253434Y-75205912D01*
X107240058Y-75219287D01*
X107226091Y-75240191D01*
X107205187Y-75254158D01*
X107191812Y-75267534D01*
X107172229Y-75276180D01*
X107148879Y-75291783D01*
X107127066Y-75296121D01*
X107110461Y-75303454D01*
X107061859Y-75309092D01*
X107057800Y-75309900D01*
X106657800Y-75309900D01*
X106653742Y-75309092D01*
X106605138Y-75303454D01*
X106588531Y-75296121D01*
X106566721Y-75291783D01*
X106543372Y-75276181D01*
X106523787Y-75267534D01*
X106510409Y-75254156D01*
X106489509Y-75240191D01*
X106475543Y-75219290D01*
X106462165Y-75205912D01*
X106453516Y-75186325D01*
X106437917Y-75162979D01*
X106433579Y-75141171D01*
X106426245Y-75124561D01*
X106420605Y-75075947D01*
X106419800Y-75071900D01*
X106419800Y-72971900D01*
X106420604Y-72967854D01*
X106426245Y-72919238D01*
X106433579Y-72902627D01*
X106437917Y-72880821D01*
X106453515Y-72857476D01*
X106462165Y-72837887D01*
X106475545Y-72824506D01*
X106489509Y-72803609D01*
X106510406Y-72789645D01*
X106523787Y-72776265D01*
X106543376Y-72767615D01*
X106566721Y-72752017D01*
X106588527Y-72747679D01*
X106605138Y-72740345D01*
X106653754Y-72734704D01*
X106657800Y-72733900D01*
X107057800Y-72733900D01*
X107061847Y-72734705D01*
G37*
G36*
X108331847Y-72734705D02*
G01*
X108380461Y-72740345D01*
X108397071Y-72747679D01*
X108418879Y-72752017D01*
X108442225Y-72767616D01*
X108461812Y-72776265D01*
X108475190Y-72789643D01*
X108496091Y-72803609D01*
X108510056Y-72824509D01*
X108523434Y-72837887D01*
X108532081Y-72857472D01*
X108547683Y-72880821D01*
X108552021Y-72902631D01*
X108559354Y-72919238D01*
X108564992Y-72967842D01*
X108565800Y-72971900D01*
X108565800Y-75071900D01*
X108564992Y-75075959D01*
X108559354Y-75124561D01*
X108552021Y-75141166D01*
X108547683Y-75162979D01*
X108532080Y-75186329D01*
X108523434Y-75205912D01*
X108510058Y-75219287D01*
X108496091Y-75240191D01*
X108475187Y-75254158D01*
X108461812Y-75267534D01*
X108442229Y-75276180D01*
X108418879Y-75291783D01*
X108397066Y-75296121D01*
X108380461Y-75303454D01*
X108331859Y-75309092D01*
X108327800Y-75309900D01*
X107927800Y-75309900D01*
X107923742Y-75309092D01*
X107875138Y-75303454D01*
X107858531Y-75296121D01*
X107836721Y-75291783D01*
X107813372Y-75276181D01*
X107793787Y-75267534D01*
X107780409Y-75254156D01*
X107759509Y-75240191D01*
X107745543Y-75219290D01*
X107732165Y-75205912D01*
X107723516Y-75186325D01*
X107707917Y-75162979D01*
X107703579Y-75141171D01*
X107696245Y-75124561D01*
X107690605Y-75075947D01*
X107689800Y-75071900D01*
X107689800Y-72971900D01*
X107690604Y-72967854D01*
X107696245Y-72919238D01*
X107703579Y-72902627D01*
X107707917Y-72880821D01*
X107723515Y-72857476D01*
X107732165Y-72837887D01*
X107745545Y-72824506D01*
X107759509Y-72803609D01*
X107780406Y-72789645D01*
X107793787Y-72776265D01*
X107813376Y-72767615D01*
X107836721Y-72752017D01*
X107858527Y-72747679D01*
X107875138Y-72740345D01*
X107923754Y-72734704D01*
X107927800Y-72733900D01*
X108327800Y-72733900D01*
X108331847Y-72734705D01*
G37*
G36*
X109601847Y-72734705D02*
G01*
X109650461Y-72740345D01*
X109667071Y-72747679D01*
X109688879Y-72752017D01*
X109712225Y-72767616D01*
X109731812Y-72776265D01*
X109745190Y-72789643D01*
X109766091Y-72803609D01*
X109780056Y-72824509D01*
X109793434Y-72837887D01*
X109802081Y-72857472D01*
X109817683Y-72880821D01*
X109822021Y-72902631D01*
X109829354Y-72919238D01*
X109834992Y-72967842D01*
X109835800Y-72971900D01*
X109835800Y-75071900D01*
X109834992Y-75075959D01*
X109829354Y-75124561D01*
X109822021Y-75141166D01*
X109817683Y-75162979D01*
X109802080Y-75186329D01*
X109793434Y-75205912D01*
X109780058Y-75219287D01*
X109766091Y-75240191D01*
X109745187Y-75254158D01*
X109731812Y-75267534D01*
X109712229Y-75276180D01*
X109688879Y-75291783D01*
X109667066Y-75296121D01*
X109650461Y-75303454D01*
X109601859Y-75309092D01*
X109597800Y-75309900D01*
X109197800Y-75309900D01*
X109193742Y-75309092D01*
X109145138Y-75303454D01*
X109128531Y-75296121D01*
X109106721Y-75291783D01*
X109083372Y-75276181D01*
X109063787Y-75267534D01*
X109050409Y-75254156D01*
X109029509Y-75240191D01*
X109015543Y-75219290D01*
X109002165Y-75205912D01*
X108993516Y-75186325D01*
X108977917Y-75162979D01*
X108973579Y-75141171D01*
X108966245Y-75124561D01*
X108960605Y-75075947D01*
X108959800Y-75071900D01*
X108959800Y-72971900D01*
X108960604Y-72967854D01*
X108966245Y-72919238D01*
X108973579Y-72902627D01*
X108977917Y-72880821D01*
X108993515Y-72857476D01*
X109002165Y-72837887D01*
X109015545Y-72824506D01*
X109029509Y-72803609D01*
X109050406Y-72789645D01*
X109063787Y-72776265D01*
X109083376Y-72767615D01*
X109106721Y-72752017D01*
X109128527Y-72747679D01*
X109145138Y-72740345D01*
X109193754Y-72734704D01*
X109197800Y-72733900D01*
X109597800Y-72733900D01*
X109601847Y-72734705D01*
G37*
G36*
X110871847Y-72734705D02*
G01*
X110920461Y-72740345D01*
X110937071Y-72747679D01*
X110958879Y-72752017D01*
X110982225Y-72767616D01*
X111001812Y-72776265D01*
X111015190Y-72789643D01*
X111036091Y-72803609D01*
X111050056Y-72824509D01*
X111063434Y-72837887D01*
X111072081Y-72857472D01*
X111087683Y-72880821D01*
X111092021Y-72902631D01*
X111099354Y-72919238D01*
X111104992Y-72967842D01*
X111105800Y-72971900D01*
X111105800Y-75071900D01*
X111104992Y-75075959D01*
X111099354Y-75124561D01*
X111092021Y-75141166D01*
X111087683Y-75162979D01*
X111072080Y-75186329D01*
X111063434Y-75205912D01*
X111050058Y-75219287D01*
X111036091Y-75240191D01*
X111015187Y-75254158D01*
X111001812Y-75267534D01*
X110982229Y-75276180D01*
X110958879Y-75291783D01*
X110937066Y-75296121D01*
X110920461Y-75303454D01*
X110871859Y-75309092D01*
X110867800Y-75309900D01*
X110467800Y-75309900D01*
X110463742Y-75309092D01*
X110415138Y-75303454D01*
X110398531Y-75296121D01*
X110376721Y-75291783D01*
X110353372Y-75276181D01*
X110333787Y-75267534D01*
X110320409Y-75254156D01*
X110299509Y-75240191D01*
X110285543Y-75219290D01*
X110272165Y-75205912D01*
X110263516Y-75186325D01*
X110247917Y-75162979D01*
X110243579Y-75141171D01*
X110236245Y-75124561D01*
X110230605Y-75075947D01*
X110229800Y-75071900D01*
X110229800Y-72971900D01*
X110230604Y-72967854D01*
X110236245Y-72919238D01*
X110243579Y-72902627D01*
X110247917Y-72880821D01*
X110263515Y-72857476D01*
X110272165Y-72837887D01*
X110285545Y-72824506D01*
X110299509Y-72803609D01*
X110320406Y-72789645D01*
X110333787Y-72776265D01*
X110353376Y-72767615D01*
X110376721Y-72752017D01*
X110398527Y-72747679D01*
X110415138Y-72740345D01*
X110463754Y-72734704D01*
X110467800Y-72733900D01*
X110867800Y-72733900D01*
X110871847Y-72734705D01*
G37*
G36*
X112141847Y-72734705D02*
G01*
X112190461Y-72740345D01*
X112207071Y-72747679D01*
X112228879Y-72752017D01*
X112252225Y-72767616D01*
X112271812Y-72776265D01*
X112285190Y-72789643D01*
X112306091Y-72803609D01*
X112320056Y-72824509D01*
X112333434Y-72837887D01*
X112342081Y-72857472D01*
X112357683Y-72880821D01*
X112362021Y-72902631D01*
X112369354Y-72919238D01*
X112374992Y-72967842D01*
X112375800Y-72971900D01*
X112375800Y-75071900D01*
X112374992Y-75075959D01*
X112369354Y-75124561D01*
X112362021Y-75141166D01*
X112357683Y-75162979D01*
X112342080Y-75186329D01*
X112333434Y-75205912D01*
X112320058Y-75219287D01*
X112306091Y-75240191D01*
X112285187Y-75254158D01*
X112271812Y-75267534D01*
X112252229Y-75276180D01*
X112228879Y-75291783D01*
X112207066Y-75296121D01*
X112190461Y-75303454D01*
X112141859Y-75309092D01*
X112137800Y-75309900D01*
X111737800Y-75309900D01*
X111733742Y-75309092D01*
X111685138Y-75303454D01*
X111668531Y-75296121D01*
X111646721Y-75291783D01*
X111623372Y-75276181D01*
X111603787Y-75267534D01*
X111590409Y-75254156D01*
X111569509Y-75240191D01*
X111555543Y-75219290D01*
X111542165Y-75205912D01*
X111533516Y-75186325D01*
X111517917Y-75162979D01*
X111513579Y-75141171D01*
X111506245Y-75124561D01*
X111500605Y-75075947D01*
X111499800Y-75071900D01*
X111499800Y-72971900D01*
X111500604Y-72967854D01*
X111506245Y-72919238D01*
X111513579Y-72902627D01*
X111517917Y-72880821D01*
X111533515Y-72857476D01*
X111542165Y-72837887D01*
X111555545Y-72824506D01*
X111569509Y-72803609D01*
X111590406Y-72789645D01*
X111603787Y-72776265D01*
X111623376Y-72767615D01*
X111646721Y-72752017D01*
X111668527Y-72747679D01*
X111685138Y-72740345D01*
X111733754Y-72734704D01*
X111737800Y-72733900D01*
X112137800Y-72733900D01*
X112141847Y-72734705D01*
G37*
G36*
X113411847Y-72734705D02*
G01*
X113460461Y-72740345D01*
X113477071Y-72747679D01*
X113498879Y-72752017D01*
X113522225Y-72767616D01*
X113541812Y-72776265D01*
X113555190Y-72789643D01*
X113576091Y-72803609D01*
X113590056Y-72824509D01*
X113603434Y-72837887D01*
X113612081Y-72857472D01*
X113627683Y-72880821D01*
X113632021Y-72902631D01*
X113639354Y-72919238D01*
X113644992Y-72967842D01*
X113645800Y-72971900D01*
X113645800Y-75071900D01*
X113644992Y-75075959D01*
X113639354Y-75124561D01*
X113632021Y-75141166D01*
X113627683Y-75162979D01*
X113612080Y-75186329D01*
X113603434Y-75205912D01*
X113590058Y-75219287D01*
X113576091Y-75240191D01*
X113555187Y-75254158D01*
X113541812Y-75267534D01*
X113522229Y-75276180D01*
X113498879Y-75291783D01*
X113477066Y-75296121D01*
X113460461Y-75303454D01*
X113411859Y-75309092D01*
X113407800Y-75309900D01*
X113007800Y-75309900D01*
X113003742Y-75309092D01*
X112955138Y-75303454D01*
X112938531Y-75296121D01*
X112916721Y-75291783D01*
X112893372Y-75276181D01*
X112873787Y-75267534D01*
X112860409Y-75254156D01*
X112839509Y-75240191D01*
X112825543Y-75219290D01*
X112812165Y-75205912D01*
X112803516Y-75186325D01*
X112787917Y-75162979D01*
X112783579Y-75141171D01*
X112776245Y-75124561D01*
X112770605Y-75075947D01*
X112769800Y-75071900D01*
X112769800Y-72971900D01*
X112770604Y-72967854D01*
X112776245Y-72919238D01*
X112783579Y-72902627D01*
X112787917Y-72880821D01*
X112803515Y-72857476D01*
X112812165Y-72837887D01*
X112825545Y-72824506D01*
X112839509Y-72803609D01*
X112860406Y-72789645D01*
X112873787Y-72776265D01*
X112893376Y-72767615D01*
X112916721Y-72752017D01*
X112938527Y-72747679D01*
X112955138Y-72740345D01*
X113003754Y-72734704D01*
X113007800Y-72733900D01*
X113407800Y-72733900D01*
X113411847Y-72734705D01*
G37*
G36*
X114681847Y-72734705D02*
G01*
X114730461Y-72740345D01*
X114747071Y-72747679D01*
X114768879Y-72752017D01*
X114792225Y-72767616D01*
X114811812Y-72776265D01*
X114825190Y-72789643D01*
X114846091Y-72803609D01*
X114860056Y-72824509D01*
X114873434Y-72837887D01*
X114882081Y-72857472D01*
X114897683Y-72880821D01*
X114902021Y-72902631D01*
X114909354Y-72919238D01*
X114914992Y-72967842D01*
X114915800Y-72971900D01*
X114915800Y-75071900D01*
X114914992Y-75075959D01*
X114909354Y-75124561D01*
X114902021Y-75141166D01*
X114897683Y-75162979D01*
X114882080Y-75186329D01*
X114873434Y-75205912D01*
X114860058Y-75219287D01*
X114846091Y-75240191D01*
X114825187Y-75254158D01*
X114811812Y-75267534D01*
X114792229Y-75276180D01*
X114768879Y-75291783D01*
X114747066Y-75296121D01*
X114730461Y-75303454D01*
X114681859Y-75309092D01*
X114677800Y-75309900D01*
X114277800Y-75309900D01*
X114273742Y-75309092D01*
X114225138Y-75303454D01*
X114208531Y-75296121D01*
X114186721Y-75291783D01*
X114163372Y-75276181D01*
X114143787Y-75267534D01*
X114130409Y-75254156D01*
X114109509Y-75240191D01*
X114095543Y-75219290D01*
X114082165Y-75205912D01*
X114073516Y-75186325D01*
X114057917Y-75162979D01*
X114053579Y-75141171D01*
X114046245Y-75124561D01*
X114040605Y-75075947D01*
X114039800Y-75071900D01*
X114039800Y-72971900D01*
X114040604Y-72967854D01*
X114046245Y-72919238D01*
X114053579Y-72902627D01*
X114057917Y-72880821D01*
X114073515Y-72857476D01*
X114082165Y-72837887D01*
X114095545Y-72824506D01*
X114109509Y-72803609D01*
X114130406Y-72789645D01*
X114143787Y-72776265D01*
X114163376Y-72767615D01*
X114186721Y-72752017D01*
X114208527Y-72747679D01*
X114225138Y-72740345D01*
X114273754Y-72734704D01*
X114277800Y-72733900D01*
X114677800Y-72733900D01*
X114681847Y-72734705D01*
G37*
G36*
X115951847Y-72734705D02*
G01*
X116000461Y-72740345D01*
X116017071Y-72747679D01*
X116038879Y-72752017D01*
X116062225Y-72767616D01*
X116081812Y-72776265D01*
X116095190Y-72789643D01*
X116116091Y-72803609D01*
X116130056Y-72824509D01*
X116143434Y-72837887D01*
X116152081Y-72857472D01*
X116167683Y-72880821D01*
X116172021Y-72902631D01*
X116179354Y-72919238D01*
X116184992Y-72967842D01*
X116185800Y-72971900D01*
X116185800Y-75071900D01*
X116184992Y-75075959D01*
X116179354Y-75124561D01*
X116172021Y-75141166D01*
X116167683Y-75162979D01*
X116152080Y-75186329D01*
X116143434Y-75205912D01*
X116130058Y-75219287D01*
X116116091Y-75240191D01*
X116095187Y-75254158D01*
X116081812Y-75267534D01*
X116062229Y-75276180D01*
X116038879Y-75291783D01*
X116017066Y-75296121D01*
X116000461Y-75303454D01*
X115951859Y-75309092D01*
X115947800Y-75309900D01*
X115547800Y-75309900D01*
X115543742Y-75309092D01*
X115495138Y-75303454D01*
X115478531Y-75296121D01*
X115456721Y-75291783D01*
X115433372Y-75276181D01*
X115413787Y-75267534D01*
X115400409Y-75254156D01*
X115379509Y-75240191D01*
X115365543Y-75219290D01*
X115352165Y-75205912D01*
X115343516Y-75186325D01*
X115327917Y-75162979D01*
X115323579Y-75141171D01*
X115316245Y-75124561D01*
X115310605Y-75075947D01*
X115309800Y-75071900D01*
X115309800Y-72971900D01*
X115310604Y-72967854D01*
X115316245Y-72919238D01*
X115323579Y-72902627D01*
X115327917Y-72880821D01*
X115343515Y-72857476D01*
X115352165Y-72837887D01*
X115365545Y-72824506D01*
X115379509Y-72803609D01*
X115400406Y-72789645D01*
X115413787Y-72776265D01*
X115433376Y-72767615D01*
X115456721Y-72752017D01*
X115478527Y-72747679D01*
X115495138Y-72740345D01*
X115543754Y-72734704D01*
X115547800Y-72733900D01*
X115947800Y-72733900D01*
X115951847Y-72734705D01*
G37*
G36*
X117221847Y-72734705D02*
G01*
X117270461Y-72740345D01*
X117287071Y-72747679D01*
X117308879Y-72752017D01*
X117332225Y-72767616D01*
X117351812Y-72776265D01*
X117365190Y-72789643D01*
X117386091Y-72803609D01*
X117400056Y-72824509D01*
X117413434Y-72837887D01*
X117422081Y-72857472D01*
X117437683Y-72880821D01*
X117442021Y-72902631D01*
X117449354Y-72919238D01*
X117454992Y-72967842D01*
X117455800Y-72971900D01*
X117455800Y-75071900D01*
X117454992Y-75075959D01*
X117449354Y-75124561D01*
X117442021Y-75141166D01*
X117437683Y-75162979D01*
X117422080Y-75186329D01*
X117413434Y-75205912D01*
X117400058Y-75219287D01*
X117386091Y-75240191D01*
X117365187Y-75254158D01*
X117351812Y-75267534D01*
X117332229Y-75276180D01*
X117308879Y-75291783D01*
X117287066Y-75296121D01*
X117270461Y-75303454D01*
X117221859Y-75309092D01*
X117217800Y-75309900D01*
X116817800Y-75309900D01*
X116813742Y-75309092D01*
X116765138Y-75303454D01*
X116748531Y-75296121D01*
X116726721Y-75291783D01*
X116703372Y-75276181D01*
X116683787Y-75267534D01*
X116670409Y-75254156D01*
X116649509Y-75240191D01*
X116635543Y-75219290D01*
X116622165Y-75205912D01*
X116613516Y-75186325D01*
X116597917Y-75162979D01*
X116593579Y-75141171D01*
X116586245Y-75124561D01*
X116580605Y-75075947D01*
X116579800Y-75071900D01*
X116579800Y-72971900D01*
X116580604Y-72967854D01*
X116586245Y-72919238D01*
X116593579Y-72902627D01*
X116597917Y-72880821D01*
X116613515Y-72857476D01*
X116622165Y-72837887D01*
X116635545Y-72824506D01*
X116649509Y-72803609D01*
X116670406Y-72789645D01*
X116683787Y-72776265D01*
X116703376Y-72767615D01*
X116726721Y-72752017D01*
X116748527Y-72747679D01*
X116765138Y-72740345D01*
X116813754Y-72734704D01*
X116817800Y-72733900D01*
X117217800Y-72733900D01*
X117221847Y-72734705D01*
G37*
G36*
X118491847Y-72734705D02*
G01*
X118540461Y-72740345D01*
X118557071Y-72747679D01*
X118578879Y-72752017D01*
X118602225Y-72767616D01*
X118621812Y-72776265D01*
X118635190Y-72789643D01*
X118656091Y-72803609D01*
X118670056Y-72824509D01*
X118683434Y-72837887D01*
X118692081Y-72857472D01*
X118707683Y-72880821D01*
X118712021Y-72902631D01*
X118719354Y-72919238D01*
X118724992Y-72967842D01*
X118725800Y-72971900D01*
X118725800Y-75071900D01*
X118724992Y-75075959D01*
X118719354Y-75124561D01*
X118712021Y-75141166D01*
X118707683Y-75162979D01*
X118692080Y-75186329D01*
X118683434Y-75205912D01*
X118670058Y-75219287D01*
X118656091Y-75240191D01*
X118635187Y-75254158D01*
X118621812Y-75267534D01*
X118602229Y-75276180D01*
X118578879Y-75291783D01*
X118557066Y-75296121D01*
X118540461Y-75303454D01*
X118491859Y-75309092D01*
X118487800Y-75309900D01*
X118087800Y-75309900D01*
X118083742Y-75309092D01*
X118035138Y-75303454D01*
X118018531Y-75296121D01*
X117996721Y-75291783D01*
X117973372Y-75276181D01*
X117953787Y-75267534D01*
X117940409Y-75254156D01*
X117919509Y-75240191D01*
X117905543Y-75219290D01*
X117892165Y-75205912D01*
X117883516Y-75186325D01*
X117867917Y-75162979D01*
X117863579Y-75141171D01*
X117856245Y-75124561D01*
X117850605Y-75075947D01*
X117849800Y-75071900D01*
X117849800Y-72971900D01*
X117850604Y-72967854D01*
X117856245Y-72919238D01*
X117863579Y-72902627D01*
X117867917Y-72880821D01*
X117883515Y-72857476D01*
X117892165Y-72837887D01*
X117905545Y-72824506D01*
X117919509Y-72803609D01*
X117940406Y-72789645D01*
X117953787Y-72776265D01*
X117973376Y-72767615D01*
X117996721Y-72752017D01*
X118018527Y-72747679D01*
X118035138Y-72740345D01*
X118083754Y-72734704D01*
X118087800Y-72733900D01*
X118487800Y-72733900D01*
X118491847Y-72734705D01*
G37*
G36*
X119761847Y-72734705D02*
G01*
X119810461Y-72740345D01*
X119827071Y-72747679D01*
X119848879Y-72752017D01*
X119872225Y-72767616D01*
X119891812Y-72776265D01*
X119905190Y-72789643D01*
X119926091Y-72803609D01*
X119940056Y-72824509D01*
X119953434Y-72837887D01*
X119962081Y-72857472D01*
X119977683Y-72880821D01*
X119982021Y-72902631D01*
X119989354Y-72919238D01*
X119994992Y-72967842D01*
X119995800Y-72971900D01*
X119995800Y-75071900D01*
X119994992Y-75075959D01*
X119989354Y-75124561D01*
X119982021Y-75141166D01*
X119977683Y-75162979D01*
X119962080Y-75186329D01*
X119953434Y-75205912D01*
X119940058Y-75219287D01*
X119926091Y-75240191D01*
X119905187Y-75254158D01*
X119891812Y-75267534D01*
X119872229Y-75276180D01*
X119848879Y-75291783D01*
X119827066Y-75296121D01*
X119810461Y-75303454D01*
X119761859Y-75309092D01*
X119757800Y-75309900D01*
X119357800Y-75309900D01*
X119353742Y-75309092D01*
X119305138Y-75303454D01*
X119288531Y-75296121D01*
X119266721Y-75291783D01*
X119243372Y-75276181D01*
X119223787Y-75267534D01*
X119210409Y-75254156D01*
X119189509Y-75240191D01*
X119175543Y-75219290D01*
X119162165Y-75205912D01*
X119153516Y-75186325D01*
X119137917Y-75162979D01*
X119133579Y-75141171D01*
X119126245Y-75124561D01*
X119120605Y-75075947D01*
X119119800Y-75071900D01*
X119119800Y-72971900D01*
X119120604Y-72967854D01*
X119126245Y-72919238D01*
X119133579Y-72902627D01*
X119137917Y-72880821D01*
X119153515Y-72857476D01*
X119162165Y-72837887D01*
X119175545Y-72824506D01*
X119189509Y-72803609D01*
X119210406Y-72789645D01*
X119223787Y-72776265D01*
X119243376Y-72767615D01*
X119266721Y-72752017D01*
X119288527Y-72747679D01*
X119305138Y-72740345D01*
X119353754Y-72734704D01*
X119357800Y-72733900D01*
X119757800Y-72733900D01*
X119761847Y-72734705D01*
G37*
G36*
X121031847Y-72734705D02*
G01*
X121080461Y-72740345D01*
X121097071Y-72747679D01*
X121118879Y-72752017D01*
X121142225Y-72767616D01*
X121161812Y-72776265D01*
X121175190Y-72789643D01*
X121196091Y-72803609D01*
X121210056Y-72824509D01*
X121223434Y-72837887D01*
X121232081Y-72857472D01*
X121247683Y-72880821D01*
X121252021Y-72902631D01*
X121259354Y-72919238D01*
X121264992Y-72967842D01*
X121265800Y-72971900D01*
X121265800Y-75071900D01*
X121264992Y-75075959D01*
X121259354Y-75124561D01*
X121252021Y-75141166D01*
X121247683Y-75162979D01*
X121232080Y-75186329D01*
X121223434Y-75205912D01*
X121210058Y-75219287D01*
X121196091Y-75240191D01*
X121175187Y-75254158D01*
X121161812Y-75267534D01*
X121142229Y-75276180D01*
X121118879Y-75291783D01*
X121097066Y-75296121D01*
X121080461Y-75303454D01*
X121031859Y-75309092D01*
X121027800Y-75309900D01*
X120627800Y-75309900D01*
X120623742Y-75309092D01*
X120575138Y-75303454D01*
X120558531Y-75296121D01*
X120536721Y-75291783D01*
X120513372Y-75276181D01*
X120493787Y-75267534D01*
X120480409Y-75254156D01*
X120459509Y-75240191D01*
X120445543Y-75219290D01*
X120432165Y-75205912D01*
X120423516Y-75186325D01*
X120407917Y-75162979D01*
X120403579Y-75141171D01*
X120396245Y-75124561D01*
X120390605Y-75075947D01*
X120389800Y-75071900D01*
X120389800Y-72971900D01*
X120390604Y-72967854D01*
X120396245Y-72919238D01*
X120403579Y-72902627D01*
X120407917Y-72880821D01*
X120423515Y-72857476D01*
X120432165Y-72837887D01*
X120445545Y-72824506D01*
X120459509Y-72803609D01*
X120480406Y-72789645D01*
X120493787Y-72776265D01*
X120513376Y-72767615D01*
X120536721Y-72752017D01*
X120558527Y-72747679D01*
X120575138Y-72740345D01*
X120623754Y-72734704D01*
X120627800Y-72733900D01*
X121027800Y-72733900D01*
X121031847Y-72734705D01*
G37*
G36*
X122301847Y-72734705D02*
G01*
X122350461Y-72740345D01*
X122367071Y-72747679D01*
X122388879Y-72752017D01*
X122412225Y-72767616D01*
X122431812Y-72776265D01*
X122445190Y-72789643D01*
X122466091Y-72803609D01*
X122480056Y-72824509D01*
X122493434Y-72837887D01*
X122502081Y-72857472D01*
X122517683Y-72880821D01*
X122522021Y-72902631D01*
X122529354Y-72919238D01*
X122534992Y-72967842D01*
X122535800Y-72971900D01*
X122535800Y-75071900D01*
X122534992Y-75075959D01*
X122529354Y-75124561D01*
X122522021Y-75141166D01*
X122517683Y-75162979D01*
X122502080Y-75186329D01*
X122493434Y-75205912D01*
X122480058Y-75219287D01*
X122466091Y-75240191D01*
X122445187Y-75254158D01*
X122431812Y-75267534D01*
X122412229Y-75276180D01*
X122388879Y-75291783D01*
X122367066Y-75296121D01*
X122350461Y-75303454D01*
X122301859Y-75309092D01*
X122297800Y-75309900D01*
X121897800Y-75309900D01*
X121893742Y-75309092D01*
X121845138Y-75303454D01*
X121828531Y-75296121D01*
X121806721Y-75291783D01*
X121783372Y-75276181D01*
X121763787Y-75267534D01*
X121750409Y-75254156D01*
X121729509Y-75240191D01*
X121715543Y-75219290D01*
X121702165Y-75205912D01*
X121693516Y-75186325D01*
X121677917Y-75162979D01*
X121673579Y-75141171D01*
X121666245Y-75124561D01*
X121660605Y-75075947D01*
X121659800Y-75071900D01*
X121659800Y-72971900D01*
X121660604Y-72967854D01*
X121666245Y-72919238D01*
X121673579Y-72902627D01*
X121677917Y-72880821D01*
X121693515Y-72857476D01*
X121702165Y-72837887D01*
X121715545Y-72824506D01*
X121729509Y-72803609D01*
X121750406Y-72789645D01*
X121763787Y-72776265D01*
X121783376Y-72767615D01*
X121806721Y-72752017D01*
X121828527Y-72747679D01*
X121845138Y-72740345D01*
X121893754Y-72734704D01*
X121897800Y-72733900D01*
X122297800Y-72733900D01*
X122301847Y-72734705D01*
G37*
G36*
X123571847Y-72734705D02*
G01*
X123620461Y-72740345D01*
X123637071Y-72747679D01*
X123658879Y-72752017D01*
X123682225Y-72767616D01*
X123701812Y-72776265D01*
X123715190Y-72789643D01*
X123736091Y-72803609D01*
X123750056Y-72824509D01*
X123763434Y-72837887D01*
X123772081Y-72857472D01*
X123787683Y-72880821D01*
X123792021Y-72902631D01*
X123799354Y-72919238D01*
X123804992Y-72967842D01*
X123805800Y-72971900D01*
X123805800Y-75071900D01*
X123804992Y-75075959D01*
X123799354Y-75124561D01*
X123792021Y-75141166D01*
X123787683Y-75162979D01*
X123772080Y-75186329D01*
X123763434Y-75205912D01*
X123750058Y-75219287D01*
X123736091Y-75240191D01*
X123715187Y-75254158D01*
X123701812Y-75267534D01*
X123682229Y-75276180D01*
X123658879Y-75291783D01*
X123637066Y-75296121D01*
X123620461Y-75303454D01*
X123571859Y-75309092D01*
X123567800Y-75309900D01*
X123167800Y-75309900D01*
X123163742Y-75309092D01*
X123115138Y-75303454D01*
X123098531Y-75296121D01*
X123076721Y-75291783D01*
X123053372Y-75276181D01*
X123033787Y-75267534D01*
X123020409Y-75254156D01*
X122999509Y-75240191D01*
X122985543Y-75219290D01*
X122972165Y-75205912D01*
X122963516Y-75186325D01*
X122947917Y-75162979D01*
X122943579Y-75141171D01*
X122936245Y-75124561D01*
X122930605Y-75075947D01*
X122929800Y-75071900D01*
X122929800Y-72971900D01*
X122930604Y-72967854D01*
X122936245Y-72919238D01*
X122943579Y-72902627D01*
X122947917Y-72880821D01*
X122963515Y-72857476D01*
X122972165Y-72837887D01*
X122985545Y-72824506D01*
X122999509Y-72803609D01*
X123020406Y-72789645D01*
X123033787Y-72776265D01*
X123053376Y-72767615D01*
X123076721Y-72752017D01*
X123098527Y-72747679D01*
X123115138Y-72740345D01*
X123163754Y-72734704D01*
X123167800Y-72733900D01*
X123567800Y-72733900D01*
X123571847Y-72734705D01*
G37*
G36*
X124841847Y-72734705D02*
G01*
X124890461Y-72740345D01*
X124907071Y-72747679D01*
X124928879Y-72752017D01*
X124952225Y-72767616D01*
X124971812Y-72776265D01*
X124985190Y-72789643D01*
X125006091Y-72803609D01*
X125020056Y-72824509D01*
X125033434Y-72837887D01*
X125042081Y-72857472D01*
X125057683Y-72880821D01*
X125062021Y-72902631D01*
X125069354Y-72919238D01*
X125074992Y-72967842D01*
X125075800Y-72971900D01*
X125075800Y-75071900D01*
X125074992Y-75075959D01*
X125069354Y-75124561D01*
X125062021Y-75141166D01*
X125057683Y-75162979D01*
X125042080Y-75186329D01*
X125033434Y-75205912D01*
X125020058Y-75219287D01*
X125006091Y-75240191D01*
X124985187Y-75254158D01*
X124971812Y-75267534D01*
X124952229Y-75276180D01*
X124928879Y-75291783D01*
X124907066Y-75296121D01*
X124890461Y-75303454D01*
X124841859Y-75309092D01*
X124837800Y-75309900D01*
X124437800Y-75309900D01*
X124433742Y-75309092D01*
X124385138Y-75303454D01*
X124368531Y-75296121D01*
X124346721Y-75291783D01*
X124323372Y-75276181D01*
X124303787Y-75267534D01*
X124290409Y-75254156D01*
X124269509Y-75240191D01*
X124255543Y-75219290D01*
X124242165Y-75205912D01*
X124233516Y-75186325D01*
X124217917Y-75162979D01*
X124213579Y-75141171D01*
X124206245Y-75124561D01*
X124200605Y-75075947D01*
X124199800Y-75071900D01*
X124199800Y-72971900D01*
X124200604Y-72967854D01*
X124206245Y-72919238D01*
X124213579Y-72902627D01*
X124217917Y-72880821D01*
X124233515Y-72857476D01*
X124242165Y-72837887D01*
X124255545Y-72824506D01*
X124269509Y-72803609D01*
X124290406Y-72789645D01*
X124303787Y-72776265D01*
X124323376Y-72767615D01*
X124346721Y-72752017D01*
X124368527Y-72747679D01*
X124385138Y-72740345D01*
X124433754Y-72734704D01*
X124437800Y-72733900D01*
X124837800Y-72733900D01*
X124841847Y-72734705D01*
G37*
G36*
X73228810Y-62734565D02*
G01*
X73234005Y-62736987D01*
X73236437Y-62737342D01*
X73270979Y-62754228D01*
X73327329Y-62780505D01*
X73404195Y-62857371D01*
X73430481Y-62913743D01*
X73447357Y-62948262D01*
X73447710Y-62950691D01*
X73450135Y-62955890D01*
X73460800Y-63036900D01*
X73460800Y-67986900D01*
X73450135Y-68067910D01*
X73447710Y-68073108D01*
X73447357Y-68075537D01*
X73430491Y-68110035D01*
X73404195Y-68166429D01*
X73327329Y-68243295D01*
X73270935Y-68269591D01*
X73236437Y-68286457D01*
X73234008Y-68286810D01*
X73228810Y-68289235D01*
X73147800Y-68299900D01*
X72597800Y-68299900D01*
X72516790Y-68289235D01*
X72511591Y-68286810D01*
X72509162Y-68286457D01*
X72474643Y-68269581D01*
X72418271Y-68243295D01*
X72341405Y-68166429D01*
X72315128Y-68110079D01*
X72298242Y-68075537D01*
X72297887Y-68073105D01*
X72295465Y-68067910D01*
X72284800Y-67986900D01*
X72284800Y-63036900D01*
X72295465Y-62955890D01*
X72297887Y-62950694D01*
X72298242Y-62948262D01*
X72315138Y-62913698D01*
X72341405Y-62857371D01*
X72418271Y-62780505D01*
X72474598Y-62754238D01*
X72509162Y-62737342D01*
X72511594Y-62736987D01*
X72516790Y-62734565D01*
X72597800Y-62723900D01*
X73147800Y-62723900D01*
X73228810Y-62734565D01*
G37*
G36*
X127228810Y-62734565D02*
G01*
X127234005Y-62736987D01*
X127236437Y-62737342D01*
X127270979Y-62754228D01*
X127327329Y-62780505D01*
X127404195Y-62857371D01*
X127430481Y-62913743D01*
X127447357Y-62948262D01*
X127447710Y-62950691D01*
X127450135Y-62955890D01*
X127460800Y-63036900D01*
X127460800Y-67986900D01*
X127450135Y-68067910D01*
X127447710Y-68073108D01*
X127447357Y-68075537D01*
X127430491Y-68110035D01*
X127404195Y-68166429D01*
X127327329Y-68243295D01*
X127270935Y-68269591D01*
X127236437Y-68286457D01*
X127234008Y-68286810D01*
X127228810Y-68289235D01*
X127147800Y-68299900D01*
X126597800Y-68299900D01*
X126516790Y-68289235D01*
X126511591Y-68286810D01*
X126509162Y-68286457D01*
X126474643Y-68269581D01*
X126418271Y-68243295D01*
X126341405Y-68166429D01*
X126315128Y-68110079D01*
X126298242Y-68075537D01*
X126297887Y-68073105D01*
X126295465Y-68067910D01*
X126284800Y-67986900D01*
X126284800Y-63036900D01*
X126295465Y-62955890D01*
X126297887Y-62950694D01*
X126298242Y-62948262D01*
X126315138Y-62913698D01*
X126341405Y-62857371D01*
X126418271Y-62780505D01*
X126474598Y-62754238D01*
X126509162Y-62737342D01*
X126511594Y-62736987D01*
X126516790Y-62734565D01*
X126597800Y-62723900D01*
X127147800Y-62723900D01*
X127228810Y-62734565D01*
G37*
G36*
X86964611Y-66138898D02*
G01*
X86974542Y-66138898D01*
X87013340Y-66146615D01*
X87115075Y-66162728D01*
X87147803Y-66173362D01*
X87174115Y-66178596D01*
X87211246Y-66193976D01*
X87269970Y-66213057D01*
X87324985Y-66241088D01*
X87362110Y-66256466D01*
X87384411Y-66271367D01*
X87415069Y-66286988D01*
X87498403Y-66347534D01*
X87531300Y-66369515D01*
X87538321Y-66376536D01*
X87546824Y-66382714D01*
X87661985Y-66497875D01*
X87668162Y-66506377D01*
X87675185Y-66513400D01*
X87697169Y-66546301D01*
X87757711Y-66629630D01*
X87773330Y-66660285D01*
X87788234Y-66682590D01*
X87803613Y-66719719D01*
X87831642Y-66774729D01*
X87850720Y-66833445D01*
X87866104Y-66870585D01*
X87871338Y-66896901D01*
X87881971Y-66929624D01*
X87898083Y-67031354D01*
X87905802Y-67070158D01*
X87905802Y-67080088D01*
X87907446Y-67090468D01*
X87907446Y-67253331D01*
X87905802Y-67263710D01*
X87905802Y-67273642D01*
X87898082Y-67312449D01*
X87881971Y-67414175D01*
X87871339Y-67446895D01*
X87866104Y-67473215D01*
X87850718Y-67510357D01*
X87831642Y-67569070D01*
X87803615Y-67624074D01*
X87788234Y-67661210D01*
X87773328Y-67683517D01*
X87757711Y-67714169D01*
X87697177Y-67797486D01*
X87675185Y-67830400D01*
X87668159Y-67837425D01*
X87661985Y-67845924D01*
X87546824Y-67961085D01*
X87538325Y-67967259D01*
X87531300Y-67974285D01*
X87498386Y-67996277D01*
X87415069Y-68056811D01*
X87384417Y-68072428D01*
X87362110Y-68087334D01*
X87324974Y-68102715D01*
X87269970Y-68130742D01*
X87211257Y-68149818D01*
X87174115Y-68165204D01*
X87147795Y-68170439D01*
X87115075Y-68181071D01*
X87013349Y-68197182D01*
X86974542Y-68204902D01*
X86964611Y-68204902D01*
X86954231Y-68206546D01*
X86791369Y-68206546D01*
X86780989Y-68204902D01*
X86771058Y-68204902D01*
X86732251Y-68197182D01*
X86630524Y-68181071D01*
X86597801Y-68170438D01*
X86571485Y-68165204D01*
X86534345Y-68149820D01*
X86475629Y-68130742D01*
X86420619Y-68102713D01*
X86383490Y-68087334D01*
X86361185Y-68072430D01*
X86330530Y-68056811D01*
X86247201Y-67996269D01*
X86214300Y-67974285D01*
X86207277Y-67967262D01*
X86198775Y-67961085D01*
X86083614Y-67845924D01*
X86077436Y-67837421D01*
X86070415Y-67830400D01*
X86048434Y-67797503D01*
X85987888Y-67714169D01*
X85972267Y-67683511D01*
X85957366Y-67661210D01*
X85941988Y-67624085D01*
X85913957Y-67569070D01*
X85894876Y-67510346D01*
X85879496Y-67473215D01*
X85874262Y-67446903D01*
X85863628Y-67414175D01*
X85847515Y-67312440D01*
X85839798Y-67273642D01*
X85839798Y-67263711D01*
X85838154Y-67253331D01*
X85838154Y-67090468D01*
X85839798Y-67080087D01*
X85839798Y-67070158D01*
X85847514Y-67031363D01*
X85863628Y-66929624D01*
X85874262Y-66896893D01*
X85879496Y-66870585D01*
X85894874Y-66833457D01*
X85913957Y-66774729D01*
X85941990Y-66719709D01*
X85957366Y-66682590D01*
X85972265Y-66660291D01*
X85987888Y-66629630D01*
X86048442Y-66546284D01*
X86070415Y-66513400D01*
X86077434Y-66506380D01*
X86083614Y-66497875D01*
X86198775Y-66382714D01*
X86207280Y-66376534D01*
X86214300Y-66369515D01*
X86247184Y-66347542D01*
X86330530Y-66286988D01*
X86361191Y-66271365D01*
X86383490Y-66256466D01*
X86420609Y-66241090D01*
X86475629Y-66213057D01*
X86534357Y-66193974D01*
X86571485Y-66178596D01*
X86597793Y-66173362D01*
X86630524Y-66162728D01*
X86732260Y-66146615D01*
X86771058Y-66138898D01*
X86780989Y-66138898D01*
X86791369Y-66137254D01*
X86954231Y-66137254D01*
X86964611Y-66138898D01*
G37*
G36*
X112964611Y-66138898D02*
G01*
X112974542Y-66138898D01*
X113013340Y-66146615D01*
X113115075Y-66162728D01*
X113147803Y-66173362D01*
X113174115Y-66178596D01*
X113211246Y-66193976D01*
X113269970Y-66213057D01*
X113324985Y-66241088D01*
X113362110Y-66256466D01*
X113384411Y-66271367D01*
X113415069Y-66286988D01*
X113498403Y-66347534D01*
X113531300Y-66369515D01*
X113538321Y-66376536D01*
X113546824Y-66382714D01*
X113661985Y-66497875D01*
X113668162Y-66506377D01*
X113675185Y-66513400D01*
X113697169Y-66546301D01*
X113757711Y-66629630D01*
X113773330Y-66660285D01*
X113788234Y-66682590D01*
X113803613Y-66719719D01*
X113831642Y-66774729D01*
X113850720Y-66833445D01*
X113866104Y-66870585D01*
X113871338Y-66896901D01*
X113881971Y-66929624D01*
X113898083Y-67031354D01*
X113905802Y-67070158D01*
X113905802Y-67080088D01*
X113907446Y-67090468D01*
X113907446Y-67253331D01*
X113905802Y-67263710D01*
X113905802Y-67273642D01*
X113898082Y-67312449D01*
X113881971Y-67414175D01*
X113871339Y-67446895D01*
X113866104Y-67473215D01*
X113850718Y-67510357D01*
X113831642Y-67569070D01*
X113803615Y-67624074D01*
X113788234Y-67661210D01*
X113773328Y-67683517D01*
X113757711Y-67714169D01*
X113697177Y-67797486D01*
X113675185Y-67830400D01*
X113668159Y-67837425D01*
X113661985Y-67845924D01*
X113546824Y-67961085D01*
X113538325Y-67967259D01*
X113531300Y-67974285D01*
X113498386Y-67996277D01*
X113415069Y-68056811D01*
X113384417Y-68072428D01*
X113362110Y-68087334D01*
X113324974Y-68102715D01*
X113269970Y-68130742D01*
X113211257Y-68149818D01*
X113174115Y-68165204D01*
X113147795Y-68170439D01*
X113115075Y-68181071D01*
X113013349Y-68197182D01*
X112974542Y-68204902D01*
X112964611Y-68204902D01*
X112954231Y-68206546D01*
X112791369Y-68206546D01*
X112780989Y-68204902D01*
X112771058Y-68204902D01*
X112732251Y-68197182D01*
X112630524Y-68181071D01*
X112597801Y-68170438D01*
X112571485Y-68165204D01*
X112534345Y-68149820D01*
X112475629Y-68130742D01*
X112420619Y-68102713D01*
X112383490Y-68087334D01*
X112361185Y-68072430D01*
X112330530Y-68056811D01*
X112247201Y-67996269D01*
X112214300Y-67974285D01*
X112207277Y-67967262D01*
X112198775Y-67961085D01*
X112083614Y-67845924D01*
X112077436Y-67837421D01*
X112070415Y-67830400D01*
X112048434Y-67797503D01*
X111987888Y-67714169D01*
X111972267Y-67683511D01*
X111957366Y-67661210D01*
X111941988Y-67624085D01*
X111913957Y-67569070D01*
X111894876Y-67510346D01*
X111879496Y-67473215D01*
X111874262Y-67446903D01*
X111863628Y-67414175D01*
X111847515Y-67312440D01*
X111839798Y-67273642D01*
X111839798Y-67263711D01*
X111838154Y-67253331D01*
X111838154Y-67090468D01*
X111839798Y-67080087D01*
X111839798Y-67070158D01*
X111847514Y-67031363D01*
X111863628Y-66929624D01*
X111874262Y-66896893D01*
X111879496Y-66870585D01*
X111894874Y-66833457D01*
X111913957Y-66774729D01*
X111941990Y-66719709D01*
X111957366Y-66682590D01*
X111972265Y-66660291D01*
X111987888Y-66629630D01*
X112048442Y-66546284D01*
X112070415Y-66513400D01*
X112077434Y-66506380D01*
X112083614Y-66497875D01*
X112198775Y-66382714D01*
X112207280Y-66376534D01*
X112214300Y-66369515D01*
X112247184Y-66347542D01*
X112330530Y-66286988D01*
X112361191Y-66271365D01*
X112383490Y-66256466D01*
X112420609Y-66241090D01*
X112475629Y-66213057D01*
X112534357Y-66193974D01*
X112571485Y-66178596D01*
X112597793Y-66173362D01*
X112630524Y-66162728D01*
X112732260Y-66146615D01*
X112771058Y-66138898D01*
X112780989Y-66138898D01*
X112791369Y-66137254D01*
X112954231Y-66137254D01*
X112964611Y-66138898D01*
G37*
G36*
X99600918Y-53665549D02*
G01*
X99658665Y-53704135D01*
X99697251Y-53761882D01*
X99710800Y-53830000D01*
X99710800Y-54170000D01*
X99697251Y-54238118D01*
X99658665Y-54295865D01*
X99600918Y-54334451D01*
X99532800Y-54348000D01*
X99252800Y-54348000D01*
X99184682Y-54334451D01*
X99126935Y-54295865D01*
X99088349Y-54238118D01*
X99074800Y-54170000D01*
X99074800Y-53830000D01*
X99088349Y-53761882D01*
X99126935Y-53704135D01*
X99184682Y-53665549D01*
X99252800Y-53652000D01*
X99532800Y-53652000D01*
X99600918Y-53665549D01*
G37*
G36*
X100560918Y-53665549D02*
G01*
X100618665Y-53704135D01*
X100657251Y-53761882D01*
X100670800Y-53830000D01*
X100670800Y-54170000D01*
X100657251Y-54238118D01*
X100618665Y-54295865D01*
X100560918Y-54334451D01*
X100492800Y-54348000D01*
X100212800Y-54348000D01*
X100144682Y-54334451D01*
X100086935Y-54295865D01*
X100048349Y-54238118D01*
X100034800Y-54170000D01*
X100034800Y-53830000D01*
X100048349Y-53761882D01*
X100086935Y-53704135D01*
X100144682Y-53665549D01*
X100212800Y-53652000D01*
X100492800Y-53652000D01*
X100560918Y-53665549D01*
G37*
G36*
X102738118Y-52863449D02*
G01*
X102795865Y-52902035D01*
X102834451Y-52959782D01*
X102848000Y-53027900D01*
X102848000Y-53307900D01*
X102834451Y-53376018D01*
X102795865Y-53433765D01*
X102738118Y-53472351D01*
X102670000Y-53485900D01*
X102330000Y-53485900D01*
X102261882Y-53472351D01*
X102204135Y-53433765D01*
X102165549Y-53376018D01*
X102152000Y-53307900D01*
X102152000Y-53027900D01*
X102165549Y-52959782D01*
X102204135Y-52902035D01*
X102261882Y-52863449D01*
X102330000Y-52849900D01*
X102670000Y-52849900D01*
X102738118Y-52863449D01*
G37*
G36*
X99512342Y-52311793D02*
G01*
X99524670Y-52320030D01*
X99532907Y-52332358D01*
X99535800Y-52346900D01*
X99535800Y-53296900D01*
X99532907Y-53311442D01*
X99524670Y-53323770D01*
X99512342Y-53332007D01*
X99497800Y-53334900D01*
X99247800Y-53334900D01*
X99233258Y-53332007D01*
X99220930Y-53323770D01*
X99212693Y-53311442D01*
X99209800Y-53296900D01*
X99209800Y-52346900D01*
X99212693Y-52332358D01*
X99220930Y-52320030D01*
X99233258Y-52311793D01*
X99247800Y-52308900D01*
X99497800Y-52308900D01*
X99512342Y-52311793D01*
G37*
G36*
X100012342Y-52311793D02*
G01*
X100024670Y-52320030D01*
X100032907Y-52332358D01*
X100035800Y-52346900D01*
X100035800Y-53296900D01*
X100032907Y-53311442D01*
X100024670Y-53323770D01*
X100012342Y-53332007D01*
X99997800Y-53334900D01*
X99747800Y-53334900D01*
X99733258Y-53332007D01*
X99720930Y-53323770D01*
X99712693Y-53311442D01*
X99709800Y-53296900D01*
X99709800Y-52346900D01*
X99712693Y-52332358D01*
X99720930Y-52320030D01*
X99733258Y-52311793D01*
X99747800Y-52308900D01*
X99997800Y-52308900D01*
X100012342Y-52311793D01*
G37*
G36*
X100512342Y-52311793D02*
G01*
X100524670Y-52320030D01*
X100532907Y-52332358D01*
X100535800Y-52346900D01*
X100535800Y-53296900D01*
X100532907Y-53311442D01*
X100524670Y-53323770D01*
X100512342Y-53332007D01*
X100497800Y-53334900D01*
X100247800Y-53334900D01*
X100233258Y-53332007D01*
X100220930Y-53323770D01*
X100212693Y-53311442D01*
X100209800Y-53296900D01*
X100209800Y-52346900D01*
X100212693Y-52332358D01*
X100220930Y-52320030D01*
X100233258Y-52311793D01*
X100247800Y-52308900D01*
X100497800Y-52308900D01*
X100512342Y-52311793D01*
G37*
G36*
X98962342Y-52261793D02*
G01*
X98974670Y-52270030D01*
X98982907Y-52282358D01*
X98985800Y-52296900D01*
X98985800Y-52546900D01*
X98982907Y-52561442D01*
X98974670Y-52573770D01*
X98962342Y-52582007D01*
X98947800Y-52584900D01*
X97997800Y-52584900D01*
X97983258Y-52582007D01*
X97970930Y-52573770D01*
X97962693Y-52561442D01*
X97959800Y-52546900D01*
X97959800Y-52296900D01*
X97962693Y-52282358D01*
X97970930Y-52270030D01*
X97983258Y-52261793D01*
X97997800Y-52258900D01*
X98947800Y-52258900D01*
X98962342Y-52261793D01*
G37*
G36*
X101749842Y-52261793D02*
G01*
X101762170Y-52270030D01*
X101770407Y-52282358D01*
X101773300Y-52296900D01*
X101773300Y-52546900D01*
X101770407Y-52561442D01*
X101762170Y-52573770D01*
X101749842Y-52582007D01*
X101735300Y-52584900D01*
X100785300Y-52584900D01*
X100770758Y-52582007D01*
X100758430Y-52573770D01*
X100750193Y-52561442D01*
X100747300Y-52546900D01*
X100747300Y-52296900D01*
X100750193Y-52282358D01*
X100758430Y-52270030D01*
X100770758Y-52261793D01*
X100785300Y-52258900D01*
X101735300Y-52258900D01*
X101749842Y-52261793D01*
G37*
G36*
X102738118Y-51903449D02*
G01*
X102795865Y-51942035D01*
X102834451Y-51999782D01*
X102848000Y-52067900D01*
X102848000Y-52347900D01*
X102834451Y-52416018D01*
X102795865Y-52473765D01*
X102738118Y-52512351D01*
X102670000Y-52525900D01*
X102330000Y-52525900D01*
X102261882Y-52512351D01*
X102204135Y-52473765D01*
X102165549Y-52416018D01*
X102152000Y-52347900D01*
X102152000Y-52067900D01*
X102165549Y-51999782D01*
X102204135Y-51942035D01*
X102261882Y-51903449D01*
X102330000Y-51889900D01*
X102670000Y-51889900D01*
X102738118Y-51903449D01*
G37*
G36*
X98962342Y-51761793D02*
G01*
X98974670Y-51770030D01*
X98982907Y-51782358D01*
X98985800Y-51796900D01*
X98985800Y-52046900D01*
X98982907Y-52061442D01*
X98974670Y-52073770D01*
X98962342Y-52082007D01*
X98947800Y-52084900D01*
X97997800Y-52084900D01*
X97983258Y-52082007D01*
X97970930Y-52073770D01*
X97962693Y-52061442D01*
X97959800Y-52046900D01*
X97959800Y-51796900D01*
X97962693Y-51782358D01*
X97970930Y-51770030D01*
X97983258Y-51761793D01*
X97997800Y-51758900D01*
X98947800Y-51758900D01*
X98962342Y-51761793D01*
G37*
G36*
X101749842Y-51761793D02*
G01*
X101762170Y-51770030D01*
X101770407Y-51782358D01*
X101773300Y-51796900D01*
X101773300Y-52046900D01*
X101770407Y-52061442D01*
X101762170Y-52073770D01*
X101749842Y-52082007D01*
X101735300Y-52084900D01*
X100785300Y-52084900D01*
X100770758Y-52082007D01*
X100758430Y-52073770D01*
X100750193Y-52061442D01*
X100747300Y-52046900D01*
X100747300Y-51796900D01*
X100750193Y-51782358D01*
X100758430Y-51770030D01*
X100770758Y-51761793D01*
X100785300Y-51758900D01*
X101735300Y-51758900D01*
X101749842Y-51761793D01*
G37*
G36*
X98962342Y-51261793D02*
G01*
X98974670Y-51270030D01*
X98982907Y-51282358D01*
X98985800Y-51296900D01*
X98985800Y-51546900D01*
X98982907Y-51561442D01*
X98974670Y-51573770D01*
X98962342Y-51582007D01*
X98947800Y-51584900D01*
X97997800Y-51584900D01*
X97983258Y-51582007D01*
X97970930Y-51573770D01*
X97962693Y-51561442D01*
X97959800Y-51546900D01*
X97959800Y-51296900D01*
X97962693Y-51282358D01*
X97970930Y-51270030D01*
X97983258Y-51261793D01*
X97997800Y-51258900D01*
X98947800Y-51258900D01*
X98962342Y-51261793D01*
G37*
G36*
X101749842Y-51261793D02*
G01*
X101762170Y-51270030D01*
X101770407Y-51282358D01*
X101773300Y-51296900D01*
X101773300Y-51546900D01*
X101770407Y-51561442D01*
X101762170Y-51573770D01*
X101749842Y-51582007D01*
X101735300Y-51584900D01*
X100785300Y-51584900D01*
X100770758Y-51582007D01*
X100758430Y-51573770D01*
X100750193Y-51561442D01*
X100747300Y-51546900D01*
X100747300Y-51296900D01*
X100750193Y-51282358D01*
X100758430Y-51270030D01*
X100770758Y-51261793D01*
X100785300Y-51258900D01*
X101735300Y-51258900D01*
X101749842Y-51261793D01*
G37*
G36*
X98962342Y-50761793D02*
G01*
X98974670Y-50770030D01*
X98982907Y-50782358D01*
X98985800Y-50796900D01*
X98985800Y-51046900D01*
X98982907Y-51061442D01*
X98974670Y-51073770D01*
X98962342Y-51082007D01*
X98947800Y-51084900D01*
X97997800Y-51084900D01*
X97983258Y-51082007D01*
X97970930Y-51073770D01*
X97962693Y-51061442D01*
X97959800Y-51046900D01*
X97959800Y-50796900D01*
X97962693Y-50782358D01*
X97970930Y-50770030D01*
X97983258Y-50761793D01*
X97997800Y-50758900D01*
X98947800Y-50758900D01*
X98962342Y-50761793D01*
G37*
G36*
X101749842Y-50761793D02*
G01*
X101762170Y-50770030D01*
X101770407Y-50782358D01*
X101773300Y-50796900D01*
X101773300Y-51046900D01*
X101770407Y-51061442D01*
X101762170Y-51073770D01*
X101749842Y-51082007D01*
X101735300Y-51084900D01*
X100785300Y-51084900D01*
X100770758Y-51082007D01*
X100758430Y-51073770D01*
X100750193Y-51061442D01*
X100747300Y-51046900D01*
X100747300Y-50796900D01*
X100750193Y-50782358D01*
X100758430Y-50770030D01*
X100770758Y-50761793D01*
X100785300Y-50758900D01*
X101735300Y-50758900D01*
X101749842Y-50761793D01*
G37*
G36*
X99512342Y-50011793D02*
G01*
X99524670Y-50020030D01*
X99532907Y-50032358D01*
X99535800Y-50046900D01*
X99535800Y-50996900D01*
X99532907Y-51011442D01*
X99524670Y-51023770D01*
X99512342Y-51032007D01*
X99497800Y-51034900D01*
X99247800Y-51034900D01*
X99233258Y-51032007D01*
X99220930Y-51023770D01*
X99212693Y-51011442D01*
X99209800Y-50996900D01*
X99209800Y-50046900D01*
X99212693Y-50032358D01*
X99220930Y-50020030D01*
X99233258Y-50011793D01*
X99247800Y-50008900D01*
X99497800Y-50008900D01*
X99512342Y-50011793D01*
G37*
G36*
X100012342Y-50011793D02*
G01*
X100024670Y-50020030D01*
X100032907Y-50032358D01*
X100035800Y-50046900D01*
X100035800Y-50996900D01*
X100032907Y-51011442D01*
X100024670Y-51023770D01*
X100012342Y-51032007D01*
X99997800Y-51034900D01*
X99747800Y-51034900D01*
X99733258Y-51032007D01*
X99720930Y-51023770D01*
X99712693Y-51011442D01*
X99709800Y-50996900D01*
X99709800Y-50046900D01*
X99712693Y-50032358D01*
X99720930Y-50020030D01*
X99733258Y-50011793D01*
X99747800Y-50008900D01*
X99997800Y-50008900D01*
X100012342Y-50011793D01*
G37*
G36*
X100512342Y-50011793D02*
G01*
X100524670Y-50020030D01*
X100532907Y-50032358D01*
X100535800Y-50046900D01*
X100535800Y-50996900D01*
X100532907Y-51011442D01*
X100524670Y-51023770D01*
X100512342Y-51032007D01*
X100497800Y-51034900D01*
X100247800Y-51034900D01*
X100233258Y-51032007D01*
X100220930Y-51023770D01*
X100212693Y-51011442D01*
X100209800Y-50996900D01*
X100209800Y-50046900D01*
X100212693Y-50032358D01*
X100220930Y-50020030D01*
X100233258Y-50011793D01*
X100247800Y-50008900D01*
X100497800Y-50008900D01*
X100512342Y-50011793D01*
G37*
M02*
